<svg width="23" height="24" viewBox="0 0 23 24" fill="none" xmlns="http://www.w3.org/2000/svg">
<path d="M23 19.125C21.8021 19.125 20.7839 18.7057 19.9453 17.8672C19.1068 17.0286 18.6875 16.0104 18.6875 14.8125V8.41113C18.6875 7.61751 18.5378 6.86882 18.2383 6.16504C17.9538 5.44629 17.5495 4.8099 17.0254 4.25586C16.5163 3.68685 15.9098 3.20768 15.2061 2.81836C14.5173 2.42904 13.7611 2.15951 12.9375 2.00977V0.4375H10.0625V2.00977C9.23893 2.15951 8.47526 2.42904 7.77148 2.81836C7.08268 3.20768 6.47624 3.68685 5.95215 4.25586C5.44303 4.8099 5.03874 5.44629 4.73926 6.16504C4.45475 6.86882 4.3125 7.61751 4.3125 8.41113V14.8125C4.3125 16.0104 3.89323 17.0286 3.05469 17.8672C2.21615 18.7057 1.19792 19.125 0 19.125V20.5625H9.6582C9.59831 20.6973 9.5459 20.832 9.50098 20.9668C9.47103 21.1016 9.45605 21.2438 9.45605 21.3936C9.45605 21.9626 9.6582 22.4417 10.0625 22.8311C10.4668 23.2354 10.946 23.4375 11.5 23.4375C12.054 23.4375 12.5332 23.2354 12.9375 22.8311C13.3418 22.4417 13.5439 21.9626 13.5439 21.3936C13.5439 21.2438 13.5215 21.1016 13.4766 20.9668C13.4466 20.832 13.4017 20.6973 13.3418 20.5625H23V19.125ZM22.2588 9.0625C22.0641 9.0625 21.8994 9.0026 21.7646 8.88281C21.6299 8.74805 21.555 8.58333 21.54 8.38867C21.4951 7.74479 21.3903 7.11589 21.2256 6.50195C21.0758 5.88802 20.8662 5.29655 20.5967 4.72754C20.3271 4.15853 19.9977 3.61947 19.6084 3.11035C19.234 2.60124 18.8148 2.12207 18.3506 1.67285C18.2008 1.53809 18.1185 1.37337 18.1035 1.17871C18.1035 0.984049 18.1709 0.811849 18.3057 0.662109C18.4404 0.527344 18.6051 0.459961 18.7998 0.459961C18.9945 0.444987 19.1667 0.504883 19.3164 0.639648C19.8555 1.13379 20.3421 1.67285 20.7764 2.25684C21.2106 2.84082 21.5775 3.46224 21.877 4.12109C22.1914 4.76497 22.4385 5.4388 22.6182 6.14258C22.8128 6.84635 22.9326 7.5651 22.9775 8.29883C22.9925 8.49349 22.9326 8.66569 22.7979 8.81543C22.6631 8.96517 22.4984 9.04753 22.3037 9.0625C22.3037 9.0625 22.2962 9.0625 22.2812 9.0625C22.2663 9.0625 22.2588 9.0625 22.2588 9.0625ZM0.741211 9.0625C0.741211 9.0625 0.733724 9.0625 0.71875 9.0625C0.703776 9.0625 0.696289 9.0625 0.696289 9.0625C0.501628 9.04753 0.336914 8.96517 0.202148 8.81543C0.0673828 8.66569 0.00748698 8.49349 0.0224609 8.29883C0.0673828 7.5651 0.179688 6.84635 0.359375 6.14258C0.554036 5.4388 0.801107 4.76497 1.10059 4.12109C1.41504 3.46224 1.78939 2.84082 2.22363 2.25684C2.65788 1.67285 3.14453 1.13379 3.68359 0.639648C3.83333 0.504883 4.00553 0.444987 4.2002 0.459961C4.39486 0.459961 4.55957 0.527344 4.69434 0.662109C4.8291 0.811849 4.889 0.984049 4.87402 1.17871C4.87402 1.37337 4.79915 1.53809 4.64941 1.67285C4.18522 2.12207 3.75846 2.60124 3.36914 3.11035C2.99479 3.61947 2.67285 4.15853 2.40332 4.72754C2.13379 5.29655 1.91667 5.88802 1.75195 6.50195C1.60221 7.11589 1.50488 7.74479 1.45996 8.38867C1.44499 8.58333 1.37012 8.74805 1.23535 8.88281C1.10059 9.0026 0.935872 9.0625 0.741211 9.0625Z" fill="white"/>
<circle cx="18.5" cy="4.5" r="4.5" fill="#FF0000"/>
</svg>
