<svg width="13" height="13" viewBox="0 0 13 13" fill="none" xmlns="http://www.w3.org/2000/svg">
<path d="M9.20415 8.25C9.39165 8.0625 9.65337 8.03906 9.9893 8.17969C10.3252 8.32031 10.6573 8.53125 10.9854 8.8125C11.3135 9.09375 11.5987 9.39844 11.8409 9.72656C12.0831 10.0547 12.2041 10.3125 12.2041 10.5C12.2041 10.6875 12.087 10.9102 11.8526 11.168C11.6182 11.4258 11.3604 11.6719 11.0791 11.9062C10.7979 12.1406 10.5401 12.3398 10.3057 12.5039C10.0713 12.668 9.95415 12.75 9.95415 12.75C9.57915 12.75 9.12212 12.6602 8.58305 12.4805C8.0518 12.3086 7.50102 12.082 6.93071 11.8008C6.36821 11.5117 5.82133 11.1914 5.29008 10.8398C4.76665 10.4805 4.32133 10.1172 3.95415 9.75C3.58696 9.38281 3.22368 8.9375 2.8643 8.41406C2.51274 7.88281 2.19243 7.33594 1.90337 6.77344C1.62212 6.20312 1.39165 5.65234 1.21196 5.12109C1.04008 4.58203 0.954147 4.125 0.954147 3.75C0.954147 3.75 1.03618 3.63281 1.20024 3.39844C1.3643 3.16406 1.56352 2.90625 1.7979 2.625C2.03227 2.34375 2.27837 2.08594 2.53618 1.85156C2.79399 1.61719 3.01665 1.5 3.20415 1.5C3.39165 1.5 3.64946 1.62109 3.97758 1.86328C4.30571 2.10547 4.6104 2.39062 4.89165 2.71875C5.1729 3.04688 5.38383 3.37891 5.52446 3.71484C5.66508 4.05078 5.64165 4.3125 5.45415 4.5C5.07915 4.875 4.7354 5.125 4.4229 5.25C4.1104 5.375 3.95415 5.625 3.95415 6C3.95415 6.375 4.1104 6.75 4.4229 7.125C4.7354 7.5 5.07915 7.875 5.45415 8.25C5.82915 8.625 6.20415 8.96875 6.57915 9.28125C6.95415 9.59375 7.32915 9.75 7.70415 9.75C8.07915 9.75 8.32915 9.59375 8.45415 9.28125C8.57915 8.96875 8.82915 8.625 9.20415 8.25ZM9.57915 6.75C9.47758 6.75 9.38774 6.71484 9.30962 6.64453C9.2393 6.56641 9.20415 6.47656 9.20415 6.375C9.20415 5.85938 9.02055 5.41797 8.65337 5.05078C8.28618 4.68359 7.84477 4.5 7.32915 4.5C7.22758 4.5 7.13774 4.46484 7.05962 4.39453C6.9893 4.31641 6.95415 4.22656 6.95415 4.125C6.95415 4.02344 6.9893 3.9375 7.05962 3.86719C7.13774 3.78906 7.22758 3.75 7.32915 3.75C7.68852 3.75 8.02837 3.82031 8.34868 3.96094C8.66899 4.09375 8.94633 4.28125 9.18071 4.52344C9.4229 4.75781 9.6104 5.03516 9.74321 5.35547C9.88383 5.67578 9.95415 6.01562 9.95415 6.375C9.95415 6.47656 9.91508 6.56641 9.83696 6.64453C9.76665 6.71484 9.68071 6.75 9.57915 6.75ZM11.0791 6.75C10.9776 6.75 10.8877 6.71484 10.8096 6.64453C10.7393 6.56641 10.7041 6.47656 10.7041 6.375C10.7041 5.90625 10.6143 5.46875 10.4346 5.0625C10.2627 4.65625 10.0206 4.30078 9.70805 3.99609C9.40337 3.68359 9.0479 3.44141 8.64165 3.26953C8.2354 3.08984 7.7979 3 7.32915 3C7.22758 3 7.13774 2.96484 7.05962 2.89453C6.9893 2.81641 6.95415 2.72656 6.95415 2.625C6.95415 2.52344 6.9893 2.4375 7.05962 2.36719C7.13774 2.28906 7.22758 2.25 7.32915 2.25C7.89946 2.25 8.43462 2.35938 8.93462 2.57812C9.43462 2.78906 9.87212 3.08203 10.2471 3.45703C10.6221 3.83203 10.9151 4.26953 11.126 4.76953C11.3448 5.26953 11.4541 5.80469 11.4541 6.375C11.4541 6.47656 11.4151 6.56641 11.337 6.64453C11.2666 6.71484 11.1807 6.75 11.0791 6.75ZM12.5791 6.75C12.4776 6.75 12.3877 6.71484 12.3096 6.64453C12.2393 6.56641 12.2041 6.47656 12.2041 6.375C12.2041 5.70312 12.0752 5.07031 11.8174 4.47656C11.5674 3.88281 11.2198 3.36719 10.7745 2.92969C10.337 2.48438 9.82133 2.13672 9.22758 1.88672C8.63383 1.62891 8.00102 1.5 7.32915 1.5C7.22758 1.5 7.13774 1.46484 7.05962 1.39453C6.9893 1.31641 6.95415 1.22656 6.95415 1.125C6.95415 1.02344 6.9893 0.9375 7.05962 0.867188C7.13774 0.789063 7.22758 0.75 7.32915 0.75C7.70415 0.75 8.07133 0.785156 8.43071 0.855469C8.7979 0.925781 9.14946 1.03125 9.4854 1.17188C9.82133 1.3125 10.1416 1.48828 10.4463 1.69922C10.751 1.90234 11.0362 2.13672 11.3018 2.40234C11.5674 2.66797 11.8018 2.95312 12.0049 3.25781C12.2159 3.5625 12.3916 3.88281 12.5323 4.21875C12.6729 4.55469 12.7784 4.90625 12.8487 5.27344C12.919 5.63281 12.9541 6 12.9541 6.375C12.9541 6.47656 12.9151 6.56641 12.837 6.64453C12.7666 6.71484 12.6807 6.75 12.5791 6.75Z" fill="#39B2BA"/>
</svg>
