<svg width="10" height="9" viewBox="0 0 10 9" fill="none" xmlns="http://www.w3.org/2000/svg">
<path d="M9.5244 0.262695C8.74315 0.848633 7.98632 1.46875 7.2539 2.12305C6.52147 2.76758 5.86718 3.36328 5.29101 3.91016C4.7246 4.44727 4.2705 4.89648 3.9287 5.25781C3.5869 5.60938 3.41601 5.78516 3.41601 5.78516L1.26268 3.83691L0.354482 4.75977C0.579091 4.96484 0.862294 5.24316 1.20409 5.59473C1.54589 5.94629 1.89257 6.3125 2.24413 6.69336C2.59569 7.06445 2.92772 7.42578 3.24022 7.77734C3.56249 8.12891 3.81151 8.40723 3.98729 8.6123C4.47558 7.80176 4.96874 7.03516 5.46679 6.3125C5.96483 5.58984 6.46288 4.90625 6.96093 4.26172C7.45897 3.61719 7.95214 3.00195 8.44042 2.41602C8.93847 1.82031 9.42675 1.24414 9.90526 0.6875L9.5244 0.262695Z" fill="#2DA9A1"/>
</svg>
