<svg width="72" height="67" viewBox="0 0 72 67" fill="none" xmlns="http://www.w3.org/2000/svg">
<mask id="mask0_375_630" style="mask-type:alpha" maskUnits="userSpaceOnUse" x="0" y="1" width="66" height="66">
<circle cx="32.7185" cy="33.7185" r="32.7185" fill="white"/>
</mask>
<g mask="url(#mask0_375_630)">
<rect x="32.7186" y="1" width="38.7775" height="32.7185" fill="url(#paint0_linear_375_630)"/>
<path d="M49.565 11.2007L52.3458 7.38111L51.8232 7.00043L49.0423 10.8265L49.565 11.2007Z" fill="white"/>
<path d="M59.4625 25.1502L63.9789 23.692L63.7789 23.0468L59.2625 24.5114C59.327 24.7437 59.3979 24.9501 59.4625 25.1502Z" fill="white"/>
<path d="M55.6106 17.4012L59.4367 14.6203L59.0624 14.0977L55.2364 16.8721C55.3654 17.0463 55.488 17.2205 55.6106 17.4012Z" fill="white"/>
<path d="M41.8934 7.18109L43.3581 2.66463L42.7451 2.47107L41.2869 6.98753L41.8934 7.18109Z" fill="white"/>
<path d="M60.7013 33.0733C60.7013 33.183 60.7013 33.2927 60.7013 33.3959C60.7013 33.4992 60.7013 33.6153 60.7013 33.7185H65.4178V33.0733H60.7013Z" fill="white"/>
<path d="M33.0412 5.72937H33.3638V0.974182H32.7186V5.71001L33.0412 5.72937Z" fill="white"/>
</g>
<defs>
<linearGradient id="paint0_linear_375_630" x1="52.1073" y1="1" x2="52.1073" y2="33.7185" gradientUnits="userSpaceOnUse">
<stop stop-color="#D7D7D7"/>
<stop offset="1" stop-color="#D7D7D7" stop-opacity="0.5"/>
</linearGradient>
</defs>
</svg>
