<svg width="168" height="168" viewBox="0 0 168 168" fill="none" xmlns="http://www.w3.org/2000/svg">
<g filter="url(#filter0_d_143_1397)">
<path d="M84.4897 0C68.7632 5.23672e-07 53.3899 4.66372 40.3141 13.4013C27.2382 22.1389 17.0472 34.5579 11.0299 49.0877C5.01253 63.6175 3.43915 79.6054 6.50873 95.0295C9.57832 110.454 17.153 124.621 28.2747 135.74C39.3965 146.859 53.5658 154.43 68.9906 157.495C84.4155 160.561 100.403 158.983 114.931 152.962C129.459 146.941 141.876 136.747 150.61 123.669C159.344 110.591 164.004 95.2163 164 79.4897C163.973 58.4125 155.587 38.2067 140.681 23.3048C125.775 8.40283 105.567 0.0217172 84.4897 0ZM131.909 106.862L144.753 110.309L147.4 105.713V115.911L138.659 120.958L141.306 116.362L131.909 106.862ZM30.3407 120.876L21.5997 115.911V105.651L24.2671 110.247L37.1119 106.8L27.6938 116.218L30.3407 120.876ZM37.0708 52.1177L24.2466 48.6706L21.5792 53.2668V43.1715L30.3407 38.1239L27.6732 42.7201L37.0708 52.1177ZM138.659 38.1239L147.4 43.1715V53.2668L144.753 48.6706L131.909 52.1177L136.813 47.2137L141.306 42.7201L138.659 38.1239ZM139.254 79.4897L152.079 76.0631V70.7693L157.126 79.5103L152.099 88.2102V82.9369L139.254 79.4897ZM29.7456 79.4897L16.9009 82.9369V88.2308L12.5714 80.7003L11.8738 79.4897L16.9009 70.7693V76.0221L29.7456 79.4897ZM111.821 72.1645L125.261 58.7247L142.455 54.1285L147.4 62.5618V72.3903L130.226 76.9865L111.821 72.1645ZM121.116 79.5103L108.086 83.0805L104.557 79.5718L108.086 75.981L121.116 79.5103ZM106.65 70.7693L101.931 69.4766L103.223 64.6752L116.294 61.146L106.65 70.7693ZM97.9295 92.9296L91.2199 91.1444L89.4142 97.854L84.4897 92.9296L79.5857 97.854L77.7801 91.1444L71.0705 92.9296L72.8761 86.2199L66.1665 84.4348L71.0705 79.5103L66.1459 74.6063L72.8761 72.8006L71.1525 66.0705L77.8622 67.8761L79.5447 61.0434L84.5718 66.0705L89.4963 61.1665L91.2814 67.8556L98.0116 66.0705L96.1239 72.8211L102.834 74.6268L97.9295 79.5308L102.834 84.4553L96.1239 86.2404L97.9295 92.9296ZM99.3248 98.1413L102.813 111.253L93.2307 101.671L94.5234 96.8692L99.3248 98.1413ZM75.7692 101.671L66.1665 111.253L69.6752 98.1618L74.4766 96.8692L75.7692 101.671ZM69.6136 60.8792L66.1049 47.7677L75.7077 57.35L74.415 62.1514L69.6136 60.8792ZM93.1692 57.35L102.772 47.7677L99.2632 60.8587L94.4619 62.1514L93.1692 57.35ZM91.7739 52.1382L86.9109 33.8355L91.5277 16.6407H101.356L109.871 21.5652L105.255 38.7395L91.7739 52.1382ZM87.9574 55.9547L84.4282 59.4634L80.9195 55.9547L84.4282 42.8432L87.9574 55.9547ZM77.103 52.1382L63.6837 38.7189L59.1285 21.5242L67.6028 16.6407H77.4723L82.0685 33.8355L77.103 52.1382ZM67.0488 69.4766L62.3294 70.7693L52.6856 61.1665L65.8176 64.6752L67.0488 69.4766ZM64.3813 79.4897L60.8931 83.0805L47.8021 79.5718L60.8931 75.981L64.3813 79.4897ZM57.0356 72.144L38.7123 77.0685L21.4971 72.4518V62.6849L26.4216 54.1285L43.6163 58.7453L57.0356 72.144ZM38.6918 81.911L48.9512 84.64L57.1587 86.8355L43.7394 100.255L26.5447 104.871L21.6202 96.3357V86.5277L38.6918 81.911ZM62.2679 88.2308L67.0488 89.5029L65.7766 94.3248L52.6856 97.8335L62.2679 88.2308ZM77.0825 106.862L78.1084 110.678L81.9864 125.206L77.3902 142.4H67.5617L59.0465 137.496L63.6426 120.302L77.0825 106.862ZM80.8989 103.045L84.4897 99.4956L88.019 103.004L84.4897 116.116L80.8989 103.045ZM91.7534 106.882L105.152 120.281L109.789 137.496L101.315 142.38H91.4456L86.8494 125.185L91.7534 106.882ZM101.931 89.5234L106.732 88.2308L116.335 97.8335L103.223 94.3043L101.931 89.5234ZM111.964 86.8355L130.267 81.9315L147.503 86.5277V96.3151L142.599 104.851L125.404 100.255L111.964 86.8355ZM152.161 61.3922V46.1467C156.581 55.0645 159.176 64.775 159.794 74.7089L152.161 61.3922ZM122.962 54.5389L104.619 59.4429L109.523 41.1401L122.121 28.5211L130.595 33.4046L135.458 42.043L122.962 54.5389ZM121.362 22.6732L111.964 32.0709L115.391 19.2466L110.815 16.5792H120.89L125.917 25.2791L121.362 22.6732ZM102.69 11.9009L89.4553 4.26791C99.3909 4.89008 109.102 7.49224 118.017 11.9214L102.69 11.9009ZM88.019 11.9009L84.5718 24.7456L81.1452 11.9009H75.8308L84.5718 6.85327L93.3333 11.9009H88.019ZM66.4537 11.9009H51.1467C60.0607 7.49024 69.7626 4.89562 79.6883 4.26791L66.4537 11.9009ZM48.2741 16.5792H58.3283L53.7526 19.2056L57.1997 32.0503L47.8021 22.6527L43.2265 25.2996L48.2741 16.5792ZM47.043 28.5211L59.621 41.0991L64.5455 59.4634L46.2017 54.5389L33.5211 42.043L38.4456 33.5072L47.043 28.5211ZM16.983 61.3512L9.34998 74.5858C9.96004 64.6998 12.5266 55.0333 16.9009 46.1467L16.983 61.3512ZM16.983 97.5463V112.874C12.5697 103.953 9.975 94.2443 9.34998 84.3117L16.983 97.5463ZM46.2017 104.4L64.525 99.4956L59.5389 117.962L46.9404 130.561L38.4866 125.678L33.5211 117.142L46.2017 104.4ZM47.8021 136.265L57.1997 126.868L53.7526 139.712L58.3488 142.359H48.1715L43.1649 133.639L47.8021 136.265ZM66.4537 147.038L79.6883 154.671C69.7626 154.043 60.0607 151.448 51.1467 147.038H66.4537ZM81.1452 147.038L84.5718 134.213L88.019 147.038H93.3333L84.5718 152.085L75.8308 147.038H81.1452ZM102.69 147.038H118.017C109.103 151.448 99.4015 154.043 89.4758 154.671L102.69 147.038ZM120.89 142.359H110.836L115.391 139.733L113.339 132.161L111.944 126.888L121.321 136.286L125.917 133.639L120.89 142.359ZM122.121 130.417L109.461 117.962L106.712 107.703L104.537 99.4956L122.88 104.4L135.458 116.998L130.534 125.513L122.121 130.417ZM152.161 97.5873L154.828 92.9911L159.794 84.3732C159.176 94.3005 156.581 104.004 152.161 112.915V97.5873ZM147.318 37.6725L134.043 29.9985L126.389 16.7433C134.638 22.2911 141.721 29.4015 147.236 37.6725H147.318ZM42.6725 16.7433L34.9984 29.9985L21.7433 37.6725C27.2775 29.3824 34.3975 22.2694 42.693 16.7433H42.6725ZM21.7433 121.389L34.9984 129.043L42.6519 142.298C34.3768 136.751 27.2783 129.624 21.7638 121.328L21.7433 121.389ZM126.286 142.298L133.94 129.043L147.216 121.369C141.68 129.626 134.576 136.716 126.307 142.236L126.286 142.298Z" fill="url(#paint0_linear_143_1397)"/>
</g>
<defs>
<filter id="filter0_d_143_1397" x="0.979431" y="0" width="167.021" height="167.021" filterUnits="userSpaceOnUse" color-interpolation-filters="sRGB">
<feFlood flood-opacity="0" result="BackgroundImageFix"/>
<feColorMatrix in="SourceAlpha" type="matrix" values="0 0 0 0 0 0 0 0 0 0 0 0 0 0 0 0 0 0 127 0" result="hardAlpha"/>
<feOffset dy="4"/>
<feGaussianBlur stdDeviation="2"/>
<feComposite in2="hardAlpha" operator="out"/>
<feColorMatrix type="matrix" values="0 0 0 0 0 0 0 0 0 0 0 0 0 0 0 0 0 0 0.25 0"/>
<feBlend mode="normal" in2="BackgroundImageFix" result="effect1_dropShadow_143_1397"/>
<feBlend mode="normal" in="SourceGraphic" in2="effect1_dropShadow_143_1397" result="shape"/>
</filter>
<linearGradient id="paint0_linear_143_1397" x1="4.97943" y1="9.67019" x2="168.969" y2="17.3568" gradientUnits="userSpaceOnUse">
<stop stop-color="#EFEB81"/>
<stop offset="0.171875" stop-color="#D8AE43"/>
<stop offset="0.458333" stop-color="#F2EE82"/>
<stop offset="0.53125" stop-color="#F2EE82"/>
<stop offset="0.666667" stop-color="#F1EB80"/>
<stop offset="0.854167" stop-color="#989326"/>
<stop offset="1" stop-color="#DBD208"/>
</linearGradient>
</defs>
</svg>
