<svg width="58" height="35" viewBox="0 0 58 35" fill="none" xmlns="http://www.w3.org/2000/svg">
<path d="M0.929688 27.2734H3.21875C3.67188 27.2734 4.00911 27.293 4.23047 27.332C4.45443 27.3685 4.65365 27.4466 4.82812 27.5664C5.00521 27.6862 5.15234 27.8464 5.26953 28.0469C5.38672 28.2448 5.44531 28.4674 5.44531 28.7148C5.44531 28.9831 5.3724 29.2292 5.22656 29.4531C5.08333 29.6771 4.88802 29.8451 4.64062 29.957C4.98958 30.0586 5.25781 30.2318 5.44531 30.4766C5.63281 30.7214 5.72656 31.0091 5.72656 31.3398C5.72656 31.6003 5.66536 31.8542 5.54297 32.1016C5.42318 32.3464 5.25781 32.543 5.04688 32.6914C4.83854 32.8372 4.58073 32.9271 4.27344 32.9609C4.08073 32.9818 3.61589 32.9948 2.87891 33H0.929688V27.2734ZM2.08594 28.2266V29.5508H2.84375C3.29427 29.5508 3.57422 29.5443 3.68359 29.5312C3.88151 29.5078 4.03646 29.4401 4.14844 29.3281C4.26302 29.2135 4.32031 29.0638 4.32031 28.8789C4.32031 28.7018 4.27083 28.5586 4.17188 28.4492C4.07552 28.3372 3.93099 28.2695 3.73828 28.2461C3.6237 28.2331 3.29427 28.2266 2.75 28.2266H2.08594ZM2.08594 30.5039V32.0352H3.15625C3.57292 32.0352 3.83724 32.0234 3.94922 32C4.12109 31.9688 4.26042 31.8932 4.36719 31.7734C4.47656 31.651 4.53125 31.4883 4.53125 31.2852C4.53125 31.1133 4.48958 30.9674 4.40625 30.8477C4.32292 30.7279 4.20182 30.6406 4.04297 30.5859C3.88672 30.5312 3.54557 30.5039 3.01953 30.5039H2.08594ZM6.44531 30.8672C6.44531 30.5026 6.53516 30.1497 6.71484 29.8086C6.89453 29.4674 7.14844 29.207 7.47656 29.0273C7.80729 28.8477 8.17578 28.7578 8.58203 28.7578C9.20964 28.7578 9.72396 28.9622 10.125 29.3711C10.526 29.7773 10.7266 30.2917 10.7266 30.9141C10.7266 31.5417 10.5234 32.0625 10.1172 32.4766C9.71354 32.888 9.20443 33.0938 8.58984 33.0938C8.20964 33.0938 7.84635 33.0078 7.5 32.8359C7.15625 32.6641 6.89453 32.4128 6.71484 32.082C6.53516 31.7487 6.44531 31.3438 6.44531 30.8672ZM7.57031 30.9258C7.57031 31.3372 7.66797 31.6523 7.86328 31.8711C8.05859 32.0898 8.29948 32.1992 8.58594 32.1992C8.8724 32.1992 9.11198 32.0898 9.30469 31.8711C9.5 31.6523 9.59766 31.3346 9.59766 30.918C9.59766 30.5117 9.5 30.1992 9.30469 29.9805C9.11198 29.7617 8.8724 29.6523 8.58594 29.6523C8.29948 29.6523 8.05859 29.7617 7.86328 29.9805C7.66797 30.1992 7.57031 30.5143 7.57031 30.9258ZM11.5469 28.8516H15.2305V33H14.1328V29.7383H12.6445V33H11.5469V28.8516ZM16.3945 28.8516H17.418V29.4609C17.5508 29.2526 17.7305 29.0833 17.957 28.9531C18.1836 28.8229 18.4349 28.7578 18.7109 28.7578C19.1927 28.7578 19.6016 28.9466 19.9375 29.3242C20.2734 29.7018 20.4414 30.2279 20.4414 30.9023C20.4414 31.5951 20.2721 32.1341 19.9336 32.5195C19.5951 32.9023 19.1849 33.0938 18.7031 33.0938C18.474 33.0938 18.2656 33.0482 18.0781 32.957C17.8932 32.8659 17.6979 32.7096 17.4922 32.4883V34.5781H16.3945V28.8516ZM17.4805 30.8555C17.4805 31.3216 17.5729 31.6667 17.7578 31.8906C17.9427 32.112 18.168 32.2227 18.4336 32.2227C18.6888 32.2227 18.901 32.1211 19.0703 31.918C19.2396 31.7122 19.3242 31.3763 19.3242 30.9102C19.3242 30.4753 19.237 30.1523 19.0625 29.9414C18.888 29.7305 18.6719 29.625 18.4141 29.625C18.1458 29.625 17.9232 29.7292 17.7461 29.9375C17.569 30.1432 17.4805 30.4492 17.4805 30.8555ZM21.0625 30.8672C21.0625 30.5026 21.1523 30.1497 21.332 29.8086C21.5117 29.4674 21.7656 29.207 22.0938 29.0273C22.4245 28.8477 22.793 28.7578 23.1992 28.7578C23.8268 28.7578 24.3411 28.9622 24.7422 29.3711C25.1432 29.7773 25.3438 30.2917 25.3438 30.9141C25.3438 31.5417 25.1406 32.0625 24.7344 32.4766C24.3307 32.888 23.8216 33.0938 23.207 33.0938C22.8268 33.0938 22.4635 33.0078 22.1172 32.8359C21.7734 32.6641 21.5117 32.4128 21.332 32.082C21.1523 31.7487 21.0625 31.3438 21.0625 30.8672ZM22.1875 30.9258C22.1875 31.3372 22.2852 31.6523 22.4805 31.8711C22.6758 32.0898 22.9167 32.1992 23.2031 32.1992C23.4896 32.1992 23.7292 32.0898 23.9219 31.8711C24.1172 31.6523 24.2148 31.3346 24.2148 30.918C24.2148 30.5117 24.1172 30.1992 23.9219 29.9805C23.7292 29.7617 23.4896 29.6523 23.2031 29.6523C22.9167 29.6523 22.6758 29.7617 22.4805 29.9805C22.2852 30.1992 22.1875 30.5143 22.1875 30.9258ZM29.7148 30.0781L28.6328 30.2734C28.5964 30.0573 28.513 29.8945 28.3828 29.7852C28.2552 29.6758 28.0885 29.6211 27.8828 29.6211C27.6094 29.6211 27.3906 29.7161 27.2266 29.9062C27.0651 30.0938 26.9844 30.4089 26.9844 30.8516C26.9844 31.3438 27.0664 31.6914 27.2305 31.8945C27.3971 32.0977 27.6198 32.1992 27.8984 32.1992C28.1068 32.1992 28.2773 32.1406 28.4102 32.0234C28.543 31.9036 28.6367 31.6992 28.6914 31.4102L29.7695 31.5938C29.6576 32.0885 29.4427 32.4622 29.125 32.7148C28.8073 32.9674 28.3815 33.0938 27.8477 33.0938C27.2409 33.0938 26.7565 32.9023 26.3945 32.5195C26.0352 32.1367 25.8555 31.6068 25.8555 30.9297C25.8555 30.2448 26.0365 29.7122 26.3984 29.332C26.7604 28.9492 27.25 28.7578 27.8672 28.7578C28.3724 28.7578 28.7734 28.8672 29.0703 29.0859C29.3698 29.3021 29.5846 29.6328 29.7148 30.0781ZM32.75 28.8516H33.8047V31.457L35.4922 28.8516H36.5703V33H35.5156V30.3477L33.8047 33H32.75V28.8516ZM37.7305 28.8516H39.0898L40.1211 31.7422L41.1602 28.8516H42.5156V33H41.582V30.2695L40.5703 33H39.6328L38.668 30.2695V33H37.7305V28.8516ZM44.332 30.1172L43.3359 29.9375C43.4479 29.5365 43.6406 29.2396 43.9141 29.0469C44.1875 28.8542 44.5938 28.7578 45.1328 28.7578C45.6224 28.7578 45.987 28.8164 46.2266 28.9336C46.4661 29.0482 46.6341 29.1953 46.7305 29.375C46.8294 29.5521 46.8789 29.8789 46.8789 30.3555L46.8672 31.6367C46.8672 32.0013 46.8841 32.2708 46.918 32.4453C46.9544 32.6172 47.0208 32.8021 47.1172 33H46.0312C46.0026 32.9271 45.9674 32.819 45.9258 32.6758C45.9076 32.6107 45.8945 32.5677 45.8867 32.5469C45.6992 32.7292 45.4987 32.8659 45.2852 32.957C45.0716 33.0482 44.8438 33.0938 44.6016 33.0938C44.1745 33.0938 43.8372 32.9779 43.5898 32.7461C43.3451 32.5143 43.2227 32.2214 43.2227 31.8672C43.2227 31.6328 43.2786 31.4245 43.3906 31.2422C43.5026 31.0573 43.6589 30.9167 43.8594 30.8203C44.0625 30.7214 44.3542 30.6354 44.7344 30.5625C45.2474 30.4661 45.6029 30.3763 45.8008 30.293V30.1836C45.8008 29.9727 45.7487 29.8229 45.6445 29.7344C45.5404 29.6432 45.3438 29.5977 45.0547 29.5977C44.8594 29.5977 44.707 29.6367 44.5977 29.7148C44.4883 29.7904 44.3997 29.9245 44.332 30.1172ZM45.8008 31.0078C45.6602 31.0547 45.4375 31.1107 45.1328 31.1758C44.8281 31.2409 44.6289 31.3047 44.5352 31.3672C44.3919 31.4688 44.3203 31.5977 44.3203 31.7539C44.3203 31.9076 44.3776 32.0404 44.4922 32.1523C44.6068 32.2643 44.7526 32.3203 44.9297 32.3203C45.1276 32.3203 45.3164 32.2552 45.4961 32.125C45.6289 32.026 45.7161 31.9049 45.7578 31.7617C45.7865 31.668 45.8008 31.4896 45.8008 31.2266V31.0078ZM47.9961 28.8516H49.3555L50.3867 31.7422L51.4258 28.8516H52.7812V33H51.8477V30.2695L50.8359 33H49.8984L48.9336 30.2695V33H47.9961V28.8516ZM53.2578 28.8516H54.4258L55.418 31.7969L56.3867 28.8516H57.5234L56.0586 32.8438L55.7969 33.5664C55.7005 33.8086 55.6081 33.9935 55.5195 34.1211C55.4336 34.2487 55.3333 34.3516 55.2188 34.4297C55.1068 34.5104 54.9674 34.5729 54.8008 34.6172C54.6367 34.6615 54.4505 34.6836 54.2422 34.6836C54.0312 34.6836 53.8242 34.6615 53.6211 34.6172L53.5234 33.7578C53.6953 33.7917 53.8503 33.8086 53.9883 33.8086C54.2435 33.8086 54.4323 33.7331 54.5547 33.582C54.6771 33.4336 54.7708 33.2435 54.8359 33.0117L53.2578 28.8516Z" fill="black"/>
<path d="M27.44 3.47782L27.884 4.87741H29.3197L28.1578 5.74394L28.6018 7.14352L27.44 6.27699L26.2756 7.14352L26.7197 5.74394L25.5578 4.87741H26.996L27.44 3.47782ZM27.6127 9.61427C26.7424 9.61648 25.8927 9.34364 25.1795 8.83298C24.4663 8.32232 23.9243 7.59872 23.6275 6.76093C23.3308 5.92313 23.2936 5.01196 23.5212 4.15175C23.7488 3.29154 24.23 2.5242 24.8992 1.95445C24.3094 2.15414 23.7699 2.48453 23.319 2.9221C22.8682 3.35966 22.517 3.89365 22.2907 4.48603C22.0643 5.07841 21.9682 5.71463 22.0092 6.34937C22.0503 6.98412 22.2275 7.60179 22.5282 8.15841C22.8289 8.71503 23.2458 9.19691 23.7491 9.56974C24.2524 9.94257 24.8297 10.1972 25.44 10.3154C26.0504 10.4337 26.6786 10.4127 27.2801 10.254C27.8816 10.0952 28.4416 9.80263 28.9201 9.397C28.4982 9.53989 28.0569 9.61323 27.6127 9.61427ZM27.7903 21.392C28.1318 21.392 28.4656 21.2883 28.7496 21.094C29.0336 20.8996 29.2549 20.6235 29.3856 20.3003C29.5163 19.9772 29.5505 19.6216 29.4838 19.2786C29.4172 18.9355 29.2528 18.6204 29.0113 18.3731C28.7698 18.1258 28.4621 17.9574 28.1271 17.8891C27.7922 17.8209 27.445 17.8559 27.1295 17.9897C26.8139 18.1236 26.5443 18.3503 26.3545 18.6411C26.1648 18.9319 26.0635 19.2738 26.0635 19.6236C26.0635 20.0913 26.2444 20.5399 26.5666 20.8714C26.8889 21.2028 27.3262 21.39 27.7829 21.392H27.7903ZM32.7584 1.77003C31.3903 0.592403 29.651 -0.036058 27.8643 0.00159929C26.0553 0.00159929 24.604 0.561601 23.5104 1.6816C23.3458 1.85172 23.191 2.03138 23.0466 2.21971C23.5326 1.79757 24.0939 1.47585 24.6994 1.27234C24.7687 1.24954 24.8411 1.23761 24.914 1.23697C25.0371 1.2373 25.1579 1.27145 25.2638 1.33589C25.3697 1.40032 25.4567 1.49266 25.5159 1.60329C25.5689 1.70094 25.5982 1.81026 25.6012 1.92197C25.6042 2.03368 25.5809 2.14448 25.5331 2.24498C26.2791 1.83844 27.1159 1.63898 27.9605 1.66645C28.4618 1.65282 28.959 1.76274 29.4102 1.98696C29.8613 2.21118 30.2533 2.54313 30.5531 2.95487C31.2001 3.78321 31.5485 4.8146 31.5398 5.8753C31.5364 6.80279 31.3545 7.72049 31.0045 8.57595C30.6493 9.46774 28.2664 11.5141 27.6719 12.517C27.1571 13.3403 26.8801 14.2957 26.8726 15.2732C26.8726 16.0817 26.9293 16.6021 27.0379 16.832C27.0936 16.9456 27.1817 17.0393 27.2905 17.1006C27.3993 17.1619 27.5236 17.1881 27.6472 17.1756C28.2047 17.1756 28.4834 16.6821 28.4834 15.6951C28.4834 15.0762 28.7918 14.0656 29.1717 13.6741C30.1584 12.6206 31.9296 11.5924 32.5512 10.9861C33.1854 10.3655 33.7206 9.64684 34.1374 8.85637C34.7431 7.69474 34.935 6.35338 34.6803 5.0626C34.4255 3.77181 33.7399 2.61213 32.7411 1.78266L32.7584 1.77003Z" fill="black"/>
<path d="M28.0419 17.3499C28.2173 17.3924 28.4 17.3928 28.5756 17.3512C28.7513 17.3096 28.9152 17.227 29.0546 17.1099C29.194 16.9928 29.3051 16.8444 29.3793 16.6761C29.4535 16.5078 29.4889 16.3243 29.4825 16.1398C29.4825 15.5966 29.7736 14.72 30.0499 14.4345C30.727 13.7962 31.4566 13.2189 32.2305 12.709C32.6849 12.4087 33.12 12.0787 33.533 11.7212C34.2214 11.055 34.804 10.2827 35.2598 9.43237C35.7533 8.5234 36.0083 7.4989 35.9998 6.45889C35.9998 4.5313 35.2252 2.8993 33.6983 1.6134C32.8408 0.881172 31.8422 0.342295 30.7677 0.0319154C31.5472 0.326588 32.2728 0.753615 32.9138 1.29508C33.1403 1.48537 33.3545 1.69043 33.5552 1.90898C34.5035 2.75865 35.1404 3.91423 35.3606 5.18477C35.5808 6.4553 35.3712 7.76477 34.7664 8.89679C34.3333 9.70103 33.7798 10.4307 33.126 11.0593C32.4821 11.6732 30.6592 12.7166 29.628 13.7878C29.2333 14.1945 28.9176 15.2202 28.9176 15.8492C28.9151 16.8522 28.6191 17.3499 28.0419 17.3499Z" fill="black"/>
<path d="M29.9709 19.5023C29.9709 20.528 29.1396 21.8392 28.1307 21.8392C25.7601 21.8392 25.8316 20.2703 25.7724 19.7373C25.7333 19.9028 25.7126 20.0723 25.7107 20.2425C25.7107 21.5562 26.8233 22.4 28.1159 22.4C29.4085 22.4 30.5506 21.1116 30.5506 19.7979C30.5506 18.7141 29.3172 17.6177 28.3034 17.5242C28.3034 17.5343 29.9709 18.1785 29.9709 19.5023Z" fill="black"/>
</svg>
