<svg width="44" height="35" viewBox="0 0 44 35" fill="none" xmlns="http://www.w3.org/2000/svg">
<path d="M1.07812 27.2736H2.23438V29.7111C2.49219 29.685 2.66667 29.6186 2.75781 29.5118C2.84896 29.4051 2.98958 29.1082 3.17969 28.6212C3.41927 28.0014 3.66016 27.616 3.90234 27.465C4.14193 27.3139 4.52865 27.2384 5.0625 27.2384C5.08854 27.2384 5.14453 27.2371 5.23047 27.2345V28.09L5.06641 28.0861C4.82943 28.0861 4.65625 28.116 4.54688 28.1759C4.4375 28.2332 4.34896 28.3217 4.28125 28.4415C4.21354 28.5613 4.11328 28.8074 3.98047 29.1798C3.91016 29.3777 3.83333 29.5431 3.75 29.6759C3.66927 29.8087 3.52474 29.9337 3.31641 30.0509C3.57422 30.1238 3.78646 30.271 3.95312 30.4923C4.1224 30.7137 4.30729 31.0262 4.50781 31.4298L5.28906 33.0001H3.92969L3.24609 31.5197C3.23568 31.4988 3.21354 31.4585 3.17969 31.3986C3.16667 31.3777 3.11849 31.2879 3.03516 31.129C2.88672 30.8478 2.76432 30.672 2.66797 30.6017C2.57422 30.5314 2.42969 30.4949 2.23438 30.4923V33.0001H1.07812V27.2736ZM6.85547 30.1173L5.85938 29.9376C5.97135 29.5366 6.16406 29.2397 6.4375 29.047C6.71094 28.8543 7.11719 28.7579 7.65625 28.7579C8.14583 28.7579 8.51042 28.8165 8.75 28.9337C8.98958 29.0483 9.15755 29.1954 9.25391 29.3751C9.35286 29.5522 9.40234 29.879 9.40234 30.3556L9.39062 31.6368C9.39062 32.0014 9.40755 32.271 9.44141 32.4454C9.47786 32.6173 9.54427 32.8022 9.64062 33.0001H8.55469C8.52604 32.9272 8.49089 32.8191 8.44922 32.6759C8.43099 32.6108 8.41797 32.5678 8.41016 32.547C8.22266 32.7293 8.02214 32.866 7.80859 32.9572C7.59505 33.0483 7.36719 33.0939 7.125 33.0939C6.69792 33.0939 6.36068 32.978 6.11328 32.7462C5.86849 32.5144 5.74609 32.2215 5.74609 31.8673C5.74609 31.6329 5.80208 31.4246 5.91406 31.2423C6.02604 31.0574 6.18229 30.9168 6.38281 30.8204C6.58594 30.7215 6.8776 30.6355 7.25781 30.5626C7.77083 30.4663 8.1263 30.3764 8.32422 30.2931V30.1837C8.32422 29.9728 8.27214 29.823 8.16797 29.7345C8.0638 29.6434 7.86719 29.5978 7.57812 29.5978C7.38281 29.5978 7.23047 29.6368 7.12109 29.715C7.01172 29.7905 6.92318 29.9246 6.85547 30.1173ZM8.32422 31.0079C8.18359 31.0548 7.96094 31.1108 7.65625 31.1759C7.35156 31.241 7.15234 31.3048 7.05859 31.3673C6.91536 31.4689 6.84375 31.5978 6.84375 31.754C6.84375 31.9077 6.90104 32.0405 7.01562 32.1525C7.13021 32.2644 7.27604 32.3204 7.45312 32.3204C7.65104 32.3204 7.83984 32.2553 8.01953 32.1251C8.15234 32.0262 8.23958 31.9051 8.28125 31.7618C8.3099 31.6681 8.32422 31.4897 8.32422 31.2267V31.0079ZM10.7852 28.8517H14.4609V33.0001H13.3672V29.7423H11.8711V31.6056C11.8711 32.0795 11.8164 32.4129 11.707 32.6056C11.5977 32.7957 11.4766 32.9207 11.3438 32.9806C11.2109 33.0405 10.9974 33.0704 10.7031 33.0704C10.5286 33.0704 10.2982 33.047 10.0117 33.0001V32.1915C10.0352 32.1915 10.0964 32.1941 10.1953 32.1993C10.3099 32.2072 10.3984 32.2111 10.4609 32.2111C10.6094 32.2111 10.7005 32.1629 10.7344 32.0665C10.7682 31.9676 10.7852 31.6954 10.7852 31.2501V28.8517ZM17.8672 31.6798L18.9609 31.8634C18.8203 32.2644 18.5977 32.5704 18.293 32.7814C17.9909 32.9897 17.612 33.0939 17.1562 33.0939C16.4349 33.0939 15.901 32.8582 15.5547 32.3868C15.2812 32.0092 15.1445 31.5327 15.1445 30.9572C15.1445 30.2697 15.3242 29.7319 15.6836 29.3439C16.043 28.9532 16.4974 28.7579 17.0469 28.7579C17.6641 28.7579 18.151 28.9624 18.5078 29.3712C18.8646 29.7775 19.0352 30.4012 19.0195 31.2423H16.2695C16.2773 31.5678 16.3659 31.8217 16.5352 32.004C16.7044 32.1837 16.9154 32.2736 17.168 32.2736C17.3398 32.2736 17.4844 32.2267 17.6016 32.1329C17.7188 32.0392 17.8073 31.8881 17.8672 31.6798ZM17.9297 30.5704C17.9219 30.2527 17.8398 30.0118 17.6836 29.8478C17.5273 29.6811 17.3372 29.5978 17.1133 29.5978C16.8737 29.5978 16.6758 29.685 16.5195 29.8595C16.3633 30.034 16.2865 30.271 16.2891 30.5704H17.9297ZM19.875 28.8517H20.9727V30.3712H22.543V28.8517H23.6445V33.0001H22.543V31.2579H20.9727V33.0001H19.875V28.8517ZM28.1836 33.0001H25.043V34.0939H24.1523V32.1017H24.6016C24.7891 31.8934 24.944 31.5678 25.0664 31.1251C25.1888 30.6824 25.2617 29.9246 25.2852 28.8517H28.6328V32.1017H29.0781V34.0939H28.1836V33.0001ZM27.5469 32.1017L27.5508 29.754H26.2227C26.1784 30.8999 25.9961 31.6824 25.6758 32.1017H27.5469ZM30.6523 30.1173L29.6562 29.9376C29.7682 29.5366 29.9609 29.2397 30.2344 29.047C30.5078 28.8543 30.9141 28.7579 31.4531 28.7579C31.9427 28.7579 32.3073 28.8165 32.5469 28.9337C32.7865 29.0483 32.9544 29.1954 33.0508 29.3751C33.1497 29.5522 33.1992 29.879 33.1992 30.3556L33.1875 31.6368C33.1875 32.0014 33.2044 32.271 33.2383 32.4454C33.2747 32.6173 33.3411 32.8022 33.4375 33.0001H32.3516C32.3229 32.9272 32.2878 32.8191 32.2461 32.6759C32.2279 32.6108 32.2148 32.5678 32.207 32.547C32.0195 32.7293 31.819 32.866 31.6055 32.9572C31.3919 33.0483 31.1641 33.0939 30.9219 33.0939C30.4948 33.0939 30.1576 32.978 29.9102 32.7462C29.6654 32.5144 29.543 32.2215 29.543 31.8673C29.543 31.6329 29.599 31.4246 29.7109 31.2423C29.8229 31.0574 29.9792 30.9168 30.1797 30.8204C30.3828 30.7215 30.6745 30.6355 31.0547 30.5626C31.5677 30.4663 31.9232 30.3764 32.1211 30.2931V30.1837C32.1211 29.9728 32.069 29.823 31.9648 29.7345C31.8607 29.6434 31.6641 29.5978 31.375 29.5978C31.1797 29.5978 31.0273 29.6368 30.918 29.715C30.8086 29.7905 30.7201 29.9246 30.6523 30.1173ZM32.1211 31.0079C31.9805 31.0548 31.7578 31.1108 31.4531 31.1759C31.1484 31.241 30.9492 31.3048 30.8555 31.3673C30.7122 31.4689 30.6406 31.5978 30.6406 31.754C30.6406 31.9077 30.6979 32.0405 30.8125 32.1525C30.9271 32.2644 31.0729 32.3204 31.25 32.3204C31.4479 32.3204 31.6367 32.2553 31.8164 32.1251C31.9492 32.0262 32.0365 31.9051 32.0781 31.7618C32.1068 31.6681 32.1211 31.4897 32.1211 31.2267V31.0079ZM34.2539 28.8517H35.2773V29.4611C35.4102 29.2527 35.5898 29.0835 35.8164 28.9532C36.043 28.823 36.2943 28.7579 36.5703 28.7579C37.0521 28.7579 37.4609 28.9467 37.7969 29.3243C38.1328 29.7019 38.3008 30.228 38.3008 30.9025C38.3008 31.5952 38.1315 32.1342 37.793 32.5197C37.4544 32.9025 37.0443 33.0939 36.5625 33.0939C36.3333 33.0939 36.125 33.0483 35.9375 32.9572C35.7526 32.866 35.5573 32.7098 35.3516 32.4884V34.5782H34.2539V28.8517ZM35.3398 30.8556C35.3398 31.3217 35.4323 31.6668 35.6172 31.8907C35.8021 32.1121 36.0273 32.2228 36.293 32.2228C36.5482 32.2228 36.7604 32.1212 36.9297 31.9181C37.099 31.7124 37.1836 31.3764 37.1836 30.9103C37.1836 30.4754 37.0964 30.1525 36.9219 29.9415C36.7474 29.7306 36.5312 29.6251 36.2734 29.6251C36.0052 29.6251 35.7826 29.7293 35.6055 29.9376C35.4284 30.1434 35.3398 30.4493 35.3398 30.8556ZM39.1992 28.8517H40.2969V30.5743H41.3984C41.8307 30.5743 42.1628 30.6056 42.3945 30.6681C42.6263 30.7306 42.819 30.866 42.9727 31.0743C43.1263 31.2801 43.2031 31.5197 43.2031 31.7931C43.2031 32.1941 43.0651 32.4962 42.7891 32.6993C42.5156 32.8999 42.1042 33.0001 41.5547 33.0001H39.1992V28.8517ZM40.2969 32.3048H41.3203C41.6406 32.3048 41.8451 32.2527 41.9336 32.1486C42.0247 32.0444 42.0703 31.9207 42.0703 31.7775C42.0703 31.5769 41.9922 31.4389 41.8359 31.3634C41.6823 31.2879 41.4076 31.2501 41.0117 31.2501H40.2969V32.3048Z" fill="black"/>
<path d="M30.1968 21.0357L30.6189 22.808H18.0862L13.2586 2.64242H13.4162L13.9245 3.39859C14.0137 3.53447 14.1088 3.67034 14.2069 3.80622C14.418 4.1016 14.6171 4.39698 14.7836 4.69236C15.0355 5.13403 15.2618 5.58966 15.4614 6.05701C16.4945 8.35251 17.0631 10.8275 17.135 13.3411C17.135 14.0086 17.135 14.688 17.135 15.3467C17.135 15.9375 17.135 16.5637 17.135 17.1781C17.1063 18.2383 17.3347 19.2899 17.8008 20.2441C17.8941 20.4758 18.0536 20.6753 18.2596 20.8181C18.4656 20.9609 18.7091 21.0406 18.9602 21.0475H19.0107L30.1968 21.0357ZM16.8793 23L12.3787 20.7728H8L12.0636 2.99983L13.2675 8.00061L16.1064 19.3107L16.8793 23ZM16.0559 21.975L14.9292 17.8397L9.16825 20.1644L12.7354 20.0757L16.0559 21.975ZM16.3858 0.279382C16.2664 0.160502 16.1173 0.0751898 15.9539 0.0321261C15.7905 -0.0109375 15.6185 -0.0102166 15.4554 0.0342163C15.0095 0.173045 14.6766 0.669283 14.5428 1.39887C14.4967 1.66509 14.4778 1.93526 14.4863 2.20526H14.9084C14.9008 1.96786 14.9178 1.73031 14.959 1.49635C15.063 0.932171 15.3068 0.524546 15.6011 0.432979C15.6935 0.411394 15.7901 0.414508 15.8809 0.442004C15.9718 0.4695 16.0537 0.5204 16.1183 0.589531C16.6801 1.07691 17.0101 2.36181 16.8139 3.36906C16.805 3.42486 16.8179 3.48194 16.85 3.52861C16.882 3.57528 16.9308 3.60802 16.9863 3.62013C17.002 3.62302 17.0182 3.62302 17.0339 3.62013C17.0801 3.62032 17.125 3.6045 17.1608 3.57539C17.1966 3.54629 17.2211 3.50571 17.2301 3.46062C17.4352 2.2791 17.0636 0.879003 16.374 0.279382H16.3858ZM19.3763 0.279382C19.257 0.160243 19.108 0.0747548 18.9445 0.0316754C18.781 -0.011404 18.6089 -0.0105267 18.4459 0.0342163C18 0.173045 17.67 0.669283 17.5363 1.39887C17.489 1.66497 17.4691 1.93515 17.4768 2.20526H17.8989C17.8922 1.96775 17.9101 1.73019 17.9524 1.49635C18.0565 0.932171 18.3002 0.524546 18.5945 0.432979C18.6865 0.41164 18.7826 0.414884 18.8729 0.442381C18.9632 0.469878 19.0446 0.520648 19.1088 0.589531C19.6736 1.07691 20.0006 2.36181 19.8074 3.36906C19.7984 3.42445 19.8108 3.48117 19.8423 3.52777C19.8737 3.57437 19.9218 3.60738 19.9768 3.62013C19.9935 3.62299 20.0106 3.62299 20.0273 3.62013C20.0736 3.62032 20.1185 3.6045 20.1543 3.57539C20.1901 3.54629 20.2146 3.50571 20.2235 3.46062C20.4287 2.2791 20.0571 0.879003 19.3644 0.279382H19.3763ZM22.3698 0.279382C22.2503 0.160502 22.1013 0.0751898 21.9379 0.0321261C21.7744 -0.0109375 21.6024 -0.0102166 21.4394 0.0342163C20.9935 0.173045 20.6635 0.669283 20.5297 1.39887C20.4825 1.66497 20.4625 1.93515 20.4703 2.20526H20.8924C20.8856 1.96775 20.9036 1.73019 20.9459 1.49635C21.047 0.932171 21.2937 0.524546 21.585 0.432979C21.6775 0.411394 21.774 0.414508 21.8649 0.442004C21.9557 0.4695 22.0376 0.5204 22.1023 0.589531C22.6671 1.07691 22.9941 2.36181 22.8008 3.36906C22.7918 3.42445 22.8043 3.48117 22.8358 3.52777C22.8672 3.57437 22.9153 3.60738 22.9703 3.62013C22.987 3.62299 23.0041 3.62299 23.0208 3.62013C23.0671 3.62032 23.1119 3.6045 23.1477 3.57539C23.1835 3.54629 23.208 3.50571 23.217 3.46062C23.4191 2.2791 23.0476 0.879003 22.3579 0.279382H22.3698ZM25.3633 0.279382C25.2438 0.160502 25.0947 0.0751898 24.9313 0.0321261C24.7679 -0.0109375 24.5959 -0.0102166 24.4328 0.0342163C23.9869 0.173045 23.657 0.669283 23.5232 1.39887C23.476 1.66499 23.4561 1.93516 23.4637 2.20526H23.8858C23.8797 1.96789 23.8967 1.73049 23.9364 1.49635C24.0404 0.932171 24.2872 0.524546 24.5785 0.432979C24.6709 0.411394 24.7675 0.414508 24.8583 0.442004C24.9492 0.4695 25.0311 0.5204 25.0957 0.589531C25.6605 1.07691 25.9875 2.36181 25.7943 3.36906C25.7845 3.42454 25.7967 3.48161 25.8283 3.52839C25.8599 3.57517 25.9084 3.60803 25.9637 3.62013C25.9805 3.62299 25.9975 3.62299 26.0143 3.62013C26.0603 3.62079 26.1051 3.60508 26.1405 3.57583C26.1759 3.54659 26.1997 3.50573 26.2075 3.46062C26.4126 2.2791 26.041 0.879003 25.3514 0.279382H25.3633ZM33 20.1939H18.9423C18.8563 20.1981 18.7713 20.174 18.7004 20.1255C18.6295 20.0769 18.5766 20.0065 18.5499 19.9251C18.1315 19.079 17.9274 18.1441 17.9554 17.2017C17.9554 15.9168 17.9881 14.6437 17.9733 13.3618C17.9024 10.7353 17.3104 8.14849 16.2313 5.74982C16.0197 5.24443 15.7795 4.75135 15.5119 4.27292C15.2444 3.80622 14.7241 2.90826 14.4328 2.4711H16.5493C16.5681 2.73851 16.5551 3.00718 16.5107 3.27158C16.5079 3.29414 16.5079 3.31696 16.5107 3.33952C16.3532 3.38678 16.2521 3.46358 16.2521 3.55514C16.2521 3.72351 16.5761 3.87711 16.9774 3.90074C17.3787 3.92437 17.7057 3.80622 17.7057 3.63785C17.7057 3.56105 17.6373 3.49016 17.5244 3.42813C17.5785 3.11214 17.5954 2.79098 17.5749 2.4711H19.5488C19.568 2.73861 19.554 3.00746 19.5071 3.27158C19.5057 3.30011 19.5057 3.32871 19.5071 3.35724C19.3823 3.4045 19.302 3.47244 19.302 3.55514C19.302 3.72351 19.626 3.87711 20.0273 3.90074C20.4287 3.92437 20.7556 3.80622 20.7556 3.63785C20.7556 3.55219 20.6665 3.46949 20.5268 3.4045C20.5753 3.09587 20.5913 2.78303 20.5743 2.4711H22.5482C22.5659 2.73863 22.552 3.0073 22.5065 3.27158C22.5052 3.29716 22.5052 3.3228 22.5065 3.34838C22.3698 3.39564 22.2806 3.46948 22.2806 3.55514C22.2806 3.72351 22.6046 3.87711 23.0059 3.90074C23.4073 3.92437 23.7342 3.80622 23.7342 3.63785C23.7342 3.55514 23.654 3.47539 23.5262 3.41336C23.5747 3.10175 23.5907 2.78598 23.5737 2.4711H25.5446C25.5648 2.73849 25.5518 3.00734 25.5059 3.27158C25.5045 3.29617 25.5045 3.32083 25.5059 3.34542C25.3573 3.39268 25.2622 3.46653 25.2622 3.55514C25.2622 3.72351 25.5862 3.87711 25.9875 3.90074C26.3888 3.92437 26.7158 3.80622 26.7158 3.63785C26.7158 3.5581 26.6415 3.48425 26.5226 3.42222C26.5736 3.10789 26.5906 2.78902 26.5731 2.4711H26.588C27.5155 3.25681 28.7907 5.10294 29.3199 6.12495C29.8787 7.21195 30.5268 8.31962 30.7765 9.46865C31.1688 11.2734 31.1362 13.0811 31.2194 14.8534C31.1238 16.7917 31.7586 18.6958 33 20.1939ZM28 14.7294C27.4854 14.8795 26.9519 14.9561 26.4156 14.9568C23.6005 14.9568 21.3204 12.9216 21.3204 10.4139C21.3297 9.7288 21.5011 9.05551 21.8208 8.44847C22.1404 7.84142 22.5994 7.31765 23.1605 6.91952C21.1243 7.51028 19.6498 9.22053 19.6498 11.235C19.6498 13.7428 21.9328 15.778 24.745 15.778C25.9151 15.7846 27.0564 15.417 28 14.7294ZM28.4786 10.0033H26.7574L26.2224 8.52639L25.6873 10.0033H23.9542L25.3573 10.9101L24.8222 12.387L26.2134 11.4802L27.6136 12.387L27.0785 10.9101L28.4786 10.0033Z" fill="black"/>
</svg>
