<svg width="27" height="34" viewBox="0 0 27 34" fill="none" xmlns="http://www.w3.org/2000/svg">
<path d="M1.625 26.2734H2.78125V28.7109C3.03906 28.6849 3.21354 28.6185 3.30469 28.5117C3.39583 28.4049 3.53646 28.1081 3.72656 27.6211C3.96615 27.0013 4.20703 26.6159 4.44922 26.4648C4.6888 26.3138 5.07552 26.2383 5.60938 26.2383C5.63542 26.2383 5.69141 26.237 5.77734 26.2344V27.0898L5.61328 27.0859C5.3763 27.0859 5.20312 27.1159 5.09375 27.1758C4.98438 27.2331 4.89583 27.3216 4.82812 27.4414C4.76042 27.5612 4.66016 27.8073 4.52734 28.1797C4.45703 28.3776 4.38021 28.543 4.29688 28.6758C4.21615 28.8086 4.07161 28.9336 3.86328 29.0508C4.12109 29.1237 4.33333 29.2708 4.5 29.4922C4.66927 29.7135 4.85417 30.026 5.05469 30.4297L5.83594 32H4.47656L3.79297 30.5195C3.78255 30.4987 3.76042 30.4583 3.72656 30.3984C3.71354 30.3776 3.66536 30.2878 3.58203 30.1289C3.43359 29.8477 3.3112 29.6719 3.21484 29.6016C3.12109 29.5312 2.97656 29.4948 2.78125 29.4922V32H1.625V26.2734ZM6.22656 29.8672C6.22656 29.5026 6.31641 29.1497 6.49609 28.8086C6.67578 28.4674 6.92969 28.207 7.25781 28.0273C7.58854 27.8477 7.95703 27.7578 8.36328 27.7578C8.99089 27.7578 9.50521 27.9622 9.90625 28.3711C10.3073 28.7773 10.5078 29.2917 10.5078 29.9141C10.5078 30.5417 10.3047 31.0625 9.89844 31.4766C9.49479 31.888 8.98568 32.0938 8.37109 32.0938C7.99089 32.0938 7.6276 32.0078 7.28125 31.8359C6.9375 31.6641 6.67578 31.4128 6.49609 31.082C6.31641 30.7487 6.22656 30.3438 6.22656 29.8672ZM7.35156 29.9258C7.35156 30.3372 7.44922 30.6523 7.64453 30.8711C7.83984 31.0898 8.08073 31.1992 8.36719 31.1992C8.65365 31.1992 8.89323 31.0898 9.08594 30.8711C9.28125 30.6523 9.37891 30.3346 9.37891 29.918C9.37891 29.5117 9.28125 29.1992 9.08594 28.9805C8.89323 28.7617 8.65365 28.6523 8.36719 28.6523C8.08073 28.6523 7.83984 28.7617 7.64453 28.9805C7.44922 29.1992 7.35156 29.5143 7.35156 29.9258ZM11.3398 27.8516H12.3633V28.4609C12.4961 28.2526 12.6758 28.0833 12.9023 27.9531C13.1289 27.8229 13.3802 27.7578 13.6562 27.7578C14.138 27.7578 14.5469 27.9466 14.8828 28.3242C15.2188 28.7018 15.3867 29.2279 15.3867 29.9023C15.3867 30.5951 15.2174 31.1341 14.8789 31.5195C14.5404 31.9023 14.1302 32.0938 13.6484 32.0938C13.4193 32.0938 13.2109 32.0482 13.0234 31.957C12.8385 31.8659 12.6432 31.7096 12.4375 31.4883V33.5781H11.3398V27.8516ZM12.4258 29.8555C12.4258 30.3216 12.5182 30.6667 12.7031 30.8906C12.888 31.112 13.1133 31.2227 13.3789 31.2227C13.6341 31.2227 13.8464 31.1211 14.0156 30.918C14.1849 30.7122 14.2695 30.3763 14.2695 29.9102C14.2695 29.4753 14.1823 29.1523 14.0078 28.9414C13.8333 28.7305 13.6172 28.625 13.3594 28.625C13.0911 28.625 12.8685 28.7292 12.6914 28.9375C12.5143 29.1432 12.4258 29.4492 12.4258 29.8555ZM17.082 29.1172L16.0859 28.9375C16.1979 28.5365 16.3906 28.2396 16.6641 28.0469C16.9375 27.8542 17.3438 27.7578 17.8828 27.7578C18.3724 27.7578 18.737 27.8164 18.9766 27.9336C19.2161 28.0482 19.3841 28.1953 19.4805 28.375C19.5794 28.5521 19.6289 28.8789 19.6289 29.3555L19.6172 30.6367C19.6172 31.0013 19.6341 31.2708 19.668 31.4453C19.7044 31.6172 19.7708 31.8021 19.8672 32H18.7812C18.7526 31.9271 18.7174 31.819 18.6758 31.6758C18.6576 31.6107 18.6445 31.5677 18.6367 31.5469C18.4492 31.7292 18.2487 31.8659 18.0352 31.957C17.8216 32.0482 17.5938 32.0938 17.3516 32.0938C16.9245 32.0938 16.5872 31.9779 16.3398 31.7461C16.0951 31.5143 15.9727 31.2214 15.9727 30.8672C15.9727 30.6328 16.0286 30.4245 16.1406 30.2422C16.2526 30.0573 16.4089 29.9167 16.6094 29.8203C16.8125 29.7214 17.1042 29.6354 17.4844 29.5625C17.9974 29.4661 18.3529 29.3763 18.5508 29.293V29.1836C18.5508 28.9727 18.4987 28.8229 18.3945 28.7344C18.2904 28.6432 18.0938 28.5977 17.8047 28.5977C17.6094 28.5977 17.457 28.6367 17.3477 28.7148C17.2383 28.7904 17.1497 28.9245 17.082 29.1172ZM18.5508 30.0078C18.4102 30.0547 18.1875 30.1107 17.8828 30.1758C17.5781 30.2409 17.3789 30.3047 17.2852 30.3672C17.1419 30.4688 17.0703 30.5977 17.0703 30.7539C17.0703 30.9076 17.1276 31.0404 17.2422 31.1523C17.3568 31.2643 17.5026 31.3203 17.6797 31.3203C17.8776 31.3203 18.0664 31.2552 18.2461 31.125C18.3789 31.026 18.4661 30.9049 18.5078 30.7617C18.5365 30.668 18.5508 30.4896 18.5508 30.2266V30.0078ZM20.6719 27.8516H21.7695V29.3711H23.3398V27.8516H24.4414V32H23.3398V30.2578H21.7695V32H20.6719V27.8516Z" fill="#2DA9A1"/>
<path d="M13.4815 10.6023C12.9117 9.49689 11.9117 8.73816 10.9373 7.97091C9.42735 6.76888 7.64387 6.07551 5.82621 5.48728C5.04953 5.27373 4.30433 4.95941 3.60969 4.55237C3.35612 4.37911 3.11437 4.18925 2.88604 3.98403C2.86336 3.9585 2.84775 3.92751 2.84076 3.89412C2.83376 3.86073 2.83562 3.82609 2.84615 3.79364C3.47293 2.54141 4.10351 1.29675 4.73789 0.059675C4.75307 0.0417395 4.76924 0.0246628 4.78632 0.00852469C5.66721 0.473472 6.58597 0.863225 7.53276 1.17361C8.10602 1.36521 8.66897 1.5862 9.21937 1.83572C9.92097 2.15742 10.6031 2.51988 11.2621 2.92124C12.3447 3.60609 13.1909 4.50122 13.4986 5.8567C13.6265 5.21424 13.9212 4.61652 14.3533 4.12327C14.788 3.60396 15.3071 3.16113 15.8889 2.81326C16.802 2.25812 17.7666 1.79183 18.7692 1.42084C19.9316 0.988904 21.1254 0.633694 22.2194 0C22.2555 0.0560778 22.2888 0.113932 22.3191 0.173343C22.9231 1.35832 23.5242 2.54614 24.1339 3.72828C24.163 3.77309 24.1741 3.82715 24.1651 3.87977C24.1562 3.93239 24.1277 3.97973 24.0855 4.01245C23.5088 4.53182 22.8295 4.92484 22.0912 5.16617C21.2165 5.48444 20.3276 5.7686 19.453 6.09256C17.7369 6.73531 16.1682 7.71625 14.8405 8.97686C14.5743 9.21914 14.324 9.47827 14.0912 9.75264C13.8632 10.0226 13.6781 10.3238 13.4815 10.6023Z" fill="#2DA9A1"/>
<path d="M13.8006 11.4349C14.433 10.7813 15.0399 10.1363 15.6667 9.50541C16.0399 9.13315 16.4359 8.78363 16.8291 8.43126C17.733 7.68154 18.7672 7.10364 19.8803 6.72625C20.7521 6.39377 21.6439 6.11529 22.5185 5.79418C23.3253 5.52184 24.0755 5.10485 24.7322 4.56373C25.094 4.25115 25.0912 4.24831 24.8832 3.82774L23.1909 0.417727C23.1652 0.363735 23.1396 0.30406 23.0997 0.213126C23.416 0.315426 23.6952 0.434777 23.9858 0.497294C24.1901 0.539916 24.3809 0.631894 24.5413 0.765167C24.7018 0.898439 24.827 1.06893 24.906 1.2617C25.5413 2.49499 26.2222 3.70271 26.9003 4.92179C26.9316 4.97862 26.9601 5.03545 27 5.11218C26.9402 5.15196 26.886 5.19174 26.8291 5.22584L15.1254 12.2675C15.0829 12.3037 15.0281 12.3221 14.9723 12.3189C14.9166 12.3158 14.8642 12.2912 14.8262 12.2505C14.51 11.9805 14.1709 11.7248 13.8006 11.4349Z" fill="#2DA9A1"/>
<path d="M0 5.13207L0.401709 4.39039C1.03609 3.22152 1.67047 2.05264 2.30484 0.883762C2.3314 0.830146 2.36896 0.782701 2.4151 0.744514C2.46124 0.706327 2.51492 0.67825 2.57265 0.662109C3 0.528551 3.42735 0.377942 3.88604 0.227333C3.84615 0.321108 3.82336 0.383626 3.79202 0.443301C3.19753 1.64438 2.59829 2.84547 1.9943 4.04655C1.97626 4.07189 1.96341 4.10055 1.95651 4.13086C1.9496 4.16118 1.94878 4.19255 1.95407 4.22319C1.95937 4.25382 1.97068 4.2831 1.98736 4.30936C2.00405 4.33562 2.02577 4.35833 2.05128 4.37618C2.58283 4.89495 3.2149 5.3001 3.90883 5.56685C4.7265 5.89364 5.56695 6.15507 6.39601 6.46198C6.89459 6.64669 7.39031 6.85128 7.88319 7.05589C8.92363 7.47971 9.87036 8.10345 10.6695 8.89161C11.4986 9.71854 12.3162 10.554 13.1567 11.4065C12.7607 11.7361 12.4074 12.0345 12.0456 12.3187C12.0142 12.3443 11.906 12.2988 11.8462 12.2647L8.28775 10.1135L0.182336 5.24858C0.128205 5.21732 0.0769231 5.18038 0 5.13207Z" fill="#2DA9A1"/>
<path d="M12.8462 13.6173L2.10826 20.102C1.98576 19.9031 1.8604 19.7099 1.74929 19.5081C1.73675 19.4809 1.73026 19.4514 1.73026 19.4214C1.73026 19.3915 1.73675 19.362 1.74929 19.3348C2.09117 18.6158 2.43305 17.8969 2.78632 17.1808C2.83588 17.1012 2.90699 17.0371 2.99145 16.9961C4.32462 16.3076 5.60115 15.5152 6.80912 14.6261C7.24057 14.2901 7.64978 13.9265 8.03419 13.5378C8.21584 13.3388 8.36488 13.1124 8.47578 12.8671C8.64102 12.5375 8.47578 12.2704 8.25071 12.0373C8.15636 11.9254 8.02908 11.846 7.88691 11.8103C7.74475 11.7746 7.59492 11.7844 7.45869 11.8384C7.34494 11.8819 7.23609 11.9371 7.1339 12.0032L4.72934 13.4525C4.76638 13.3673 4.78347 13.3161 4.80627 13.2735C5.07122 12.779 5.33333 12.2846 5.60399 11.7958C5.65233 11.708 5.7231 11.6344 5.80912 11.5827C6.39791 11.2379 6.99145 10.9016 7.58974 10.5739C7.62562 10.5543 7.66531 10.5426 7.70611 10.5397C7.74692 10.5367 7.78788 10.5426 7.82621 10.5568C9.47293 11.5514 11.1168 12.5517 12.7578 13.5576C12.7886 13.5755 12.8181 13.5954 12.8462 13.6173Z" fill="#2DA9A1"/>
<path d="M14.1368 13.6116L14.4217 13.4269C15.9658 12.4797 17.509 11.5325 19.0513 10.5852C19.1041 10.5465 19.168 10.5256 19.2336 10.5256C19.2992 10.5256 19.3631 10.5465 19.416 10.5852C19.9858 10.9263 20.5783 11.2502 21.1567 11.5827C21.2249 11.6161 21.2829 11.6672 21.3248 11.7304C21.6097 12.2732 21.9117 12.8188 22.1994 13.3616C22.2081 13.3856 22.2148 13.4103 22.2194 13.4355C22.1481 13.3957 22.094 13.3701 22.0399 13.336L19.7778 11.9691C19.2564 11.6566 18.8376 11.7674 18.5185 12.2846C18.4606 12.3669 18.4267 12.4636 18.4207 12.5639C18.4147 12.6643 18.4367 12.7643 18.4843 12.8529C18.621 13.1204 18.7883 13.3712 18.9829 13.6003C19.5582 14.2189 20.2181 14.7537 20.943 15.1888C21.9402 15.8111 22.9658 16.3936 23.9744 17.0018C24.0709 17.0586 24.1505 17.14 24.2051 17.2376C24.5413 17.9168 24.8632 18.6045 25.1966 19.2836C25.2253 19.332 25.2391 19.3878 25.236 19.4439C25.233 19.5001 25.2133 19.5541 25.1795 19.5991C25.0684 19.7553 24.9744 19.9258 24.8632 20.102L14.1368 13.6116Z" fill="#2DA9A1"/>
<path d="M22.151 13.8645L21.7778 14.4783L21.7065 14.575L18.6211 12.6767C18.669 12.5912 18.7342 12.5164 18.8125 12.4572C18.8908 12.398 18.9805 12.3556 19.076 12.3326C19.1716 12.3097 19.2708 12.3067 19.3676 12.3238C19.4643 12.341 19.5564 12.3779 19.6382 12.4323C20.4093 12.87 21.1804 13.3085 21.9516 13.748L22.151 13.8645Z" fill="#2DA9A1"/>
<path d="M8.37891 12.6682L5.2735 14.5778L4.83761 13.8645L5.02279 13.7537L7.30199 12.4664C7.73219 12.2135 8.01709 12.2647 8.37891 12.6682Z" fill="#2DA9A1"/>
<path d="M24.6325 20.4089L13.6866 13.7736H13.1595L2.21367 20.4089L2.64103 21L13.4245 14.4101L24.2051 21L24.6325 20.4089Z" fill="#2DA9A1"/>
</svg>
