<svg width="31" height="39" viewBox="0 0 31 39" fill="none" xmlns="http://www.w3.org/2000/svg">
<path d="M24.2377 18.3125V37H9.14392C8.54496 37 8.03584 36.7904 7.61657 36.3711C7.1973 35.9518 6.98767 35.4427 6.98767 34.8438C6.98767 34.2448 7.1973 33.7357 7.61657 33.3164C8.03584 32.8971 8.54496 32.6875 9.14392 32.6875H22.8002V15.4375H8.42517C7.63155 15.4375 6.95023 15.722 6.38122 16.291C5.82719 16.8451 5.55017 17.5189 5.55017 18.3125V35.5625C5.55017 36.3561 5.82719 37.0299 6.38122 37.584C6.95023 38.153 7.63155 38.4375 8.42517 38.4375H25.6752V18.3125H24.2377ZM11.3002 16.1562H18.4877V26.2188L14.8939 22.625L11.3002 26.2188V16.1562ZM9.14392 34.125C8.94926 34.125 8.77706 34.1999 8.62732 34.3496C8.49255 34.4844 8.42517 34.6491 8.42517 34.8438C8.42517 35.0384 8.49255 35.2106 8.62732 35.3604C8.77706 35.4951 8.94926 35.5625 9.14392 35.5625H22.8002V34.125H9.14392Z" fill="#39B2BA"/>
<path d="M24.4375 14.0645C23.7832 14.0645 23.2217 14.2988 22.7529 14.7676C22.2939 15.2266 22.0644 15.7832 22.0644 16.4375C22.0644 17.0918 22.2939 17.6533 22.7529 18.1221C23.2217 18.5811 23.7832 18.8105 24.4375 18.8105C25.0918 18.8105 25.6484 18.5811 26.1074 18.1221C26.5664 17.6533 26.7959 17.0918 26.7959 16.4375C26.7959 15.7832 26.5664 15.2266 26.1074 14.7676C25.6484 14.2988 25.0918 14.0645 24.4375 14.0645ZM29.1982 17.7998L28.7588 18.8252L29.623 20.5244L28.5684 21.5791L26.8398 20.7588L25.7998 21.1836L25.2871 22.7803L25.2139 23H23.7197L23.0752 21.1982L22.0498 20.7734L20.3506 21.623L19.2959 20.5684L20.1162 18.8398L19.6914 17.8145L17.875 17.2139V15.7197L19.6768 15.0752L20.1016 14.0498L19.3398 12.541L19.2519 12.3506L20.3066 11.2959L22.0352 12.1162L23.0605 11.6914L23.5879 10.0801L23.6611 9.875H25.1553L25.7998 11.6768L26.8252 12.1016L28.5244 11.252L29.5791 12.3066L28.7588 14.0352L29.1836 15.0605L31 15.6611V17.1553L29.1982 17.7998Z" fill="white"/>
<path d="M22.7529 14.7676L22.0458 14.0605L22.7529 14.7676ZM22.7529 18.1221L22.0384 18.8217L22.0458 18.8292L22.0533 18.8366L22.7529 18.1221ZM26.1074 18.1221L26.8146 18.8292L26.8219 18.8217L26.1074 18.1221ZM26.1074 14.7676L25.3929 15.4672L25.4003 15.4747L26.1074 14.7676ZM29.1982 17.7998L28.8614 16.8582L28.4509 17.0051L28.2791 17.4059L29.1982 17.7998ZM28.7588 18.8252L27.8396 18.4313L27.6553 18.8614L27.8675 19.2785L28.7588 18.8252ZM29.623 20.5244L30.3302 21.2315L30.8435 20.7182L30.5144 20.0711L29.623 20.5244ZM28.5684 21.5791L28.1396 22.4825L28.7768 22.7849L29.2755 22.2862L28.5684 21.5791ZM26.8398 20.7588L27.2686 19.8554L26.8701 19.6662L26.4617 19.833L26.8398 20.7588ZM25.7998 21.1836L25.4217 20.2578L24.9902 20.4341L24.8477 20.8779L25.7998 21.1836ZM25.2871 22.7803L26.2358 23.0965L26.2392 23.086L25.2871 22.7803ZM25.2139 23V24H25.9346L26.1625 23.3162L25.2139 23ZM23.7197 23L22.7782 23.3368L23.0154 24H23.7197V23ZM23.0752 21.1982L24.0168 20.8614L23.8675 20.444L23.4579 20.2744L23.0752 21.1982ZM22.0498 20.7734L22.4325 19.8496L22.0108 19.6749L21.6026 19.879L22.0498 20.7734ZM20.3506 21.623L19.6435 22.3302L20.1531 22.8398L20.7978 22.5175L20.3506 21.623ZM19.2959 20.5684L18.3925 20.1396L18.0901 20.7768L18.5888 21.2755L19.2959 20.5684ZM20.1162 18.8398L21.0196 19.2686L21.21 18.8674L21.0401 18.4571L20.1162 18.8398ZM19.6914 17.8145L20.6153 17.4317L20.44 17.0087L20.0053 16.865L19.6914 17.8145ZM17.875 17.2139H16.875V17.9365L17.5611 18.1633L17.875 17.2139ZM17.875 15.7197L17.5382 14.7782L16.875 15.0154V15.7197H17.875ZM19.6768 15.0752L20.0136 16.0168L20.431 15.8675L20.6006 15.4579L19.6768 15.0752ZM20.1016 14.0498L21.0254 14.4325L21.201 14.0087L20.9942 13.5991L20.1016 14.0498ZM19.3398 12.541L18.4319 12.9601L18.4392 12.976L18.4472 12.9917L19.3398 12.541ZM19.2519 12.3506L18.5448 11.6435L18.0518 12.1365L18.344 12.7696L19.2519 12.3506ZM20.3066 11.2959L20.7354 10.3925L20.0982 10.0901L19.5995 10.5888L20.3066 11.2959ZM22.0352 12.1162L21.6064 13.0196L22.0076 13.21L22.4179 13.0401L22.0352 12.1162ZM23.0605 11.6914L23.4433 12.6153L23.868 12.4393L24.0109 12.0024L23.0605 11.6914ZM23.5879 10.0801L22.6461 9.74374L22.6416 9.75633L22.6375 9.76904L23.5879 10.0801ZM23.6611 9.875V8.875H22.9564L22.7194 9.53866L23.6611 9.875ZM25.1553 9.875L26.0968 9.53818L25.8596 8.875H25.1553V9.875ZM25.7998 11.6768L24.8582 12.0136L25.0075 12.431L25.4171 12.6006L25.7998 11.6768ZM26.8252 12.1016L26.4425 13.0254L26.8641 13.2001L27.2724 12.996L26.8252 12.1016ZM28.5244 11.252L29.2315 10.5448L28.7219 10.0352L28.0772 10.3575L28.5244 11.252ZM29.5791 12.3066L30.4825 12.7354L30.7849 12.0982L30.2862 11.5995L29.5791 12.3066ZM28.7588 14.0352L27.8554 13.6064L27.665 14.0076L27.8349 14.4179L28.7588 14.0352ZM29.1836 15.0605L28.2597 15.4433L28.435 15.8663L28.8697 16.01L29.1836 15.0605ZM31 15.6611H32V14.9385L31.3139 14.7117L31 15.6611ZM31 17.1553L31.3368 18.0968L32 17.8596V17.1553H31ZM24.4375 13.0645C23.5141 13.0645 22.6993 13.407 22.0458 14.0605L23.46 15.4747C23.744 15.1907 24.0523 15.0645 24.4375 15.0645V13.0645ZM22.0458 14.0605C21.3976 14.7087 21.0644 15.5204 21.0644 16.4375H23.0644C23.0644 16.046 23.1903 15.7445 23.46 15.4747L22.0458 14.0605ZM21.0644 16.4375C21.0644 17.3542 21.397 18.1666 22.0384 18.8217L23.4674 17.4224C23.1909 17.14 23.0644 16.8294 23.0644 16.4375H21.0644ZM22.0533 18.8366C22.7084 19.478 23.5208 19.8105 24.4375 19.8105V17.8105C24.0456 17.8105 23.735 17.6841 23.4526 17.4076L22.0533 18.8366ZM24.4375 19.8105C25.3546 19.8105 26.1663 19.4774 26.8145 18.8292L25.4003 17.415C25.1305 17.6847 24.829 17.8105 24.4375 17.8105V19.8105ZM26.8219 18.8217C27.4634 18.1666 27.7959 17.3542 27.7959 16.4375H25.7959C25.7959 16.8294 25.6694 17.14 25.3929 17.4224L26.8219 18.8217ZM27.7959 16.4375C27.7959 15.5204 27.4627 14.7087 26.8145 14.0605L25.4003 15.4747C25.6701 15.7445 25.7959 16.046 25.7959 16.4375H27.7959ZM26.8219 14.068C26.1754 13.4077 25.3615 13.0645 24.4375 13.0645V15.0645C24.8221 15.0645 25.1215 15.19 25.3929 15.4672L26.8219 14.068ZM28.2791 17.4059L27.8396 18.4313L29.6779 19.2191L30.1174 18.1937L28.2791 17.4059ZM27.8675 19.2785L28.7317 20.9778L30.5144 20.0711L29.6501 18.3718L27.8675 19.2785ZM28.9159 19.8173L27.8612 20.872L29.2755 22.2862L30.3302 21.2315L28.9159 19.8173ZM28.9971 20.6757L27.2686 19.8554L26.4111 21.6622L28.1396 22.4825L28.9971 20.6757ZM26.4617 19.833L25.4217 20.2578L26.1779 22.1093L27.218 21.6845L26.4617 19.833ZM24.8477 20.8779L24.335 22.4745L26.2392 23.086L26.7519 21.4893L24.8477 20.8779ZM24.3384 22.464L24.2652 22.6838L26.1625 23.3162L26.2358 23.0965L24.3384 22.464ZM25.2139 22H23.7197V24H25.2139V22ZM24.6613 22.6632L24.0168 20.8614L22.1336 21.5351L22.7782 23.3368L24.6613 22.6632ZM23.4579 20.2744L22.4325 19.8496L21.6671 21.6973L22.6925 22.1221L23.4579 20.2744ZM21.6026 19.879L19.9034 20.7286L20.7978 22.5175L22.497 21.6679L21.6026 19.879ZM21.0577 20.9159L20.003 19.8613L18.5888 21.2755L19.6435 22.3302L21.0577 20.9159ZM20.1993 20.9971L21.0196 19.2686L19.2128 18.4111L18.3925 20.1396L20.1993 20.9971ZM21.0401 18.4571L20.6153 17.4317L18.7675 18.1972L19.1924 19.2226L21.0401 18.4571ZM20.0053 16.865L18.1889 16.2644L17.5611 18.1633L19.3775 18.7639L20.0053 16.865ZM18.875 17.2139V15.7197H16.875V17.2139H18.875ZM18.2118 16.6613L20.0136 16.0168L19.3399 14.1336L17.5382 14.7782L18.2118 16.6613ZM20.6006 15.4579L21.0254 14.4325L19.1777 13.6671L18.7529 14.6925L20.6006 15.4579ZM20.9942 13.5991L20.2325 12.0903L18.4472 12.9917L19.2089 14.5005L20.9942 13.5991ZM20.2478 12.122L20.1599 11.9315L18.344 12.7696L18.4319 12.9601L20.2478 12.122ZM19.9591 13.0577L21.0137 12.003L19.5995 10.5888L18.5448 11.6435L19.9591 13.0577ZM19.8779 12.1993L21.6064 13.0196L22.4639 11.2128L20.7354 10.3925L19.8779 12.1993ZM22.4179 13.0401L23.4433 12.6153L22.6778 10.7676L21.6524 11.1924L22.4179 13.0401ZM24.0109 12.0024L24.5383 10.3911L22.6375 9.76904L22.1101 11.3804L24.0109 12.0024ZM24.5296 10.4164L24.6029 10.2113L22.7194 9.53866L22.6461 9.74374L24.5296 10.4164ZM23.6611 10.875H25.1553V8.875H23.6611V10.875ZM24.2137 10.2118L24.8582 12.0136L26.7414 11.3399L26.0968 9.53818L24.2137 10.2118ZM25.4171 12.6006L26.4425 13.0254L27.2079 11.1777L26.1825 10.7529L25.4171 12.6006ZM27.2724 12.996L28.9716 12.1464L28.0772 10.3575L26.378 11.2071L27.2724 12.996ZM27.8173 11.9591L28.872 13.0137L30.2862 11.5995L29.2315 10.5448L27.8173 11.9591ZM28.6757 11.8779L27.8554 13.6064L29.6622 14.4639L30.4825 12.7354L28.6757 11.8779ZM27.8349 14.4179L28.2597 15.4433L30.1074 14.6778L29.6826 13.6524L27.8349 14.4179ZM28.8697 16.01L30.6861 16.6106L31.3139 14.7117L29.4975 14.1111L28.8697 16.01ZM30 15.6611V17.1553H32V15.6611H30ZM30.6632 16.2137L28.8614 16.8582L29.5351 18.7414L31.3368 18.0968L30.6632 16.2137Z" fill="#39B2BA"/>
</svg>
