<svg width="15" height="15" viewBox="0 0 10 10" fill="none" xmlns="http://www.w3.org/2000/svg">
<path d="M7.37305 0.25C7.11263 0.25 6.86198 0.298828 6.62109 0.396484C6.38021 0.494141 6.1556 0.624349 5.94727 0.787109C5.74544 0.94987 5.56315 1.13867 5.40039 1.35352C5.23763 1.56185 5.10417 1.77669 5 1.99805C4.89583 1.77669 4.76237 1.56185 4.59961 1.35352C4.43685 1.13867 4.2513 0.94987 4.04297 0.787109C3.84115 0.624349 3.61979 0.494141 3.37891 0.396484C3.13802 0.298828 2.88737 0.25 2.62695 0.25C2.26237 0.25 1.92057 0.318359 1.60156 0.455078C1.28255 0.591797 1.0026 0.780599 0.761719 1.02148C0.527344 1.25586 0.341797 1.53255 0.205078 1.85156C0.0683594 2.17057 0 2.51237 0 2.87695C0 3.61263 0.166016 4.23763 0.498047 4.75195C0.830078 5.25977 1.24349 5.74479 1.73828 6.20703C2.23958 6.66927 2.77995 7.1543 3.35938 7.66211C3.94531 8.16341 4.49219 8.77865 5 9.50781C5.48177 8.78516 6.01237 8.16667 6.5918 7.65234C7.17122 7.13802 7.71159 6.64648 8.21289 6.17773C8.7207 5.70898 9.14388 5.2207 9.48242 4.71289C9.82747 4.19857 10 3.58659 10 2.87695C10 2.51237 9.93164 2.17057 9.79492 1.85156C9.6582 1.53255 9.4694 1.25586 9.22852 1.02148C8.99414 0.780599 8.71745 0.591797 8.39844 0.455078C8.07943 0.318359 7.73763 0.25 7.37305 0.25Z" fill="#2DA9A1"/>
</svg>
