<svg width="146" height="179" viewBox="0 0 146 179" fill="none" xmlns="http://www.w3.org/2000/svg">
<path d="M23.3353 159.611C21.6879 160.988 19.5948 161.71 17.4528 161.64C11.8626 161.64 8 157.938 8 152.25C8 146.999 11.4639 142.852 17.2933 142.852C19.3323 142.761 21.3386 143.39 22.9632 144.632L21.9267 146.305C20.5816 145.355 18.9627 144.877 17.3199 144.943C13.2712 144.943 10.4008 147.925 10.4008 152.259C10.3485 153.232 10.5005 154.205 10.847 155.114C11.1934 156.024 11.7266 156.85 12.4117 157.54C13.0969 158.229 13.9188 158.765 14.8239 159.115C15.729 159.464 16.6972 159.618 17.6654 159.566C19.389 159.572 21.0657 159.003 22.4316 157.946L23.3353 159.611Z" fill="#39B2BA"/>
<path d="M38.1568 143.003H40.0969L48.0702 161.382H45.6517L43.3128 155.846H34.8169L32.4514 161.382H30.1569L38.1568 143.003ZM35.7028 153.763H42.4269L39.0781 145.958L35.7028 153.763Z" fill="#39B2BA"/>
<path d="M56.1764 143.11H66.7188V145.166H58.4355V150.408C59.3657 150.31 60.5705 150.257 61.2881 150.257C65.4608 150.257 67.8085 152.339 67.8085 155.597C67.8085 159.379 65.1507 161.418 60.6503 161.418C58.7544 161.418 57.2661 161.311 56.2207 161.311L56.1764 143.11ZM58.4355 152.535V159.29C59.2594 159.344 60.0833 159.397 60.9958 159.397C64.0522 159.397 65.5405 158.044 65.5405 155.837C65.5405 153.808 64.1319 152.393 61.1109 152.393C60.2173 152.396 59.3244 152.443 58.4355 152.535Z" fill="#39B2BA"/>
<path d="M76.5702 161.382V143.11H78.8293V157.733L90.1426 143.11H92.1359V161.382H89.8768V146.768L78.5636 161.382H76.5702Z" fill="#39B2BA"/>
<path d="M113.938 145.166H107.179L106.86 148.61C105.761 160.225 103.263 161.711 100.331 161.346V159.13C101.66 159.255 103.874 158.605 104.76 146.732L105.026 143.074H116.18V161.346H113.921L113.938 145.166Z" fill="#39B2BA"/>
<path d="M128.361 149.901C129.371 149.821 130.355 149.767 130.966 149.767C135.785 149.767 138 151.957 138 155.41C138 159.246 135.227 161.435 130.461 161.435C128.866 161.435 127.192 161.382 126.102 161.382V143.11H128.361V149.901ZM128.361 152.01V159.273C129.079 159.273 129.876 159.344 130.727 159.344C133.792 159.344 135.599 158.098 135.599 155.454C135.599 153.078 133.827 151.894 130.806 151.894C130.186 151.859 129.247 151.912 128.361 152.01Z" fill="#39B2BA"/>
<path d="M8.74286 175.68H9.75687C10.1448 175.177 11.0442 173.131 11.2029 169.532L11.2999 167.588H17.1282V175.68H18.398V179H16.8549V177.27H10.2859V179H8.74286V175.68ZM11.5644 175.68H15.4882V169.169H12.8959L12.746 170.862C12.7009 172.541 12.297 174.188 11.5644 175.68Z" fill="#CCB282"/>
<path d="M27.1978 169.178H24.4556L24.2704 171.039C23.7237 176.619 22.5069 177.549 20.6464 177.298L20.6905 175.615C21.4135 175.708 22.3658 175.391 22.7802 169.56L22.9125 167.616H28.8378V177.298H27.1978V169.178Z" fill="#CCB282"/>
<path d="M36.8441 173.922H35.4862L33.3788 177.27H31.5272L33.9255 173.55C33.4351 173.318 33.0186 172.942 32.726 172.467C32.4335 171.992 32.2774 171.438 32.2766 170.871C32.2766 169.085 33.4053 167.523 36.1387 167.523C36.7471 167.523 37.9022 167.523 38.4753 167.523V177.205H36.8441V173.922ZM36.8441 172.331V169.178C36.6148 169.178 36.0858 169.178 35.8036 169.178C35.5831 169.152 35.3598 169.175 35.1483 169.246C34.9367 169.317 34.7415 169.433 34.5753 169.588C34.4092 169.743 34.2757 169.934 34.1835 170.147C34.0913 170.36 34.0425 170.59 34.0401 170.825C34.0512 171.204 34.1892 171.567 34.4296 171.85C34.6701 172.132 34.9975 172.316 35.3539 172.368L36.8441 172.331Z" fill="#CCB282"/>
<path d="M53.7648 176.331C52.9257 177.075 51.8537 177.463 50.758 177.419C50.1196 177.448 49.4822 177.341 48.8842 177.103C48.2863 176.865 47.7401 176.502 47.2786 176.036C46.8171 175.57 46.4499 175.01 46.199 174.39C45.9481 173.77 45.8187 173.103 45.8187 172.429C45.8187 171.755 45.9481 171.088 46.199 170.468C46.4499 169.848 46.8171 169.288 47.2786 168.822C47.7401 168.356 48.2863 167.993 48.8842 167.755C49.4822 167.518 50.1196 167.41 50.758 167.439C51.7916 167.396 52.8055 167.746 53.6149 168.425L52.8742 169.681C52.251 169.235 51.5107 169.007 50.758 169.03C50.3387 169.018 49.9217 169.099 49.5342 169.268C49.1467 169.438 48.7973 169.691 48.5087 170.012C48.2201 170.333 47.9988 170.715 47.8592 171.132C47.7196 171.549 47.6648 171.993 47.6983 172.434C47.6779 172.888 47.7481 173.341 47.9043 173.764C48.0605 174.188 48.2993 174.572 48.6051 174.892C48.911 175.212 49.2772 175.461 49.6799 175.622C50.0827 175.783 50.513 175.854 50.9432 175.828C51.7464 175.833 52.5291 175.562 53.174 175.057L53.7648 176.331Z" fill="#CCB282"/>
<path d="M62.5557 169.178H59.8135L59.6283 171.039C59.0728 176.619 57.8648 177.549 56.0044 177.298V175.615C56.7362 175.708 57.6885 175.391 58.1029 169.56L58.2352 167.616H64.1605V177.298H62.5205L62.5557 169.178Z" fill="#CCB282"/>
<path d="M71.9816 167.439C72.6214 167.398 73.2624 167.497 73.8639 167.731C74.4653 167.965 75.0141 168.328 75.4752 168.798C75.9363 169.268 76.2997 169.834 76.5422 170.459C76.7848 171.085 76.9012 171.758 76.8841 172.434C76.8921 173.107 76.7693 173.774 76.5235 174.395C76.2777 175.016 75.9139 175.577 75.4546 176.044C74.9953 176.511 74.4502 176.874 73.8529 177.111C73.2556 177.347 72.6188 177.452 71.9816 177.419C71.3433 177.461 70.7038 177.361 70.1038 177.128C69.5039 176.894 68.9567 176.531 68.4971 176.062C68.0375 175.593 67.6756 175.028 67.4345 174.404C67.1934 173.779 67.0783 173.108 67.0967 172.434C67.0876 171.762 67.2089 171.095 67.4532 170.474C67.6974 169.853 68.0594 169.292 68.5169 168.824C68.9744 168.356 69.5177 167.992 70.1135 167.754C70.7094 167.516 71.3451 167.409 71.9816 167.439ZM71.9816 175.81C72.4062 175.829 72.8299 175.754 73.2253 175.589C73.6206 175.424 73.9787 175.174 74.2763 174.854C74.5739 174.534 74.8045 174.151 74.9529 173.731C75.1014 173.311 75.1645 172.863 75.1382 172.415C75.1243 171.762 74.9282 171.128 74.5744 170.592C74.2206 170.056 73.7247 169.642 73.149 169.402C72.5732 169.162 71.9431 169.106 71.3374 169.241C70.7317 169.377 70.1774 169.698 69.7439 170.164C69.3103 170.631 69.0167 171.221 68.8999 171.863C68.7831 172.504 68.8481 173.168 69.087 173.77C69.3258 174.373 69.7278 174.888 70.2427 175.251C70.7575 175.613 71.3624 175.808 71.9816 175.81Z" fill="#CCB282"/>
<path d="M79.8203 167.616C80.3493 167.616 81.5838 167.551 82.5361 167.551C84.7757 167.551 85.6222 168.602 85.6222 169.941C85.6415 170.408 85.5229 170.87 85.2829 171.263C85.0429 171.656 84.6931 171.961 84.2819 172.136C84.7686 172.24 85.2033 172.526 85.5062 172.941C85.8091 173.357 85.9598 173.873 85.9308 174.396C85.9308 176.386 84.423 177.298 82.4038 177.298C81.522 177.298 80.3405 177.298 79.7586 177.224L79.8203 167.616ZM81.4692 169.178V171.624H82.589C83.3561 171.624 83.9821 171.224 83.9821 170.341C83.9821 169.457 83.3913 169.141 82.5096 169.141C82.1304 169.141 81.7689 169.15 81.4692 169.178ZM81.4692 173.103V175.661C81.8319 175.709 82.197 175.734 82.5625 175.735C83.6735 175.735 84.326 175.252 84.326 174.34C84.326 173.429 83.7176 173.103 82.686 173.103H81.4692Z" fill="#CCB282"/>
<path d="M93.6372 177.27V167.588H95.2861V174.48L100.215 167.588H101.679V177.27H100.03V170.397L95.1009 177.27H93.6372Z" fill="#CCB282"/>
<path d="M108.653 175.68H109.659C110.047 175.177 110.955 173.131 111.113 169.532L111.202 167.588H117.03V175.68H118.308V179H116.765V177.27H110.196V179H108.653V175.68ZM111.475 175.68H115.399V169.169H112.806L112.656 170.862C112.611 172.541 112.208 174.188 111.475 175.68Z" fill="#CCB282"/>
<path d="M121.077 167.588H126.509V169.178H122.726V171.587H126.112V173.178H122.726V175.68H126.641V177.27H121.077V167.588Z" fill="#CCB282"/>
<path d="M135.67 169.178H132.928L132.743 171.039C132.187 176.619 130.979 177.549 129.11 177.298V175.615C129.833 175.708 130.785 175.391 131.208 169.56L131.341 167.616H137.257V177.298H135.626L135.67 169.178Z" fill="#CCB282"/>
<g filter="url(#filter0_d_707_86)">
<path d="M72.8841 127.586C108.719 127.586 137.768 99.9203 137.768 65.793C137.768 31.6657 108.719 4 72.8841 4C37.0496 4 8 31.6657 8 65.793C8 99.9203 37.0496 127.586 72.8841 127.586Z" fill="#39B2BA" shape-rendering="crispEdges"/>
<path d="M72.8841 129.586C109.73 129.586 139.768 101.116 139.768 65.793C139.768 30.4702 109.73 2 72.8841 2C36.0381 2 6 30.4702 6 65.793C6 101.116 36.0381 129.586 72.8841 129.586Z" stroke="white" stroke-opacity="0.5" stroke-width="4" shape-rendering="crispEdges"/>
</g>
<path d="M72.9924 8.33892C61.3098 8.33892 49.8896 11.7114 40.1762 18.03C30.4627 24.3485 22.8922 33.3292 18.4222 43.8363C13.9522 54.3433 12.7834 65.9048 15.0636 77.0586C17.3439 88.2123 22.9708 98.4573 31.2327 106.498C39.4945 114.538 50.0203 120.013 61.4788 122.23C72.9372 124.447 84.8136 123.306 95.606 118.952C106.398 114.598 115.622 107.226 122.11 97.7689C128.599 88.3116 132.06 77.1937 132.057 65.8212C132.037 50.5794 125.807 35.9677 114.734 25.1915C103.661 14.4153 88.6497 8.35463 72.9924 8.33892ZM108.218 85.615L117.76 88.1078L119.726 84.7841V92.1586L113.233 95.8087L115.199 92.485L108.218 85.615ZM32.7674 95.7493L26.2741 92.1586V84.7396L28.2556 88.0633L37.7974 85.5705L30.8011 92.3811L32.7674 95.7493ZM37.7669 46.0273L28.2403 43.5346L26.2588 46.8583V39.558L32.7674 35.9078L30.7858 39.2316L37.7669 46.0273ZM113.233 35.9078L119.726 39.558V46.8583L117.76 43.5346L108.218 46.0273L111.861 42.4811L115.199 39.2316L113.233 35.9078ZM113.675 65.8212L123.201 63.3432V59.515L126.951 65.836L123.216 72.1273V68.314L113.675 65.8212ZM32.3253 65.8212L22.7835 68.314V72.1422L19.5673 66.6966L19.0491 65.8212L22.7835 59.515V63.3136L32.3253 65.8212ZM93.2954 60.524L103.279 50.8052L116.052 47.4815L119.726 53.5799V60.6872L106.968 64.0109L93.2954 60.524ZM100.2 65.836L90.5213 68.4178L87.8996 65.8805L90.5213 63.2839L100.2 65.836ZM89.4543 59.515L85.9485 58.5803L86.9088 55.1082L96.6183 52.556L89.4543 59.515ZM82.9762 75.54L77.9919 74.2491L76.6506 79.1011L72.9924 75.54L69.3494 79.1011L68.0081 74.2491L63.0238 75.54L64.3651 70.688L59.3808 69.3971L63.0238 65.836L59.3656 62.2897L64.3651 60.984L63.0847 56.1171L68.069 57.4229L69.3189 52.4819L73.0533 56.1171L76.7116 52.5709L78.0376 57.4081L83.0372 56.1171L81.6349 60.9988L86.6192 62.3046L82.9762 65.8508L86.6192 69.412L81.6349 70.7029L82.9762 75.54ZM84.0127 79.3089L86.6039 88.7903L79.4857 81.861L80.446 78.3889L84.0127 79.3089ZM66.5143 81.861L59.3808 88.7903L61.9873 79.3237L65.554 78.3889L66.5143 81.861ZM61.9415 52.3631L59.3351 42.8817L66.4686 49.811L65.5083 53.2831L61.9415 52.3631ZM79.4399 49.811L86.5735 42.8817L83.967 52.3483L80.4002 53.2831L79.4399 49.811ZM78.4035 46.0422L74.791 32.8067L78.2205 20.3725H85.5217L91.8474 23.9336L88.4178 36.353L78.4035 46.0422ZM75.5684 48.802L72.9466 51.3393L70.3402 48.802L72.9466 39.3206L75.5684 48.802ZM67.5051 46.0422L57.5365 36.3381L54.1526 23.9039L60.4478 20.3725H67.7794L71.1938 32.8067L67.5051 46.0422ZM60.0362 58.5803L56.5304 59.515L49.3665 52.5709L59.1217 55.1082L60.0362 58.5803ZM58.0547 65.8212L55.4635 68.4178L45.7387 65.8805L55.4635 63.2839L58.0547 65.8212ZM52.5979 60.5092L38.9863 64.0703L26.1978 60.7318V53.6689L29.856 47.4815L42.6293 50.82L52.5979 60.5092ZM38.9711 67.5721L46.5923 69.5455L52.6893 71.1332L42.7207 80.8372L29.9475 84.1757L26.2893 78.0031V70.9106L38.9711 67.5721ZM56.4847 72.1422L60.0362 73.0621L59.0912 76.549L49.3665 79.0863L56.4847 72.1422ZM67.4898 85.615L68.2519 88.3749L71.1328 98.8801L67.7185 111.314H60.4173L54.0917 107.768L57.506 95.3339L67.4898 85.615ZM70.3249 82.8552L72.9924 80.2882L75.6141 82.8255L72.9924 92.3069L70.3249 82.8552ZM78.3882 85.6298L88.3416 95.319L91.7864 107.768L85.4912 111.3H78.1596L74.7453 98.8653L78.3882 85.6298ZM85.9485 73.0769L89.5153 72.1422L96.6488 79.0863L86.9088 76.5342L85.9485 73.0769ZM93.4021 71.1332L106.998 67.5869L119.802 70.9106V77.9883L116.159 84.1609L103.386 80.8372L93.4021 71.1332ZM123.262 52.7341V41.7095C126.546 48.1583 128.473 55.1804 128.932 62.3639L123.262 52.7341ZM101.572 47.7782L87.9453 51.3245L91.5882 38.089L100.947 28.9637L107.242 32.4951L110.855 38.7419L101.572 47.7782ZM100.383 24.7349L93.4021 31.5307L95.9476 22.2569L92.5485 20.328H100.033L103.767 26.6193L100.383 24.7349ZM86.5125 16.9449L76.6811 11.4252C84.0618 11.8751 91.2757 13.7569 97.8986 16.9598L86.5125 16.9449ZM75.6141 16.9449L73.0533 26.2335L70.5078 16.9449H66.56L73.0533 13.2948L79.5619 16.9449H75.6141ZM59.5942 16.9449H48.2233C54.8451 13.7554 62.0522 11.8791 69.4256 11.4252L59.5942 16.9449ZM46.0893 20.328H53.5582L50.1591 22.2273L52.7198 31.5158L45.7387 24.72L42.3397 26.6341L46.0893 20.328ZM45.1748 28.9637L54.5184 38.0594L58.1766 51.3393L44.5498 47.7782L35.13 38.7419L38.7882 32.5693L45.1748 28.9637ZM22.8445 52.7044L17.1743 62.2749C17.6275 55.126 19.5341 48.1357 22.7835 41.7095L22.8445 52.7044ZM22.8445 78.8786V89.9625C19.5661 83.5119 17.6386 76.4908 17.1743 69.3081L22.8445 78.8786ZM44.5498 83.8345L58.1614 80.2882L54.4575 93.6423L45.0986 102.753L38.8186 99.2214L35.13 93.0488L44.5498 83.8345ZM45.7387 106.878L52.7198 100.082L50.1591 109.371L53.5734 111.285H46.0131L42.2939 104.979L45.7387 106.878ZM59.5942 114.668L69.4256 120.187C62.0522 119.734 54.8451 117.857 48.2233 114.668H59.5942ZM70.5078 114.668L73.0533 105.394L75.6141 114.668H79.5619L73.0533 118.318L66.56 114.668H70.5078ZM86.5125 114.668H97.8986C91.2768 117.857 84.0697 119.734 76.6963 120.187L86.5125 114.668ZM100.033 111.285H92.5638L95.9476 109.385L94.4234 103.91L93.3869 100.097L100.353 106.893L103.767 104.979L100.033 111.285ZM100.947 102.649L91.5425 93.6423L89.5 86.2234L87.8843 80.2882L101.511 83.8345L110.855 92.945L107.197 99.1027L100.947 102.649ZM123.262 78.9083L125.244 75.5846L128.932 69.3526C128.473 76.5314 126.546 83.5487 123.262 89.9922V78.9083ZM119.665 35.5814L109.803 30.032L104.118 20.4467C110.246 24.4586 115.507 29.6003 119.604 35.5814H119.665ZM41.9281 20.4467L36.2274 30.032L26.3807 35.5814C30.4919 29.5865 35.781 24.4428 41.9434 20.4467H41.9281ZM26.3807 96.1203L36.2274 101.655L41.9129 111.24C35.7656 107.229 30.4924 102.076 26.396 96.0758L26.3807 96.1203ZM104.041 111.24L109.727 101.655L119.589 96.1055C115.476 102.077 110.199 107.204 104.057 111.196L104.041 111.24Z" fill="url(#paint0_linear_707_86)"/>
<defs>
<filter id="filter0_d_707_86" x="0" y="0" width="145.768" height="139.586" filterUnits="userSpaceOnUse" color-interpolation-filters="sRGB">
<feFlood flood-opacity="0" result="BackgroundImageFix"/>
<feColorMatrix in="SourceAlpha" type="matrix" values="0 0 0 0 0 0 0 0 0 0 0 0 0 0 0 0 0 0 127 0" result="hardAlpha"/>
<feOffset dy="4"/>
<feGaussianBlur stdDeviation="2"/>
<feComposite in2="hardAlpha" operator="out"/>
<feColorMatrix type="matrix" values="0 0 0 0 0 0 0 0 0 0 0 0 0 0 0 0 0 0 0.25 0"/>
<feBlend mode="normal" in2="BackgroundImageFix" result="effect1_dropShadow_707_86"/>
<feBlend mode="normal" in="SourceGraphic" in2="effect1_dropShadow_707_86" result="shape"/>
</filter>
<linearGradient id="paint0_linear_707_86" x1="-16.8888" y1="20.8383" x2="164.984" y2="109.653" gradientUnits="userSpaceOnUse">
<stop stop-color="#C2BD33"/>
<stop offset="0.135417" stop-color="#EFEB81"/>
<stop offset="0.21875" stop-color="#EFEB81"/>
<stop offset="0.380496" stop-color="#8B884E"/>
<stop offset="0.625" stop-color="#F2EE82"/>
<stop offset="0.792146" stop-color="#D8AE43"/>
<stop offset="0.866771" stop-color="#989326"/>
<stop offset="1" stop-color="#E5ED8C"/>
</linearGradient>
</defs>
</svg>
