<svg width="121" height="40" viewBox="0 0 121 40" fill="none" xmlns="http://www.w3.org/2000/svg">
<rect x="0.5" width="120" height="40" rx="3" fill="white"/>
<path d="M23.5 11.6666C22.3498 11.6666 21.2647 11.8836 20.2448 12.3177C19.2357 12.7517 18.3513 13.3485 17.5918 14.108C16.8431 14.8567 16.2517 15.7411 15.8177 16.761C15.3837 17.7701 15.1667 18.8498 15.1667 20C15.1667 21.1501 15.3837 22.2352 15.8177 23.2552C16.2517 24.2643 16.8431 25.1486 17.5918 25.9082C18.3513 26.6569 19.2357 27.2482 20.2448 27.6823C21.2647 28.1163 22.3498 28.3333 23.5 28.3333C24.6502 28.3333 25.7298 28.1163 26.7389 27.6823C27.7589 27.2482 28.6432 26.6569 29.3919 25.9082C30.1515 25.1486 30.7483 24.2643 31.1823 23.2552C31.6163 22.2352 31.8333 21.1501 31.8333 20C31.8333 18.8498 31.6163 17.7701 31.1823 16.761C30.7483 15.7411 30.1515 14.8567 29.3919 14.108C28.6432 13.3485 27.7589 12.7517 26.7389 12.3177C25.7298 11.8836 24.6502 11.6666 23.5 11.6666ZM23.5 27.2916C22.99 27.2916 22.4909 27.2428 22.0026 27.1451C21.5252 27.0366 21.064 26.8902 20.6191 26.7057L24.4114 22.4251C24.4549 22.3817 24.4874 22.3329 24.5091 22.2786C24.5308 22.2135 24.5417 22.1484 24.5417 22.0833V20.5208C24.5417 20.3797 24.4874 20.2604 24.3789 20.1627C24.2812 20.0542 24.1619 20 24.0208 20C23.5651 20 23.1094 19.9023 22.6536 19.707C22.1979 19.5008 21.791 19.2784 21.4329 19.0397C21.0749 18.801 20.7819 18.5839 20.554 18.3886C20.337 18.1825 20.2285 18.074 20.2285 18.0631C20.1743 18.0197 20.1146 17.9872 20.0495 17.9655C19.9844 17.9329 19.9193 17.9166 19.8542 17.9166H17.7708C17.6298 17.9166 17.505 17.9709 17.3965 18.0794C17.2988 18.177 17.25 18.2964 17.25 18.4375V21.5625C17.25 21.6601 17.2771 21.7523 17.3314 21.8392C17.3856 21.926 17.4562 21.9911 17.543 22.0345L19.3333 22.9296V25.9895C18.8559 25.6532 18.4273 25.2734 18.0475 24.8502C17.6677 24.4162 17.3368 23.9442 17.0547 23.4342C16.7834 22.9134 16.5718 22.3654 16.4199 21.7903C16.2789 21.2152 16.2083 20.6184 16.2083 20C16.2083 19.4357 16.268 18.8932 16.3874 18.3724C16.5067 17.8515 16.6803 17.3524 16.9082 16.875H18.8125C18.8776 16.875 18.9427 16.8641 19.0078 16.8424C19.0729 16.8099 19.1326 16.7719 19.1868 16.7285L21.2702 14.6451C21.3136 14.5909 21.3461 14.5312 21.3678 14.4661C21.4004 14.401 21.4167 14.3359 21.4167 14.2708V13.0175C21.7422 12.9199 22.0785 12.8439 22.4258 12.7897C22.7838 12.7354 23.1419 12.7083 23.5 12.7083C24.0751 12.7083 24.6285 12.7734 25.1601 12.9036C25.7027 13.023 26.2127 13.202 26.6901 13.4407C26.6575 13.4733 26.625 13.5058 26.5924 13.5384C26.5599 13.5601 26.5273 13.5872 26.4948 13.6198C26.2018 13.9127 25.9739 14.2545 25.8112 14.6451C25.6593 15.0249 25.5833 15.421 25.5833 15.8333C25.5833 16.2456 25.6593 16.6471 25.8112 17.0377C25.9739 17.4175 26.2018 17.7539 26.4948 18.0468C26.7986 18.3398 27.1404 18.5677 27.5202 18.7304C27.8999 18.8823 28.296 18.9583 28.7083 18.9583C28.73 18.9583 28.7517 18.9583 28.7734 18.9583C28.806 18.9583 28.8331 18.9583 28.8548 18.9583C28.9199 19.1645 28.9796 19.4574 29.0338 19.8372C29.0989 20.2061 29.1424 20.651 29.1641 21.1718C29.1858 21.6818 29.1641 22.2623 29.0989 22.9134C29.0447 23.5536 28.9199 24.2534 28.7246 25.013C28.7246 25.0238 28.7192 25.0401 28.7083 25.0618C28.7083 25.0727 28.7083 25.0835 28.7083 25.0944C28.3828 25.4416 28.0193 25.7508 27.6178 26.0221C27.2272 26.2825 26.8095 26.5104 26.3646 26.7057C25.9305 26.8902 25.4694 27.0366 24.9811 27.1451C24.5037 27.2428 24.01 27.2916 23.5 27.2916Z" fill="#39B2BA"/>
<path d="M39.2344 25V15.9H40.3004L44.3824 22.777H43.8104L47.8404 15.9H48.9064L48.9194 25H47.6714L47.6584 17.863H47.9574L44.3694 23.895H43.7714L40.1574 17.863H40.4824V25H39.2344ZM54.495 25.078C53.8016 25.078 53.1863 24.9263 52.649 24.623C52.1116 24.3197 51.687 23.9037 51.375 23.375C51.063 22.8377 50.907 22.231 50.907 21.555C50.907 20.8703 51.063 20.2637 51.375 19.735C51.687 19.2063 52.1116 18.7947 52.649 18.5C53.1863 18.1967 53.8016 18.045 54.495 18.045C55.1796 18.045 55.7906 18.1967 56.328 18.5C56.874 18.7947 57.2986 19.2063 57.602 19.735C57.914 20.255 58.07 20.8617 58.07 21.555C58.07 22.2397 57.914 22.8463 57.602 23.375C57.2986 23.9037 56.874 24.3197 56.328 24.623C55.7906 24.9263 55.1796 25.078 54.495 25.078ZM54.495 23.986C54.937 23.986 55.3313 23.8863 55.678 23.687C56.0333 23.4877 56.3106 23.206 56.51 22.842C56.7093 22.4693 56.809 22.0403 56.809 21.555C56.809 21.061 56.7093 20.6363 56.51 20.281C56.3106 19.917 56.0333 19.6353 55.678 19.436C55.3313 19.2367 54.937 19.137 54.495 19.137C54.053 19.137 53.6586 19.2367 53.312 19.436C52.9653 19.6353 52.688 19.917 52.48 20.281C52.272 20.6363 52.168 21.061 52.168 21.555C52.168 22.0403 52.272 22.4693 52.48 22.842C52.688 23.206 52.9653 23.4877 53.312 23.687C53.6586 23.8863 54.053 23.986 54.495 23.986ZM62.8751 25.078C62.1731 25.078 61.5448 24.9263 60.9901 24.623C60.4441 24.3197 60.0151 23.9037 59.7031 23.375C59.3911 22.8463 59.2351 22.2397 59.2351 21.555C59.2351 20.8703 59.3911 20.2637 59.7031 19.735C60.0151 19.2063 60.4441 18.7947 60.9901 18.5C61.5448 18.1967 62.1731 18.045 62.8751 18.045C63.4991 18.045 64.0538 18.1707 64.5391 18.422C65.0331 18.6647 65.4144 19.0287 65.6831 19.514L64.7341 20.125C64.5088 19.787 64.2314 19.54 63.9021 19.384C63.5814 19.2193 63.2348 19.137 62.8621 19.137C62.4114 19.137 62.0084 19.2367 61.6531 19.436C61.2978 19.6353 61.0161 19.917 60.8081 20.281C60.6001 20.6363 60.4961 21.061 60.4961 21.555C60.4961 22.049 60.6001 22.478 60.8081 22.842C61.0161 23.206 61.2978 23.4877 61.6531 23.687C62.0084 23.8863 62.4114 23.986 62.8621 23.986C63.2348 23.986 63.5814 23.908 63.9021 23.752C64.2314 23.5873 64.5088 23.336 64.7341 22.998L65.6831 23.596C65.4144 24.0727 65.0331 24.441 64.5391 24.701C64.0538 24.9523 63.4991 25.078 62.8751 25.078ZM72.2908 25L69.6258 21.646L70.6528 21.022L73.7598 25H72.2908ZM67.2988 25V18.11H68.5468V25H67.2988ZM68.1698 22.088V21.022H70.4448V22.088H68.1698ZM70.7568 21.698L69.5998 21.542L72.2388 18.11H73.5778L70.7568 21.698ZM75.0684 25V18.11H78.2664C79.0724 18.11 79.705 18.266 80.1644 18.578C80.6324 18.8813 80.8664 19.3147 80.8664 19.878C80.8664 20.4413 80.6454 20.879 80.2034 21.191C79.77 21.4943 79.1937 21.646 78.4744 21.646L78.6694 21.308C79.4927 21.308 80.1037 21.4597 80.5024 21.763C80.901 22.0663 81.1004 22.5127 81.1004 23.102C81.1004 23.7 80.875 24.168 80.4244 24.506C79.9824 24.8353 79.302 25 78.3834 25H75.0684ZM76.2904 24.038H78.2924C78.8124 24.038 79.2024 23.96 79.4624 23.804C79.7224 23.6393 79.8524 23.3793 79.8524 23.024C79.8524 22.66 79.731 22.3957 79.4884 22.231C79.2544 22.0577 78.8817 21.971 78.3704 21.971H76.2904V24.038ZM76.2904 21.074H78.1624C78.639 21.074 78.9987 20.9873 79.2414 20.814C79.4927 20.632 79.6184 20.3807 79.6184 20.06C79.6184 19.7307 79.4927 19.4837 79.2414 19.319C78.9987 19.1543 78.639 19.072 78.1624 19.072H76.2904V21.074ZM87.2787 25V23.544L87.2137 23.271V20.788C87.2137 20.2593 87.0577 19.852 86.7457 19.566C86.4424 19.2713 85.9831 19.124 85.3677 19.124C84.9604 19.124 84.5617 19.1933 84.1717 19.332C83.7817 19.462 83.4524 19.6397 83.1837 19.865L82.6637 18.929C83.0191 18.643 83.4437 18.4263 83.9377 18.279C84.4404 18.123 84.9647 18.045 85.5107 18.045C86.4554 18.045 87.1834 18.2747 87.6947 18.734C88.2061 19.1933 88.4617 19.8953 88.4617 20.84V25H87.2787ZM85.0167 25.078C84.5054 25.078 84.0547 24.9913 83.6647 24.818C83.2834 24.6447 82.9887 24.4063 82.7807 24.103C82.5727 23.791 82.4687 23.44 82.4687 23.05C82.4687 22.6773 82.5554 22.3393 82.7287 22.036C82.9107 21.7327 83.2011 21.49 83.5997 21.308C84.0071 21.126 84.5531 21.035 85.2377 21.035H87.4217V21.932H85.2897C84.6657 21.932 84.2454 22.036 84.0287 22.244C83.8121 22.452 83.7037 22.7033 83.7037 22.998C83.7037 23.336 83.8381 23.609 84.1067 23.817C84.3754 24.0163 84.7481 24.116 85.2247 24.116C85.6927 24.116 86.1001 24.012 86.4467 23.804C86.8021 23.596 87.0577 23.2927 87.2137 22.894L87.4607 23.752C87.2961 24.1593 87.0057 24.4843 86.5897 24.727C86.1737 24.961 85.6494 25.078 85.0167 25.078Z" fill="#39B2BA"/>
<path d="M104.95 17.0834L102.5 19.5834L100.05 17.0834L98.4167 18.75L102.5 22.9167L106.583 18.75L104.95 17.0834Z" fill="#39B2BA"/>
</svg>
