<svg width="76" height="15" viewBox="0 0 76 15" fill="none" xmlns="http://www.w3.org/2000/svg">
<rect width="76" height="15" rx="3" fill="white"/>
<path d="M16.5304 2.5625C15.9093 2.5625 15.3233 2.67969 14.7726 2.91406C14.2276 3.14844 13.7501 3.4707 13.3399 3.88086C12.9356 4.28516 12.6163 4.7627 12.3819 5.31348C12.1476 5.8584 12.0304 6.44141 12.0304 7.0625C12.0304 7.68359 12.1476 8.26953 12.3819 8.82031C12.6163 9.36523 12.9356 9.84277 13.3399 10.2529C13.7501 10.6572 14.2276 10.9766 14.7726 11.2109C15.3233 11.4453 15.9093 11.5625 16.5304 11.5625C17.1515 11.5625 17.7345 11.4453 18.2794 11.2109C18.8302 10.9766 19.3077 10.6572 19.712 10.2529C20.1222 9.84277 20.4444 9.36523 20.6788 8.82031C20.9132 8.26953 21.0304 7.68359 21.0304 7.0625C21.0304 6.44141 20.9132 5.8584 20.6788 5.31348C20.4444 4.7627 20.1222 4.28516 19.712 3.88086C19.3077 3.4707 18.8302 3.14844 18.2794 2.91406C17.7345 2.67969 17.1515 2.5625 16.5304 2.5625ZM16.5304 11C16.255 11 15.9854 10.9736 15.7218 10.9209C15.464 10.8623 15.2149 10.7832 14.9747 10.6836L17.0226 8.37207C17.046 8.34863 17.0636 8.32227 17.0753 8.29297C17.087 8.25781 17.0929 8.22266 17.0929 8.1875V7.34375C17.0929 7.26758 17.0636 7.20312 17.005 7.15039C16.9522 7.0918 16.8878 7.0625 16.8116 7.0625C16.5655 7.0625 16.3194 7.00977 16.0733 6.9043C15.8272 6.79297 15.6075 6.67285 15.4142 6.54395C15.2208 6.41504 15.0626 6.29785 14.9396 6.19238C14.8224 6.08105 14.7638 6.02246 14.7638 6.0166C14.7345 5.99316 14.7022 5.97559 14.6671 5.96387C14.6319 5.94629 14.5968 5.9375 14.5616 5.9375H13.4366C13.3604 5.9375 13.2931 5.9668 13.2345 6.02539C13.1817 6.07812 13.1554 6.14258 13.1554 6.21875V7.90625C13.1554 7.95898 13.17 8.00879 13.1993 8.05566C13.2286 8.10254 13.2667 8.1377 13.3136 8.16113L14.2804 8.64453V10.2969C14.0226 10.1152 13.7911 9.91016 13.586 9.68164C13.381 9.44727 13.2022 9.19238 13.0499 8.91699C12.9034 8.63574 12.7892 8.33984 12.7071 8.0293C12.631 7.71875 12.5929 7.39648 12.5929 7.0625C12.5929 6.75781 12.6251 6.46484 12.6896 6.18359C12.754 5.90234 12.8478 5.63281 12.9708 5.375H13.9991C14.0343 5.375 14.0694 5.36914 14.1046 5.35742C14.1397 5.33984 14.172 5.31934 14.2013 5.2959L15.3263 4.1709C15.3497 4.1416 15.3673 4.10938 15.379 4.07422C15.3966 4.03906 15.4054 4.00391 15.4054 3.96875V3.29199C15.5812 3.23926 15.7628 3.19824 15.9503 3.16895C16.1437 3.13965 16.337 3.125 16.5304 3.125C16.8409 3.125 17.1397 3.16016 17.4269 3.23047C17.7198 3.29492 17.9952 3.3916 18.253 3.52051C18.2354 3.53809 18.2179 3.55566 18.2003 3.57324C18.1827 3.58496 18.1651 3.59961 18.1476 3.61719C17.9894 3.77539 17.8663 3.95996 17.7784 4.1709C17.6964 4.37598 17.6554 4.58984 17.6554 4.8125C17.6554 5.03516 17.6964 5.25195 17.7784 5.46289C17.8663 5.66797 17.9894 5.84961 18.1476 6.00781C18.3116 6.16602 18.4962 6.28906 18.7013 6.37695C18.9063 6.45898 19.1202 6.5 19.3429 6.5C19.3546 6.5 19.3663 6.5 19.378 6.5C19.3956 6.5 19.4103 6.5 19.422 6.5C19.4571 6.61133 19.4894 6.76953 19.5187 6.97461C19.5538 7.17383 19.5772 7.41406 19.589 7.69531C19.6007 7.9707 19.589 8.28418 19.5538 8.63574C19.5245 8.98145 19.4571 9.35938 19.3517 9.76953C19.3517 9.77539 19.3487 9.78418 19.3429 9.7959C19.3429 9.80176 19.3429 9.80762 19.3429 9.81348C19.1671 10.001 18.9708 10.168 18.754 10.3145C18.5431 10.4551 18.3175 10.5781 18.0772 10.6836C17.8429 10.7832 17.5938 10.8623 17.3302 10.9209C17.0724 10.9736 16.8058 11 16.5304 11ZM30.5524 11L30.5434 6.41L28.2664 10.235H27.8524L25.5754 6.437V11H24.7114V4.7H25.4494L28.0774 9.128L30.6694 4.7H31.4074L31.4164 11H30.5524ZM35.2764 11.054C34.8024 11.054 34.3764 10.949 33.9984 10.739C33.6204 10.529 33.3234 10.241 33.1074 9.875C32.8974 9.503 32.7924 9.083 32.7924 8.615C32.7924 8.147 32.8974 7.73 33.1074 7.364C33.3234 6.992 33.6204 6.704 33.9984 6.5C34.3764 6.29 34.8024 6.185 35.2764 6.185C35.7504 6.185 36.1734 6.29 36.5454 6.5C36.9234 6.704 37.2174 6.992 37.4274 7.364C37.6434 7.73 37.7514 8.147 37.7514 8.615C37.7514 9.083 37.6434 9.503 37.4274 9.875C37.2174 10.241 36.9234 10.529 36.5454 10.739C36.1734 10.949 35.7504 11.054 35.2764 11.054ZM35.2764 10.298C35.5824 10.298 35.8554 10.229 36.0954 10.091C36.3414 9.947 36.5334 9.749 36.6714 9.497C36.8094 9.239 36.8784 8.945 36.8784 8.615C36.8784 8.285 36.8094 7.994 36.6714 7.742C36.5334 7.484 36.3414 7.286 36.0954 7.148C35.8554 7.01 35.5824 6.941 35.2764 6.941C34.9704 6.941 34.6944 7.01 34.4484 7.148C34.2084 7.286 34.0164 7.484 33.8724 7.742C33.7344 7.994 33.6654 8.285 33.6654 8.615C33.6654 8.945 33.7344 9.239 33.8724 9.497C34.0164 9.749 34.2084 9.947 34.4484 10.091C34.6944 10.229 34.9704 10.298 35.2764 10.298ZM41.078 11.054C40.592 11.054 40.157 10.949 39.773 10.739C39.395 10.529 39.098 10.241 38.882 9.875C38.666 9.503 38.558 9.083 38.558 8.615C38.558 8.147 38.666 7.73 38.882 7.364C39.098 6.992 39.395 6.704 39.773 6.5C40.157 6.29 40.592 6.185 41.078 6.185C41.51 6.185 41.894 6.272 42.23 6.446C42.572 6.62 42.836 6.872 43.022 7.202L42.365 7.625C42.215 7.397 42.029 7.226 41.807 7.112C41.585 6.998 41.339 6.941 41.069 6.941C40.757 6.941 40.475 7.01 40.223 7.148C39.977 7.286 39.782 7.484 39.638 7.742C39.5 7.994 39.431 8.285 39.431 8.615C39.431 8.951 39.5 9.248 39.638 9.506C39.782 9.758 39.977 9.953 40.223 10.091C40.475 10.229 40.757 10.298 41.069 10.298C41.339 10.298 41.585 10.241 41.807 10.127C42.029 10.013 42.215 9.842 42.365 9.614L43.022 10.028C42.836 10.358 42.572 10.613 42.23 10.793C41.894 10.967 41.51 11.054 41.078 11.054ZM45.9946 8.984H45.0046V11H44.1406V6.23H45.0046V8.246H46.0126L47.5606 6.23H48.4876L46.6786 8.525L48.6136 11H47.5966L45.9946 8.984ZM52.7685 8.525C53.3865 8.681 53.6955 9.068 53.6955 9.686C53.6955 10.106 53.5365 10.43 53.2185 10.658C52.9065 10.886 52.4385 11 51.8145 11H49.5195V6.23H51.7335C52.2975 6.23 52.7385 6.338 53.0565 6.554C53.3745 6.764 53.5335 7.064 53.5335 7.454C53.5335 7.706 53.4645 7.925 53.3265 8.111C53.1945 8.291 53.0085 8.429 52.7685 8.525ZM50.3655 8.282H51.6615C51.9915 8.282 52.2405 8.222 52.4085 8.102C52.5825 7.982 52.6695 7.808 52.6695 7.58C52.6695 7.124 52.3335 6.896 51.6615 6.896H50.3655V8.282ZM51.7515 10.334C52.1115 10.334 52.3815 10.277 52.5615 10.163C52.7415 10.049 52.8315 9.872 52.8315 9.632C52.8315 9.386 52.7475 9.203 52.5795 9.083C52.4175 8.963 52.1595 8.903 51.8055 8.903H50.3655V10.334H51.7515ZM56.7488 6.185C57.4088 6.185 57.9128 6.347 58.2608 6.671C58.6148 6.995 58.7918 7.478 58.7918 8.12V11H57.9728V10.37C57.8288 10.592 57.6218 10.763 57.3518 10.883C57.0878 10.997 56.7728 11.054 56.4068 11.054C55.8728 11.054 55.4438 10.925 55.1198 10.667C54.8018 10.409 54.6428 10.07 54.6428 9.65C54.6428 9.23 54.7958 8.894 55.1018 8.642C55.4078 8.384 55.8938 8.255 56.5598 8.255H57.9278V8.084C57.9278 7.712 57.8198 7.427 57.6038 7.229C57.3878 7.031 57.0698 6.932 56.6498 6.932C56.3678 6.932 56.0918 6.98 55.8218 7.076C55.5518 7.166 55.3238 7.289 55.1378 7.445L54.7778 6.797C55.0238 6.599 55.3178 6.449 55.6598 6.347C56.0018 6.239 56.3648 6.185 56.7488 6.185ZM56.5508 10.388C56.8808 10.388 57.1658 10.316 57.4058 10.172C57.6458 10.022 57.8198 9.812 57.9278 9.542V8.876H56.5958C55.8638 8.876 55.4978 9.122 55.4978 9.614C55.4978 9.854 55.5908 10.043 55.7768 10.181C55.9628 10.319 56.2208 10.388 56.5508 10.388ZM68.8446 5.375L67.1571 7.0625L65.4696 5.375L64.3446 6.5L67.1571 9.3125L69.9696 6.5L68.8446 5.375Z" fill="#39B2BA"/>
</svg>
