<svg width="28" height="28" viewBox="0 0 28 28" fill="none" xmlns="http://www.w3.org/2000/svg">
<path d="M14.0001 0.000839233C21.7321 0.000839233 28.0001 6.26888 28.0001 14.0009C28.0001 21.7329 21.7321 28.001 14.0001 28.001C6.26804 28.001 0 21.7329 0 14.0009C0 6.26888 6.26804 0.000839233 14.0001 0.000839233Z" fill="url(#paint0_radial_715_895)"/>
<path opacity="0.07" d="M20.5358 26.3848C21.5073 24.4792 22.055 22.3215 22.055 20.0358C22.055 12.3038 15.7871 6.0351 8.05432 6.0351C5.69366 6.0351 3.46959 6.61948 1.51855 7.6512C3.83319 3.11026 8.55318 0.000268936 13.9995 0.000268936C21.7315 0.000268936 28.0001 6.2682 28.0001 14.0002C28.0001 19.3718 24.9751 24.037 20.5358 26.3848Z" fill="black"/>
<path opacity="0.14" d="M14.0001 12.0708C20.9788 12.0708 26.6362 15.6369 26.6362 20.0359C26.6362 24.4349 20.9788 28.001 14.0001 28.001C7.02138 28.001 1.36401 24.4349 1.36401 20.0359C1.36401 15.6369 7.02138 12.0708 14.0001 12.0708Z" fill="white"/>
<g filter="url(#filter0_i_715_895)">
<path d="M21 14.0011L10 21.001V14.0011V7.00098L21 14.0011Z" fill="url(#paint1_linear_715_895)"/>
</g>
<defs>
<filter id="filter0_i_715_895" x="10" y="7.00098" width="12" height="15" filterUnits="userSpaceOnUse" color-interpolation-filters="sRGB">
<feFlood flood-opacity="0" result="BackgroundImageFix"/>
<feBlend mode="normal" in="SourceGraphic" in2="BackgroundImageFix" result="shape"/>
<feColorMatrix in="SourceAlpha" type="matrix" values="0 0 0 0 0 0 0 0 0 0 0 0 0 0 0 0 0 0 127 0" result="hardAlpha"/>
<feOffset dx="1" dy="2"/>
<feGaussianBlur stdDeviation="0.5"/>
<feComposite in2="hardAlpha" operator="arithmetic" k2="-1" k3="1"/>
<feColorMatrix type="matrix" values="0 0 0 0 0 0 0 0 0 0 0 0 0 0 0 0 0 0 0.25 0"/>
<feBlend mode="normal" in2="shape" result="effect1_innerShadow_715_895"/>
</filter>
<radialGradient id="paint0_radial_715_895" cx="0" cy="0" r="1" gradientUnits="userSpaceOnUse" gradientTransform="translate(14.0001 14.0009) scale(15.4999)">
<stop stop-color="#2DA9A1"/>
<stop offset="0.66" stop-color="#2DA9A1"/>
<stop offset="0.73" stop-color="#2DA69E"/>
<stop offset="0.78" stop-color="#2C9B93"/>
<stop offset="0.84" stop-color="#2A8A81"/>
<stop offset="0.89" stop-color="#277168"/>
<stop offset="0.94" stop-color="#245148"/>
<stop offset="0.98" stop-color="#202B21"/>
<stop offset="1" stop-color="#1E1C12"/>
</radialGradient>
<linearGradient id="paint1_linear_715_895" x1="15.5001" y1="7.13348" x2="15.5001" y2="21.9405" gradientUnits="userSpaceOnUse">
<stop stop-color="#A2A0A0"/>
<stop offset="1" stop-color="white"/>
</linearGradient>
</defs>
</svg>
