<svg width="13" height="13" viewBox="0 0 13 13" fill="none" xmlns="http://www.w3.org/2000/svg">
<path d="M11.4677 0.75H2.46769C2.05363 0.75 1.69816 0.898437 1.40129 1.19531C1.11222 1.48437 0.967691 1.83594 0.967691 2.25V11.25C0.967691 11.6641 1.11222 12.0156 1.40129 12.3047C1.69816 12.6016 2.05363 12.75 2.46769 12.75H11.4677C11.8818 12.75 12.2333 12.6016 12.5224 12.3047C12.8193 12.0156 12.9677 11.6641 12.9677 11.25V2.25C12.9677 1.83594 12.8193 1.48437 12.5224 1.19531C12.2333 0.898437 11.8818 0.75 11.4677 0.75ZM10.3075 9.03516L9.25285 10.0898L6.96769 7.81641L4.68254 10.0898L3.62785 9.03516L5.90129 6.75L3.62785 4.46484L4.68254 3.41016L6.96769 5.68359L9.25285 3.41016L10.3075 4.46484L8.0341 6.75L10.3075 9.03516Z" fill="#AE0000"/>
</svg>
