<svg width="17" height="19" viewBox="0 0 17 19" fill="none" xmlns="http://www.w3.org/2000/svg">
<path d="M0 0.125H2.25V18.125H0V0.125ZM11.25 1.25C10.9688 1.25 10.7461 1.19141 10.582 1.07422C10.418 0.957031 10.2656 0.828125 10.125 0.6875C9.98438 0.546875 9.83203 0.417969 9.66797 0.300781C9.50391 0.183594 9.28125 0.125 9 0.125H3.375V11.375H9C9.28125 11.375 9.50391 11.4336 9.66797 11.5508C9.83203 11.668 9.98438 11.7969 10.125 11.9375C10.2656 12.0781 10.418 12.207 10.582 12.3242C10.7461 12.4414 10.9688 12.5 11.25 12.5H16.875V1.25H11.25Z" fill="#39B2BA"/>
</svg>
