<svg width="175" height="26" viewBox="0 0 175 26" fill="none" xmlns="http://www.w3.org/2000/svg">
<path d="M20.6437 23.1874C18.426 25.0918 15.6083 26.0902 12.7249 25.9936C5.19967 25.9936 0 20.8736 0 13.0089C0 5.74738 4.66301 0.0119665 12.5102 0.0119665C15.255 -0.113951 17.9558 0.757062 20.1428 2.47351L18.7474 4.78737C16.9368 3.47391 14.7574 2.81215 12.546 2.90429C7.09589 2.90429 3.23191 7.02738 3.23191 13.0212C3.16148 14.3663 3.36612 15.7115 3.83249 16.9696C4.29887 18.2276 5.01655 19.3703 5.93889 20.3233C6.86123 21.2764 7.96759 22.0184 9.18603 22.5013C10.4045 22.9841 11.7077 23.1969 13.0111 23.1259C15.3314 23.1344 17.5885 22.3464 19.4272 20.8859L20.6437 23.1874Z" fill="white"/>
<path d="M40.5956 0.221236H43.2074L53.9407 25.6367H50.6849L47.5365 17.9813H36.0996L32.9154 25.6367H29.8266L40.5956 0.221236ZM37.2922 15.1013H46.3439L41.8359 4.30739L37.2922 15.1013Z" fill="white"/>
<path d="M64.8528 0.368939H79.0446V3.21202H67.8939V10.4613C69.1461 10.3259 70.768 10.252 71.734 10.252C77.3511 10.252 80.5114 13.1321 80.5114 17.6367C80.5114 22.8675 76.9337 25.6859 70.8754 25.6859C68.3232 25.6859 66.3197 25.5383 64.9124 25.5383L64.8528 0.368939ZM67.8939 13.4028V22.7444C69.003 22.8182 70.1121 22.8921 71.3405 22.8921C75.4549 22.8921 77.4584 21.0213 77.4584 17.969C77.4584 15.1628 75.5622 13.2059 71.4955 13.2059C70.2925 13.2101 69.0906 13.2758 67.8939 13.4028Z" fill="white"/>
<path d="M92.3061 25.6367V0.368939H95.3472V20.5905L110.577 0.368939H113.26V25.6367H110.219V5.42742L94.9894 25.6367H92.3061Z" fill="white"/>
<path d="M142.609 3.21208H133.51L133.081 7.97517C131.602 24.0368 128.239 26.0921 124.291 25.5875V22.5229C126.08 22.6952 129.062 21.7968 130.254 5.37824L130.612 0.319758H145.627V25.5875H142.585L142.609 3.21208Z" fill="white"/>
<path d="M162.025 9.75975C163.384 9.64898 164.708 9.57512 165.531 9.57512C172.019 9.57512 175 12.6028 175 17.3782C175 22.6829 171.267 25.7106 164.851 25.7106C162.704 25.7106 160.45 25.6367 158.984 25.6367V0.368939H162.025V9.75975ZM162.025 12.6767V22.7198C162.991 22.7198 164.064 22.8182 165.209 22.8182C169.335 22.8182 171.768 21.0952 171.768 17.4398C171.768 14.1536 169.383 12.5167 165.316 12.5167C164.481 12.4674 163.217 12.5413 162.025 12.6767Z" fill="white"/>
</svg>
