<svg width="20" height="20" viewBox="0 0 24 24" fill="none" xmlns="http://www.w3.org/2000/svg">
<path d="M7 14C7 14 7.09115 13.8047 7.27344 13.4141C7.46875 13.0234 7.83333 12.5938 8.36719 12.125C8.91406 11.6562 9.67578 11.2266 10.6523 10.8359C11.6289 10.4453 12.9115 10.25 14.5 10.25V14L22 9L14.5 4V7.75C13.25 7.75 12.1562 7.93229 11.2188 8.29688C10.2812 8.64844 9.5 9.11719 8.875 9.70312C8.25 10.2891 7.78125 10.9596 7.46875 11.7148C7.15625 12.457 7 13.2188 7 14ZM15.75 16.5H4.5V9H6.96094C7.05208 8.88281 7.14974 8.77214 7.25391 8.66797C7.37109 8.55078 7.48177 8.4401 7.58594 8.33594C8.01562 7.93229 8.48438 7.58073 8.99219 7.28125C9.51302 6.96875 10.0599 6.70833 10.6328 6.5H2V19H18.25V13.7461L15.75 15.4258V16.5Z" fill="#39B2BA"/>
</svg>
