<svg width="15" height="15" viewBox="0 0 10 10" fill="none" xmlns="http://www.w3.org/2000/svg">
<path d="M5.00977 9.59375L4.49219 8.89062C4.17969 8.46094 3.84115 8.08008 3.47656 7.74805C3.11198 7.41602 2.75065 7.10026 2.39258 6.80078C2.08659 6.55339 1.79362 6.30599 1.51367 6.05859C1.23372 5.80469 0.986328 5.53451 0.771484 5.24805C0.511068 4.90951 0.315755 4.55794 0.185547 4.19336C0.061849 3.82227 0 3.43164 0 3.02148C0 2.63737 0.0748698 2.27604 0.224609 1.9375C0.380859 1.59245 0.589193 1.29297 0.849609 1.03906C1.11654 0.785156 1.42578 0.586589 1.77734 0.443359C2.13542 0.29362 2.51628 0.21875 2.91992 0.21875C3.19987 0.21875 3.47656 0.267578 3.75 0.365234C4.02995 0.462891 4.29362 0.60612 4.54102 0.794922C4.62565 0.853516 4.70378 0.91862 4.77539 0.990234C4.85352 1.05534 4.92839 1.12695 5 1.20508C5.07161 1.12695 5.14323 1.05534 5.21484 0.990234C5.29297 0.91862 5.37435 0.853516 5.45898 0.794922C5.70638 0.60612 5.9668 0.462891 6.24023 0.365234C6.52018 0.267578 6.80013 0.21875 7.08008 0.21875C7.48372 0.21875 7.86133 0.29362 8.21289 0.443359C8.57096 0.586589 8.88021 0.785156 9.14062 1.03906C9.40755 1.29297 9.61589 1.59245 9.76562 1.9375C9.92188 2.27604 10 2.63737 10 3.02148C10 3.41862 9.9349 3.79622 9.80469 4.1543C9.68099 4.51237 9.48893 4.86068 9.22852 5.19922C9.01367 5.47917 8.76628 5.74284 8.48633 5.99023C8.21289 6.23763 7.92643 6.48828 7.62695 6.74219C7.25586 7.04818 6.88477 7.37044 6.51367 7.70898C6.14909 8.04753 5.8138 8.43815 5.50781 8.88086L5.00977 9.59375ZM2.91992 1.46875C2.45768 1.46875 2.0638 1.62174 1.73828 1.92773C1.41276 2.22721 1.25 2.5918 1.25 3.02148C1.25 3.32096 1.29883 3.5944 1.39648 3.8418C1.49414 4.08919 1.6276 4.32357 1.79688 4.54492C1.96615 4.75977 2.16797 4.97135 2.40234 5.17969C2.64323 5.38802 2.90365 5.60938 3.18359 5.84375C3.47656 6.07812 3.77604 6.33203 4.08203 6.60547C4.38802 6.87891 4.69076 7.18164 4.99023 7.51367C5.2832 7.16862 5.58594 6.85612 5.89844 6.57617C6.21745 6.29622 6.52669 6.03255 6.82617 5.78516C7.09961 5.55078 7.36003 5.32617 7.60742 5.11133C7.85482 4.88997 8.06641 4.66536 8.24219 4.4375C8.41797 4.20312 8.54492 3.97526 8.62305 3.75391C8.70768 3.52604 8.75 3.2819 8.75 3.02148C8.75 2.5918 8.58724 2.22721 8.26172 1.92773C7.9362 1.62174 7.54232 1.46875 7.08008 1.46875C6.8457 1.46875 6.57878 1.5599 6.2793 1.74219C5.98633 1.91797 5.74544 2.19466 5.55664 2.57227L5 3.70508L4.44336 2.57227C4.25456 2.19466 4.01042 1.91797 3.71094 1.74219C3.41797 1.5599 3.1543 1.46875 2.91992 1.46875Z" fill="#39B2BA"/>
</svg>
