<svg width="90" height="36" viewBox="0 0 90 36" fill="none" xmlns="http://www.w3.org/2000/svg">
<circle cx="18" cy="18" r="17.5" fill="#DDDDDD" stroke="white"/>
<path d="M47.218 20.2H55.128V22.006H49.472V24.022H52.188C53.3733 24.022 54.274 24.2693 54.89 24.764C55.5153 25.2587 55.828 25.9727 55.828 26.906C55.828 27.886 55.4827 28.6467 54.792 29.188C54.1013 29.7293 53.126 30 51.866 30H47.218V20.2ZM51.74 28.32C52.3187 28.32 52.762 28.208 53.07 27.984C53.378 27.7507 53.532 27.4147 53.532 26.976C53.532 26.1173 52.9347 25.688 51.74 25.688H49.472V28.32H51.74ZM64.7679 22.468L61.3659 30.462C61.0205 31.33 60.5912 31.9413 60.0779 32.296C59.5739 32.6507 58.9625 32.828 58.2439 32.828C57.8519 32.828 57.4645 32.7673 57.0819 32.646C56.6992 32.5247 56.3865 32.3567 56.1439 32.142L56.9419 30.588C57.1099 30.7373 57.3012 30.854 57.5159 30.938C57.7399 31.022 57.9592 31.064 58.1739 31.064C58.4725 31.064 58.7152 30.9893 58.9019 30.84C59.0885 30.7 59.2565 30.462 59.4059 30.126L59.4339 30.056L56.1719 22.468H58.4259L60.5399 27.578L62.6679 22.468H64.7679ZM72.5123 22.468V30H70.3283V24.26H67.9483L67.8783 25.59C67.8409 26.5793 67.7476 27.4007 67.5983 28.054C67.4489 28.7073 67.2063 29.2207 66.8703 29.594C66.5343 29.9673 66.0676 30.154 65.4703 30.154C65.1529 30.154 64.7749 30.098 64.3363 29.986L64.4483 28.194C64.5976 28.2127 64.7049 28.222 64.7703 28.222C65.0969 28.222 65.3396 28.1053 65.4983 27.872C65.6663 27.6293 65.7783 27.326 65.8343 26.962C65.8903 26.5887 65.9323 26.0987 65.9603 25.492L66.0723 22.468H72.5123ZM77.5385 22.356C78.7052 22.356 79.6012 22.636 80.2265 23.196C80.8518 23.7467 81.1645 24.582 81.1645 25.702V30H79.1205V29.062C78.7098 29.762 77.9445 30.112 76.8245 30.112C76.2458 30.112 75.7418 30.014 75.3125 29.818C74.8925 29.622 74.5705 29.3513 74.3465 29.006C74.1225 28.6607 74.0105 28.2687 74.0105 27.83C74.0105 27.13 74.2718 26.5793 74.7945 26.178C75.3265 25.7767 76.1432 25.576 77.2445 25.576H78.9805C78.9805 25.1 78.8358 24.736 78.5465 24.484C78.2572 24.2227 77.8232 24.092 77.2445 24.092C76.8432 24.092 76.4465 24.1573 76.0545 24.288C75.6718 24.4093 75.3452 24.5773 75.0745 24.792L74.2905 23.266C74.7012 22.9767 75.1912 22.7527 75.7605 22.594C76.3392 22.4353 76.9318 22.356 77.5385 22.356ZM77.3705 28.642C77.7438 28.642 78.0752 28.558 78.3645 28.39C78.6538 28.2127 78.8592 27.956 78.9805 27.62V26.85H77.4825C76.5865 26.85 76.1385 27.144 76.1385 27.732C76.1385 28.012 76.2458 28.236 76.4605 28.404C76.6845 28.5627 76.9878 28.642 77.3705 28.642ZM89.3897 24.26H86.8417V30H84.6717V24.26H82.1237V22.468H89.3897V24.26Z" fill="white"/>
<path fill-rule="evenodd" clip-rule="evenodd" d="M12.8 22.4358C12.8989 21.4471 13.3821 20.8989 14.25 20.8039L14.2906 19.1716C13.7259 18.5939 13.3416 17.8611 13.4113 16.7356C11.9206 14.5912 11.3442 11.8941 12.3865 12.1307C11.6705 7.68133 12.6135 5.23293 15.461 5.08405C15.5076 4.84598 15.3898 4.6374 15.1699 4.44702C15.9503 4.45866 17.3652 3.8988 18.9085 4.52419C19.0074 4.33963 18.9896 4.16672 18.8327 4C19.6946 4.27411 20.5735 4.12522 21.0689 5.04838C22.6175 4.92352 23.3862 5.99483 23.8171 7.59215C23.9626 9.20039 23.7762 10.7253 23.4096 12.2025C24.0559 11.9877 24.3704 12.3928 23.9626 14.1503C23.7491 15.1568 23.2581 15.985 22.5303 16.6639C22.6584 17.4979 22.3962 18.314 21.6158 19.0941L21.6802 20.7981C22.5944 20.8709 23.0951 21.4234 23.2 22.4361C26.9902 23.1129 29.036 24.6778 30 27.3504C27.1023 30.8086 22.8015 33 18 33C13.1985 33 8.89734 30.8086 6 27.3504C6.96258 24.6774 9.00979 23.1125 12.8 22.4358Z" fill="#888888"/>
</svg>
