<svg width="25" height="25" viewBox="0 0 25 25" fill="none" xmlns="http://www.w3.org/2000/svg">
<path d="M12.5 25C5.60749 25 0 19.3925 0 12.5C0 5.60749 5.60749 0 12.5 0C19.3925 0 25 5.60749 25 12.5C25 19.3925 19.3924 25 12.5 25ZM19.9558 8.19599L21.9745 7.65518L22.3917 8.37832L22.3913 6.79005L21.0152 5.99529L21.433 6.71858L19.9558 8.19599ZM3.98438 5.99488L2.60915 6.78922L2.60888 8.37818L3.02629 7.65462L5.04479 8.1953L3.56683 6.71734L3.98438 5.99488ZM5.04423 16.8042L3.02533 17.3451L2.60833 16.6222L2.60874 18.2105L3.98465 19.0051L3.56669 18.2817L5.04423 16.8042ZM21.0155 19.0055L22.391 18.2112V16.6221L21.9736 17.3458L19.9554 16.805L20.7255 17.5751L21.433 18.2827L21.0155 19.0055ZM21.1091 12.5L23.1272 13.0408V13.8738L23.9199 12.4999L23.1276 11.1319V11.9591L21.1091 12.5ZM3.89032 12.5006L1.87265 11.9599V11.1266L1.18986 12.31L1.07996 12.5006L1.87224 13.8686V13.0414L3.89032 12.5006ZM16.8037 13.6536L18.9144 15.7645L21.6184 16.4891L22.3913 15.1494L22.3915 13.6052L19.6883 12.8806L16.8037 13.6536ZM18.2632 12.4989L16.2044 11.9473L15.6509 12.5007L16.2032 13.0529L18.2632 12.4989ZM15.9831 13.8734L15.2291 14.0756L15.4315 14.8314L17.4934 15.3839L15.9831 13.8734ZM14.6102 10.3902L13.5557 10.6728L13.2727 9.61652L12.4994 10.3892L11.7276 9.61734L11.445 10.672L10.3887 10.389L10.6714 11.445L9.61707 11.7276L10.3891 12.4996L9.61597 13.2729L10.6718 13.5559L10.3892 14.6105L11.444 14.3279L11.7091 15.4023L12.5003 14.6113L13.2722 15.3831L13.5548 14.3284L14.611 14.6116L14.3282 13.5554L15.3827 13.273L14.6106 12.5008L15.3838 11.7277L14.3278 11.4445L14.6102 10.3902ZM14.8301 9.56956L15.3805 7.50823L13.8733 9.01567L14.0759 9.77186L14.8301 9.56956ZM11.127 9.01677L9.61693 7.50961L10.1688 9.56845L10.9247 9.77117L11.127 9.01677ZM10.1694 15.431L9.61913 17.4922L11.1262 15.9847L10.9237 15.2288L10.1694 15.431ZM13.8726 15.9836L15.3825 17.4908L14.8307 15.4321L14.0748 15.2295L13.8726 15.9836ZM13.6527 16.8043L12.8801 19.6876L13.6045 22.3915L15.1512 22.391L16.4886 21.6191L15.7644 18.9159L13.6527 16.8043ZM13.052 16.2039L12.5001 15.6516L11.9469 16.2048L12.4994 18.2667L13.052 16.2039ZM11.3461 16.8055L9.23808 18.9135L8.51094 21.6198L9.84347 22.3889L11.3937 22.3919L12.1184 19.6878L11.3461 16.8055ZM9.77076 14.0764L9.01498 13.8738L7.50576 15.3831L9.56873 14.8303L9.77076 14.0764ZM9.34853 12.4997L8.79629 11.9475L6.7362 12.5017L8.79505 13.0531L9.34853 12.4997ZM8.1942 13.6541L5.31484 12.8824L2.6075 13.6059L2.60778 15.1444L3.38022 16.4885L6.08454 15.7639L8.1942 13.6541ZM5.31099 12.1199L6.91455 11.6902L8.19557 11.347L6.08481 9.23601L3.38105 8.51149L2.60819 9.85132L2.60791 11.3957L5.31099 12.1199ZM9.01622 11.1271L9.77035 10.925L9.56777 10.1693L7.5059 9.61693L9.01622 11.1271ZM11.3466 8.19626L11.5075 7.59596L12.1192 5.31292L11.3948 2.60915L9.84843 2.60957L8.51066 3.38173L9.23477 6.08467L11.3466 8.19626ZM11.9472 8.79711L12.4992 9.34894L13.0524 8.79573L12.4999 6.734L11.9472 8.79711ZM13.6531 8.19516L15.7611 6.08743L16.4882 3.38091L15.1557 2.61177L13.6053 2.60874L12.8806 5.31278L13.6531 8.19516ZM15.2284 10.9245L15.9841 11.127L17.4933 9.61748L15.4304 10.1704L15.2284 10.9245ZM16.8047 11.3468L19.6841 12.1181L22.3914 11.3947L22.3911 9.85614L21.6187 8.51204L18.9146 9.23656L16.8047 11.3468ZM23.1264 15.3466L23.126 17.7554C23.8038 16.3873 24.2245 14.8701 24.327 13.2657L23.1264 15.3466ZM18.5336 16.4245L15.6512 15.6522L16.4227 18.5314L18.4029 20.5143L19.7353 19.7451L20.5134 18.404L18.5336 16.4245ZM18.2818 21.4337L16.8043 19.9562L17.3451 21.9743L16.6236 22.3907L18.2098 22.3902L18.9984 21.0203L18.2818 21.4337ZM15.3482 23.1267L13.2678 24.3275C14.872 24.2248 16.3888 23.8038 17.7566 23.1257L15.3482 23.1267ZM13.0398 23.1275L12.499 21.109L11.9581 23.128L11.1234 23.1278L12.4992 23.9218L13.8756 23.1272L13.0398 23.1275ZM9.65053 23.1272L7.24341 23.1264C8.61078 23.8041 10.1272 24.2248 11.7307 24.3277L9.65053 23.1272ZM6.78978 22.3907L8.37061 22.3885L7.65408 21.9751L8.19488 19.9566L6.71775 21.4339L5.99612 21.0171L6.78978 22.3907ZM6.5967 20.5142L8.57567 18.5354L9.34853 15.6509L6.46532 16.4234L4.4858 18.4029L5.25962 19.7419L6.5967 20.5142ZM1.87251 15.3466L0.672601 13.2665C0.775061 14.8701 1.19551 16.3865 1.87279 17.7538L1.87251 15.3466ZM1.87293 9.65384L1.87334 7.2452C1.19551 8.61326 0.774924 10.1303 0.672464 11.7347L1.87293 9.65384ZM6.46601 8.57622L9.34839 9.34852L8.57663 6.4689L6.59629 4.48594L5.26403 5.25563L4.48607 6.59656L6.46601 8.57622ZM6.71747 3.56669L8.19516 5.04423L7.65449 3.02615L8.37598 2.6097L6.78978 2.61025L6.00122 3.98038L6.71747 3.56669ZM9.65122 1.87361L11.7321 0.6726C10.1277 0.775335 8.61065 1.19633 7.24286 1.87444L9.65122 1.87361ZM11.9595 1.87279L12.5003 3.89114L13.0412 1.87238L13.8763 1.87265L12.5003 1.07872L11.1241 1.87306L11.9595 1.87279ZM15.3489 1.8732L17.7563 1.87403C16.3889 1.19633 14.8724 0.775473 13.2687 0.6726L15.3489 1.8732ZM18.2095 2.60984L16.6287 2.61204L17.3451 3.02533L17.026 4.21643L16.8042 5.04423L18.2816 3.56655L19.0028 3.98314L18.2095 2.60984ZM18.4026 4.48607L16.4235 6.46504L15.9938 8.06846L15.6505 9.34935L18.534 8.57677L20.5135 6.59739L19.7397 5.25838L18.4026 4.48607ZM23.1273 9.65343L23.5452 10.3777L24.3274 11.7336C24.2249 10.1299 23.8045 8.6134 23.1271 7.24575L23.1273 9.65343ZM22.3629 19.0766L20.2786 20.2804L19.0745 22.3641C20.3751 21.4956 21.494 20.377 22.3629 19.0766ZM5.92602 22.3648L4.72157 20.2802L2.63656 19.076C3.50568 20.3769 4.62489 21.4961 5.92602 22.3648ZM2.63697 5.92327L4.72129 4.71936L5.92547 2.63559C4.62475 3.50416 3.50582 4.62282 2.63697 5.92327ZM19.0738 2.63518L20.2786 4.72005L22.3637 5.92437C21.4946 4.62324 20.3751 3.50402 19.0738 2.63518Z" fill="white"/>
</svg>
