<svg width="9" height="15" viewBox="0 0 9 15" fill="none" xmlns="http://www.w3.org/2000/svg">
<path d="M8.81387 0.810547H8.8938C8.77305 0.884526 8.67441 0.992789 8.59618 1.11549C8.46013 1.33021 8.37849 1.5756 8.29346 1.81739C8.19482 2.10609 8.09617 2.3966 7.94821 2.66184C7.82576 2.88017 7.6676 3.07865 7.47202 3.22661C7.1897 3.44314 6.84446 3.5514 6.50091 3.5929C6.28663 3.61275 6.07574 3.68312 5.89036 3.7986C5.70669 3.91047 5.55532 4.0891 5.4907 4.30563C5.52981 3.66688 5.67437 3.02452 5.9771 2.46516C6.2271 1.99963 6.59445 1.60628 7.02983 1.33562C7.56896 0.998202 8.19481 0.846634 8.81387 0.810547Z" fill="#40E869"/>
<path d="M3.15903 2.74123C3.51958 2.78815 3.88013 2.9343 4.13524 3.21398C4.33932 3.43772 4.46177 3.73545 4.49919 4.04219C4.5196 4.18474 4.51619 4.33089 4.51449 4.47524C4.40735 4.36517 4.30701 4.22082 4.14884 4.19737C3.96346 4.16489 3.78489 4.06023 3.68285 3.89062C3.50427 3.60373 3.51108 3.23924 3.34781 2.94513C3.30189 2.86213 3.23556 2.79356 3.15903 2.74123Z" fill="#40E869"/>
<path d="M4.96178 8.38172C4.94818 8.23015 4.93457 8.07859 4.92097 7.92702C4.82232 7.8783 4.72198 7.83499 4.61994 7.7971C4.47028 7.74117 4.31721 7.69786 4.16075 7.66538C4.03149 7.63832 3.90054 7.62027 3.76958 7.61125C3.90564 7.66177 4.0417 7.7159 4.17095 7.78628C4.33762 7.87108 4.49409 7.97393 4.64205 8.09122C4.756 8.18144 4.86314 8.27887 4.96178 8.38172Z" fill="#40E869"/>
<path d="M6.56214 9.92627C6.55194 9.81079 6.52132 9.69891 6.50262 9.58524C6.26622 9.04934 5.89206 8.58561 5.43627 8.24458C5.46008 8.54592 5.48049 8.84905 5.4992 9.15038C5.81043 9.75124 5.92268 10.4658 5.82403 11.1424C5.7288 11.7992 5.43457 12.4235 4.99409 12.8945C4.7866 13.1218 4.5451 13.3113 4.2866 13.4647C4.38184 13.4556 4.47027 13.4159 4.55871 13.3798C4.99239 13.1868 5.35804 12.8548 5.66417 12.4813C6.01451 12.0482 6.29173 11.543 6.45159 10.9963C6.55194 10.6516 6.60126 10.2853 6.56214 9.92627Z" fill="#40E869"/>
<path d="M6.19309 0.98918C5.89717 1.40238 5.68628 1.87874 5.54852 2.37675C5.33253 3.15444 5.2679 3.97182 5.256 4.78018C5.24409 5.93859 5.34784 7.0934 5.43627 8.24639C5.46008 8.54772 5.48049 8.85086 5.4992 9.15219C5.52301 9.60509 5.53832 10.058 5.52301 10.5109C5.5094 10.8429 5.48219 11.1767 5.39206 11.4961C5.29342 11.8479 5.13185 12.1799 4.91926 12.4686C4.59953 12.9017 4.16755 13.259 3.66414 13.4105C4.02299 13.1814 4.33082 12.862 4.54851 12.4813C4.87844 11.9057 5.03831 11.2326 5.05872 10.5614C5.08253 9.83425 5.0196 9.10889 4.95838 8.38533C4.94477 8.23376 4.93117 8.0822 4.91756 7.93063C4.81552 6.78485 4.71177 5.63365 4.7696 4.48246C4.81212 3.72281 4.92606 2.95415 5.22709 2.25766C5.44818 1.75785 5.77471 1.31036 6.19309 0.98918Z" fill="#FF4A3D"/>
<path d="M4.16075 7.66738C4.09782 6.6876 4.18286 5.68797 4.48558 4.75511C4.46517 5.77097 4.54341 6.78684 4.61994 7.7991C4.47028 7.74316 4.31721 7.69805 4.16075 7.66738Z" fill="#00B7FF"/>
<path d="M4.17265 7.78842C4.33932 7.87322 4.49578 7.97607 4.64375 8.09336C4.68116 8.55708 4.71518 9.02261 4.73899 9.48814C4.75769 9.89232 4.7696 10.2965 4.74919 10.7007C4.73218 11.0237 4.70157 11.3485 4.60973 11.6588C4.50939 11.9998 4.34782 12.321 4.13864 12.6025C3.82061 13.0301 3.39203 13.3784 2.89542 13.5318C3.52808 13.1167 4.01789 12.4455 4.20666 11.6787C4.2866 11.3611 4.2849 11.0291 4.2968 10.7043C4.31381 10.1828 4.30531 9.66136 4.27639 9.1399C4.25088 8.687 4.20156 8.23771 4.17265 7.78842Z" fill="#00B7FF"/>
<path d="M6.50262 9.58524C6.91078 10.473 6.93459 11.5484 6.56554 12.456C6.33084 13.046 5.93968 13.5657 5.44648 13.9356C4.96348 14.3019 4.38184 14.522 3.78999 14.5707C3.20665 14.6195 2.6131 14.4986 2.08929 14.2225C1.55527 13.9446 1.09608 13.5116 0.774643 12.9811V12.9721C1.24574 13.4484 1.86479 13.757 2.51276 13.8328C3.12161 13.9067 3.74917 13.7732 4.2883 13.4647C4.38354 13.4556 4.47197 13.4159 4.56041 13.3799C4.99409 13.1868 5.35974 12.8548 5.66587 12.4813C6.01621 12.0482 6.29343 11.543 6.45329 10.9963C6.55193 10.6516 6.60295 10.2853 6.56384 9.92626C6.55193 9.81078 6.52132 9.69891 6.50262 9.58524Z" fill="#339466"/>
<path d="M3.72199 8.76802C3.7577 8.51361 3.80702 8.25739 3.90736 8.02101C3.87845 8.78787 3.9907 9.54932 4.01961 10.3144C4.02471 10.6807 4.02471 11.0506 3.96859 11.4132C3.90566 11.8228 3.7543 12.218 3.52981 12.559C3.70498 11.8806 3.67266 11.1678 3.65736 10.4714C3.64375 9.90298 3.64545 9.3328 3.72199 8.76802Z" fill="#BCBDC0"/>
</svg>
