<svg width="146" height="179" viewBox="0 0 146 179" fill="none" xmlns="http://www.w3.org/2000/svg">
<path d="M23.3353 159.612C21.6879 160.989 19.5948 161.711 17.4528 161.641C11.8626 161.641 8 157.938 8 152.251C8 147 11.4639 142.852 17.2933 142.852C19.3323 142.761 21.3386 143.391 22.9632 144.632L21.9267 146.306C20.5816 145.356 18.9627 144.877 17.3199 144.944C13.2712 144.944 10.4008 147.926 10.4008 152.26C10.3485 153.233 10.5005 154.205 10.847 155.115C11.1934 156.025 11.7266 156.851 12.4117 157.54C13.0969 158.23 13.9188 158.766 14.8239 159.115C15.729 159.464 16.6972 159.618 17.6654 159.567C19.389 159.573 21.0657 159.003 22.4316 157.947L23.3353 159.612Z" fill="#39B2BA"/>
<path d="M38.1568 143.004H40.0969L48.0702 161.383H45.6517L43.3128 155.847H34.8169L32.4514 161.383H30.1569L38.1568 143.004ZM35.7028 153.764H42.4269L39.0781 145.959L35.7028 153.764Z" fill="#39B2BA"/>
<path d="M56.1764 143.111H66.7188V145.166H58.4355V150.409C59.3657 150.311 60.5705 150.257 61.2881 150.257C65.4608 150.257 67.8085 152.34 67.8085 155.598C67.8085 159.38 65.1507 161.418 60.6503 161.418C58.7544 161.418 57.2661 161.311 56.2207 161.311L56.1764 143.111ZM58.4355 152.536V159.291C59.2594 159.345 60.0833 159.398 60.9958 159.398C64.0522 159.398 65.5405 158.045 65.5405 155.838C65.5405 153.809 64.1319 152.393 61.1109 152.393C60.2173 152.396 59.3244 152.444 58.4355 152.536Z" fill="#39B2BA"/>
<path d="M76.5702 161.383V143.111H78.8293V157.734L90.1426 143.111H92.1359V161.383H89.8768V146.769L78.5636 161.383H76.5702Z" fill="#39B2BA"/>
<path d="M113.938 145.167H107.179L106.86 148.611C105.761 160.226 103.263 161.712 100.331 161.347V159.131C101.66 159.256 103.874 158.606 104.76 146.733L105.026 143.075H116.18V161.347H113.921L113.938 145.167Z" fill="#39B2BA"/>
<path d="M128.361 149.901C129.371 149.821 130.355 149.768 130.966 149.768C135.785 149.768 138 151.957 138 155.411C138 159.247 135.227 161.436 130.461 161.436C128.866 161.436 127.192 161.383 126.102 161.383V143.111H128.361V149.901ZM128.361 152.011V159.273C129.079 159.273 129.876 159.345 130.727 159.345C133.792 159.345 135.599 158.099 135.599 155.455C135.599 153.079 133.827 151.895 130.806 151.895C130.186 151.859 129.247 151.913 128.361 152.011Z" fill="#39B2BA"/>
<path d="M8.74286 175.68H9.75687C10.1448 175.177 11.0442 173.131 11.2029 169.532L11.2999 167.588H17.1282V175.68H18.398V179H16.8549V177.27H10.2859V179H8.74286V175.68ZM11.5644 175.68H15.4882V169.169H12.8959L12.746 170.862C12.7009 172.541 12.297 174.188 11.5644 175.68Z" fill="#CCB282"/>
<path d="M27.1978 169.178H24.4556L24.2704 171.038C23.7237 176.619 22.5069 177.549 20.6464 177.298L20.6905 175.614C21.4135 175.707 22.3658 175.391 22.7802 169.56L22.9125 167.616H28.8378V177.298H27.1978V169.178Z" fill="#CCB282"/>
<path d="M36.8441 173.922H35.4862L33.3788 177.27H31.5272L33.9255 173.55C33.4351 173.318 33.0186 172.942 32.726 172.467C32.4335 171.992 32.2774 171.437 32.2766 170.871C32.2766 169.085 33.4053 167.523 36.1387 167.523C36.7471 167.523 37.9022 167.523 38.4753 167.523V177.205H36.8441V173.922ZM36.8441 172.331V169.178C36.6148 169.178 36.0858 169.178 35.8036 169.178C35.5831 169.152 35.3598 169.175 35.1483 169.246C34.9367 169.316 34.7415 169.433 34.5753 169.588C34.4092 169.743 34.2757 169.933 34.1835 170.146C34.0913 170.359 34.0425 170.59 34.0401 170.824C34.0512 171.204 34.1892 171.567 34.4296 171.85C34.6701 172.132 34.9975 172.316 35.3539 172.368L36.8441 172.331Z" fill="#CCB282"/>
<path d="M53.7648 176.331C52.9257 177.075 51.8537 177.463 50.758 177.419C50.1196 177.448 49.4822 177.34 48.8842 177.103C48.2863 176.865 47.7401 176.502 47.2786 176.036C46.8171 175.57 46.4499 175.01 46.199 174.39C45.9481 173.77 45.8187 173.103 45.8187 172.429C45.8187 171.755 45.9481 171.088 46.199 170.468C46.4499 169.848 46.8171 169.288 47.2786 168.822C47.7401 168.356 48.2863 167.993 48.8842 167.755C49.4822 167.517 50.1196 167.41 50.758 167.439C51.7916 167.395 52.8055 167.745 53.6149 168.425L52.8742 169.68C52.251 169.235 51.5107 169.007 50.758 169.029C50.3387 169.017 49.9217 169.099 49.5342 169.268C49.1467 169.437 48.7973 169.691 48.5087 170.012C48.2201 170.333 47.9988 170.715 47.8592 171.132C47.7196 171.549 47.6648 171.992 47.6983 172.433C47.6779 172.887 47.7481 173.341 47.9043 173.764C48.0605 174.188 48.2993 174.572 48.6051 174.892C48.911 175.212 49.2772 175.461 49.6799 175.622C50.0827 175.783 50.513 175.854 50.9432 175.828C51.7464 175.832 52.5291 175.561 53.174 175.056L53.7648 176.331Z" fill="#CCB282"/>
<path d="M62.5557 169.178H59.8135L59.6283 171.038C59.0728 176.619 57.8648 177.549 56.0044 177.298V175.614C56.7362 175.707 57.6885 175.391 58.1029 169.56L58.2352 167.616H64.1605V177.298H62.5205L62.5557 169.178Z" fill="#CCB282"/>
<path d="M71.9816 167.439C72.6214 167.397 73.2624 167.497 73.8639 167.731C74.4653 167.965 75.0141 168.328 75.4752 168.798C75.9363 169.268 76.2997 169.833 76.5422 170.459C76.7848 171.085 76.9012 171.758 76.8841 172.433C76.8921 173.106 76.7693 173.774 76.5235 174.395C76.2777 175.016 75.9139 175.577 75.4546 176.044C74.9953 176.511 74.4502 176.874 73.8529 177.111C73.2556 177.347 72.6188 177.452 71.9816 177.419C71.3433 177.46 70.7038 177.361 70.1038 177.128C69.5039 176.894 68.9567 176.531 68.4971 176.062C68.0375 175.593 67.6756 175.028 67.4345 174.403C67.1934 173.779 67.0783 173.108 67.0967 172.433C67.0876 171.761 67.2089 171.095 67.4532 170.474C67.6974 169.853 68.0594 169.292 68.5169 168.824C68.9744 168.356 69.5177 167.992 70.1135 167.754C70.7094 167.515 71.3451 167.408 71.9816 167.439ZM71.9816 175.81C72.4062 175.829 72.8299 175.754 73.2253 175.589C73.6206 175.424 73.9787 175.174 74.2763 174.853C74.5739 174.533 74.8045 174.151 74.9529 173.731C75.1014 173.311 75.1645 172.862 75.1382 172.415C75.1243 171.762 74.9282 171.128 74.5744 170.592C74.2206 170.056 73.7247 169.642 73.149 169.402C72.5732 169.161 71.9431 169.106 71.3374 169.241C70.7317 169.377 70.1774 169.698 69.7439 170.164C69.3103 170.631 69.0167 171.221 68.8999 171.863C68.7831 172.504 68.8481 173.168 69.087 173.77C69.3258 174.373 69.7278 174.888 70.2427 175.25C70.7575 175.613 71.3624 175.808 71.9816 175.81Z" fill="#CCB282"/>
<path d="M79.8203 167.616C80.3493 167.616 81.5838 167.55 82.5361 167.55C84.7757 167.55 85.6222 168.601 85.6222 169.941C85.6415 170.408 85.5229 170.87 85.2829 171.263C85.0429 171.656 84.6931 171.961 84.2819 172.136C84.7686 172.24 85.2033 172.526 85.5062 172.941C85.8091 173.356 85.9598 173.873 85.9308 174.396C85.9308 176.386 84.423 177.298 82.4038 177.298C81.522 177.298 80.3405 177.298 79.7586 177.223L79.8203 167.616ZM81.4692 169.178V171.624H82.589C83.3561 171.624 83.9821 171.224 83.9821 170.341C83.9821 169.457 83.3913 169.141 82.5096 169.141C82.1304 169.141 81.7689 169.15 81.4692 169.178ZM81.4692 173.103V175.661C81.8319 175.709 82.197 175.733 82.5625 175.735C83.6735 175.735 84.326 175.252 84.326 174.34C84.326 173.429 83.7176 173.103 82.686 173.103H81.4692Z" fill="#CCB282"/>
<path d="M93.6372 177.27V167.588H95.2861V174.48L100.215 167.588H101.679V177.27H100.03V170.397L95.1009 177.27H93.6372Z" fill="#CCB282"/>
<path d="M108.653 175.68H109.659C110.047 175.177 110.955 173.131 111.113 169.532L111.202 167.588H117.03V175.68H118.308V179H116.765V177.27H110.196V179H108.653V175.68ZM111.475 175.68H115.399V169.169H112.806L112.656 170.862C112.611 172.541 112.208 174.188 111.475 175.68Z" fill="#CCB282"/>
<path d="M121.077 167.588H126.509V169.178H122.726V171.587H126.112V173.178H122.726V175.68H126.641V177.27H121.077V167.588Z" fill="#CCB282"/>
<path d="M135.67 169.178H132.928L132.743 171.038C132.187 176.619 130.979 177.549 129.11 177.298V175.614C129.833 175.707 130.785 175.391 131.208 169.56L131.341 167.616H137.257V177.298H135.626L135.67 169.178Z" fill="#CCB282"/>
<g filter="url(#filter0_d_1027_737)">
<path d="M72.8841 127.586C108.719 127.586 137.768 99.9203 137.768 65.793C137.768 31.6657 108.719 4 72.8841 4C37.0496 4 8 31.6657 8 65.793C8 99.9203 37.0496 127.586 72.8841 127.586Z" fill="#39B2BA" shape-rendering="crispEdges"/>
<path d="M72.8841 129.586C109.73 129.586 139.768 101.116 139.768 65.793C139.768 30.4702 109.73 2 72.8841 2C36.0381 2 6 30.4702 6 65.793C6 101.116 36.0381 129.586 72.8841 129.586Z" stroke="white" stroke-opacity="0.5" stroke-width="4" shape-rendering="crispEdges"/>
</g>
<path d="M72.9924 8.33984C61.3098 8.33984 49.8897 11.7124 40.1762 18.0309C30.4627 24.3494 22.8922 33.3301 18.4222 43.8372C13.9522 54.3443 12.7834 65.9058 15.0637 77.0595C17.3439 88.2133 22.9708 98.4583 31.2327 106.499C39.4946 114.539 50.0203 120.014 61.4788 122.231C72.9372 124.448 84.8137 123.307 95.6061 118.953C106.398 114.599 115.622 107.227 122.11 97.7698C128.599 88.3125 132.06 77.1946 132.057 65.8221C132.037 50.5803 125.807 35.9686 114.734 25.1925C103.661 14.4163 88.6498 8.35555 72.9924 8.33984ZM108.218 85.6159L117.76 88.1087L119.726 84.785V92.1595L113.233 95.8096L115.199 92.4859L108.218 85.6159ZM32.7674 95.7503L26.2741 92.1595V84.7405L28.2556 88.0642L37.7974 85.5714L30.8011 92.382L32.7674 95.7503ZM37.7669 46.0283L28.2404 43.5355L26.2588 46.8592V39.5589L32.7674 35.9088L30.7859 39.2325L37.7669 46.0283ZM113.233 35.9088L119.726 39.5589V46.8592L117.76 43.5355L108.218 46.0283L111.861 42.482L115.199 39.2325L113.233 35.9088ZM113.675 65.8221L123.201 63.3442V59.516L126.951 65.8369L123.216 72.1282V68.3149L113.675 65.8221ZM32.3254 65.8221L22.7835 68.3149V72.1431L19.5674 66.6975L19.0491 65.8221L22.7835 59.516V63.3145L32.3254 65.8221ZM93.2954 60.5249L103.279 50.8061L116.053 47.4824L119.726 53.5808V60.6882L106.968 64.0119L93.2954 60.5249ZM100.2 65.8369L90.5213 68.4187L87.8996 65.8815L90.5213 63.2848L100.2 65.8369ZM89.4543 59.516L85.9485 58.5812L86.9088 55.1091L96.6183 52.557L89.4543 59.516ZM82.9763 75.541L77.992 74.2501L76.6506 79.1021L72.9924 75.541L69.3494 79.1021L68.0081 74.2501L63.0238 75.541L64.3651 70.6889L59.3808 69.3981L63.0238 65.8369L59.3656 62.2907L64.3651 60.9849L63.0848 56.1181L68.0691 57.4238L69.319 52.4828L73.0534 56.1181L76.7116 52.5718L78.0377 57.409L83.0372 56.1181L81.6349 60.9998L86.6192 62.3055L82.9763 65.8518L86.6192 69.4129L81.6349 70.7038L82.9763 75.541ZM84.0127 79.3098L86.604 88.7913L79.4857 81.8619L80.446 78.3899L84.0127 79.3098ZM66.5143 81.8619L59.3808 88.7913L61.9873 79.3246L65.554 78.3899L66.5143 81.8619ZM61.9416 52.3641L59.3351 42.8826L66.4686 49.8119L65.5083 53.284L61.9416 52.3641ZM79.44 49.8119L86.5735 42.8826L83.967 52.3492L80.4003 53.284L79.44 49.8119ZM78.4035 46.0431L74.791 32.8076L78.2206 20.3734H85.5218L91.8474 23.9345L88.4178 36.3539L78.4035 46.0431ZM75.5684 48.803L72.9467 51.3402L70.3402 48.803L72.9467 39.3215L75.5684 48.803ZM67.5051 46.0431L57.5365 36.3391L54.1526 23.9049L60.4478 20.3734H67.7795L71.1938 32.8076L67.5051 46.0431ZM60.0363 58.5812L56.5305 59.516L49.3665 52.5718L59.1217 55.1091L60.0363 58.5812ZM58.0547 65.8221L55.4635 68.4187L45.7388 65.8815L55.4635 63.2848L58.0547 65.8221ZM52.5979 60.5101L38.9863 64.0712L26.1979 60.7327V53.6698L29.8561 47.4824L42.6293 50.8209L52.5979 60.5101ZM38.9711 67.573L46.5923 69.5464L52.6894 71.1341L42.7208 80.8381L29.9475 84.1767L26.2893 78.0041V70.9115L38.9711 67.573ZM56.4847 72.1431L60.0363 73.063L59.0912 76.5499L49.3665 79.0872L56.4847 72.1431ZM67.4899 85.6159L68.252 88.3758L71.1328 98.8811L67.7185 111.315H60.4173L54.0917 107.769L57.506 95.3348L67.4899 85.6159ZM70.325 82.8561L72.9924 80.2891L75.6141 82.8264L72.9924 92.3079L70.325 82.8561ZM78.3882 85.6308L88.3416 95.32L91.7864 107.769L85.4913 111.3H78.1596L74.7453 98.8662L78.3882 85.6308ZM85.9485 73.0779L89.5153 72.1431L96.6488 79.0872L86.9088 76.5351L85.9485 73.0779ZM93.4021 71.1341L106.998 67.5878L119.802 70.9115V77.9892L116.159 84.1618L103.386 80.8381L93.4021 71.1341ZM123.262 52.735V41.7104C126.546 48.1592 128.473 55.1813 128.932 62.3649L123.262 52.735ZM101.572 47.7791L87.9453 51.3254L91.5883 38.09L100.947 28.9646L107.242 32.496L110.855 38.7428L101.572 47.7791ZM100.383 24.7358L93.4021 31.5316L95.9476 22.2579L92.5486 20.3289H100.033L103.767 26.6202L100.383 24.7358ZM86.5125 16.9459L76.6811 11.4261C84.0618 11.8761 91.2757 13.7578 97.8987 16.9607L86.5125 16.9459ZM75.6141 16.9459L73.0534 26.2344L70.5079 16.9459H66.5601L73.0534 13.2957L79.5619 16.9459H75.6141ZM59.5942 16.9459H48.2233C54.8451 13.7563 62.0523 11.8801 69.4257 11.4261L59.5942 16.9459ZM46.0894 20.3289H53.5582L50.1591 22.2282L52.7198 31.5167L45.7388 24.721L42.3397 26.635L46.0894 20.3289ZM45.1748 28.9646L54.5185 38.0603L58.1767 51.3402L44.5499 47.7791L35.13 38.7428L38.7882 32.5702L45.1748 28.9646ZM22.8445 52.7053L17.1743 62.2758C17.6275 55.1269 19.5341 48.1366 22.7835 41.7104L22.8445 52.7053ZM22.8445 78.8795V89.9635C19.5661 83.5128 17.6386 76.4918 17.1743 69.309L22.8445 78.8795ZM44.5499 83.8354L58.1614 80.2891L54.4575 93.6433L45.0986 102.754L38.8187 99.2223L35.13 93.0498L44.5499 83.8354ZM45.7388 106.879L52.7198 100.083L50.1591 109.371L53.5734 111.286H46.0131L42.294 104.979L45.7388 106.879ZM59.5942 114.669L69.4257 120.188C62.0523 119.734 54.8451 117.858 48.2233 114.669H59.5942ZM70.5079 114.669L73.0534 105.395L75.6141 114.669H79.5619L73.0534 118.319L66.5601 114.669H70.5079ZM86.5125 114.669H97.8987C91.2768 117.858 84.0697 119.734 76.6963 120.188L86.5125 114.669ZM100.033 111.286H92.5638L95.9476 109.386L94.4234 103.911L93.3869 100.098L100.353 106.894L103.767 104.979L100.033 111.286ZM100.947 102.65L91.5425 93.6433L89.5001 86.2243L87.8844 80.2891L101.511 83.8354L110.855 92.9459L107.197 99.1036L100.947 102.65ZM123.262 78.9092L125.244 75.5855L128.932 69.3535C128.473 76.5324 126.546 83.5496 123.262 89.9931V78.9092ZM119.665 35.5823L109.803 30.0329L104.118 20.4476C110.246 24.4595 115.507 29.6012 119.604 35.5823H119.665ZM41.9281 20.4476L36.2275 30.0329L26.3808 35.5823C30.4919 29.5875 35.781 24.4438 41.9434 20.4476H41.9281ZM26.3808 96.1212L36.2275 101.656L41.9129 111.241C35.7656 107.23 30.4925 102.076 26.396 96.0767L26.3808 96.1212ZM104.041 111.241L109.727 101.656L119.589 96.1064C115.476 102.078 110.199 107.205 104.057 111.197L104.041 111.241Z" fill="url(#paint0_linear_1027_737)"/>
<defs>
<filter id="filter0_d_1027_737" x="0" y="0" width="145.768" height="139.586" filterUnits="userSpaceOnUse" color-interpolation-filters="sRGB">
<feFlood flood-opacity="0" result="BackgroundImageFix"/>
<feColorMatrix in="SourceAlpha" type="matrix" values="0 0 0 0 0 0 0 0 0 0 0 0 0 0 0 0 0 0 127 0" result="hardAlpha"/>
<feOffset dy="4"/>
<feGaussianBlur stdDeviation="2"/>
<feComposite in2="hardAlpha" operator="out"/>
<feColorMatrix type="matrix" values="0 0 0 0 0 0 0 0 0 0 0 0 0 0 0 0 0 0 0.25 0"/>
<feBlend mode="normal" in2="BackgroundImageFix" result="effect1_dropShadow_1027_737"/>
<feBlend mode="normal" in="SourceGraphic" in2="effect1_dropShadow_1027_737" result="shape"/>
</filter>
<linearGradient id="paint0_linear_1027_737" x1="-16.8888" y1="20.8392" x2="164.984" y2="109.654" gradientUnits="userSpaceOnUse">
<stop stop-color="#C2BD33"/>
<stop offset="0.135417" stop-color="#EFEB81"/>
<stop offset="0.21875" stop-color="#EFEB81"/>
<stop offset="0.380496" stop-color="#8B884E"/>
<stop offset="0.625" stop-color="#F2EE82"/>
<stop offset="0.792146" stop-color="#D8AE43"/>
<stop offset="0.866771" stop-color="#989326"/>
<stop offset="1" stop-color="#E5ED8C"/>
</linearGradient>
</defs>
</svg>
