<svg width="15" height="16" viewBox="0 0 15 16" fill="none" xmlns="http://www.w3.org/2000/svg">
<path d="M13.212 4.29199C13.046 4.06738 12.8506 3.83301 12.626 3.58887C12.4112 3.33496 12.1817 3.08105 11.9376 2.82715C11.6837 2.58301 11.4297 2.35352 11.1758 2.13867C10.9317 1.91406 10.6973 1.71875 10.4727 1.55273C10.0919 1.2793 9.79889 1.1084 9.59381 1.04004C9.3985 0.97168 9.24713 0.9375 9.13971 0.9375H1.87408C1.55182 0.9375 1.2735 1.05469 1.03912 1.28906C0.814514 1.51367 0.702209 1.78711 0.702209 2.10938V14.7656C0.702209 15.0879 0.814514 15.3613 1.03912 15.5859C1.2735 15.8203 1.55182 15.9375 1.87408 15.9375H7.73346C7.86041 15.9375 7.96783 15.8887 8.05573 15.791C8.15338 15.7031 8.20221 15.5957 8.20221 15.4688C8.20221 15.3418 8.15338 15.2295 8.05573 15.1318C7.96783 15.0439 7.86041 15 7.73346 15H1.87408C1.80573 15 1.74713 14.9805 1.6983 14.9414C1.65924 14.8926 1.63971 14.834 1.63971 14.7656V2.10938C1.63971 2.04102 1.65924 1.9873 1.6983 1.94824C1.74713 1.89941 1.80573 1.875 1.87408 1.875C1.87408 1.875 2.25006 1.875 3.00201 1.875C3.76373 1.875 4.59869 1.875 5.5069 1.875C6.4151 1.875 7.24518 1.875 7.99713 1.875C8.75885 1.875 9.13971 1.875 9.13971 1.875V5.15625C9.13971 5.2832 9.18365 5.39551 9.27155 5.49316C9.3692 5.58105 9.48151 5.625 9.60846 5.625H12.8897V8.90625C12.8897 9.0332 12.9337 9.14551 13.0215 9.24316C13.1192 9.33105 13.2315 9.375 13.3585 9.375C13.4854 9.375 13.5928 9.33105 13.6807 9.24316C13.7784 9.14551 13.8272 9.0332 13.8272 8.90625V5.625C13.8272 5.51758 13.793 5.36621 13.7247 5.1709C13.6563 4.96582 13.4854 4.67285 13.212 4.29199ZM10.0772 4.6875V2.43164C10.2432 2.55859 10.4239 2.71484 10.6192 2.90039C10.8243 3.07617 11.0391 3.27637 11.2637 3.50098C11.4883 3.72559 11.6885 3.94043 11.8643 4.14551C12.0499 4.34082 12.2061 4.52148 12.3331 4.6875H10.0772ZM14.7647 12.1875H12.8897V10.3125H11.0147V12.1875H9.13971V14.0625H11.0147V15.9375H12.8897V14.0625H14.7647V12.1875Z" fill="#39B2BA"/>
</svg>
