<svg width="146" height="139" viewBox="0 0 146 139" fill="none" xmlns="http://www.w3.org/2000/svg">
<ellipse cx="73" cy="69.5" rx="73" ry="69.5" fill="#DDDDDD"/>
<path fill-rule="evenodd" clip-rule="evenodd" d="M51.7665 86.2003C52.1704 82.3819 54.1437 80.2647 57.6877 79.8978L57.8533 73.5938C55.5473 71.3627 53.978 68.5327 54.2628 64.1857C48.176 55.9038 45.822 45.4877 50.078 46.4015C47.1545 29.2176 51.0051 19.7617 62.6324 19.1867C62.8228 18.2672 62.3418 17.4617 61.4438 16.7264C64.6304 16.7714 70.4077 14.6092 76.7097 17.0245C77.1136 16.3117 77.041 15.6439 76.4002 15C79.9195 16.0586 83.5085 15.4836 85.5312 19.0489C91.8549 18.5667 94.9935 22.7042 96.7531 28.8731C97.3474 35.0843 96.586 40.9734 95.0894 46.6785C97.7281 45.849 99.0126 47.4137 97.3474 54.2013C96.4756 58.0885 94.4704 61.2868 91.4989 63.9088C92.022 67.1296 90.9511 70.2816 87.7645 73.2944L88.0275 79.8753C91.7604 80.1564 93.8049 82.2905 94.2335 86.2017C109.71 88.8152 118.064 94.859 122 105.181C110.168 118.537 92.6061 127 73 127C53.3939 127 35.8308 118.537 24 105.181C27.9305 94.8576 36.29 88.8138 51.7665 86.2003Z" fill="#888888"/>
</svg>
