<svg width="20" height="20" viewBox="0 0 20 20" fill="none" xmlns="http://www.w3.org/2000/svg">
<rect width="20" height="20" fill="#F0E0C3"/>
<path d="M15.9378 7.50446C15.9378 7.33705 15.8708 7.16964 15.7503 7.04911L14.8396 6.13839C14.719 6.01786 14.5516 5.95089 14.3842 5.95089C14.2168 5.95089 14.0494 6.01786 13.9289 6.13839L9.53599 10.5379L7.56724 8.5625C7.44671 8.44196 7.2793 8.375 7.11189 8.375C6.94448 8.375 6.77706 8.44196 6.65653 8.5625L5.74581 9.47321C5.62528 9.59375 5.55831 9.76116 5.55831 9.92857C5.55831 10.096 5.62528 10.2634 5.74581 10.3839L8.16992 12.808L9.08064 13.7187C9.20117 13.8393 9.36858 13.9062 9.53599 13.9062C9.7034 13.9062 9.87082 13.8393 9.99135 13.7187L10.9021 12.808L15.7503 7.95982C15.8708 7.83929 15.9378 7.67188 15.9378 7.50446Z" fill="#75B8AE"/>
</svg>
