<svg width="173" height="16" viewBox="0 0 173 16" fill="none" xmlns="http://www.w3.org/2000/svg">
<path d="M0 11.4083H1.36501C1.88727 10.7138 3.09798 7.88421 3.31163 2.90669L3.4422 0.218555H11.288V11.4083H12.9973V16H10.9201V13.6077H2.07719V16H0V11.4083ZM3.79829 11.4083H9.08027V2.40506H5.5906L5.38882 4.74592C5.32813 7.06813 4.78444 9.34553 3.79829 11.4083Z" fill="#F0E0C3"/>
<path d="M24.8432 2.41794H21.1517L20.9024 4.99031C20.1665 12.7074 18.5285 13.9936 16.024 13.6463L16.0834 11.3183C17.0567 11.4469 18.3386 11.0096 18.8965 2.94528L19.0745 0.257143H27.0509V13.6463H24.8432V2.41794Z" fill="#F0E0C3"/>
<path d="M37.8286 8.97733H36.0006L33.1638 13.6076H30.6712L33.8997 8.46287C33.2396 8.14299 32.6789 7.62316 32.2851 6.96596C31.8913 6.30877 31.6812 5.54223 31.6801 4.75865C31.6801 2.28918 33.1994 0.128405 36.879 0.128405C37.698 0.128405 39.2529 0.128405 40.0245 0.128405V13.5176H37.8286V8.97733ZM37.8286 6.77797V2.41781C37.52 2.41781 36.8078 2.41781 36.428 2.41781C36.1311 2.38183 35.8305 2.41371 35.5457 2.51138C35.2609 2.60906 34.9982 2.77036 34.7745 2.98489C34.5508 3.19942 34.3711 3.4624 34.247 3.75684C34.1229 4.05129 34.0572 4.37068 34.054 4.69436C34.069 5.21914 34.2547 5.72128 34.5784 6.112C34.902 6.50271 35.3427 6.75682 35.8226 6.82941L37.8286 6.77797Z" fill="#F0E0C3"/>
<path d="M60.6064 12.3087C59.4769 13.3382 58.0338 13.8747 56.5588 13.8135C55.6995 13.8537 54.8414 13.705 54.0365 13.3764C53.2315 13.0477 52.4963 12.5459 51.8751 11.9012C51.2538 11.2565 50.7594 10.4822 50.4217 9.62492C50.084 8.76766 49.9099 7.84521 49.9099 6.91311C49.9099 5.98101 50.084 5.05856 50.4217 4.2013C50.7594 3.34405 51.2538 2.56975 51.8751 1.92503C52.4963 1.28031 53.2315 0.778517 54.0365 0.449873C54.8414 0.121228 55.6995 -0.027462 56.5588 0.0127518C57.9502 -0.0473707 59.3151 0.436502 60.4046 1.3761L59.4076 3.11244C58.5687 2.49592 57.5721 2.18095 56.5588 2.21211C55.9944 2.19571 55.4331 2.30822 54.9115 2.54231C54.3898 2.7764 53.9194 3.12683 53.5309 3.57083C53.1425 4.01483 52.8446 4.54245 52.6566 5.11939C52.4687 5.69633 52.3949 6.30968 52.4401 6.91955C52.4126 7.54724 52.507 8.1742 52.7173 8.75984C52.9276 9.34548 53.249 9.87674 53.6608 10.3193C54.0725 10.7618 54.5654 11.1057 55.1076 11.3288C55.6497 11.5518 56.2291 11.649 56.8081 11.6141C57.8893 11.6197 58.9431 11.2451 59.8111 10.5466L60.6064 12.3087Z" fill="#F0E0C3"/>
<path d="M72.4404 2.41794H68.7489L68.4997 4.99031C67.7519 12.7074 66.1258 13.9936 63.6213 13.6463V11.3183C64.6064 11.4469 65.8884 11.0096 66.4462 2.94528L66.6243 0.257143H74.6007V13.6463H72.3929L72.4404 2.41794Z" fill="#F0E0C3"/>
<path d="M85.129 0.012727C85.9904 -0.0447105 86.8533 0.0926961 87.6629 0.416209C88.4726 0.739722 89.2113 1.24225 89.832 1.89186C90.4527 2.54147 90.9418 3.32394 91.2684 4.1895C91.5949 5.05506 91.7516 5.98477 91.7286 6.91952C91.7393 7.85003 91.5741 8.77308 91.2432 9.63179C90.9122 10.4905 90.4225 11.2667 89.8043 11.9126C89.186 12.5584 88.4522 13.0603 87.6482 13.3872C86.8441 13.7141 85.9868 13.8592 85.129 13.8135C84.2698 13.871 83.4089 13.7339 82.6013 13.411C81.7937 13.088 81.0571 12.5862 80.4384 11.9375C79.8197 11.2889 79.3325 10.5077 79.0079 9.64372C78.6834 8.77974 78.5285 7.85195 78.5532 6.91952C78.541 5.9902 78.7043 5.068 79.0331 4.20958C79.3619 3.35115 79.8492 2.57464 80.465 1.92777C81.0809 1.2809 81.8123 0.77731 82.6144 0.447983C83.4165 0.118655 84.2722 -0.0294537 85.129 0.012727ZM85.129 11.5884C85.7007 11.6148 86.2711 11.5107 86.8032 11.2829C87.3354 11.0551 87.8174 10.7087 88.2181 10.266C88.6187 9.82342 88.9291 9.29447 89.129 8.71353C89.3288 8.13259 89.4138 7.5126 89.3783 6.89379C89.3597 5.99085 89.0957 5.11393 88.6194 4.37276C88.1431 3.6316 87.4756 3.0591 86.7005 2.7269C85.9255 2.39471 85.0772 2.31757 84.2619 2.50516C83.4465 2.69274 82.7004 3.1367 82.1168 3.78148C81.5331 4.42627 81.1379 5.24326 80.9806 6.1302C80.8233 7.01713 80.9109 7.93464 81.2325 8.76791C81.554 9.60118 82.0951 10.3132 82.7882 10.8149C83.4813 11.3166 84.2955 11.5856 85.129 11.5884Z" fill="#F0E0C3"/>
<path d="M95.6812 0.257016C96.3933 0.257016 98.0551 0.166993 99.337 0.166993C102.352 0.166993 103.491 1.62037 103.491 3.47247C103.517 4.1185 103.358 4.75738 103.035 5.30103C102.712 5.84467 102.241 6.26632 101.687 6.50786C102.342 6.65213 102.928 7.04763 103.335 7.62175C103.743 8.19587 103.946 8.9101 103.907 9.6333C103.907 12.3857 101.877 13.6462 99.159 13.6462C97.972 13.6462 96.3815 13.6462 95.5981 13.5433L95.6812 0.257016ZM97.9008 2.41781V5.80048H99.4082C100.441 5.80048 101.284 5.24741 101.284 4.02554C101.284 2.80367 100.488 2.36635 99.3014 2.36635C98.791 2.36635 98.3044 2.37923 97.9008 2.41781ZM97.9008 7.8455V11.3825C98.3891 11.4484 98.8806 11.4828 99.3726 11.4854C100.868 11.4854 101.747 10.8166 101.747 9.55613C101.747 8.29567 100.928 7.8455 99.5388 7.8455H97.9008Z" fill="#F0E0C3"/>
<path d="M114.281 13.6077V0.218555H116.501V9.74916L123.136 0.218555H125.106V13.6077H122.886V4.10283L116.251 13.6077H114.281Z" fill="#F0E0C3"/>
<path d="M134.495 11.4083H135.848C136.37 10.7138 137.593 7.88421 137.807 2.90669L137.925 0.218555H145.771V11.4083H147.492V16H145.415V13.6077H136.572V16H134.495V11.4083ZM138.293 11.4083H143.575V2.40506H140.085L139.884 4.74592C139.823 7.06813 139.279 9.34553 138.293 11.4083Z" fill="#F0E0C3"/>
<path d="M151.219 0.218555H158.531V2.41793H153.439V5.74914H157.997V7.94852H153.439V11.4083H158.709V13.6077H151.219V0.218555Z" fill="#F0E0C3"/>
<path d="M170.863 2.41794H167.172L166.923 4.99031C166.175 12.7074 164.549 13.9936 162.032 13.6463V11.3183C163.006 11.4469 164.288 11.0096 164.857 2.94528L165.035 0.257143H173V13.6463H170.804L170.863 2.41794Z" fill="#F0E0C3"/>
</svg>
