<svg width="21" height="23" viewBox="0 0 21 23" fill="none" xmlns="http://www.w3.org/2000/svg">
<path d="M10.5 8.29883C9.49674 8.29883 8.63574 8.6582 7.91699 9.37695C7.21322 10.0807 6.86133 10.9342 6.86133 11.9375C6.86133 12.9408 7.21322 13.8018 7.91699 14.5205C8.63574 15.2243 9.49674 15.5762 10.5 15.5762C11.5033 15.5762 12.3568 15.2243 13.0605 14.5205C13.7643 13.8018 14.1162 12.9408 14.1162 11.9375C14.1162 10.9342 13.7643 10.0807 13.0605 9.37695C12.3568 8.6582 11.5033 8.29883 10.5 8.29883ZM17.7998 14.0264L17.126 15.5986L18.4512 18.2041L16.834 19.8213L14.1836 18.5635L12.5889 19.2148L11.8027 21.6631L11.6904 22H9.39941L8.41113 19.2373L6.83887 18.5859L4.2334 19.8887L2.61621 18.2715L3.87402 15.6211L3.22266 14.0488L0.4375 13.1279V10.8369L3.2002 9.84863L3.85156 8.27637L2.68359 5.96289L2.54883 5.6709L4.16602 4.05371L6.81641 5.31152L8.38867 4.66016L9.19727 2.18945L9.30957 1.875H11.6006L12.5889 4.6377L14.1611 5.28906L16.7666 3.98633L18.3838 5.60352L17.126 8.25391L17.7773 9.82617L20.5625 10.7471V13.0381L17.7998 14.0264Z" fill="white"/>
</svg>
