<svg width="55" height="51" viewBox="0 0 55 51" fill="none" xmlns="http://www.w3.org/2000/svg">
<path d="M33.7412 34.0613C33.1319 31.4815 32.6528 29.8014 31.9835 27.6441C31.932 27.4785 31.9048 27.4266 31.9835 27.4083C32.0257 27.3993 32.0698 27.4051 32.108 27.4249C32.1462 27.4447 32.1761 27.4771 32.1923 27.5164C32.8016 28.92 33.1162 30.1579 33.5181 31.6289C33.6125 31.9714 33.6125 32.1496 33.8814 32.4219C33.9458 32.4902 34.0284 32.5395 34.1199 32.5643C34.2113 32.5891 34.308 32.5884 34.3991 32.5623C34.495 32.5304 34.5782 32.4698 34.637 32.3889C34.6958 32.3081 34.7271 32.2111 34.7266 32.1117C34.9097 29.5558 34.0687 26.656 32.6886 24.2011C31.3556 21.8305 29.9583 19.5538 28.7083 17.1439C28.7625 18.0555 28.6932 18.9702 28.5024 19.864C28.8642 18.2962 27.577 14.6343 27.577 14.6343C27.5241 14.4939 27.4769 14.3535 27.4254 14.2132C28.0204 12.4938 28.5696 10.7477 29.0973 8.97921C29.8196 6.56224 30.5447 4.17193 31.1869 1.88689C31.3899 1.16264 32.8802 0.525405 33.3665 1.48125C33.611 1.96408 33.724 2.88483 33.6411 3.38732C32.926 7.73844 31.3313 12.7142 30.579 17.0962C30.5657 17.1743 30.5844 17.2544 30.631 17.3191C30.6776 17.3837 30.7484 17.4277 30.8279 17.4414H30.8393C30.9184 17.4549 30.9997 17.437 31.0654 17.3918C31.131 17.3465 31.1758 17.2776 31.1897 17.2C31.9048 13.2966 33.8456 7.51527 34.5021 3.6919C34.5782 3.11159 34.7791 2.55377 35.0913 2.05531C35.3773 1.63424 36.0424 1.27492 36.563 1.30299C37.7801 1.37177 38.079 2.72483 37.9431 3.7312C37.2938 8.56515 36.0452 13.1759 35.1843 17.9074C35.1027 18.3468 35.1499 18.5657 35.3916 18.5741C35.5073 18.5741 35.6193 18.534 35.7078 18.4608C35.7962 18.3876 35.8555 18.286 35.875 18.1741C36.8762 13.0454 38.0775 6.84436 38.5052 5.61762C39.0773 3.96279 41.9019 3.57821 41.3069 7.20367C40.5117 12.0404 39.8438 15.2041 38.8842 19.2647C38.8112 19.5749 38.7683 19.6745 38.9071 19.6998C38.9865 19.7117 39.0676 19.6954 39.136 19.6541C39.2043 19.6127 39.2555 19.5488 39.2803 19.4738C40.2228 16.807 40.6447 14.4855 41.1997 11.7204C41.3284 11.0762 41.3041 10.7477 41.7717 10.2116C41.8826 10.0782 42.029 9.97762 42.1946 9.92112C42.3603 9.86461 42.5387 9.85437 42.7099 9.89155C43.1319 9.9926 43.3221 10.3365 43.3721 10.6846C44.0386 15.3782 42.8587 20.8339 40.6261 25.5331C38.4708 30.0751 36.184 34.4473 34.1903 39.0511C34.1604 37.7517 34.012 36.4576 33.7469 35.1842C33.8427 34.9428 33.8628 34.575 33.7412 34.0613Z" fill="#AFAFAF"/>
<path d="M9.60953 3.87717C6.08823 7.33624 3.69094 11.7422 2.72069 16.5381C1.75044 21.3341 2.25079 26.3046 4.1585 30.8215C6.0662 35.3385 9.29562 39.1989 13.4385 41.9149C17.5814 44.6309 22.4518 46.0805 27.434 46.0805C32.4163 46.0805 37.2867 44.6309 41.4296 41.9149C45.5725 39.1989 48.8019 35.3385 50.7096 30.8215C52.6173 26.3046 53.1176 21.3341 52.1474 16.5381C51.1771 11.7422 48.7799 7.33624 45.2586 3.87717C48.24 6.39103 50.632 9.50811 52.2704 13.0145C53.9089 16.521 54.755 20.3338 54.7508 24.1913C54.7508 38.9977 42.5212 50.9998 27.434 50.9998C12.3469 50.9998 0.117325 38.9977 0.117325 24.1913C0.113086 20.3338 0.959217 16.521 2.59767 13.0145C4.23612 9.50811 6.62812 6.39103 9.60953 3.87717Z" fill="#2DA9A1"/>
<path d="M32.4326 43.8275C32.3248 44.1812 32.2228 44.5358 32.1265 44.8914C28.3101 45.5977 24.3794 45.434 20.6378 44.4128C20.9567 43.2295 21.2456 42.0393 21.5116 40.8505C21.7241 39.9535 21.8869 39.0459 21.9993 38.1317C22.7734 39.7836 23.4341 41.4843 23.9773 43.2225C23.9673 37.8033 20.9739 32.8023 20.9739 32.8023C19.9198 30.8288 18.3495 29.0491 17.4956 26.9634C16.1541 23.6846 16.7004 19.9932 17.2668 16.5038C17.3898 15.7473 17.7731 14.7732 18.5997 14.9515C18.8486 15.0113 19.0667 15.158 19.2133 15.3641C20.298 16.8344 20.8356 18.6255 20.7365 20.4381C20.6893 21.2648 20.5105 22.1084 20.7207 22.9112C20.7207 22.9309 20.7322 22.9519 20.7393 22.9716C20.5052 23.386 20.309 23.82 20.1529 24.2685C19.5523 26.0847 19.9856 28.0582 20.4218 29.9179C20.5162 30.3222 20.7608 30.8331 21.1984 30.7081C21.3306 30.6666 21.443 30.5793 21.5145 30.4625C22.0446 29.6304 22.2672 28.6448 22.1452 27.6708C22.0894 27.2272 21.9607 26.7781 22.0451 26.3374C22.0576 26.2721 22.0803 26.2092 22.1123 26.1507C22.1853 26.0214 22.2918 25.9133 22.4209 25.8372C22.55 25.7611 22.6973 25.7197 22.8479 25.7171C22.9984 25.7146 23.1471 25.751 23.2788 25.8226C23.4105 25.8943 23.5207 25.9987 23.5983 26.1254C25.0742 28.4638 26.1154 30.9552 27.0908 33.549C27.5699 34.8263 28.0519 36.0895 28.4838 37.2994C28.6268 37.6826 29.4478 37.9717 29.6737 37.4397C29.7881 37.1059 29.8146 36.7491 29.751 36.4025C29.2018 34.0782 28.1549 31.4548 27.5856 29.1179C27.5757 29.0762 27.5829 29.0324 27.6057 28.9959C27.6284 28.9593 27.6649 28.9331 27.7072 28.9228C27.7493 28.913 27.7936 28.9199 27.8305 28.942C27.8675 28.9641 27.8941 28.9995 27.9046 29.0407C28.4338 31.1208 29.6995 34.1652 30.1929 36.2074C30.255 36.5179 30.3842 36.8118 30.5719 37.0692C30.6717 37.1864 30.798 37.2791 30.9408 37.3401C31.0836 37.401 31.2388 37.4284 31.3942 37.4201C32.0478 37.3401 32.158 36.599 32.0464 36.0614C31.5158 33.4788 30.6691 31.0366 30.027 28.5129C29.9669 28.2785 29.9841 28.1578 30.1142 28.1452C30.1764 28.1412 30.2381 28.1588 30.2883 28.195C30.3385 28.2312 30.3741 28.2837 30.3888 28.3431C31.1239 31.0731 32.0021 34.3785 32.2795 35.0214C32.5312 35.6081 33.3107 35.8467 33.6511 35.347C33.857 38.5823 32.4211 43.8303 32.4211 43.8303L32.4326 43.8275Z" fill="#AFAFAF"/>
</svg>
