<svg width="52" height="34" viewBox="0 0 52 34" fill="none" xmlns="http://www.w3.org/2000/svg">
<path d="M0.640625 26.2734H4.92188V27.2344H1.79688V28.5625H3.34375C3.77083 28.5625 4.125 28.6146 4.40625 28.7188C4.6875 28.8229 4.92708 29.0156 5.125 29.2969C5.32552 29.5781 5.42578 29.9076 5.42578 30.2852C5.42578 30.6732 5.32552 31.0052 5.125 31.2812C4.92448 31.5573 4.69531 31.7461 4.4375 31.8477C4.18229 31.9492 3.81771 32 3.34375 32H0.640625V26.2734ZM1.79688 31.0391H2.92188C3.28125 31.0391 3.53385 31.0221 3.67969 30.9883C3.82552 30.9518 3.95182 30.8711 4.05859 30.7461C4.16797 30.6211 4.22266 30.4674 4.22266 30.2852C4.22266 30.0195 4.1276 29.8268 3.9375 29.707C3.75 29.5846 3.42839 29.5234 2.97266 29.5234H1.79688V31.0391ZM6.65625 27.8516H10.332V32H9.23828V28.7422H7.74219V30.6055C7.74219 31.0794 7.6875 31.4128 7.57812 31.6055C7.46875 31.7956 7.34766 31.9206 7.21484 31.9805C7.08203 32.0404 6.86849 32.0703 6.57422 32.0703C6.39974 32.0703 6.16927 32.0469 5.88281 32V31.1914C5.90625 31.1914 5.96745 31.194 6.06641 31.1992C6.18099 31.207 6.26953 31.2109 6.33203 31.2109C6.48047 31.2109 6.57161 31.1628 6.60547 31.0664C6.63932 30.9674 6.65625 30.6953 6.65625 30.25V27.8516ZM12.2656 29.1172L11.2695 28.9375C11.3815 28.5365 11.5742 28.2396 11.8477 28.0469C12.1211 27.8542 12.5273 27.7578 13.0664 27.7578C13.556 27.7578 13.9206 27.8164 14.1602 27.9336C14.3997 28.0482 14.5677 28.1953 14.6641 28.375C14.763 28.5521 14.8125 28.8789 14.8125 29.3555L14.8008 30.6367C14.8008 31.0013 14.8177 31.2708 14.8516 31.4453C14.888 31.6172 14.9544 31.8021 15.0508 32H13.9648C13.9362 31.9271 13.901 31.819 13.8594 31.6758C13.8411 31.6107 13.8281 31.5677 13.8203 31.5469C13.6328 31.7292 13.4323 31.8659 13.2188 31.957C13.0052 32.0482 12.7773 32.0938 12.5352 32.0938C12.1081 32.0938 11.7708 31.9779 11.5234 31.7461C11.2786 31.5143 11.1562 31.2214 11.1562 30.8672C11.1562 30.6328 11.2122 30.4245 11.3242 30.2422C11.4362 30.0573 11.5924 29.9167 11.793 29.8203C11.9961 29.7214 12.2878 29.6354 12.668 29.5625C13.181 29.4661 13.5365 29.3763 13.7344 29.293V29.1836C13.7344 28.9727 13.6823 28.8229 13.5781 28.7344C13.474 28.6432 13.2773 28.5977 12.9883 28.5977C12.793 28.5977 12.6406 28.6367 12.5312 28.7148C12.4219 28.7904 12.3333 28.9245 12.2656 29.1172ZM13.7344 30.0078C13.5938 30.0547 13.3711 30.1107 13.0664 30.1758C12.7617 30.2409 12.5625 30.3047 12.4688 30.3672C12.3255 30.4688 12.2539 30.5977 12.2539 30.7539C12.2539 30.9076 12.3112 31.0404 12.4258 31.1523C12.5404 31.2643 12.6862 31.3203 12.8633 31.3203C13.0612 31.3203 13.25 31.2552 13.4297 31.125C13.5625 31.026 13.6497 30.9049 13.6914 30.7617C13.7201 30.668 13.7344 30.4896 13.7344 30.2266V30.0078ZM15.8555 27.8516H18.6562V28.7383H16.9531V32H15.8555V27.8516ZM18.8711 29.8672C18.8711 29.5026 18.9609 29.1497 19.1406 28.8086C19.3203 28.4674 19.5742 28.207 19.9023 28.0273C20.2331 27.8477 20.6016 27.7578 21.0078 27.7578C21.6354 27.7578 22.1497 27.9622 22.5508 28.3711C22.9518 28.7773 23.1523 29.2917 23.1523 29.9141C23.1523 30.5417 22.9492 31.0625 22.543 31.4766C22.1393 31.888 21.6302 32.0938 21.0156 32.0938C20.6354 32.0938 20.2721 32.0078 19.9258 31.8359C19.582 31.6641 19.3203 31.4128 19.1406 31.082C18.9609 30.7487 18.8711 30.3438 18.8711 29.8672ZM19.9961 29.9258C19.9961 30.3372 20.0938 30.6523 20.2891 30.8711C20.4844 31.0898 20.7253 31.1992 21.0117 31.1992C21.2982 31.1992 21.5378 31.0898 21.7305 30.8711C21.9258 30.6523 22.0234 30.3346 22.0234 29.918C22.0234 29.5117 21.9258 29.1992 21.7305 28.9805C21.5378 28.7617 21.2982 28.6523 21.0117 28.6523C20.7253 28.6523 20.4844 28.7617 20.2891 28.9805C20.0938 29.1992 19.9961 29.5143 19.9961 29.9258ZM27.3359 32H24.1953V33.0938H23.3047V31.1016H23.7539C23.9414 30.8932 24.0964 30.5677 24.2188 30.125C24.3411 29.6823 24.4141 28.9245 24.4375 27.8516H27.7852V31.1016H28.2305V33.0938H27.3359V32ZM26.6992 31.1016L26.7031 28.7539H25.375C25.3307 29.8997 25.1484 30.6823 24.8281 31.1016H26.6992ZM31.3867 30.6797L32.4805 30.8633C32.3398 31.2643 32.1172 31.5703 31.8125 31.7812C31.5104 31.9896 31.1315 32.0938 30.6758 32.0938C29.9544 32.0938 29.4206 31.8581 29.0742 31.3867C28.8008 31.0091 28.6641 30.5326 28.6641 29.957C28.6641 29.2695 28.8438 28.7318 29.2031 28.3438C29.5625 27.9531 30.0169 27.7578 30.5664 27.7578C31.1836 27.7578 31.6706 27.9622 32.0273 28.3711C32.3841 28.7773 32.5547 29.401 32.5391 30.2422H29.7891C29.7969 30.5677 29.8854 30.8216 30.0547 31.0039C30.224 31.1836 30.4349 31.2734 30.6875 31.2734C30.8594 31.2734 31.0039 31.2266 31.1211 31.1328C31.2383 31.0391 31.3268 30.888 31.3867 30.6797ZM31.4492 29.5703C31.4414 29.2526 31.3594 29.0117 31.2031 28.8477C31.0469 28.681 30.8568 28.5977 30.6328 28.5977C30.3932 28.5977 30.1953 28.6849 30.0391 28.8594C29.8828 29.0339 29.806 29.2708 29.8086 29.5703H31.4492ZM36.9922 27.8516V32H35.9023V30.2773H35.8008C35.5638 30.2773 35.3893 30.3086 35.2773 30.3711C35.168 30.431 35.0456 30.5599 34.9102 30.7578L34.8438 30.8398L34.1211 32H32.8438L33.6289 30.7969C33.8529 30.4531 34.056 30.2552 34.2383 30.2031C33.931 30.1849 33.681 30.069 33.4883 29.8555C33.2982 29.6393 33.2031 29.3646 33.2031 29.0312C33.2031 28.763 33.2656 28.5339 33.3906 28.3438C33.5182 28.1536 33.6862 28.0247 33.8945 27.957C34.1055 27.8867 34.418 27.8516 34.832 27.8516H36.9922ZM35.9023 28.5586H35.1172C34.8281 28.5586 34.625 28.6003 34.5078 28.6836C34.3906 28.7643 34.332 28.8997 34.332 29.0898C34.332 29.2799 34.3984 29.4167 34.5312 29.5C34.6641 29.5833 34.8815 29.625 35.1836 29.625H35.9023V28.5586ZM38.0664 27.8516H39.1641V29.3711H40.7344V27.8516H41.8359V32H40.7344V30.2578H39.1641V32H38.0664V27.8516ZM42.918 27.8516H43.9727V30.457L45.6602 27.8516H46.7383V32H45.6836V29.3477L43.9727 32H42.918V27.8516ZM51.4219 27.8516V32H50.332V30.2773H50.2305C49.9935 30.2773 49.819 30.3086 49.707 30.3711C49.5977 30.431 49.4753 30.5599 49.3398 30.7578L49.2734 30.8398L48.5508 32H47.2734L48.0586 30.7969C48.2826 30.4531 48.4857 30.2552 48.668 30.2031C48.3607 30.1849 48.1107 30.069 47.918 29.8555C47.7279 29.6393 47.6328 29.3646 47.6328 29.0312C47.6328 28.763 47.6953 28.5339 47.8203 28.3438C47.9479 28.1536 48.1159 28.0247 48.3242 27.957C48.5352 27.8867 48.8477 27.8516 49.2617 27.8516H51.4219ZM50.332 28.5586H49.5469C49.2578 28.5586 49.0547 28.6003 48.9375 28.6836C48.8203 28.7643 48.7617 28.8997 48.7617 29.0898C48.7617 29.2799 48.8281 29.4167 48.9609 29.5C49.0938 29.5833 49.3112 29.625 49.6133 29.625H50.332V28.5586Z" fill="black"/>
<path d="M35.999 15.7613C35.2356 16.0975 34.5643 16.3731 33.9543 16.5782C34.4144 16.2924 34.9085 15.9563 35.4537 15.5698C36.5885 14.7462 38.9364 10.7025 38.9364 10.7025C39.3964 10.2017 40.1836 10.5445 40.1938 11.2874C40.1957 11.3109 40.1957 11.3345 40.1938 11.358C40.1938 11.4084 40.1325 11.5966 40.0336 11.8924C39.468 12.558 37.0962 15.2672 35.999 15.7613ZM36.7759 13.116C36.816 12.9833 36.849 12.8487 36.8747 12.7126C36.8767 12.6959 36.8767 12.6789 36.8747 12.6622C36.8817 12.5505 36.8528 12.4395 36.792 12.345C36.7313 12.2504 36.6418 12.1773 36.5364 12.1359C36.431 12.0945 36.315 12.0871 36.205 12.1146C36.095 12.1421 35.9967 12.2032 35.924 12.2891C35.924 12.2891 34.3292 15.3882 33.5182 16.0538C33.1263 16.3899 32.7719 16.642 32.4448 16.8773C32.8809 16.6958 33.3682 16.4672 33.9203 16.1748C34.7211 15.758 36.3806 13.6437 36.7861 13.116H36.7759ZM34.6359 14.0706C34.6705 13.9604 34.6978 13.8481 34.7177 13.7345C34.7195 13.7199 34.7195 13.7053 34.7177 13.6908C34.7243 13.5947 34.6996 13.4991 34.6471 13.4179C34.5947 13.3367 34.5172 13.2743 34.4261 13.2397C34.3351 13.2051 34.2351 13.2002 34.141 13.2257C34.0469 13.2513 33.9636 13.3059 33.9032 13.3815C33.9032 13.3815 32.5674 16.037 31.8791 16.6084C31.5383 16.8874 31.2521 17.1193 30.9726 17.321C31.3441 17.163 31.7564 16.9647 32.2267 16.7092C32.8946 16.3328 34.2951 14.5244 34.6359 14.0706ZM9 20.9815C9 20.9815 12.4826 17.9563 19.6967 20.9815C20.9134 21.4974 22.2048 21.8218 23.5235 21.9429C24.0108 21.9832 24.5015 22 24.9888 22H26.5052C28.8685 21.991 31.218 21.6446 33.4807 20.9714L33.5897 20.9378L34.9903 20.2655C40.3846 16.6286 41.8635 13.1126 41.9726 12.8706C41.9814 12.8467 41.9871 12.8219 41.9896 12.7966C42.0987 12.0101 41.3251 11.4521 40.7561 11.8857C40.7561 11.8857 37.6142 15.6067 36.2784 16.2118C32.5299 17.9227 30.8057 17.8588 29.1223 17.6168C28.2123 17.5135 27.3114 17.3439 26.4268 17.1092C25.7453 16.8101 24.0823 16.1378 24.0823 16.1378C24.9445 15.3378 26.4677 14.884 27.5411 14.6756L29.4392 14.3092C32.0324 13.5361 30.4615 12.0235 29.8583 11.7412C28.6922 11.2423 27.4492 10.9412 26.1815 10.8504C16.7627 10.5546 11.3104 17.2269 9 20.9815Z" fill="black"/>
<path d="M34.6086 0C33.9913 0.00797174 33.3884 0.185085 32.8673 0.511557C32.3462 0.838028 31.9273 1.301 31.6576 1.84874C31.3974 1.31409 30.9922 0.860893 30.487 0.539343C29.9818 0.217794 29.3962 0.0404299 28.7951 0.0268888C26.9823 0.0268888 25.5067 1.59328 25.4999 3.55294C25.4916 4.37919 25.7626 5.18462 26.2701 5.84202C27.0504 7.10252 31.7223 11.3647 31.7223 11.3647C31.7223 11.3647 36.367 7.14958 37.3109 5.78823C37.7348 5.15502 37.96 4.41258 37.9584 3.65378C37.9788 1.64706 36.4726 0.010084 34.6086 0ZM27.0232 5.68403C26.59 5.12065 26.3587 4.4314 26.3655 3.72437C26.3655 2.0437 27.6331 0.699158 29.1836 0.699158C29.7056 0.704759 30.2143 0.862651 30.6455 1.15294C30.3742 1.05737 30.0885 1.00738 29.8004 1.00504C28.2499 1.00504 26.9857 2.34958 26.9823 4.03025C26.9755 4.73728 27.2068 5.42653 27.6399 5.98992C28.1647 6.83698 31.6951 10.4067 31.6951 10.4067C31.6951 10.4067 27.6911 6.75966 27.0232 5.68403ZM35.5151 1.00168C34.9745 1.01062 34.447 1.16704 33.9911 1.45361C33.5352 1.74018 33.1686 2.1457 32.932 2.62521C32.8151 2.39576 32.6685 2.18222 32.4959 1.98992C32.7534 1.59542 33.1061 1.27009 33.5224 1.04307C33.9387 0.816042 34.4056 0.694413 34.8812 0.689074C35.4203 0.693726 35.9462 0.8538 36.3942 1.14958C36.1115 1.05265 35.8144 1.00267 35.5151 1.00168Z" fill="black"/>
</svg>
