<svg width="17" height="15" viewBox="0 0 13 12" fill="none" xmlns="http://www.w3.org/2000/svg">
<path d="M6.22301 11.4419L5.60191 10.5981C5.22691 10.0825 4.82066 9.62549 4.38316 9.22705C3.94566 8.82861 3.51207 8.44971 3.08238 8.09033C2.71519 7.79346 2.36363 7.49658 2.02769 7.19971C1.69176 6.89502 1.39488 6.5708 1.13707 6.22705C0.82457 5.8208 0.590195 5.39893 0.433945 4.96143C0.285507 4.51611 0.211288 4.04736 0.211288 3.55518C0.211288 3.09424 0.301132 2.66064 0.48082 2.25439C0.66832 1.84033 0.91832 1.48096 1.23082 1.17627C1.55113 0.871582 1.92223 0.633301 2.3441 0.461426C2.77379 0.281738 3.23082 0.191895 3.71519 0.191895C4.05113 0.191895 4.38316 0.250488 4.71129 0.367676C5.04723 0.484863 5.36363 0.656738 5.66051 0.883301C5.76207 0.953613 5.85582 1.03174 5.94176 1.11768C6.03551 1.1958 6.12535 1.28174 6.21129 1.37549C6.29723 1.28174 6.38316 1.1958 6.4691 1.11768C6.56285 1.03174 6.66051 0.953613 6.76207 0.883301C7.05894 0.656738 7.37144 0.484863 7.69957 0.367676C8.03551 0.250488 8.37144 0.191895 8.70738 0.191895C9.19176 0.191895 9.64488 0.281738 10.0668 0.461426C10.4964 0.633301 10.8675 0.871582 11.18 1.17627C11.5004 1.48096 11.7504 1.84033 11.93 2.25439C12.1175 2.66064 12.2113 3.09424 12.2113 3.55518C12.2113 4.03174 12.1332 4.48486 11.9769 4.91455C11.8285 5.34424 11.598 5.76221 11.2855 6.16846C11.0277 6.50439 10.7308 6.8208 10.3949 7.11768C10.0668 7.41455 9.72301 7.71533 9.36363 8.02002C8.91832 8.38721 8.47301 8.77393 8.02769 9.18018C7.59019 9.58643 7.18785 10.0552 6.82066 10.5864L6.22301 11.4419ZM3.71519 1.69189C3.16051 1.69189 2.68785 1.87549 2.29723 2.24268C1.9066 2.60205 1.71129 3.03955 1.71129 3.55518C1.71129 3.91455 1.76988 4.24268 1.88707 4.53955C2.00426 4.83643 2.16441 5.11768 2.36754 5.3833C2.57066 5.64111 2.81285 5.89502 3.0941 6.14502C3.38316 6.39502 3.69566 6.66064 4.0316 6.94189C4.38316 7.22314 4.74254 7.52783 5.10973 7.85596C5.47691 8.18408 5.84019 8.54736 6.19957 8.9458C6.55113 8.53174 6.91441 8.15674 7.28941 7.8208C7.67223 7.48486 8.04332 7.16846 8.40269 6.87158C8.73082 6.59033 9.04332 6.3208 9.34019 6.06299C9.63707 5.79736 9.89098 5.52783 10.1019 5.25439C10.3129 4.97314 10.4652 4.69971 10.5589 4.43408C10.6605 4.16064 10.7113 3.86768 10.7113 3.55518C10.7113 3.03955 10.516 2.60205 10.1254 2.24268C9.73473 1.87549 9.26207 1.69189 8.70738 1.69189C8.42613 1.69189 8.10582 1.80127 7.74644 2.02002C7.39488 2.23096 7.10582 2.56299 6.87926 3.01611L6.21129 4.37549L5.54332 3.01611C5.31676 2.56299 5.02379 2.23096 4.66441 2.02002C4.31285 1.80127 3.99644 1.69189 3.71519 1.69189Z" fill="#2DA9A1"/>
</svg>
