<svg width="13" height="13" viewBox="0 0 13 13" fill="none" xmlns="http://www.w3.org/2000/svg">
<path d="M12.2399 12.4219C12.0211 12.6406 11.7555 12.75 11.443 12.75C11.1305 12.75 10.8649 12.6406 10.6461 12.4219L8.65396 10.4297C8.24771 10.6953 7.8063 10.9023 7.32974 11.0508C6.85318 11.1992 6.35318 11.2734 5.82974 11.2734C5.10318 11.2734 4.41958 11.1367 3.77896 10.8633C3.13833 10.582 2.57974 10.2031 2.10318 9.72656C1.63443 9.25 1.25943 8.69531 0.978177 8.0625C0.70474 7.42188 0.568021 6.73828 0.568021 6.01172C0.568021 5.28516 0.70474 4.60156 0.978177 3.96094C1.25943 3.32031 1.63443 2.76562 2.10318 2.29688C2.57974 1.82031 3.13833 1.44531 3.77896 1.17188C4.41958 0.890625 5.10318 0.75 5.82974 0.75C6.5563 0.75 7.23599 0.890625 7.8688 1.17188C8.50943 1.44531 9.06802 1.82031 9.54458 2.29688C10.0211 2.76562 10.3961 3.32031 10.6696 3.96094C10.9508 4.60156 11.0915 5.28516 11.0915 6.01172C11.0915 6.53516 11.0172 7.03516 10.8688 7.51172C10.7204 7.98828 10.5133 8.42969 10.2477 8.83594L12.2399 10.8281C12.4586 11.0469 12.568 11.3125 12.568 11.625C12.568 11.9375 12.4586 12.2031 12.2399 12.4219ZM5.82974 2.25C5.3063 2.25 4.81802 2.35156 4.3649 2.55469C3.91177 2.75 3.51333 3.01953 3.16958 3.36328C2.83365 3.69922 2.56411 4.09375 2.36099 4.54688C2.16568 5 2.06802 5.48828 2.06802 6.01172C2.06802 6.52734 2.16568 7.01562 2.36099 7.47656C2.56411 7.92969 2.83365 8.32812 3.16958 8.67188C3.51333 9.00781 3.91177 9.27344 4.3649 9.46875C4.81802 9.66406 5.3063 9.76172 5.82974 9.76172C6.34536 9.76172 6.82974 9.66406 7.28286 9.46875C7.7438 9.27344 8.14224 9.00781 8.47818 8.67188C8.82193 8.32812 9.09146 7.92969 9.28677 7.47656C9.48208 7.01562 9.57974 6.52734 9.57974 6.01172C9.57974 5.48828 9.48208 5 9.28677 4.54688C9.09146 4.09375 8.82193 3.69922 8.47818 3.36328C8.14224 3.01953 7.7438 2.75 7.28286 2.55469C6.82974 2.35156 6.34536 2.25 5.82974 2.25Z" fill="#A8A8A8"/>
</svg>
