<svg width="25" height="25" viewBox="0 0 25 25" fill="none" xmlns="http://www.w3.org/2000/svg">
<path d="M12.5 0C5.59432 0 0 5.59432 0 12.5C0 19.4057 5.59432 25 12.5 25C19.4057 25 25 19.4057 25 12.5C25 5.59432 19.3997 0 12.5 0ZM17.4988 12.7526C17.7755 12.0428 19.0808 12.127 19.3876 11.2909C19.6944 12.127 21.0298 12.0428 21.3065 12.7526C21.5351 13.3422 21.1742 13.7392 21.0238 13.8715H21.3607V14.2745H20.9577V14.5031H17.8176V14.2745H17.4807V13.8715H17.7875C17.6311 13.7392 17.2762 13.3422 17.5048 12.7526H17.4988ZM9.27575 10.4548C9.87127 8.34336 12.7707 8.58397 13.0775 6.98388C13.3843 8.58397 16.2837 8.33734 16.8792 10.4548C17.2401 11.7421 16.1393 12.879 16.1393 12.879H16.5303V13.6189H16.1393V14.4009H10.0277V13.6189H9.5705V12.879H10.0277C10.0277 12.879 8.92084 11.7481 9.28778 10.4548H9.27575ZM3.78369 5.17926C3.78369 5.17926 5.51011 5.99134 4.49952 7.5012H4.70404V7.86213H4.47546V8.03657H3.09192V7.86213H2.82724V7.5012H3.07387C2.06328 5.99134 3.7897 5.17926 3.7897 5.17926H3.78369ZM20.3982 19.8207V17.0055H18.2026V19.8207H14.3888V16.2837H11.7V19.8207H8.68022V17.0055H6.4846V19.8207H3.15808V15.3212H2.83927V14.9663H3.12199V11.0623L2.78513 10.7255V10.3525H3.0859V8.3614H4.46944V10.3164H4.86044V10.7435L4.52358 11.0804V14.9302H5.00481L5.14918 15.3212H6.00337C6.00337 15.3212 5.08301 13.2098 7.59745 12.5421C10.1179 13.2098 9.19153 15.3212 9.19153 15.3212H10.0156V14.9001H16.1273V15.1949H17.8116V14.9001H20.9516V15.1949H22.2389V19.8147H20.3922L20.3982 19.8207Z" fill="white"/>
<path d="M3.78369 8.91482C3.56713 8.91482 3.39268 9.08927 3.39268 9.30582V10.1059H4.17469V9.30582C4.17469 9.08927 4.00024 8.91482 3.78369 8.91482Z" fill="white"/>
</svg>
