<svg width="40" height="40" viewBox="0 0 40 40" fill="none" xmlns="http://www.w3.org/2000/svg">
<path d="M20 40C30.5799 40 39.1566 31.2475 39.1566 20.4508C39.1566 9.65408 30.5799 0.901611 20 0.901611C9.4201 0.901611 0.843384 9.65408 0.843384 20.4508C0.843384 31.2475 9.4201 40 20 40Z" fill="#39B2BA"/>
<path d="M14.876 5.37165H12.6489L12.0572 6.41578L18.4632 6.41159L19.47 10.2527L18.3975 14.3411L15.4636 11.3513L15.9937 13.3683L20 17.4568L21.0725 16.3623L20.7684 15.1966L20 15.9807L19.2316 15.1966L21.5368 6.41159L23.6859 6.41578L21.9149 5.36746H20.752L20 8.23568L19.6056 6.73867L19.2481 5.36746H18.0852L21.0232 3.63982H18.9769L16.0389 5.36746L14.876 5.37165Z" fill="white"/>
<path d="M20.5301 10.2527L20.0001 12.2697L21.467 17.8594L22.934 17.4568L23.2421 16.2911L22.1902 16.5804L20.5301 10.2527Z" fill="white"/>
<path d="M7.31519 14.794L11.075 15.8213L10.9682 15.7123L14.0089 18.8153L13.2775 19.0166L9.99021 19.9098L11.9667 20.4507L17.44 18.9537L17.0291 17.4609L18.496 17.8593L18.907 16.3623L18.0851 15.5236L17.8057 16.5971L17.0538 16.3623L15.784 16.0142L16.7579 16.2826L14.4486 7.49761L16.3018 6.40735H14.2472L13.2487 6.99441L14.0007 9.85844L11.9461 7.76179L10.0642 8.87301L10.9435 8.35304L11.8968 6.67572L13.6186 3.63138H12.4351L11.4572 5.35483H9.50122L8.90951 6.39896H10.8654L9.1725 9.39298L6.2345 11.1248V12.3325L8.15755 11.2213L7.57817 12.2486L9.63272 14.3453L6.82621 13.5779L6.24271 14.6053V11.1416L5.21544 12.9489V16.4126L3.52249 19.4108L4.1142 20.4549L7.31519 14.794ZM16.2196 18.2157L15.1677 18.505L13.0515 16.3623L15.9279 17.1464L16.2196 18.2157ZM9.85873 10.2484L11.8064 9.09945L14.5554 11.909L15.632 16.0016L14.8102 15.7752L11.6338 14.9072L8.88076 12.0977L9.95734 10.1981L9.85873 10.2484Z" fill="white"/>
<path d="M9.76008 32.5232L10.8736 34.4899H12.0571L8.85197 28.8331L11.6051 26.0236L9.62859 26.5645L8.56844 27.659L7.58636 28.6612L8.16575 29.6886L5.86055 28.3257L6.27146 28.5606V26.3046L6.85084 27.3319L15.6443 24.925L14.5718 29.0134L16.0182 27.5374L17.0743 23.5076L17.4852 21.9519L16.0182 21.5326L17.0907 20.4381L16.0141 19.3395L14.8759 19.654L15.6443 20.4381L14.8759 21.2223L7.20422 19.1256L6.23858 18.8782V16.7019L5.21541 18.5134V19.6875L8.02194 20.4549L5.21541 21.2223V27.9567L6.23448 29.764L9.17659 31.4959L9.76008 32.5232ZM9.99841 20.9958L14.013 22.0903L14.5061 21.5871L11.075 25.0885L13.0515 24.5476L15.1964 22.3587L15.1307 22.4258L16.1826 22.7109L15.7635 24.3002L15.8991 23.7844L7.33571 26.1159L6.26324 24.2121V22.0232L9.99841 20.9958Z" fill="white"/>
<path d="M5.21963 24.4932V22.4007L2.54871 17.6791L1.957 18.7232L2.93497 20.4508L1.957 22.1827L2.54871 23.2268L3.52668 21.495L5.21963 24.4932Z" fill="white"/>
<path d="M38.0389 18.7273L37.4473 17.679L36.4693 19.4108L36.6295 19.6918L36.42 19.3228L34.7763 16.4126V12.9531L33.7573 11.1458L30.8152 9.4098L30.2358 8.39502L29.114 6.41998H31.0699L30.4741 5.37584H28.5223L27.5443 3.64401H26.3609L27.3389 5.37165H23.953L21.0108 3.63982L19.9877 4.24365L23.0654 6.05516L25.5309 7.51023L24.5364 11.3303L21.5902 14.3369L21.8943 15.5027L28.1977 9.07014L30.0468 10.1646L29.0236 8.35309L28.0292 7.76603L25.9746 9.86268L26.7266 6.99865L25.724 6.4074H27.9306L31.1357 12.0684L28.3826 14.8779L24.3721 15.9723L25.4446 11.8839L23.9982 13.3641L22.5394 18.958L24.0064 19.3773L24.5118 18.8615L22.9503 20.455L24.0269 21.5494L25.1652 21.2391L24.3967 20.455L24.9474 19.8931L26.6116 18.2157L28.9373 15.8423L32.6971 14.815L33.7696 16.7145V15.9723V18.9076L30.0098 19.935L27.7662 19.2976L25.9829 18.807L25.161 19.6457L33.7696 21.9981V24.1828L34.7969 22.3713V21.1972L33.1532 20.7443L31.9904 20.455L34.7969 19.6876V18.5051L35.9228 20.4927V20.455L32.7218 26.1159L31.5384 25.793L28.962 25.0844L26.0281 22.0904L30.0303 20.9959L28.0538 20.455L26.2417 20.9498L22.5805 21.9562L22.9914 23.4532L21.5245 23.0338L21.1136 24.535L21.9354 25.3737L22.2189 24.3002L22.9709 24.5057L25.2432 25.1305L28.4196 25.9985L26.9732 24.5225L23.9694 23.6838L24.1009 23.7174L23.8215 22.6481L24.6926 22.4132L24.8734 22.3671L31.1727 28.7954L30.0961 30.695L28.2346 31.7895L25.4815 28.9799L24.4091 24.8873L23.2667 24.577L25.572 33.3578L23.7187 34.4522H25.7733L26.7677 33.8652L26.3239 32.1878L26.0157 31.0137L28.0703 33.1104L29.0729 32.5191L27.9717 34.469H21.5368L21.2204 33.2613L20.526 30.6321L21.0396 28.6738L21.6026 26.5394L24.5323 29.5293L24.0023 27.5123L19.9959 23.4238L18.9234 24.5225L19.2275 25.684L19.9959 24.8999L20.7684 25.6882L20.074 28.3971L18.4714 34.4941H16.3224L14.4609 33.3955L15.4677 29.5586L18.4057 26.5646L18.6317 27.4033L19.4823 30.6447L20.0123 28.6235L19.5521 26.8791L18.5289 23.0716L17.062 23.4909L16.7538 24.6567L17.8058 24.3673L18.0071 25.1347L18.0893 25.4408L11.7859 31.8691L9.93271 30.7789L10.96 32.5862L11.9544 33.1733L14.0089 31.0766L13.257 33.9406L14.2637 34.5319H8.92187L9.51358 35.576H11.4695L12.4475 37.3037H13.6309L12.6529 35.576H16.0388L18.9768 37.3079H21.0314L23.9735 35.576H27.3594L26.3814 37.3037H27.5649L28.5428 35.576H30.4988L31.0905 34.5319H29.114L30.8069 31.5379L30.1002 31.9572L31.1234 31.3534L33.745 29.8102V28.6026L31.8342 29.7306L32.4136 28.7074L30.3591 26.6107L33.1656 27.3781L33.745 26.3507V29.7809L34.7681 27.9736V24.5099L35.3516 23.4825L36.4611 21.5159L37.439 23.2435L38.0307 22.1994L37.0528 20.4717L38.0389 18.7273ZM23.7927 18.2199L24.0762 17.1464L26.7061 16.4252L27.3841 16.2407L26.9444 16.3623L24.8405 18.5051L23.7927 18.2199ZM30.3673 14.3453L32.4218 12.2487L31.8424 11.2213L33.7532 12.3493V14.6053L33.1738 13.5779L30.3673 14.3453ZM19.774 36.7963L20 36.6663L18.0852 35.5383H19.2522L20.0041 32.6743L20.7561 35.5383H21.9149L19.774 36.7963Z" fill="white"/>
<path d="M19.9958 2.71313C16.5573 2.71313 13.196 3.75368 10.3369 5.70318C7.47786 7.65268 5.24949 10.4236 3.93362 13.6655C2.61774 16.9074 2.27346 20.4747 2.94429 23.9163C3.61511 27.3579 5.27092 30.5192 7.70234 33.0004C10.1338 35.4816 13.2316 37.1714 16.6041 37.856C19.9765 38.5405 23.4722 38.1892 26.649 36.8464C29.8258 35.5035 32.5411 33.2295 34.4514 30.3119C36.3618 27.3942 37.3814 23.964 37.3814 20.455C37.376 15.7513 35.5426 11.2418 32.2833 7.91574C29.024 4.58969 24.6051 2.71868 19.9958 2.71313ZM19.9958 37.2785C16.7343 37.2785 13.546 36.2915 10.8341 34.4423C8.12231 32.593 6.00878 29.9646 4.76083 26.8895C3.51287 23.8144 3.18656 20.4307 3.82315 17.1663C4.45975 13.902 6.03066 10.9036 8.33722 8.55033C10.6438 6.19709 13.5824 4.59474 16.7813 3.94591C19.9803 3.29708 23.296 3.63093 26.309 4.90522C29.3221 6.17951 31.8972 8.33702 33.7086 11.1049C35.52 13.8727 36.4865 17.1266 36.4856 20.455C36.4856 22.6647 36.0591 24.8527 35.2303 26.8941C34.4016 28.9355 33.1869 30.7903 31.6556 32.3525C30.1244 33.9148 28.3065 35.1539 26.3059 35.9991C24.3053 36.8443 22.1611 37.2791 19.9958 37.2785Z" fill="white"/>
</svg>
