<svg width="174" height="118" viewBox="0 0 174 118" fill="none" xmlns="http://www.w3.org/2000/svg">
<g filter="url(#filter0_d_1028_1281)">
<rect x="1" y="12" width="165.843" height="97.4853" fill="white"/>
<rect x="1.25" y="12.25" width="165.343" height="96.9853" stroke="#D4D4D4" stroke-width="0.5"/>
</g>
<rect x="4.51169" y="93.7662" width="22.4093" height="12.1691" stroke="#D4D4D4" stroke-width="0.3"/>
<path d="M15.2692 102.104V102.616H11.3412V102.208L13.6692 99.9282C13.9625 99.6402 14.1599 99.3922 14.2612 99.1842C14.3679 98.9709 14.4212 98.7575 14.4212 98.5442C14.4212 98.2135 14.3065 97.9575 14.0772 97.7762C13.8532 97.5895 13.5305 97.4962 13.1092 97.4962C12.4532 97.4962 11.9439 97.7042 11.5812 98.1202L11.1732 97.7682C11.3919 97.5122 11.6692 97.3149 12.0052 97.1762C12.3465 97.0375 12.7305 96.9682 13.1572 96.9682C13.7279 96.9682 14.1785 97.1042 14.5092 97.3762C14.8452 97.6429 15.0132 98.0109 15.0132 98.4802C15.0132 98.7682 14.9492 99.0455 14.8212 99.3122C14.6932 99.5789 14.4505 99.8855 14.0932 100.232L12.1892 102.104H15.2692ZM19.2001 99.6802C19.5521 99.7975 19.8214 99.9735 20.0081 100.208C20.2001 100.443 20.2961 100.726 20.2961 101.056C20.2961 101.382 20.2081 101.667 20.0321 101.912C19.8561 102.152 19.6028 102.339 19.2721 102.472C18.9468 102.6 18.5628 102.664 18.1201 102.664C17.4481 102.664 16.9201 102.52 16.5361 102.232C16.1521 101.944 15.9601 101.552 15.9601 101.056C15.9601 100.72 16.0507 100.438 16.2321 100.208C16.4187 99.9735 16.6881 99.7975 17.0401 99.6802C16.7521 99.5682 16.5334 99.4082 16.3841 99.2002C16.2347 98.9869 16.1601 98.7362 16.1601 98.4482C16.1601 97.9949 16.3361 97.6349 16.6881 97.3682C17.0454 97.1015 17.5227 96.9682 18.1201 96.9682C18.5148 96.9682 18.8588 97.0295 19.1521 97.1522C19.4508 97.2695 19.6828 97.4402 19.8481 97.6642C20.0134 97.8882 20.0961 98.1495 20.0961 98.4482C20.0961 98.7362 20.0187 98.9869 19.8641 99.2002C19.7094 99.4082 19.4881 99.5682 19.2001 99.6802ZM16.7361 98.4642C16.7361 98.7735 16.8587 99.0189 17.1041 99.2002C17.3494 99.3815 17.6881 99.4722 18.1201 99.4722C18.5521 99.4722 18.8908 99.3815 19.1361 99.2002C19.3867 99.0189 19.5121 98.7762 19.5121 98.4722C19.5121 98.1575 19.3841 97.9095 19.1281 97.7282C18.8774 97.5469 18.5414 97.4562 18.1201 97.4562C17.6934 97.4562 17.3547 97.5469 17.1041 97.7282C16.8587 97.9095 16.7361 98.1549 16.7361 98.4642ZM18.1201 102.176C18.6161 102.176 19.0027 102.075 19.2801 101.872C19.5628 101.67 19.7041 101.395 19.7041 101.048C19.7041 100.702 19.5628 100.43 19.2801 100.232C19.0027 100.03 18.6161 99.9282 18.1201 99.9282C17.6294 99.9282 17.2427 100.03 16.9601 100.232C16.6827 100.43 16.5441 100.702 16.5441 101.048C16.5441 101.4 16.6827 101.678 16.9601 101.88C17.2374 102.078 17.6241 102.176 18.1201 102.176Z" fill="black"/>
<rect x="139.801" y="81.2965" width="22.4093" height="12.1691" stroke="#D4D4D4" stroke-width="0.3"/>
<path d="M150.632 89.6345V90.1465H146.704V89.7385L149.032 87.4585C149.326 87.1705 149.523 86.9225 149.624 86.7145C149.731 86.5012 149.784 86.2878 149.784 86.0745C149.784 85.7438 149.67 85.4878 149.44 85.3065C149.216 85.1198 148.894 85.0265 148.472 85.0265C147.816 85.0265 147.307 85.2345 146.944 85.6505L146.536 85.2985C146.755 85.0425 147.032 84.8452 147.368 84.7065C147.71 84.5678 148.094 84.4985 148.52 84.4985C149.091 84.4985 149.542 84.6345 149.872 84.9065C150.208 85.1732 150.376 85.5412 150.376 86.0105C150.376 86.2985 150.312 86.5758 150.184 86.8425C150.056 87.1092 149.814 87.4158 149.456 87.7625L147.552 89.6345H150.632ZM155.276 84.5465V84.9545L152.932 90.1465H152.308L154.612 85.0585H151.732V86.1065H151.164V84.5465H155.276Z" fill="black"/>
<rect x="117.253" y="81.2965" width="22.4093" height="12.1691" stroke="#D4D4D4" stroke-width="0.3"/>
<path d="M128.002 89.6345V90.1465H124.074V89.7385L126.402 87.4585C126.696 87.1705 126.893 86.9225 126.994 86.7145C127.101 86.5012 127.154 86.2878 127.154 86.0745C127.154 85.7438 127.04 85.4878 126.81 85.3065C126.586 85.1198 126.264 85.0265 125.842 85.0265C125.186 85.0265 124.677 85.2345 124.314 85.6505L123.906 85.2985C124.125 85.0425 124.402 84.8452 124.738 84.7065C125.08 84.5678 125.464 84.4985 125.89 84.4985C126.461 84.4985 126.912 84.6345 127.242 84.9065C127.578 85.1732 127.746 85.5412 127.746 86.0105C127.746 86.2985 127.682 86.5758 127.554 86.8425C127.426 87.1092 127.184 87.4158 126.826 87.7625L124.922 89.6345H128.002ZM131.014 86.7945C131.382 86.7945 131.707 86.8638 131.99 87.0025C132.278 87.1412 132.502 87.3385 132.662 87.5945C132.822 87.8452 132.902 88.1385 132.902 88.4745C132.902 88.8158 132.819 89.1172 132.654 89.3785C132.489 89.6398 132.259 89.8425 131.966 89.9865C131.678 90.1252 131.353 90.1945 130.99 90.1945C130.249 90.1945 129.681 89.9518 129.286 89.4665C128.891 88.9758 128.694 88.2852 128.694 87.3945C128.694 86.7705 128.801 86.2425 129.014 85.8105C129.227 85.3785 129.526 85.0532 129.91 84.8345C130.294 84.6105 130.742 84.4985 131.254 84.4985C131.809 84.4985 132.251 84.5998 132.582 84.8025L132.35 85.2665C132.083 85.0905 131.721 85.0025 131.262 85.0025C130.643 85.0025 130.158 85.1998 129.806 85.5945C129.454 85.9838 129.278 86.5518 129.278 87.2985C129.278 87.4318 129.286 87.5838 129.302 87.7545C129.441 87.4505 129.662 87.2158 129.966 87.0505C130.27 86.8798 130.619 86.7945 131.014 86.7945ZM130.966 89.7065C131.371 89.7065 131.699 89.5972 131.95 89.3785C132.206 89.1545 132.334 88.8585 132.334 88.4905C132.334 88.1225 132.206 87.8292 131.95 87.6105C131.699 87.3918 131.358 87.2825 130.926 87.2825C130.643 87.2825 130.393 87.3358 130.174 87.4425C129.961 87.5492 129.793 87.6958 129.67 87.8825C129.547 88.0692 129.486 88.2772 129.486 88.5065C129.486 88.7198 129.542 88.9172 129.654 89.0985C129.771 89.2798 129.942 89.4265 130.166 89.5385C130.39 89.6505 130.657 89.7065 130.966 89.7065Z" fill="black"/>
<rect x="94.7046" y="81.2965" width="22.4093" height="12.1691" stroke="#D4D4D4" stroke-width="0.3"/>
<path d="M105.61 89.6345V90.1465H101.682V89.7385L104.01 87.4585C104.303 87.1705 104.501 86.9225 104.602 86.7145C104.709 86.5012 104.762 86.2878 104.762 86.0745C104.762 85.7438 104.647 85.4878 104.418 85.3065C104.194 85.1198 103.871 85.0265 103.45 85.0265C102.794 85.0265 102.285 85.2345 101.922 85.6505L101.514 85.2985C101.733 85.0425 102.01 84.8452 102.346 84.7065C102.687 84.5678 103.071 84.4985 103.498 84.4985C104.069 84.4985 104.519 84.6345 104.85 84.9065C105.186 85.1732 105.354 85.5412 105.354 86.0105C105.354 86.2985 105.29 86.5758 105.162 86.8425C105.034 87.1092 104.791 87.4158 104.434 87.7625L102.53 89.6345H105.61ZM107.805 86.8425C108.616 86.8425 109.205 86.9892 109.573 87.2825C109.946 87.5705 110.133 87.9758 110.133 88.4985C110.133 88.8238 110.056 89.1145 109.901 89.3705C109.752 89.6265 109.525 89.8292 109.221 89.9785C108.917 90.1225 108.544 90.1945 108.101 90.1945C107.701 90.1945 107.32 90.1305 106.957 90.0025C106.6 89.8692 106.312 89.6932 106.093 89.4745L106.373 89.0185C106.56 89.2105 106.805 89.3678 107.109 89.4905C107.413 89.6078 107.741 89.6665 108.093 89.6665C108.557 89.6665 108.914 89.5625 109.165 89.3545C109.421 89.1465 109.549 88.8692 109.549 88.5225C109.549 88.1385 109.405 87.8478 109.117 87.6505C108.834 87.4532 108.354 87.3545 107.677 87.3545H106.485L106.773 84.5465H109.837V85.0585H107.277L107.085 86.8425H107.805Z" fill="black"/>
<rect x="72.1563" y="81.2965" width="22.4093" height="12.1691" stroke="#D4D4D4" stroke-width="0.3"/>
<path d="M82.7768 89.6345V90.1465H78.8488V89.7385L81.1768 87.4585C81.4701 87.1705 81.6674 86.9225 81.7688 86.7145C81.8754 86.5012 81.9288 86.2878 81.9288 86.0745C81.9288 85.7438 81.8141 85.4878 81.5848 85.3065C81.3608 85.1198 81.0381 85.0265 80.6168 85.0265C79.9608 85.0265 79.4514 85.2345 79.0888 85.6505L78.6808 85.2985C78.8994 85.0425 79.1768 84.8452 79.5128 84.7065C79.8541 84.5678 80.2381 84.4985 80.6648 84.4985C81.2354 84.4985 81.6861 84.6345 82.0168 84.9065C82.3528 85.1732 82.5208 85.5412 82.5208 86.0105C82.5208 86.2985 82.4568 86.5758 82.3288 86.8425C82.2008 87.1092 81.9581 87.4158 81.6008 87.7625L79.6968 89.6345H82.7768ZM88.0722 88.6745H86.9522V90.1465H86.3762V88.6745H83.2162V88.2585L86.1842 84.5465H86.8242L83.9602 88.1625H86.3922V86.8665H86.9522V88.1625H88.0722V88.6745Z" fill="black"/>
<rect x="49.6081" y="81.2965" width="22.4093" height="12.1691" stroke="#D4D4D4" stroke-width="0.3"/>
<path d="M60.5215 89.6345V90.1465H56.5935V89.7385L58.9215 87.4585C59.2149 87.1705 59.4122 86.9225 59.5135 86.7145C59.6202 86.5012 59.6735 86.2878 59.6735 86.0745C59.6735 85.7438 59.5589 85.4878 59.3295 85.3065C59.1055 85.1198 58.7829 85.0265 58.3615 85.0265C57.7055 85.0265 57.1962 85.2345 56.8335 85.6505L56.4255 85.2985C56.6442 85.0425 56.9215 84.8452 57.2575 84.7065C57.5989 84.5678 57.9829 84.4985 58.4095 84.4985C58.9802 84.4985 59.4309 84.6345 59.7615 84.9065C60.0975 85.1732 60.2655 85.5412 60.2655 86.0105C60.2655 86.2985 60.2015 86.5758 60.0735 86.8425C59.9455 87.1092 59.7029 87.4158 59.3455 87.7625L57.4415 89.6345H60.5215ZM63.1484 86.9465C63.7351 86.9785 64.1804 87.1385 64.4844 87.4265C64.7937 87.7092 64.9484 88.0798 64.9484 88.5385C64.9484 88.8585 64.8711 89.1438 64.7164 89.3945C64.5617 89.6398 64.3324 89.8345 64.0284 89.9785C63.7244 90.1225 63.3537 90.1945 62.9164 90.1945C62.5111 90.1945 62.1271 90.1305 61.7644 90.0025C61.4071 89.8692 61.1191 89.6932 60.9004 89.4745L61.1804 89.0185C61.3671 89.2105 61.6151 89.3678 61.9244 89.4905C62.2337 89.6078 62.5644 89.6665 62.9164 89.6665C63.3751 89.6665 63.7297 89.5678 63.9804 89.3705C64.2311 89.1678 64.3564 88.8905 64.3564 88.5385C64.3564 88.1918 64.2311 87.9198 63.9804 87.7225C63.7297 87.5252 63.3511 87.4265 62.8444 87.4265H62.4444V87.0025L63.9964 85.0585H61.1324V84.5465H64.7324V84.9545L63.1484 86.9465Z" fill="black"/>
<rect x="27.0599" y="81.2965" width="22.4093" height="12.1691" stroke="#D4D4D4" stroke-width="0.3"/>
<path d="M37.9577 89.6345V90.1465H34.0297V89.7385L36.3577 87.4585C36.651 87.1705 36.8484 86.9225 36.9497 86.7145C37.0564 86.5012 37.1097 86.2878 37.1097 86.0745C37.1097 85.7438 36.995 85.4878 36.7657 85.3065C36.5417 85.1198 36.219 85.0265 35.7977 85.0265C35.1417 85.0265 34.6324 85.2345 34.2697 85.6505L33.8617 85.2985C34.0804 85.0425 34.3577 84.8452 34.6937 84.7065C35.035 84.5678 35.419 84.4985 35.8457 84.4985C36.4164 84.4985 36.867 84.6345 37.1977 84.9065C37.5337 85.1732 37.7017 85.5412 37.7017 86.0105C37.7017 86.2985 37.6377 86.5758 37.5097 86.8425C37.3817 87.1092 37.139 87.4158 36.7817 87.7625L34.8777 89.6345H37.9577ZM42.5046 89.6345V90.1465H38.5766V89.7385L40.9046 87.4585C41.1979 87.1705 41.3952 86.9225 41.4966 86.7145C41.6032 86.5012 41.6566 86.2878 41.6566 86.0745C41.6566 85.7438 41.5419 85.4878 41.3126 85.3065C41.0886 85.1198 40.7659 85.0265 40.3446 85.0265C39.6886 85.0265 39.1792 85.2345 38.8166 85.6505L38.4086 85.2985C38.6272 85.0425 38.9046 84.8452 39.2406 84.7065C39.5819 84.5678 39.9659 84.4985 40.3926 84.4985C40.9632 84.4985 41.4139 84.6345 41.7446 84.9065C42.0806 85.1732 42.2486 85.5412 42.2486 86.0105C42.2486 86.2985 42.1846 86.5758 42.0566 86.8425C41.9286 87.1092 41.6859 87.4158 41.3286 87.7625L39.4246 89.6345H42.5046Z" fill="black"/>
<rect x="4.51169" y="81.2965" width="22.4093" height="12.1691" stroke="#D4D4D4" stroke-width="0.3"/>
<path d="M16.3747 89.6345V90.1465H12.4467V89.7385L14.7747 87.4585C15.068 87.1705 15.2653 86.9225 15.3667 86.7145C15.4733 86.5012 15.5267 86.2878 15.5267 86.0745C15.5267 85.7438 15.412 85.4878 15.1827 85.3065C14.9587 85.1198 14.636 85.0265 14.2147 85.0265C13.5587 85.0265 13.0493 85.2345 12.6867 85.6505L12.2787 85.2985C12.4973 85.0425 12.7747 84.8452 13.1107 84.7065C13.452 84.5678 13.836 84.4985 14.2627 84.4985C14.8333 84.4985 15.284 84.6345 15.6147 84.9065C15.9507 85.1732 16.1187 85.5412 16.1187 86.0105C16.1187 86.2985 16.0547 86.5758 15.9267 86.8425C15.7987 87.1092 15.556 87.4158 15.1987 87.7625L13.2947 89.6345H16.3747ZM18.6496 84.5465V90.1465H18.0736V85.0585H16.7536V84.5465H18.6496Z" fill="black"/>
<rect x="139.801" y="68.8277" width="22.4093" height="12.1691" stroke="#D4D4D4" stroke-width="0.3"/>
<path d="M150.34 77.1657V77.6777H146.412V77.2697L148.74 74.9897C149.033 74.7017 149.23 74.4537 149.332 74.2457C149.438 74.0324 149.492 73.8191 149.492 73.6057C149.492 73.2751 149.377 73.0191 149.148 72.8377C148.924 72.6511 148.601 72.5577 148.18 72.5577C147.524 72.5577 147.014 72.7657 146.652 73.1817L146.244 72.8297C146.462 72.5737 146.74 72.3764 147.076 72.2377C147.417 72.0991 147.801 72.0297 148.228 72.0297C148.798 72.0297 149.249 72.1657 149.58 72.4377C149.916 72.7044 150.084 73.0724 150.084 73.5417C150.084 73.8297 150.02 74.1071 149.892 74.3737C149.764 74.6404 149.521 74.9471 149.164 75.2937L147.26 77.1657H150.34ZM153.263 77.7257C152.831 77.7257 152.444 77.6111 152.103 77.3817C151.767 77.1524 151.503 76.8244 151.311 76.3977C151.124 75.9657 151.031 75.4591 151.031 74.8777C151.031 74.2964 151.124 73.7924 151.311 73.3657C151.503 72.9337 151.767 72.6031 152.103 72.3737C152.444 72.1444 152.831 72.0297 153.263 72.0297C153.695 72.0297 154.079 72.1444 154.415 72.3737C154.756 72.6031 155.023 72.9337 155.215 73.3657C155.407 73.7924 155.503 74.2964 155.503 74.8777C155.503 75.4591 155.407 75.9657 155.215 76.3977C155.023 76.8244 154.756 77.1524 154.415 77.3817C154.079 77.6111 153.695 77.7257 153.263 77.7257ZM153.263 77.1977C153.588 77.1977 153.874 77.1071 154.119 76.9257C154.37 76.7444 154.564 76.4804 154.703 76.1337C154.842 75.7871 154.911 75.3684 154.911 74.8777C154.911 74.3871 154.842 73.9684 154.703 73.6217C154.564 73.2751 154.37 73.0111 154.119 72.8297C153.874 72.6484 153.588 72.5577 153.263 72.5577C152.938 72.5577 152.65 72.6484 152.399 72.8297C152.154 73.0111 151.962 73.2751 151.823 73.6217C151.684 73.9684 151.615 74.3871 151.615 74.8777C151.615 75.3684 151.684 75.7871 151.823 76.1337C151.962 76.4804 152.154 76.7444 152.399 76.9257C152.65 77.1071 152.938 77.1977 153.263 77.1977Z" fill="black"/>
<rect x="117.253" y="68.8277" width="22.4093" height="12.1691" stroke="#D4D4D4" stroke-width="0.3"/>
<path d="M126.543 72.0777V77.6777H125.967V72.5897H124.647V72.0777H126.543ZM129.625 72.0297C130.367 72.0297 130.935 72.2751 131.329 72.7657C131.724 73.2511 131.921 73.9391 131.921 74.8297C131.921 75.4537 131.815 75.9817 131.601 76.4137C131.388 76.8457 131.089 77.1737 130.705 77.3977C130.321 77.6164 129.873 77.7257 129.361 77.7257C128.807 77.7257 128.364 77.6244 128.033 77.4217L128.265 76.9577C128.532 77.1337 128.895 77.2217 129.353 77.2217C129.972 77.2217 130.457 77.0271 130.809 76.6377C131.161 76.2431 131.337 75.6724 131.337 74.9257C131.337 74.7871 131.329 74.6351 131.313 74.4697C131.175 74.7737 130.953 75.0111 130.649 75.1817C130.345 75.3471 129.996 75.4297 129.601 75.4297C129.233 75.4297 128.905 75.3604 128.617 75.2217C128.335 75.0831 128.113 74.8884 127.953 74.6377C127.793 74.3817 127.713 74.0857 127.713 73.7497C127.713 73.4084 127.796 73.1071 127.961 72.8457C128.127 72.5844 128.353 72.3844 128.641 72.2457C128.935 72.1017 129.263 72.0297 129.625 72.0297ZM129.689 74.9417C129.972 74.9417 130.22 74.8884 130.433 74.7817C130.652 74.6751 130.823 74.5284 130.945 74.3417C131.068 74.1551 131.129 73.9471 131.129 73.7177C131.129 73.5044 131.071 73.3071 130.953 73.1257C130.841 72.9444 130.673 72.7977 130.449 72.6857C130.225 72.5737 129.959 72.5177 129.649 72.5177C129.244 72.5177 128.913 72.6297 128.657 72.8537C128.407 73.0724 128.281 73.3657 128.281 73.7337C128.281 74.1017 128.407 74.3951 128.657 74.6137C128.913 74.8324 129.257 74.9417 129.689 74.9417Z" fill="black"/>
<rect x="94.7046" y="68.8277" width="22.4093" height="12.1691" stroke="#D4D4D4" stroke-width="0.3"/>
<path d="M103.881 72.0777V77.6777H103.305V72.5897H101.985V72.0777H103.881ZM108.428 74.7417C108.78 74.8591 109.049 75.0351 109.236 75.2697C109.428 75.5044 109.524 75.7871 109.524 76.1177C109.524 76.4431 109.436 76.7284 109.26 76.9737C109.084 77.2137 108.83 77.4004 108.5 77.5337C108.174 77.6617 107.79 77.7257 107.348 77.7257C106.676 77.7257 106.148 77.5817 105.764 77.2937C105.38 77.0057 105.188 76.6137 105.188 76.1177C105.188 75.7817 105.278 75.4991 105.46 75.2697C105.646 75.0351 105.916 74.8591 106.268 74.7417C105.98 74.6297 105.761 74.4697 105.612 74.2617C105.462 74.0484 105.388 73.7977 105.388 73.5097C105.388 73.0564 105.564 72.6964 105.916 72.4297C106.273 72.1631 106.75 72.0297 107.348 72.0297C107.742 72.0297 108.086 72.0911 108.38 72.2137C108.678 72.3311 108.91 72.5017 109.076 72.7257C109.241 72.9497 109.324 73.2111 109.324 73.5097C109.324 73.7977 109.246 74.0484 109.092 74.2617C108.937 74.4697 108.716 74.6297 108.428 74.7417ZM105.964 73.5257C105.964 73.8351 106.086 74.0804 106.332 74.2617C106.577 74.4431 106.916 74.5337 107.348 74.5337C107.78 74.5337 108.118 74.4431 108.364 74.2617C108.614 74.0804 108.74 73.8377 108.74 73.5337C108.74 73.2191 108.612 72.9711 108.356 72.7897C108.105 72.6084 107.769 72.5177 107.348 72.5177C106.921 72.5177 106.582 72.6084 106.332 72.7897C106.086 72.9711 105.964 73.2164 105.964 73.5257ZM107.348 77.2377C107.844 77.2377 108.23 77.1364 108.508 76.9337C108.79 76.7311 108.932 76.4564 108.932 76.1097C108.932 75.7631 108.79 75.4911 108.508 75.2937C108.23 75.0911 107.844 74.9897 107.348 74.9897C106.857 74.9897 106.47 75.0911 106.188 75.2937C105.91 75.4911 105.772 75.7631 105.772 76.1097C105.772 76.4617 105.91 76.7391 106.188 76.9417C106.465 77.1391 106.852 77.2377 107.348 77.2377Z" fill="black"/>
<rect x="72.1564" y="68.8277" width="22.4093" height="12.1691" stroke="#D4D4D4" stroke-width="0.3"/>
<path d="M81.5283 72.0777V77.6777H80.9523V72.5897H79.6323V72.0777H81.5283ZM86.8189 72.0777V72.4857L84.4749 77.6777H83.8509L86.1549 72.5897H83.2749V73.6377H82.7069V72.0777H86.8189Z" fill="black"/>
<rect x="49.6081" y="68.8277" width="22.4093" height="12.1691" stroke="#D4D4D4" stroke-width="0.3"/>
<path d="M58.8979 72.0777V77.6777H58.3219V72.5897H57.0019V72.0777H58.8979ZM62.5565 74.3257C62.9245 74.3257 63.2499 74.3951 63.5325 74.5337C63.8205 74.6724 64.0445 74.8697 64.2045 75.1257C64.3645 75.3764 64.4445 75.6697 64.4445 76.0057C64.4445 76.3471 64.3619 76.6484 64.1965 76.9097C64.0312 77.1711 63.8019 77.3737 63.5085 77.5177C63.2205 77.6564 62.8952 77.7257 62.5325 77.7257C61.7912 77.7257 61.2232 77.4831 60.8285 76.9977C60.4339 76.5071 60.2365 75.8164 60.2365 74.9257C60.2365 74.3017 60.3432 73.7737 60.5565 73.3417C60.7699 72.9097 61.0685 72.5844 61.4525 72.3657C61.8365 72.1417 62.2845 72.0297 62.7965 72.0297C63.3512 72.0297 63.7939 72.1311 64.1245 72.3337L63.8925 72.7977C63.6259 72.6217 63.2632 72.5337 62.8045 72.5337C62.1859 72.5337 61.7005 72.7311 61.3485 73.1257C60.9965 73.5151 60.8205 74.0831 60.8205 74.8297C60.8205 74.9631 60.8285 75.1151 60.8445 75.2857C60.9832 74.9817 61.2045 74.7471 61.5085 74.5817C61.8125 74.4111 62.1619 74.3257 62.5565 74.3257ZM62.5085 77.2377C62.9139 77.2377 63.2419 77.1284 63.4925 76.9097C63.7485 76.6857 63.8765 76.3897 63.8765 76.0217C63.8765 75.6537 63.7485 75.3604 63.4925 75.1417C63.2419 74.9231 62.9005 74.8137 62.4685 74.8137C62.1859 74.8137 61.9352 74.8671 61.7165 74.9737C61.5032 75.0804 61.3352 75.2271 61.2125 75.4137C61.0899 75.6004 61.0285 75.8084 61.0285 76.0377C61.0285 76.2511 61.0845 76.4484 61.1965 76.6297C61.3139 76.8111 61.4845 76.9577 61.7085 77.0697C61.9325 77.1817 62.1992 77.2377 62.5085 77.2377Z" fill="black"/>
<rect x="27.0599" y="68.8277" width="22.4093" height="12.1691" stroke="#D4D4D4" stroke-width="0.3"/>
<path d="M36.5216 72.0777V77.6777H35.9456V72.5897H34.6256V72.0777H36.5216ZM39.3322 74.3737C40.1429 74.3737 40.7322 74.5204 41.1002 74.8137C41.4736 75.1017 41.6602 75.5071 41.6602 76.0297C41.6602 76.3551 41.5829 76.6457 41.4282 76.9017C41.2789 77.1577 41.0522 77.3604 40.7482 77.5097C40.4442 77.6537 40.0709 77.7257 39.6282 77.7257C39.2282 77.7257 38.8469 77.6617 38.4842 77.5337C38.1269 77.4004 37.8389 77.2244 37.6202 77.0057L37.9002 76.5497C38.0869 76.7417 38.3322 76.8991 38.6362 77.0217C38.9402 77.1391 39.2682 77.1977 39.6202 77.1977C40.0842 77.1977 40.4416 77.0937 40.6922 76.8857C40.9482 76.6777 41.0762 76.4004 41.0762 76.0537C41.0762 75.6697 40.9322 75.3791 40.6442 75.1817C40.3616 74.9844 39.8816 74.8857 39.2042 74.8857H38.0122L38.3002 72.0777H41.3642V72.5897H38.8042L38.6122 74.3737H39.3322Z" fill="black"/>
<rect x="4.51169" y="68.8277" width="22.4093" height="12.1691" stroke="#D4D4D4" stroke-width="0.3"/>
<path d="M13.7316 72.0777V77.6777H13.1556V72.5897H11.8356V72.0777H13.7316ZM19.8302 76.2057H18.7102V77.6777H18.1342V76.2057H14.9742V75.7897L17.9422 72.0777H18.5822L15.7182 75.6937H18.1502V74.3977H18.7102V75.6937H19.8302V76.2057Z" fill="black"/>
<rect x="139.801" y="56.359" width="22.4093" height="12.1691" stroke="#D4D4D4" stroke-width="0.3"/>
<path d="M149.271 59.609V65.209H148.695V60.121H147.375V59.609H149.271ZM152.513 62.009C153.1 62.041 153.545 62.201 153.849 62.489C154.159 62.7717 154.313 63.1423 154.313 63.601C154.313 63.921 154.236 64.2063 154.081 64.457C153.927 64.7023 153.697 64.897 153.393 65.041C153.089 65.185 152.719 65.257 152.281 65.257C151.876 65.257 151.492 65.193 151.129 65.065C150.772 64.9317 150.484 64.7557 150.265 64.537L150.545 64.081C150.732 64.273 150.98 64.4303 151.289 64.553C151.599 64.6703 151.929 64.729 152.281 64.729C152.74 64.729 153.095 64.6303 153.345 64.433C153.596 64.2303 153.721 63.953 153.721 63.601C153.721 63.2543 153.596 62.9823 153.345 62.785C153.095 62.5877 152.716 62.489 152.209 62.489H151.809V62.065L153.361 60.121H150.497V59.609H154.097V60.017L152.513 62.009Z" fill="black"/>
<rect x="117.253" y="56.359" width="22.4093" height="12.1691" stroke="#D4D4D4" stroke-width="0.3"/>
<path d="M126.707 59.609V65.209H126.131V60.121H124.811V59.609H126.707ZM131.869 64.697V65.209H127.941V64.801L130.269 62.521C130.563 62.233 130.76 61.985 130.861 61.777C130.968 61.5637 131.021 61.3503 131.021 61.137C131.021 60.8063 130.907 60.5503 130.677 60.369C130.453 60.1823 130.131 60.089 129.709 60.089C129.053 60.089 128.544 60.297 128.181 60.713L127.773 60.361C127.992 60.105 128.269 59.9077 128.605 59.769C128.947 59.6303 129.331 59.561 129.757 59.561C130.328 59.561 130.779 59.697 131.109 59.969C131.445 60.2357 131.613 60.6037 131.613 61.073C131.613 61.361 131.549 61.6383 131.421 61.905C131.293 62.1717 131.051 62.4783 130.693 62.825L128.789 64.697H131.869Z" fill="black"/>
<rect x="94.7046" y="56.359" width="22.4093" height="12.1691" stroke="#D4D4D4" stroke-width="0.3"/>
<path d="M104.987 59.609V65.209H104.411V60.121H103.091V59.609H104.987ZM107.877 59.609V65.209H107.301V60.121H105.981V59.609H107.877Z" fill="black"/>
<rect x="72.1564" y="56.359" width="22.4093" height="12.1691" stroke="#D4D4D4" stroke-width="0.3"/>
<path d="M81.2353 59.609V65.209H80.6593V60.121H79.3393V59.609H81.2353ZM84.8059 65.257C84.3739 65.257 83.9873 65.1423 83.6459 64.913C83.3099 64.6837 83.0459 64.3557 82.8539 63.929C82.6673 63.497 82.5739 62.9903 82.5739 62.409C82.5739 61.8277 82.6673 61.3237 82.8539 60.897C83.0459 60.465 83.3099 60.1343 83.6459 59.905C83.9873 59.6757 84.3739 59.561 84.8059 59.561C85.2379 59.561 85.6219 59.6757 85.9579 59.905C86.2993 60.1343 86.5659 60.465 86.7579 60.897C86.9499 61.3237 87.0459 61.8277 87.0459 62.409C87.0459 62.9903 86.9499 63.497 86.7579 63.929C86.5659 64.3557 86.2993 64.6837 85.9579 64.913C85.6219 65.1423 85.2379 65.257 84.8059 65.257ZM84.8059 64.729C85.1313 64.729 85.4166 64.6383 85.6619 64.457C85.9126 64.2757 86.1073 64.0117 86.2459 63.665C86.3846 63.3183 86.4539 62.8997 86.4539 62.409C86.4539 61.9183 86.3846 61.4997 86.2459 61.153C86.1073 60.8063 85.9126 60.5423 85.6619 60.361C85.4166 60.1797 85.1313 60.089 84.8059 60.089C84.4806 60.089 84.1926 60.1797 83.9419 60.361C83.6966 60.5423 83.5046 60.8063 83.3659 61.153C83.2273 61.4997 83.1579 61.9183 83.1579 62.409C83.1579 62.8997 83.2273 63.3183 83.3659 63.665C83.5046 64.0117 83.6966 64.2757 83.9419 64.457C84.1926 64.6383 84.4806 64.729 84.8059 64.729Z" fill="black"/>
<rect x="49.6081" y="56.359" width="22.4093" height="12.1691" stroke="#D4D4D4" stroke-width="0.3"/>
<path d="M60.5352 59.561C61.2765 59.561 61.8445 59.8063 62.2392 60.297C62.6339 60.7823 62.8312 61.4703 62.8312 62.361C62.8312 62.985 62.7246 63.513 62.5112 63.945C62.2979 64.377 61.9992 64.705 61.6152 64.929C61.2312 65.1477 60.7832 65.257 60.2712 65.257C59.7165 65.257 59.2739 65.1557 58.9432 64.953L59.1752 64.489C59.4419 64.665 59.8045 64.753 60.2632 64.753C60.8819 64.753 61.3672 64.5583 61.7192 64.169C62.0712 63.7743 62.2472 63.2037 62.2472 62.457C62.2472 62.3183 62.2392 62.1663 62.2232 62.001C62.0845 62.305 61.8632 62.5423 61.5592 62.713C61.2552 62.8783 60.9059 62.961 60.5112 62.961C60.1432 62.961 59.8152 62.8917 59.5272 62.753C59.2445 62.6143 59.0232 62.4197 58.8632 62.169C58.7032 61.913 58.6232 61.617 58.6232 61.281C58.6232 60.9397 58.7059 60.6383 58.8712 60.377C59.0365 60.1157 59.2632 59.9157 59.5512 59.777C59.8445 59.633 60.1725 59.561 60.5352 59.561ZM60.5992 62.473C60.8819 62.473 61.1299 62.4197 61.3432 62.313C61.5619 62.2063 61.7326 62.0597 61.8552 61.873C61.9779 61.6863 62.0392 61.4783 62.0392 61.249C62.0392 61.0357 61.9806 60.8383 61.8632 60.657C61.7512 60.4757 61.5832 60.329 61.3592 60.217C61.1352 60.105 60.8685 60.049 60.5592 60.049C60.1539 60.049 59.8232 60.161 59.5672 60.385C59.3165 60.6037 59.1912 60.897 59.1912 61.265C59.1912 61.633 59.3165 61.9263 59.5672 62.145C59.8232 62.3637 60.1672 62.473 60.5992 62.473Z" fill="black"/>
<rect x="27.0599" y="56.359" width="22.4093" height="12.1691" stroke="#D4D4D4" stroke-width="0.3"/>
<path d="M39.3378 62.273C39.6898 62.3903 39.9591 62.5663 40.1458 62.801C40.3378 63.0357 40.4338 63.3183 40.4338 63.649C40.4338 63.9743 40.3458 64.2597 40.1698 64.505C39.9938 64.745 39.7404 64.9317 39.4098 65.065C39.0844 65.193 38.7004 65.257 38.2578 65.257C37.5858 65.257 37.0578 65.113 36.6738 64.825C36.2898 64.537 36.0978 64.145 36.0978 63.649C36.0978 63.313 36.1884 63.0303 36.3698 62.801C36.5564 62.5663 36.8258 62.3903 37.1778 62.273C36.8898 62.161 36.6711 62.001 36.5218 61.793C36.3724 61.5797 36.2978 61.329 36.2978 61.041C36.2978 60.5877 36.4738 60.2277 36.8258 59.961C37.1831 59.6943 37.6604 59.561 38.2578 59.561C38.6524 59.561 38.9964 59.6223 39.2898 59.745C39.5884 59.8623 39.8204 60.033 39.9858 60.257C40.1511 60.481 40.2338 60.7423 40.2338 61.041C40.2338 61.329 40.1564 61.5797 40.0018 61.793C39.8471 62.001 39.6258 62.161 39.3378 62.273ZM36.8738 61.057C36.8738 61.3663 36.9964 61.6117 37.2418 61.793C37.4871 61.9743 37.8258 62.065 38.2578 62.065C38.6898 62.065 39.0284 61.9743 39.2738 61.793C39.5244 61.6117 39.6498 61.369 39.6498 61.065C39.6498 60.7503 39.5218 60.5023 39.2658 60.321C39.0151 60.1397 38.6791 60.049 38.2578 60.049C37.8311 60.049 37.4924 60.1397 37.2418 60.321C36.9964 60.5023 36.8738 60.7477 36.8738 61.057ZM38.2578 64.769C38.7538 64.769 39.1404 64.6677 39.4178 64.465C39.7004 64.2623 39.8418 63.9877 39.8418 63.641C39.8418 63.2943 39.7004 63.0223 39.4178 62.825C39.1404 62.6223 38.7538 62.521 38.2578 62.521C37.7671 62.521 37.3804 62.6223 37.0978 62.825C36.8204 63.0223 36.6818 63.2943 36.6818 63.641C36.6818 63.993 36.8204 64.2703 37.0978 64.473C37.3751 64.6703 37.7618 64.769 38.2578 64.769Z" fill="black"/>
<rect x="4.51169" y="56.359" width="22.4093" height="12.1691" stroke="#D4D4D4" stroke-width="0.3"/>
<path d="M17.866 59.609V60.017L15.522 65.209H14.898L17.202 60.121H14.322V61.169H13.754V59.609H17.866Z" fill="black"/>
<rect x="139.801" y="43.8893" width="22.4093" height="12.1691" stroke="#D4D4D4" stroke-width="0.3"/>
<path d="M151.304 49.3873C151.672 49.3873 151.998 49.4566 152.28 49.5953C152.568 49.7339 152.792 49.9313 152.952 50.1873C153.112 50.4379 153.192 50.7313 153.192 51.0673C153.192 51.4086 153.11 51.7099 152.944 51.9713C152.779 52.2326 152.55 52.4353 152.256 52.5793C151.968 52.7179 151.643 52.7873 151.28 52.7873C150.539 52.7873 149.971 52.5446 149.576 52.0593C149.182 51.5686 148.984 50.8779 148.984 49.9873C148.984 49.3633 149.091 48.8353 149.304 48.4033C149.518 47.9713 149.816 47.6459 150.2 47.4273C150.584 47.2033 151.032 47.0913 151.544 47.0913C152.099 47.0913 152.542 47.1926 152.872 47.3953L152.64 47.8593C152.374 47.6833 152.011 47.5953 151.552 47.5953C150.934 47.5953 150.448 47.7926 150.096 48.1873C149.744 48.5766 149.568 49.1446 149.568 49.8913C149.568 50.0246 149.576 50.1766 149.592 50.3473C149.731 50.0433 149.952 49.8086 150.256 49.6433C150.56 49.4726 150.91 49.3873 151.304 49.3873ZM151.256 52.2993C151.662 52.2993 151.99 52.1899 152.24 51.9713C152.496 51.7473 152.624 51.4513 152.624 51.0833C152.624 50.7153 152.496 50.4219 152.24 50.2033C151.99 49.9846 151.648 49.8753 151.216 49.8753C150.934 49.8753 150.683 49.9286 150.464 50.0353C150.251 50.1419 150.083 50.2886 149.96 50.4753C149.838 50.6619 149.776 50.8699 149.776 51.0993C149.776 51.3126 149.832 51.5099 149.944 51.6913C150.062 51.8726 150.232 52.0193 150.456 52.1313C150.68 52.2433 150.947 52.2993 151.256 52.2993Z" fill="black"/>
<rect x="117.253" y="43.8893" width="22.4093" height="12.1691" stroke="#D4D4D4" stroke-width="0.3"/>
<path d="M128.08 49.4353C128.891 49.4353 129.48 49.5819 129.848 49.8753C130.221 50.1633 130.408 50.5686 130.408 51.0913C130.408 51.4166 130.331 51.7073 130.176 51.9633C130.027 52.2193 129.8 52.4219 129.496 52.5713C129.192 52.7153 128.819 52.7873 128.376 52.7873C127.976 52.7873 127.595 52.7233 127.232 52.5953C126.875 52.4619 126.587 52.2859 126.368 52.0673L126.648 51.6113C126.835 51.8033 127.08 51.9606 127.384 52.0833C127.688 52.2006 128.016 52.2593 128.368 52.2593C128.832 52.2593 129.189 52.1553 129.44 51.9473C129.696 51.7393 129.824 51.4619 129.824 51.1153C129.824 50.7313 129.68 50.4406 129.392 50.2433C129.109 50.0459 128.629 49.9473 127.952 49.9473H126.76L127.048 47.1393H130.112V47.6513H127.552L127.36 49.4353H128.08Z" fill="black"/>
<rect x="94.7046" y="43.8893" width="22.4093" height="12.1691" stroke="#D4D4D4" stroke-width="0.3"/>
<path d="M108.441 51.2673H107.321V52.7393H106.745V51.2673H103.585V50.8513L106.553 47.1393H107.193L104.329 50.7553H106.761V49.4593H107.321V50.7553H108.441V51.2673Z" fill="black"/>
<rect x="72.1564" y="43.8893" width="22.4093" height="12.1691" fill="#2DA9A1" stroke="#D4D4D4" stroke-width="0.3"/>
<path d="M83.4232 49.5393C84.0099 49.5713 84.4552 49.7313 84.7592 50.0193C85.0686 50.3019 85.2232 50.6726 85.2232 51.1313C85.2232 51.4513 85.1459 51.7366 84.9912 51.9873C84.8366 52.2326 84.6072 52.4273 84.3032 52.5713C83.9992 52.7153 83.6286 52.7873 83.1912 52.7873C82.7859 52.7873 82.4019 52.7233 82.0392 52.5953C81.6819 52.4619 81.3939 52.2859 81.1752 52.0673L81.4552 51.6113C81.6419 51.8033 81.8899 51.9606 82.1992 52.0833C82.5086 52.2006 82.8392 52.2593 83.1912 52.2593C83.6499 52.2593 84.0046 52.1606 84.2552 51.9633C84.5059 51.7606 84.6312 51.4833 84.6312 51.1313C84.6312 50.7846 84.5059 50.5126 84.2552 50.3153C84.0046 50.1179 83.6259 50.0193 83.1192 50.0193H82.7192V49.5953L84.2712 47.6513H81.4072V47.1393H85.0072V47.5473L83.4232 49.5393Z" fill="white"/>
<rect x="49.6081" y="43.8893" width="22.4093" height="12.1691" stroke="#D4D4D4" stroke-width="0.3"/>
<path d="M62.7793 52.2273V52.7393H58.8513V52.3313L61.1793 50.0513C61.4726 49.7633 61.6699 49.5153 61.7713 49.3073C61.8779 49.0939 61.9313 48.8806 61.9313 48.6673C61.9313 48.3366 61.8166 48.0806 61.5873 47.8993C61.3633 47.7126 61.0406 47.6193 60.6193 47.6193C59.9633 47.6193 59.4539 47.8273 59.0913 48.2433L58.6833 47.8913C58.9019 47.6353 59.1793 47.4379 59.5153 47.2993C59.8566 47.1606 60.2406 47.0913 60.6673 47.0913C61.2379 47.0913 61.6886 47.2273 62.0193 47.4993C62.3553 47.7659 62.5233 48.1339 62.5233 48.6033C62.5233 48.8913 62.4593 49.1686 62.3313 49.4353C62.2033 49.7019 61.9606 50.0086 61.6033 50.3553L59.6993 52.2273H62.7793Z" fill="black"/>
<rect x="27.0599" y="43.8893" width="22.4093" height="12.1691" stroke="#D4D4D4" stroke-width="0.3"/>
<path d="M38.7872 47.1393V52.7393H38.2112V47.6513H36.8912V47.1393H38.7872Z" fill="black"/>
<rect x="4.51169" y="43.8893" width="22.4093" height="12.1691" stroke="#D4D4D4" stroke-width="0.3"/>
<rect x="139.939" y="31.4205" width="22.2712" height="12.1691" fill="#C4C4C4" stroke="white" stroke-width="0.3"/>
<path d="M149.177 37.3665C149.556 37.4572 149.841 37.6198 150.033 37.8545C150.23 38.0838 150.329 38.3798 150.329 38.7425C150.329 39.2278 150.15 39.6038 149.793 39.8705C149.441 40.1372 148.926 40.2705 148.249 40.2705H145.689V34.6705H148.097C148.71 34.6705 149.188 34.7958 149.529 35.0465C149.876 35.2918 150.049 35.6465 150.049 36.1105C150.049 36.4145 149.972 36.6732 149.817 36.8865C149.668 37.0998 149.454 37.2598 149.177 37.3665ZM146.481 37.1345H148.041C148.43 37.1345 148.726 37.0572 148.929 36.9025C149.137 36.7478 149.241 36.5212 149.241 36.2225C149.241 35.9238 149.137 35.6972 148.929 35.5425C148.721 35.3825 148.425 35.3025 148.041 35.3025H146.481V37.1345ZM148.233 39.6385C149.092 39.6385 149.521 39.3185 149.521 38.6785C149.521 38.3585 149.412 38.1238 149.193 37.9745C148.98 37.8198 148.66 37.7425 148.233 37.7425H146.481V39.6385H148.233ZM153.386 40.3185C152.954 40.3185 152.567 40.2252 152.226 40.0385C151.89 39.8518 151.626 39.5958 151.434 39.2705C151.242 38.9398 151.146 38.5665 151.146 38.1505C151.146 37.7345 151.242 37.3638 151.434 37.0385C151.626 36.7078 151.89 36.4518 152.226 36.2705C152.567 36.0838 152.954 35.9905 153.386 35.9905C153.77 35.9905 154.111 36.0678 154.41 36.2225C154.714 36.3772 154.948 36.6012 155.114 36.8945L154.53 37.2705C154.396 37.0678 154.231 36.9158 154.034 36.8145C153.836 36.7132 153.618 36.6625 153.378 36.6625C153.1 36.6625 152.85 36.7238 152.626 36.8465C152.407 36.9692 152.234 37.1452 152.106 37.3745C151.983 37.5985 151.922 37.8572 151.922 38.1505C151.922 38.4492 151.983 38.7132 152.106 38.9425C152.234 39.1665 152.407 39.3398 152.626 39.4625C152.85 39.5852 153.1 39.6465 153.378 39.6465C153.618 39.6465 153.836 39.5958 154.034 39.4945C154.231 39.3932 154.396 39.2412 154.53 39.0385L155.114 39.4065C154.948 39.6998 154.714 39.9265 154.41 40.0865C154.111 40.2412 153.77 40.3185 153.386 40.3185ZM156.432 40.3185C156.283 40.3185 156.155 40.2678 156.048 40.1665C155.941 40.0598 155.888 39.9265 155.888 39.7665C155.888 39.6118 155.941 39.4838 156.048 39.3825C156.155 39.2758 156.283 39.2225 156.432 39.2225C156.581 39.2225 156.707 39.2732 156.808 39.3745C156.909 39.4758 156.96 39.6065 156.96 39.7665C156.96 39.9265 156.907 40.0598 156.8 40.1665C156.699 40.2678 156.576 40.3185 156.432 40.3185Z" fill="white"/>
<rect x="117.368" y="31.4205" width="22.2712" height="12.1691" fill="#C4C4C4" stroke="white" stroke-width="0.3"/>
<path d="M125.559 40.3345C124.999 40.3345 124.493 40.2118 124.039 39.9665C123.591 39.7158 123.239 39.3745 122.983 38.9425C122.727 38.5052 122.599 38.0145 122.599 37.4705C122.599 36.9265 122.727 36.4385 122.983 36.0065C123.239 35.5692 123.594 35.2278 124.047 34.9825C124.501 34.7318 125.007 34.6065 125.567 34.6065C126.005 34.6065 126.405 34.6812 126.767 34.8305C127.13 34.9745 127.439 35.1905 127.695 35.4785L127.175 35.9825C126.754 35.5398 126.229 35.3185 125.599 35.3185C125.183 35.3185 124.807 35.4118 124.471 35.5985C124.135 35.7852 123.871 36.0438 123.679 36.3745C123.493 36.6998 123.399 37.0652 123.399 37.4705C123.399 37.8758 123.493 38.2438 123.679 38.5745C123.871 38.8998 124.135 39.1558 124.471 39.3425C124.807 39.5292 125.183 39.6225 125.599 39.6225C126.223 39.6225 126.749 39.3985 127.175 38.9505L127.695 39.4545C127.439 39.7425 127.127 39.9612 126.759 40.1105C126.397 40.2598 125.997 40.3345 125.559 40.3345ZM130.712 36.1745C131.107 36.1745 131.459 36.2625 131.768 36.4385C132.078 36.6145 132.318 36.8598 132.488 37.1745C132.664 37.4838 132.752 37.8385 132.752 38.2385C132.752 38.6492 132.659 39.0145 132.472 39.3345C132.291 39.6492 132.032 39.8945 131.696 40.0705C131.366 40.2465 130.987 40.3345 130.56 40.3345C129.84 40.3345 129.283 40.0892 128.888 39.5985C128.499 39.1025 128.304 38.4065 128.304 37.5105C128.304 36.6412 128.483 35.9612 128.84 35.4705C129.198 34.9745 129.744 34.6465 130.48 34.4865L132.416 34.0545L132.528 34.7585L130.744 35.1425C130.19 35.2652 129.776 35.4732 129.504 35.7665C129.232 36.0598 129.078 36.4812 129.04 37.0305C129.222 36.7585 129.456 36.5478 129.744 36.3985C130.032 36.2492 130.355 36.1745 130.712 36.1745ZM130.576 39.6945C130.848 39.6945 131.088 39.6332 131.296 39.5105C131.51 39.3878 131.675 39.2198 131.792 39.0065C131.91 38.7878 131.968 38.5398 131.968 38.2625C131.968 37.8412 131.84 37.5025 131.584 37.2465C131.328 36.9905 130.992 36.8625 130.576 36.8625C130.16 36.8625 129.822 36.9905 129.56 37.2465C129.304 37.5025 129.176 37.8412 129.176 38.2625C129.176 38.5398 129.235 38.7878 129.352 39.0065C129.475 39.2198 129.643 39.3878 129.856 39.5105C130.07 39.6332 130.31 39.6945 130.576 39.6945ZM133.923 40.3185C133.774 40.3185 133.646 40.2678 133.539 40.1665C133.433 40.0598 133.379 39.9265 133.379 39.7665C133.379 39.6118 133.433 39.4838 133.539 39.3825C133.646 39.2758 133.774 39.2225 133.923 39.2225C134.073 39.2225 134.198 39.2732 134.299 39.3745C134.401 39.4758 134.451 39.6065 134.451 39.7665C134.451 39.9265 134.398 40.0598 134.291 40.1665C134.19 40.2678 134.067 40.3185 133.923 40.3185Z" fill="white"/>
<rect x="94.7967" y="31.4205" width="22.2712" height="12.1691" fill="#C4C4C4" stroke="white" stroke-width="0.3"/>
<path d="M105.656 34.6705V40.2705H104.872V35.3665H101.624V40.2705H100.832V34.6705H105.656ZM110.434 36.7025H108.882V40.2705H108.114V36.7025H106.562V36.0305H110.434V36.7025ZM111.004 40.3185C110.855 40.3185 110.727 40.2678 110.62 40.1665C110.514 40.0598 110.46 39.9265 110.46 39.7665C110.46 39.6118 110.514 39.4838 110.62 39.3825C110.727 39.2758 110.855 39.2225 111.004 39.2225C111.154 39.2225 111.279 39.2732 111.38 39.3745C111.482 39.4758 111.532 39.6065 111.532 39.7665C111.532 39.9265 111.479 40.0598 111.372 40.1665C111.271 40.2678 111.148 40.3185 111.004 40.3185Z" fill="white"/>
<rect x="72.2254" y="31.4205" width="22.2712" height="12.1691" fill="#C4C4C4" stroke="white" stroke-width="0.3"/>
<path d="M82.7442 34.6705V40.2705H81.9522V38.0545C81.3602 38.2838 80.8135 38.3985 80.3122 38.3985C79.6295 38.3985 79.0989 38.2332 78.7202 37.9025C78.3469 37.5718 78.1602 37.0998 78.1602 36.4865V34.6705H78.9442V36.3985C78.9442 36.8145 79.0695 37.1345 79.3202 37.3585C79.5762 37.5825 79.9362 37.6945 80.4002 37.6945C80.9175 37.6945 81.4349 37.5772 81.9522 37.3425V34.6705H82.7442ZM87.5228 36.7025H85.9708V40.2705H85.2028V36.7025H83.6508V36.0305H87.5228V36.7025ZM88.0933 40.3185C87.944 40.3185 87.816 40.2678 87.7093 40.1665C87.6026 40.0598 87.5493 39.9265 87.5493 39.7665C87.5493 39.6118 87.6026 39.4838 87.7093 39.3825C87.816 39.2758 87.944 39.2225 88.0933 39.2225C88.2426 39.2225 88.368 39.2732 88.4693 39.3745C88.5706 39.4758 88.6213 39.6065 88.6213 39.7665C88.6213 39.9265 88.568 40.0598 88.4613 40.1665C88.36 40.2678 88.2373 40.3185 88.0933 40.3185Z" fill="white"/>
<rect x="49.6542" y="31.4205" width="22.2712" height="12.1691" fill="#C4C4C4" stroke="white" stroke-width="0.3"/>
<path d="M57.6814 40.3345C57.1214 40.3345 56.6147 40.2118 56.1614 39.9665C55.7134 39.7158 55.3614 39.3745 55.1054 38.9425C54.8494 38.5052 54.7214 38.0145 54.7214 37.4705C54.7214 36.9265 54.8494 36.4385 55.1054 36.0065C55.3614 35.5692 55.7161 35.2278 56.1694 34.9825C56.6227 34.7318 57.1294 34.6065 57.6894 34.6065C58.1267 34.6065 58.5267 34.6812 58.8894 34.8305C59.2521 34.9745 59.5614 35.1905 59.8174 35.4785L59.2974 35.9825C58.8761 35.5398 58.3507 35.3185 57.7214 35.3185C57.3054 35.3185 56.9294 35.4118 56.5934 35.5985C56.2574 35.7852 55.9934 36.0438 55.8014 36.3745C55.6147 36.6998 55.5214 37.0652 55.5214 37.4705C55.5214 37.8758 55.6147 38.2438 55.8014 38.5745C55.9934 38.8998 56.2574 39.1558 56.5934 39.3425C56.9294 39.5292 57.3054 39.6225 57.7214 39.6225C58.3454 39.6225 58.8707 39.3985 59.2974 38.9505L59.8174 39.4545C59.5614 39.7425 59.2494 39.9612 58.8814 40.1105C58.5187 40.2598 58.1187 40.3345 57.6814 40.3345ZM63.0396 35.9905C63.4503 35.9905 63.8183 36.0812 64.1436 36.2625C64.4689 36.4438 64.7223 36.6972 64.9036 37.0225C65.0903 37.3478 65.1836 37.7238 65.1836 38.1505C65.1836 38.5772 65.0903 38.9558 64.9036 39.2865C64.7223 39.6118 64.4689 39.8652 64.1436 40.0465C63.8183 40.2278 63.4503 40.3185 63.0396 40.3185C62.7356 40.3185 62.4556 40.2598 62.1996 40.1425C61.9489 40.0252 61.7356 39.8545 61.5596 39.6305V41.8225H60.7916V36.0305H61.5276V36.7025C61.6983 36.4678 61.9143 36.2918 62.1756 36.1745C62.4369 36.0518 62.7249 35.9905 63.0396 35.9905ZM62.9756 39.6465C63.2476 39.6465 63.4903 39.5852 63.7036 39.4625C63.9223 39.3345 64.0929 39.1585 64.2156 38.9345C64.3436 38.7052 64.4076 38.4438 64.4076 38.1505C64.4076 37.8572 64.3436 37.5985 64.2156 37.3745C64.0929 37.1452 63.9223 36.9692 63.7036 36.8465C63.4903 36.7238 63.2476 36.6625 62.9756 36.6625C62.7089 36.6625 62.4663 36.7265 62.2476 36.8545C62.0343 36.9772 61.8636 37.1505 61.7356 37.3745C61.6129 37.5985 61.5516 37.8572 61.5516 38.1505C61.5516 38.4438 61.6129 38.7052 61.7356 38.9345C61.8583 39.1585 62.0289 39.3345 62.2476 39.4625C62.4663 39.5852 62.7089 39.6465 62.9756 39.6465ZM66.3736 40.3185C66.2243 40.3185 66.0963 40.2678 65.9896 40.1665C65.883 40.0598 65.8296 39.9265 65.8296 39.7665C65.8296 39.6118 65.883 39.4838 65.9896 39.3825C66.0963 39.2758 66.2243 39.2225 66.3736 39.2225C66.523 39.2225 66.6483 39.2732 66.7497 39.3745C66.851 39.4758 66.9016 39.6065 66.9016 39.7665C66.9016 39.9265 66.8483 40.0598 66.7416 40.1665C66.6403 40.2678 66.5176 40.3185 66.3736 40.3185Z" fill="white"/>
<rect x="27.0829" y="31.4205" width="22.2712" height="12.1691" fill="#C4C4C4" stroke="white" stroke-width="0.3"/>
<path d="M36.9028 37.3665C37.2814 37.4572 37.5668 37.6198 37.7588 37.8545C37.9561 38.0838 38.0548 38.3798 38.0548 38.7425C38.0548 39.2278 37.8761 39.6038 37.5188 39.8705C37.1668 40.1372 36.6521 40.2705 35.9748 40.2705H33.4148V34.6705H35.8228C36.4361 34.6705 36.9134 34.7958 37.2548 35.0465C37.6014 35.2918 37.7748 35.6465 37.7748 36.1105C37.7748 36.4145 37.6974 36.6732 37.5428 36.8865C37.3934 37.0998 37.1801 37.2598 36.9028 37.3665ZM34.2068 37.1345H35.7668C36.1561 37.1345 36.4521 37.0572 36.6548 36.9025C36.8628 36.7478 36.9668 36.5212 36.9668 36.2225C36.9668 35.9238 36.8628 35.6972 36.6548 35.5425C36.4468 35.3825 36.1508 35.3025 35.7668 35.3025H34.2068V37.1345ZM35.9588 39.6385C36.8174 39.6385 37.2468 39.3185 37.2468 38.6785C37.2468 38.3585 37.1374 38.1238 36.9188 37.9745C36.7054 37.8198 36.3854 37.7425 35.9588 37.7425H34.2068V39.6385H35.9588ZM42.4233 36.7025H40.8713V40.2705H40.1033V36.7025H38.5513V36.0305H42.4233V36.7025ZM42.9938 40.3185C42.8445 40.3185 42.7165 40.2678 42.6098 40.1665C42.5032 40.0598 42.4498 39.9265 42.4498 39.7665C42.4498 39.6118 42.5032 39.4838 42.6098 39.3825C42.7165 39.2758 42.8445 39.2225 42.9938 39.2225C43.1432 39.2225 43.2685 39.2732 43.3698 39.3745C43.4712 39.4758 43.5218 39.6065 43.5218 39.7665C43.5218 39.9265 43.4685 40.0598 43.3618 40.1665C43.2605 40.2678 43.1378 40.3185 42.9938 40.3185Z" fill="white"/>
<rect x="4.51169" y="31.4205" width="22.2712" height="12.1691" fill="#C4C4C4" stroke="white" stroke-width="0.3"/>
<path d="M14.4293 34.6705V40.2705H13.6453V35.3665H10.3973V40.2705H9.60526V34.6705H14.4293ZM16.0476 36.0305H16.8156V37.8305H19.2316V36.0305H19.9996V40.2705H19.2316V38.4945H16.8156V40.2705H16.0476V36.0305ZM21.6609 40.3185C21.5115 40.3185 21.3835 40.2678 21.2769 40.1665C21.1702 40.0598 21.1169 39.9265 21.1169 39.7665C21.1169 39.6118 21.1702 39.4838 21.2769 39.3825C21.3835 39.2758 21.5115 39.2225 21.6609 39.2225C21.8102 39.2225 21.9355 39.2732 22.0369 39.3745C22.1382 39.4758 22.1889 39.6065 22.1889 39.7665C22.1889 39.9265 22.1355 40.0598 22.0289 40.1665C21.9275 40.2678 21.8049 40.3185 21.6609 40.3185Z" fill="white"/>
<rect x="1.25" y="12.25" width="165.343" height="15.3697" fill="#F9F9F9" stroke="#D5D5D5" stroke-width="0.5"/>
<path d="M72.9996 20.3258C72.9996 21.0671 72.7356 21.6511 72.2076 22.0778C71.685 22.4991 70.9516 22.7231 70.0076 22.7498V23.3258H69.4556V22.7498C68.5116 22.7178 67.7756 22.4911 67.2476 22.0698C66.725 21.6485 66.4636 21.0671 66.4636 20.3258C66.4636 19.5845 66.725 19.0031 67.2476 18.5818C67.7756 18.1605 68.5116 17.9338 69.4556 17.9018V17.3418H70.0076V17.9018C70.9463 17.9338 71.6796 18.1631 72.2076 18.5898C72.7356 19.0111 72.9996 19.5898 72.9996 20.3258ZM70.0076 22.2778C70.781 22.2458 71.3783 22.0618 71.7996 21.7258C72.221 21.3898 72.4316 20.9231 72.4316 20.3258C72.4316 19.7285 72.2183 19.2618 71.7916 18.9258C71.3703 18.5898 70.7756 18.4085 70.0076 18.3818V22.2778ZM67.0316 20.3258C67.0316 20.9231 67.2423 21.3898 67.6636 21.7258C68.0903 22.0565 68.6876 22.2405 69.4556 22.2778V18.3818C68.677 18.4138 68.077 18.5978 67.6556 18.9338C67.2396 19.2645 67.0316 19.7285 67.0316 20.3258ZM77.8876 21.2058H74.3676C74.3996 21.6431 74.5676 21.9978 74.8716 22.2698C75.1756 22.5365 75.5596 22.6698 76.0236 22.6698C76.2849 22.6698 76.5249 22.6245 76.7436 22.5338C76.9622 22.4378 77.1516 22.2991 77.3116 22.1178L77.6316 22.4858C77.4449 22.7098 77.2102 22.8805 76.9276 22.9978C76.6502 23.1151 76.3436 23.1738 76.0076 23.1738C75.5756 23.1738 75.1916 23.0831 74.8556 22.9018C74.5249 22.7151 74.2662 22.4591 74.0796 22.1338C73.8929 21.8085 73.7996 21.4405 73.7996 21.0298C73.7996 20.6191 73.8876 20.2511 74.0636 19.9258C74.2449 19.6005 74.4902 19.3471 74.7996 19.1658C75.1142 18.9845 75.4662 18.8938 75.8556 18.8938C76.2449 18.8938 76.5942 18.9845 76.9036 19.1658C77.2129 19.3471 77.4556 19.6005 77.6316 19.9258C77.8076 20.2458 77.8956 20.6138 77.8956 21.0298L77.8876 21.2058ZM75.8556 19.3818C75.4502 19.3818 75.1089 19.5125 74.8316 19.7738C74.5596 20.0298 74.4049 20.3658 74.3676 20.7818H77.3516C77.3142 20.3658 77.1569 20.0298 76.8796 19.7738C76.6076 19.5125 76.2662 19.3818 75.8556 19.3818ZM81.8329 20.9578C82.4035 21.0911 82.6889 21.4351 82.6889 21.9898C82.6889 22.3578 82.5529 22.6405 82.2809 22.8378C82.0089 23.0351 81.6035 23.1338 81.0649 23.1338H79.1529V18.9258H81.0089C81.4889 18.9258 81.8649 19.0191 82.1369 19.2058C82.4089 19.3925 82.5449 19.6591 82.5449 20.0058C82.5449 20.2351 82.4809 20.4325 82.3529 20.5978C82.2302 20.7578 82.0569 20.8778 81.8329 20.9578ZM79.7049 20.7978H80.9689C81.2942 20.7978 81.5422 20.7365 81.7129 20.6138C81.8889 20.4911 81.9769 20.3125 81.9769 20.0778C81.9769 19.8431 81.8889 19.6671 81.7129 19.5498C81.5422 19.4325 81.2942 19.3738 80.9689 19.3738H79.7049V20.7978ZM81.0409 22.6858C81.4035 22.6858 81.6755 22.6271 81.8569 22.5098C82.0382 22.3925 82.1289 22.2085 82.1289 21.9578C82.1289 21.7071 82.0462 21.5231 81.8809 21.4058C81.7155 21.2831 81.4542 21.2218 81.0969 21.2218H79.7049V22.6858H81.0409ZM86.1881 18.8938C86.5827 18.8938 86.9401 18.9845 87.2601 19.1658C87.5801 19.3418 87.8307 19.5925 88.0121 19.9178C88.1934 20.2431 88.2841 20.6138 88.2841 21.0298C88.2841 21.4511 88.1934 21.8245 88.0121 22.1498C87.8307 22.4751 87.5801 22.7285 87.2601 22.9098C86.9454 23.0858 86.5881 23.1738 86.1881 23.1738C85.8467 23.1738 85.5374 23.1045 85.2601 22.9658C84.9881 22.8218 84.7641 22.6138 84.5881 22.3418V24.6858H84.0201V18.9258H84.5641V19.7578C84.7347 19.4805 84.9587 19.2671 85.2361 19.1178C85.5187 18.9685 85.8361 18.8938 86.1881 18.8938ZM86.1481 22.6698C86.4414 22.6698 86.7081 22.6031 86.9481 22.4698C87.1881 22.3311 87.3747 22.1365 87.5081 21.8858C87.6467 21.6351 87.7161 21.3498 87.7161 21.0298C87.7161 20.7098 87.6467 20.4271 87.5081 20.1818C87.3747 19.9311 87.1881 19.7365 86.9481 19.5978C86.7081 19.4591 86.4414 19.3898 86.1481 19.3898C85.8494 19.3898 85.5801 19.4591 85.3401 19.5978C85.1054 19.7365 84.9187 19.9311 84.7801 20.1818C84.6467 20.4271 84.5801 20.7098 84.5801 21.0298C84.5801 21.3498 84.6467 21.6351 84.7801 21.8858C84.9187 22.1365 85.1054 22.3311 85.3401 22.4698C85.5801 22.6031 85.8494 22.6698 86.1481 22.6698ZM90.929 18.8938C91.4783 18.8938 91.8997 19.0325 92.193 19.3098C92.4863 19.5818 92.633 19.9871 92.633 20.5258V23.1338H92.089V22.4778C91.961 22.6965 91.7717 22.8671 91.521 22.9898C91.2757 23.1125 90.9823 23.1738 90.641 23.1738C90.1717 23.1738 89.7983 23.0618 89.521 22.8378C89.2437 22.6138 89.105 22.3178 89.105 21.9498C89.105 21.5925 89.233 21.3045 89.489 21.0858C89.7503 20.8671 90.1637 20.7578 90.729 20.7578H92.065V20.5018C92.065 20.1391 91.9637 19.8645 91.761 19.6778C91.5583 19.4858 91.2623 19.3898 90.873 19.3898C90.6063 19.3898 90.3503 19.4351 90.105 19.5258C89.8597 19.6111 89.649 19.7311 89.473 19.8858L89.217 19.4618C89.4303 19.2805 89.6863 19.1418 89.985 19.0458C90.2837 18.9445 90.5983 18.8938 90.929 18.8938ZM90.729 22.7258C91.049 22.7258 91.3237 22.6538 91.553 22.5098C91.7823 22.3605 91.953 22.1471 92.065 21.8698V21.1818H90.745C90.025 21.1818 89.665 21.4325 89.665 21.9338C89.665 22.1791 89.7583 22.3738 89.945 22.5178C90.1317 22.6565 90.393 22.7258 90.729 22.7258ZM97.5851 18.9258V23.1338H97.0171V19.4298H95.0011L94.9451 20.4698C94.9024 21.3445 94.8011 22.0165 94.6411 22.4858C94.4811 22.9551 94.1957 23.1898 93.7851 23.1898C93.6731 23.1898 93.5371 23.1685 93.3771 23.1258L93.4171 22.6378C93.5131 22.6591 93.5797 22.6698 93.6171 22.6698C93.8357 22.6698 94.0011 22.5685 94.1131 22.3658C94.2251 22.1631 94.2997 21.9125 94.3371 21.6138C94.3744 21.3151 94.4064 20.9205 94.4331 20.4298L94.5051 18.9258H97.5851ZM101.008 20.4138C101.536 20.4191 101.936 20.5365 102.208 20.7658C102.485 20.9951 102.624 21.3258 102.624 21.7578C102.624 22.2058 102.474 22.5498 102.176 22.7898C101.882 23.0298 101.456 23.1471 100.896 23.1418L99.1998 23.1338V18.9258H99.7678V20.3978L101.008 20.4138ZM100.864 22.7098C101.253 22.7151 101.546 22.6378 101.744 22.4778C101.946 22.3125 102.048 22.0725 102.048 21.7578C102.048 21.4485 101.949 21.2191 101.752 21.0698C101.554 20.9205 101.258 20.8431 100.864 20.8378L99.7678 20.8218V22.6938L100.864 22.7098Z" fill="black"/>
<path d="M10.1967 17.1269L6.82172 20.5019L10.1967 23.8769L10.1967 17.1269Z" fill="#2DA9A1"/>
<path d="M157.646 23.877L161.021 20.502L157.646 17.127L157.646 23.877Z" fill="#2DA9A1"/>
<path d="M62.668 2.76H63.436V4.56H65.852V2.76H66.62V7H65.852V5.224H63.436V7H62.668V2.76ZM69.6253 2.72C70.2119 2.72 70.6599 2.864 70.9693 3.152C71.2839 3.44 71.4413 3.86933 71.4413 4.44V7H70.7133V6.44C70.5853 6.63733 70.4013 6.78933 70.1613 6.896C69.9266 6.99733 69.6466 7.048 69.3213 7.048C68.8466 7.048 68.4653 6.93333 68.1773 6.704C67.8946 6.47467 67.7533 6.17333 67.7533 5.8C67.7533 5.42667 67.8893 5.128 68.1613 4.904C68.4333 4.67467 68.8653 4.56 69.4573 4.56H70.6733V4.408C70.6733 4.07733 70.5773 3.824 70.3853 3.648C70.1933 3.472 69.9106 3.384 69.5373 3.384C69.2866 3.384 69.0413 3.42667 68.8013 3.512C68.5613 3.592 68.3586 3.70133 68.1933 3.84L67.8733 3.264C68.0919 3.088 68.3533 2.95467 68.6573 2.864C68.9613 2.768 69.2839 2.72 69.6253 2.72ZM69.4493 6.456C69.7426 6.456 69.9959 6.392 70.2093 6.264C70.4226 6.13067 70.5773 5.944 70.6733 5.704V5.112H69.4893C68.8386 5.112 68.5133 5.33067 68.5133 5.768C68.5133 5.98133 68.5959 6.14933 68.7613 6.272C68.9266 6.39467 69.1559 6.456 69.4493 6.456ZM76.2082 2.76V7H75.4402V5.288C74.9815 5.50133 74.5255 5.608 74.0722 5.608C73.5442 5.608 73.1362 5.48533 72.8482 5.24C72.5602 4.99467 72.4162 4.62667 72.4162 4.136V2.76H73.1842V4.088C73.1842 4.38133 73.2749 4.60267 73.4562 4.752C73.6429 4.90133 73.9015 4.976 74.2322 4.976C74.6055 4.976 75.0082 4.88267 75.4402 4.696V2.76H76.2082ZM77.6992 2.76H78.4672V5.848L81.0672 2.76H81.7632V7H80.9952V3.912L78.4032 7H77.6992V2.76ZM83.2539 2.76H84.0219V4.56H86.4379V2.76H87.2059V7H86.4379V5.224H84.0219V7H83.2539V2.76ZM90.2112 2.72C90.7979 2.72 91.2459 2.864 91.5552 3.152C91.8699 3.44 92.0272 3.86933 92.0272 4.44V7H91.2992V6.44C91.1712 6.63733 90.9872 6.78933 90.7472 6.896C90.5125 6.99733 90.2325 7.048 89.9072 7.048C89.4325 7.048 89.0512 6.93333 88.7632 6.704C88.4805 6.47467 88.3392 6.17333 88.3392 5.8C88.3392 5.42667 88.4752 5.128 88.7472 4.904C89.0192 4.67467 89.4512 4.56 90.0432 4.56H91.2592V4.408C91.2592 4.07733 91.1632 3.824 90.9712 3.648C90.7792 3.472 90.4965 3.384 90.1232 3.384C89.8725 3.384 89.6272 3.42667 89.3872 3.512C89.1472 3.592 88.9445 3.70133 88.7792 3.84L88.4592 3.264C88.6779 3.088 88.9392 2.95467 89.2432 2.864C89.5472 2.768 89.8699 2.72 90.2112 2.72ZM90.0352 6.456C90.3285 6.456 90.5819 6.392 90.7952 6.264C91.0085 6.13067 91.1632 5.944 91.2592 5.704V5.112H90.0752C89.4245 5.112 89.0992 5.33067 89.0992 5.768C89.0992 5.98133 89.1819 6.14933 89.3472 6.272C89.5125 6.39467 89.7419 6.456 90.0352 6.456ZM96.8102 2.76V7H96.1222V5.656H94.8902H94.8022L93.8742 7H93.0502L94.0822 5.552C93.7622 5.456 93.5168 5.29867 93.3462 5.08C93.1755 4.856 93.0902 4.57867 93.0902 4.248C93.0902 3.76267 93.2555 3.39467 93.5862 3.144C93.9168 2.888 94.3728 2.76 94.9542 2.76H96.8102ZM93.8742 4.272C93.8742 4.55467 93.9622 4.76533 94.1382 4.904C94.3195 5.03733 94.5888 5.104 94.9462 5.104H96.1222V3.432H94.9782C94.2422 3.432 93.8742 3.712 93.8742 4.272ZM102.305 7.048C101.873 7.048 101.486 6.95467 101.145 6.768C100.809 6.58133 100.545 6.32533 100.353 6C100.161 5.66933 100.065 5.296 100.065 4.88C100.065 4.464 100.161 4.09333 100.353 3.768C100.545 3.43733 100.809 3.18133 101.145 3C101.486 2.81333 101.873 2.72 102.305 2.72C102.689 2.72 103.03 2.79733 103.329 2.952C103.633 3.10667 103.868 3.33067 104.033 3.624L103.449 4C103.316 3.79733 103.15 3.64533 102.953 3.544C102.756 3.44267 102.537 3.392 102.297 3.392C102.02 3.392 101.769 3.45333 101.545 3.576C101.326 3.69867 101.153 3.87467 101.025 4.104C100.902 4.328 100.841 4.58667 100.841 4.88C100.841 5.17867 100.902 5.44267 101.025 5.672C101.153 5.896 101.326 6.06933 101.545 6.192C101.769 6.31467 102.02 6.376 102.297 6.376C102.537 6.376 102.756 6.32533 102.953 6.224C103.15 6.12267 103.316 5.97067 103.449 5.768L104.033 6.136C103.868 6.42933 103.633 6.656 103.329 6.816C103.03 6.97067 102.689 7.048 102.305 7.048ZM105.25 3.816C105.101 3.816 104.973 3.76533 104.866 3.664C104.759 3.55733 104.706 3.424 104.706 3.264C104.706 3.10933 104.759 2.98133 104.866 2.88C104.973 2.77333 105.101 2.72 105.25 2.72C105.399 2.72 105.525 2.77067 105.626 2.872C105.727 2.97333 105.778 3.104 105.778 3.264C105.778 3.424 105.725 3.55733 105.618 3.664C105.517 3.76533 105.394 3.816 105.25 3.816ZM105.25 7.048C105.101 7.048 104.973 6.99733 104.866 6.896C104.759 6.78933 104.706 6.656 104.706 6.496C104.706 6.34133 104.759 6.21333 104.866 6.112C104.973 6.00533 105.101 5.952 105.25 5.952C105.399 5.952 105.525 6.00267 105.626 6.104C105.727 6.20533 105.778 6.336 105.778 6.496C105.778 6.656 105.725 6.78933 105.618 6.896C105.517 6.99733 105.394 7.048 105.25 7.048Z" fill="#2DA9A1"/>
<defs>
<filter id="filter0_d_1028_1281" x="0" y="12" width="173.843" height="105.485" filterUnits="userSpaceOnUse" color-interpolation-filters="sRGB">
<feFlood flood-opacity="0" result="BackgroundImageFix"/>
<feColorMatrix in="SourceAlpha" type="matrix" values="0 0 0 0 0 0 0 0 0 0 0 0 0 0 0 0 0 0 127 0" result="hardAlpha"/>
<feOffset dx="3" dy="4"/>
<feGaussianBlur stdDeviation="2"/>
<feComposite in2="hardAlpha" operator="out"/>
<feColorMatrix type="matrix" values="0 0 0 0 0 0 0 0 0 0 0 0 0 0 0 0 0 0 0.25 0"/>
<feBlend mode="normal" in2="BackgroundImageFix" result="effect1_dropShadow_1028_1281"/>
<feBlend mode="normal" in="SourceGraphic" in2="effect1_dropShadow_1028_1281" result="shape"/>
</filter>
</defs>
</svg>
