<svg width="175" height="116" viewBox="0 0 175 116" fill="none" xmlns="http://www.w3.org/2000/svg">
<g filter="url(#filter0_d_1028_1157)">
<rect x="1.16876" y="10" width="165.843" height="97.4853" fill="white"/>
<rect x="1.41876" y="10.25" width="165.343" height="96.9853" stroke="#D4D4D4" stroke-width="0.5"/>
</g>
<rect x="71.914" y="91.7662" width="22.4093" height="12.1691" stroke="#D4D4D4" stroke-width="0.3"/>
<path d="M81.7355 97.4162C82.3222 97.4482 82.7675 97.6082 83.0715 97.8962C83.3808 98.1789 83.5355 98.5495 83.5355 99.0082C83.5355 99.3282 83.4582 99.6135 83.3035 99.8642C83.1488 100.11 82.9195 100.304 82.6155 100.448C82.3115 100.592 81.9408 100.664 81.5035 100.664C81.0982 100.664 80.7142 100.6 80.3515 100.472C79.9942 100.339 79.7062 100.163 79.4875 99.9442L79.7675 99.4882C79.9542 99.6802 80.2022 99.8375 80.5115 99.9602C80.8208 100.078 81.1515 100.136 81.5035 100.136C81.9622 100.136 82.3168 100.038 82.5675 99.8402C82.8182 99.6375 82.9435 99.3602 82.9435 99.0082C82.9435 98.6615 82.8182 98.3895 82.5675 98.1922C82.3168 97.9949 81.9382 97.8962 81.4315 97.8962H81.0315V97.4722L82.5835 95.5282H79.7195V95.0162H83.3195V95.4242L81.7355 97.4162ZM85.8991 95.0162V100.616H85.3231V95.5282H84.0031V95.0162H85.8991Z" fill="black"/>
<rect x="49.7769" y="91.7662" width="22.4093" height="12.1691" stroke="#D4D4D4" stroke-width="0.3"/>
<path d="M58.3953 97.4162C58.982 97.4482 59.4273 97.6082 59.7313 97.8962C60.0406 98.1789 60.1953 98.5495 60.1953 99.0082C60.1953 99.3282 60.118 99.6135 59.9633 99.8642C59.8086 100.11 59.5793 100.304 59.2753 100.448C58.9713 100.592 58.6006 100.664 58.1633 100.664C57.758 100.664 57.374 100.6 57.0113 100.472C56.654 100.339 56.366 100.163 56.1473 99.9442L56.4273 99.4882C56.614 99.6802 56.862 99.8375 57.1713 99.9602C57.4806 100.078 57.8113 100.136 58.1633 100.136C58.622 100.136 58.9766 100.038 59.2273 99.8402C59.478 99.6375 59.6033 99.3602 59.6033 99.0082C59.6033 98.6615 59.478 98.3895 59.2273 98.1922C58.9766 97.9949 58.598 97.8962 58.0913 97.8962H57.6913V97.4722L59.2433 95.5282H56.3793V95.0162H59.9793V95.4242L58.3953 97.4162ZM63.2389 100.664C62.8069 100.664 62.4202 100.55 62.0789 100.32C61.7429 100.091 61.4789 99.7629 61.2869 99.3362C61.1002 98.9042 61.0069 98.3975 61.0069 97.8162C61.0069 97.2349 61.1002 96.7309 61.2869 96.3042C61.4789 95.8722 61.7429 95.5415 62.0789 95.3122C62.4202 95.0829 62.8069 94.9682 63.2389 94.9682C63.6709 94.9682 64.0549 95.0829 64.3909 95.3122C64.7322 95.5415 64.9989 95.8722 65.1909 96.3042C65.3829 96.7309 65.4789 97.2349 65.4789 97.8162C65.4789 98.3975 65.3829 98.9042 65.1909 99.3362C64.9989 99.7629 64.7322 100.091 64.3909 100.32C64.0549 100.55 63.6709 100.664 63.2389 100.664ZM63.2389 100.136C63.5642 100.136 63.8496 100.046 64.0949 99.8642C64.3456 99.6829 64.5402 99.4189 64.6789 99.0722C64.8176 98.7255 64.8869 98.3069 64.8869 97.8162C64.8869 97.3255 64.8176 96.9069 64.6789 96.5602C64.5402 96.2135 64.3456 95.9495 64.0949 95.7682C63.8496 95.5869 63.5642 95.4962 63.2389 95.4962C62.9136 95.4962 62.6256 95.5869 62.3749 95.7682C62.1296 95.9495 61.9376 96.2135 61.7989 96.5602C61.6602 96.9069 61.5909 97.3255 61.5909 97.8162C61.5909 98.3069 61.6602 98.7255 61.7989 99.0722C61.9376 99.4189 62.1296 99.6829 62.3749 99.8642C62.6256 100.046 62.9136 100.136 63.2389 100.136Z" fill="black"/>
<rect x="27.2287" y="91.7662" width="22.4093" height="12.1691" stroke="#D4D4D4" stroke-width="0.3"/>
<path d="M37.9624 100.104V100.616H34.0344V100.208L36.3624 97.9282C36.6557 97.6402 36.8531 97.3922 36.9544 97.1842C37.0611 96.9709 37.1144 96.7575 37.1144 96.5442C37.1144 96.2135 36.9997 95.9575 36.7704 95.7762C36.5464 95.5895 36.2237 95.4962 35.8024 95.4962C35.1464 95.4962 34.6371 95.7042 34.2744 96.1202L33.8664 95.7682C34.0851 95.5122 34.3624 95.3149 34.6984 95.1762C35.0397 95.0375 35.4237 94.9682 35.8504 94.9682C36.4211 94.9682 36.8717 95.1042 37.2024 95.3762C37.5384 95.6429 37.7064 96.0109 37.7064 96.4802C37.7064 96.7682 37.6424 97.0455 37.5144 97.3122C37.3864 97.5789 37.1437 97.8855 36.7864 98.2322L34.8824 100.104H37.9624ZM40.4293 94.9682C41.1706 94.9682 41.7386 95.2135 42.1333 95.7042C42.5279 96.1895 42.7253 96.8775 42.7253 97.7682C42.7253 98.3922 42.6186 98.9202 42.4053 99.3522C42.1919 99.7842 41.8933 100.112 41.5093 100.336C41.1253 100.555 40.6773 100.664 40.1653 100.664C39.6106 100.664 39.1679 100.563 38.8373 100.36L39.0693 99.8962C39.3359 100.072 39.6986 100.16 40.1573 100.16C40.7759 100.16 41.2613 99.9655 41.6133 99.5762C41.9653 99.1815 42.1413 98.6109 42.1413 97.8642C42.1413 97.7255 42.1333 97.5735 42.1173 97.4082C41.9786 97.7122 41.7573 97.9495 41.4533 98.1202C41.1493 98.2855 40.7999 98.3682 40.4053 98.3682C40.0373 98.3682 39.7093 98.2989 39.4213 98.1602C39.1386 98.0215 38.9173 97.8269 38.7573 97.5762C38.5973 97.3202 38.5173 97.0242 38.5173 96.6882C38.5173 96.3469 38.5999 96.0455 38.7653 95.7842C38.9306 95.5229 39.1573 95.3229 39.4453 95.1842C39.7386 95.0402 40.0666 94.9682 40.4293 94.9682ZM40.4933 97.8802C40.7759 97.8802 41.0239 97.8269 41.2373 97.7202C41.4559 97.6135 41.6266 97.4669 41.7493 97.2802C41.8719 97.0935 41.9333 96.8855 41.9333 96.6562C41.9333 96.4429 41.8746 96.2455 41.7573 96.0642C41.6453 95.8829 41.4773 95.7362 41.2533 95.6242C41.0293 95.5122 40.7626 95.4562 40.4533 95.4562C40.0479 95.4562 39.7173 95.5682 39.4613 95.7922C39.2106 96.0109 39.0853 96.3042 39.0853 96.6722C39.0853 97.0402 39.2106 97.3335 39.4613 97.5522C39.7173 97.7709 40.0613 97.8802 40.4933 97.8802Z" fill="black"/>
<rect x="4.68046" y="91.7662" width="22.4093" height="12.1691" stroke="#D4D4D4" stroke-width="0.3"/>
<path d="M15.438 100.104V100.616H11.51V100.208L13.838 97.9282C14.1313 97.6402 14.3286 97.3922 14.43 97.1842C14.5366 96.9709 14.59 96.7575 14.59 96.5442C14.59 96.2135 14.4753 95.9575 14.246 95.7762C14.022 95.5895 13.6993 95.4962 13.278 95.4962C12.622 95.4962 12.1126 95.7042 11.75 96.1202L11.342 95.7682C11.5606 95.5122 11.838 95.3149 12.174 95.1762C12.5153 95.0375 12.8993 94.9682 13.326 94.9682C13.8966 94.9682 14.3473 95.1042 14.678 95.3762C15.014 95.6429 15.182 96.0109 15.182 96.4802C15.182 96.7682 15.118 97.0455 14.99 97.3122C14.862 97.5789 14.6193 97.8855 14.262 98.2322L12.358 100.104H15.438ZM19.3688 97.6802C19.7208 97.7975 19.9902 97.9735 20.1768 98.2082C20.3688 98.4429 20.4648 98.7255 20.4648 99.0562C20.4648 99.3815 20.3768 99.6669 20.2008 99.9122C20.0248 100.152 19.7715 100.339 19.4408 100.472C19.1155 100.6 18.7315 100.664 18.2888 100.664C17.6168 100.664 17.0888 100.52 16.7048 100.232C16.3208 99.9442 16.1288 99.5522 16.1288 99.0562C16.1288 98.7202 16.2195 98.4375 16.4008 98.2082C16.5875 97.9735 16.8568 97.7975 17.2088 97.6802C16.9208 97.5682 16.7022 97.4082 16.5528 97.2002C16.4035 96.9869 16.3288 96.7362 16.3288 96.4482C16.3288 95.9949 16.5048 95.6349 16.8568 95.3682C17.2142 95.1015 17.6915 94.9682 18.2888 94.9682C18.6835 94.9682 19.0275 95.0295 19.3208 95.1522C19.6195 95.2695 19.8515 95.4402 20.0168 95.6642C20.1822 95.8882 20.2648 96.1495 20.2648 96.4482C20.2648 96.7362 20.1875 96.9869 20.0328 97.2002C19.8782 97.4082 19.6568 97.5682 19.3688 97.6802ZM16.9048 96.4642C16.9048 96.7735 17.0275 97.0189 17.2728 97.2002C17.5182 97.3815 17.8568 97.4722 18.2888 97.4722C18.7208 97.4722 19.0595 97.3815 19.3048 97.2002C19.5555 97.0189 19.6808 96.7762 19.6808 96.4722C19.6808 96.1575 19.5528 95.9095 19.2968 95.7282C19.0462 95.5469 18.7102 95.4562 18.2888 95.4562C17.8622 95.4562 17.5235 95.5469 17.2728 95.7282C17.0275 95.9095 16.9048 96.1549 16.9048 96.4642ZM18.2888 100.176C18.7848 100.176 19.1715 100.075 19.4488 99.8722C19.7315 99.6695 19.8728 99.3949 19.8728 99.0482C19.8728 98.7015 19.7315 98.4295 19.4488 98.2322C19.1715 98.0295 18.7848 97.9282 18.2888 97.9282C17.7982 97.9282 17.4115 98.0295 17.1288 98.2322C16.8515 98.4295 16.7128 98.7015 16.7128 99.0482C16.7128 99.4002 16.8515 99.6775 17.1288 99.8802C17.4062 100.078 17.7928 100.176 18.2888 100.176Z" fill="black"/>
<rect x="139.97" y="79.2965" width="22.4093" height="12.1691" fill="#2DA9A1" stroke="#D4D4D4" stroke-width="0.3"/>
<path d="M150.801 87.6345V88.1465H146.873V87.7385L149.201 85.4585C149.495 85.1705 149.692 84.9225 149.793 84.7145C149.9 84.5012 149.953 84.2878 149.953 84.0745C149.953 83.7438 149.839 83.4878 149.609 83.3065C149.385 83.1198 149.063 83.0265 148.641 83.0265C147.985 83.0265 147.476 83.2345 147.113 83.6505L146.705 83.2985C146.924 83.0425 147.201 82.8452 147.537 82.7065C147.879 82.5678 148.263 82.4985 148.689 82.4985C149.26 82.4985 149.711 82.6345 150.041 82.9065C150.377 83.1732 150.545 83.5412 150.545 84.0105C150.545 84.2985 150.481 84.5758 150.353 84.8425C150.225 85.1092 149.983 85.4158 149.625 85.7625L147.721 87.6345H150.801ZM155.445 82.5465V82.9545L153.101 88.1465H152.477L154.781 83.0585H151.901V84.1065H151.333V82.5465H155.445Z" fill="white"/>
<rect x="117.422" y="79.2965" width="22.4093" height="12.1691" stroke="#D4D4D4" stroke-width="0.3"/>
<path d="M128.171 87.6345V88.1465H124.243V87.7385L126.571 85.4585C126.864 85.1705 127.062 84.9225 127.163 84.7145C127.27 84.5012 127.323 84.2878 127.323 84.0745C127.323 83.7438 127.208 83.4878 126.979 83.3065C126.755 83.1198 126.432 83.0265 126.011 83.0265C125.355 83.0265 124.846 83.2345 124.483 83.6505L124.075 83.2985C124.294 83.0425 124.571 82.8452 124.907 82.7065C125.248 82.5678 125.632 82.4985 126.059 82.4985C126.63 82.4985 127.08 82.6345 127.411 82.9065C127.747 83.1732 127.915 83.5412 127.915 84.0105C127.915 84.2985 127.851 84.5758 127.723 84.8425C127.595 85.1092 127.352 85.4158 126.995 85.7625L125.091 87.6345H128.171ZM131.183 84.7945C131.551 84.7945 131.876 84.8638 132.159 85.0025C132.447 85.1412 132.671 85.3385 132.831 85.5945C132.991 85.8452 133.071 86.1385 133.071 86.4745C133.071 86.8158 132.988 87.1172 132.823 87.3785C132.657 87.6398 132.428 87.8425 132.135 87.9865C131.847 88.1252 131.521 88.1945 131.159 88.1945C130.417 88.1945 129.849 87.9518 129.455 87.4665C129.06 86.9758 128.863 86.2852 128.863 85.3945C128.863 84.7705 128.969 84.2425 129.183 83.8105C129.396 83.3785 129.695 83.0532 130.079 82.8345C130.463 82.6105 130.911 82.4985 131.423 82.4985C131.977 82.4985 132.42 82.5998 132.751 82.8025L132.519 83.2665C132.252 83.0905 131.889 83.0025 131.431 83.0025C130.812 83.0025 130.327 83.1998 129.975 83.5945C129.623 83.9838 129.447 84.5518 129.447 85.2985C129.447 85.4318 129.455 85.5838 129.471 85.7545C129.609 85.4505 129.831 85.2158 130.135 85.0505C130.439 84.8798 130.788 84.7945 131.183 84.7945ZM131.135 87.7065C131.54 87.7065 131.868 87.5972 132.119 87.3785C132.375 87.1545 132.503 86.8585 132.503 86.4905C132.503 86.1225 132.375 85.8292 132.119 85.6105C131.868 85.3918 131.527 85.2825 131.095 85.2825C130.812 85.2825 130.561 85.3358 130.343 85.4425C130.129 85.5492 129.961 85.6958 129.839 85.8825C129.716 86.0692 129.655 86.2772 129.655 86.5065C129.655 86.7198 129.711 86.9172 129.823 87.0985C129.94 87.2798 130.111 87.4265 130.335 87.5385C130.559 87.6505 130.825 87.7065 131.135 87.7065Z" fill="black"/>
<rect x="94.8734" y="79.2965" width="22.4093" height="12.1691" stroke="#D4D4D4" stroke-width="0.3"/>
<path d="M105.779 87.6345V88.1465H101.851V87.7385L104.179 85.4585C104.472 85.1705 104.67 84.9225 104.771 84.7145C104.878 84.5012 104.931 84.2878 104.931 84.0745C104.931 83.7438 104.816 83.4878 104.587 83.3065C104.363 83.1198 104.04 83.0265 103.619 83.0265C102.963 83.0265 102.454 83.2345 102.091 83.6505L101.683 83.2985C101.902 83.0425 102.179 82.8452 102.515 82.7065C102.856 82.5678 103.24 82.4985 103.667 82.4985C104.238 82.4985 104.688 82.6345 105.019 82.9065C105.355 83.1732 105.523 83.5412 105.523 84.0105C105.523 84.2985 105.459 84.5758 105.331 84.8425C105.203 85.1092 104.96 85.4158 104.603 85.7625L102.699 87.6345H105.779ZM107.974 84.8425C108.785 84.8425 109.374 84.9892 109.742 85.2825C110.115 85.5705 110.302 85.9758 110.302 86.4985C110.302 86.8238 110.225 87.1145 110.07 87.3705C109.921 87.6265 109.694 87.8292 109.39 87.9785C109.086 88.1225 108.713 88.1945 108.27 88.1945C107.87 88.1945 107.489 88.1305 107.126 88.0025C106.769 87.8692 106.481 87.6932 106.262 87.4745L106.542 87.0185C106.729 87.2105 106.974 87.3678 107.278 87.4905C107.582 87.6078 107.91 87.6665 108.262 87.6665C108.726 87.6665 109.083 87.5625 109.334 87.3545C109.59 87.1465 109.718 86.8692 109.718 86.5225C109.718 86.1385 109.574 85.8478 109.286 85.6505C109.003 85.4532 108.523 85.3545 107.846 85.3545H106.654L106.942 82.5465H110.006V83.0585H107.446L107.254 84.8425H107.974Z" fill="black"/>
<rect x="72.3251" y="79.2965" width="22.4093" height="12.1691" stroke="#D4D4D4" stroke-width="0.3"/>
<path d="M82.9455 87.6345V88.1465H79.0175V87.7385L81.3455 85.4585C81.6389 85.1705 81.8362 84.9225 81.9375 84.7145C82.0442 84.5012 82.0975 84.2878 82.0975 84.0745C82.0975 83.7438 81.9829 83.4878 81.7535 83.3065C81.5295 83.1198 81.2069 83.0265 80.7855 83.0265C80.1295 83.0265 79.6202 83.2345 79.2575 83.6505L78.8495 83.2985C79.0682 83.0425 79.3455 82.8452 79.6815 82.7065C80.0229 82.5678 80.4069 82.4985 80.8335 82.4985C81.4042 82.4985 81.8549 82.6345 82.1855 82.9065C82.5215 83.1732 82.6895 83.5412 82.6895 84.0105C82.6895 84.2985 82.6255 84.5758 82.4975 84.8425C82.3695 85.1092 82.1269 85.4158 81.7695 85.7625L79.8655 87.6345H82.9455ZM88.2409 86.6745H87.1209V88.1465H86.5449V86.6745H83.3849V86.2585L86.3529 82.5465H86.9929L84.1289 86.1625H86.5609V84.8665H87.1209V86.1625H88.2409V86.6745Z" fill="black"/>
<rect x="49.7769" y="79.2965" width="22.4093" height="12.1691" stroke="#D4D4D4" stroke-width="0.3"/>
<path d="M60.6903 87.6345V88.1465H56.7623V87.7385L59.0903 85.4585C59.3836 85.1705 59.581 84.9225 59.6823 84.7145C59.789 84.5012 59.8423 84.2878 59.8423 84.0745C59.8423 83.7438 59.7276 83.4878 59.4983 83.3065C59.2743 83.1198 58.9516 83.0265 58.5303 83.0265C57.8743 83.0265 57.365 83.2345 57.0023 83.6505L56.5943 83.2985C56.813 83.0425 57.0903 82.8452 57.4263 82.7065C57.7676 82.5678 58.1516 82.4985 58.5783 82.4985C59.149 82.4985 59.5996 82.6345 59.9303 82.9065C60.2663 83.1732 60.4343 83.5412 60.4343 84.0105C60.4343 84.2985 60.3703 84.5758 60.2423 84.8425C60.1143 85.1092 59.8716 85.4158 59.5143 85.7625L57.6103 87.6345H60.6903ZM63.3172 84.9465C63.9038 84.9785 64.3492 85.1385 64.6532 85.4265C64.9625 85.7092 65.1172 86.0798 65.1172 86.5385C65.1172 86.8585 65.0398 87.1438 64.8852 87.3945C64.7305 87.6398 64.5012 87.8345 64.1972 87.9785C63.8932 88.1225 63.5225 88.1945 63.0852 88.1945C62.6798 88.1945 62.2958 88.1305 61.9332 88.0025C61.5758 87.8692 61.2878 87.6932 61.0692 87.4745L61.3492 87.0185C61.5358 87.2105 61.7838 87.3678 62.0932 87.4905C62.4025 87.6078 62.7332 87.6665 63.0852 87.6665C63.5438 87.6665 63.8985 87.5678 64.1492 87.3705C64.3998 87.1678 64.5252 86.8905 64.5252 86.5385C64.5252 86.1918 64.3998 85.9198 64.1492 85.7225C63.8985 85.5252 63.5198 85.4265 63.0132 85.4265H62.6132V85.0025L64.1652 83.0585H61.3012V82.5465H64.9012V82.9545L63.3172 84.9465Z" fill="black"/>
<rect x="27.2287" y="79.2965" width="22.4093" height="12.1691" stroke="#D4D4D4" stroke-width="0.3"/>
<path d="M38.1264 87.6345V88.1465H34.1984V87.7385L36.5264 85.4585C36.8198 85.1705 37.0171 84.9225 37.1184 84.7145C37.2251 84.5012 37.2784 84.2878 37.2784 84.0745C37.2784 83.7438 37.1638 83.4878 36.9344 83.3065C36.7104 83.1198 36.3878 83.0265 35.9664 83.0265C35.3104 83.0265 34.8011 83.2345 34.4384 83.6505L34.0304 83.2985C34.2491 83.0425 34.5264 82.8452 34.8624 82.7065C35.2038 82.5678 35.5878 82.4985 36.0144 82.4985C36.5851 82.4985 37.0358 82.6345 37.3664 82.9065C37.7024 83.1732 37.8704 83.5412 37.8704 84.0105C37.8704 84.2985 37.8064 84.5758 37.6784 84.8425C37.5504 85.1092 37.3078 85.4158 36.9504 85.7625L35.0464 87.6345H38.1264ZM42.6733 87.6345V88.1465H38.7453V87.7385L41.0733 85.4585C41.3667 85.1705 41.564 84.9225 41.6653 84.7145C41.772 84.5012 41.8253 84.2878 41.8253 84.0745C41.8253 83.7438 41.7107 83.4878 41.4813 83.3065C41.2573 83.1198 40.9347 83.0265 40.5133 83.0265C39.8573 83.0265 39.348 83.2345 38.9853 83.6505L38.5773 83.2985C38.796 83.0425 39.0733 82.8452 39.4093 82.7065C39.7507 82.5678 40.1347 82.4985 40.5613 82.4985C41.132 82.4985 41.5827 82.6345 41.9133 82.9065C42.2493 83.1732 42.4173 83.5412 42.4173 84.0105C42.4173 84.2985 42.3533 84.5758 42.2253 84.8425C42.0973 85.1092 41.8547 85.4158 41.4973 85.7625L39.5933 87.6345H42.6733Z" fill="black"/>
<rect x="4.68046" y="79.2965" width="22.4093" height="12.1691" stroke="#D4D4D4" stroke-width="0.3"/>
<path d="M16.5434 87.6345V88.1465H12.6154V87.7385L14.9434 85.4585C15.2368 85.1705 15.4341 84.9225 15.5354 84.7145C15.6421 84.5012 15.6954 84.2878 15.6954 84.0745C15.6954 83.7438 15.5808 83.4878 15.3514 83.3065C15.1274 83.1198 14.8048 83.0265 14.3834 83.0265C13.7274 83.0265 13.2181 83.2345 12.8554 83.6505L12.4474 83.2985C12.6661 83.0425 12.9434 82.8452 13.2794 82.7065C13.6208 82.5678 14.0048 82.4985 14.4314 82.4985C15.0021 82.4985 15.4528 82.6345 15.7834 82.9065C16.1194 83.1732 16.2874 83.5412 16.2874 84.0105C16.2874 84.2985 16.2234 84.5758 16.0954 84.8425C15.9674 85.1092 15.7248 85.4158 15.3674 85.7625L13.4634 87.6345H16.5434ZM18.8183 82.5465V88.1465H18.2423V83.0585H16.9223V82.5465H18.8183Z" fill="black"/>
<rect x="139.97" y="66.8277" width="22.4093" height="12.1691" stroke="#D4D4D4" stroke-width="0.3"/>
<path d="M150.508 75.1657V75.6777H146.58V75.2697L148.908 72.9897C149.202 72.7017 149.399 72.4537 149.5 72.2457C149.607 72.0324 149.66 71.8191 149.66 71.6057C149.66 71.2751 149.546 71.0191 149.316 70.8377C149.092 70.6511 148.77 70.5577 148.348 70.5577C147.692 70.5577 147.183 70.7657 146.82 71.1817L146.412 70.8297C146.631 70.5737 146.908 70.3764 147.244 70.2377C147.586 70.0991 147.97 70.0297 148.396 70.0297C148.967 70.0297 149.418 70.1657 149.748 70.4377C150.084 70.7044 150.252 71.0724 150.252 71.5417C150.252 71.8297 150.188 72.1071 150.06 72.3737C149.932 72.6404 149.69 72.9471 149.332 73.2937L147.428 75.1657H150.508ZM153.432 75.7257C153 75.7257 152.613 75.6111 152.272 75.3817C151.936 75.1524 151.672 74.8244 151.48 74.3977C151.293 73.9657 151.2 73.4591 151.2 72.8777C151.2 72.2964 151.293 71.7924 151.48 71.3657C151.672 70.9337 151.936 70.6031 152.272 70.3737C152.613 70.1444 153 70.0297 153.432 70.0297C153.864 70.0297 154.248 70.1444 154.584 70.3737C154.925 70.6031 155.192 70.9337 155.384 71.3657C155.576 71.7924 155.672 72.2964 155.672 72.8777C155.672 73.4591 155.576 73.9657 155.384 74.3977C155.192 74.8244 154.925 75.1524 154.584 75.3817C154.248 75.6111 153.864 75.7257 153.432 75.7257ZM153.432 75.1977C153.757 75.1977 154.043 75.1071 154.288 74.9257C154.539 74.7444 154.733 74.4804 154.872 74.1337C155.011 73.7871 155.08 73.3684 155.08 72.8777C155.08 72.3871 155.011 71.9684 154.872 71.6217C154.733 71.2751 154.539 71.0111 154.288 70.8297C154.043 70.6484 153.757 70.5577 153.432 70.5577C153.107 70.5577 152.819 70.6484 152.568 70.8297C152.323 71.0111 152.131 71.2751 151.992 71.6217C151.853 71.9684 151.784 72.3871 151.784 72.8777C151.784 73.3684 151.853 73.7871 151.992 74.1337C152.131 74.4804 152.323 74.7444 152.568 74.9257C152.819 75.1071 153.107 75.1977 153.432 75.1977Z" fill="black"/>
<rect x="117.422" y="66.8277" width="22.4093" height="12.1691" stroke="#D4D4D4" stroke-width="0.3"/>
<path d="M126.712 70.0777V75.6777H126.136V70.5897H124.816V70.0777H126.712ZM129.794 70.0297C130.535 70.0297 131.103 70.2751 131.498 70.7657C131.893 71.2511 132.09 71.9391 132.09 72.8297C132.09 73.4537 131.983 73.9817 131.77 74.4137C131.557 74.8457 131.258 75.1737 130.874 75.3977C130.49 75.6164 130.042 75.7257 129.53 75.7257C128.975 75.7257 128.533 75.6244 128.202 75.4217L128.434 74.9577C128.701 75.1337 129.063 75.2217 129.522 75.2217C130.141 75.2217 130.626 75.0271 130.978 74.6377C131.33 74.2431 131.506 73.6724 131.506 72.9257C131.506 72.7871 131.498 72.6351 131.482 72.4697C131.343 72.7737 131.122 73.0111 130.818 73.1817C130.514 73.3471 130.165 73.4297 129.77 73.4297C129.402 73.4297 129.074 73.3604 128.786 73.2217C128.503 73.0831 128.282 72.8884 128.122 72.6377C127.962 72.3817 127.882 72.0857 127.882 71.7497C127.882 71.4084 127.965 71.1071 128.13 70.8457C128.295 70.5844 128.522 70.3844 128.81 70.2457C129.103 70.1017 129.431 70.0297 129.794 70.0297ZM129.858 72.9417C130.141 72.9417 130.389 72.8884 130.602 72.7817C130.821 72.6751 130.991 72.5284 131.114 72.3417C131.237 72.1551 131.298 71.9471 131.298 71.7177C131.298 71.5044 131.239 71.3071 131.122 71.1257C131.01 70.9444 130.842 70.7977 130.618 70.6857C130.394 70.5737 130.127 70.5177 129.818 70.5177C129.413 70.5177 129.082 70.6297 128.826 70.8537C128.575 71.0724 128.45 71.3657 128.45 71.7337C128.45 72.1017 128.575 72.3951 128.826 72.6137C129.082 72.8324 129.426 72.9417 129.858 72.9417Z" fill="black"/>
<rect x="94.8734" y="66.8277" width="22.4093" height="12.1691" stroke="#D4D4D4" stroke-width="0.3"/>
<path d="M104.05 70.0777V75.6777H103.474V70.5897H102.154V70.0777H104.05ZM108.597 72.7417C108.949 72.8591 109.218 73.0351 109.405 73.2697C109.597 73.5044 109.693 73.7871 109.693 74.1177C109.693 74.4431 109.605 74.7284 109.429 74.9737C109.253 75.2137 108.999 75.4004 108.669 75.5337C108.343 75.6617 107.959 75.7257 107.517 75.7257C106.845 75.7257 106.317 75.5817 105.933 75.2937C105.549 75.0057 105.357 74.6137 105.357 74.1177C105.357 73.7817 105.447 73.4991 105.629 73.2697C105.815 73.0351 106.085 72.8591 106.437 72.7417C106.149 72.6297 105.93 72.4697 105.781 72.2617C105.631 72.0484 105.557 71.7977 105.557 71.5097C105.557 71.0564 105.733 70.6964 106.085 70.4297C106.442 70.1631 106.919 70.0297 107.517 70.0297C107.911 70.0297 108.255 70.0911 108.549 70.2137C108.847 70.3311 109.079 70.5017 109.245 70.7257C109.41 70.9497 109.493 71.2111 109.493 71.5097C109.493 71.7977 109.415 72.0484 109.261 72.2617C109.106 72.4697 108.885 72.6297 108.597 72.7417ZM106.133 71.5257C106.133 71.8351 106.255 72.0804 106.501 72.2617C106.746 72.4431 107.085 72.5337 107.517 72.5337C107.949 72.5337 108.287 72.4431 108.533 72.2617C108.783 72.0804 108.909 71.8377 108.909 71.5337C108.909 71.2191 108.781 70.9711 108.525 70.7897C108.274 70.6084 107.938 70.5177 107.517 70.5177C107.09 70.5177 106.751 70.6084 106.501 70.7897C106.255 70.9711 106.133 71.2164 106.133 71.5257ZM107.517 75.2377C108.013 75.2377 108.399 75.1364 108.677 74.9337C108.959 74.7311 109.101 74.4564 109.101 74.1097C109.101 73.7631 108.959 73.4911 108.677 73.2937C108.399 73.0911 108.013 72.9897 107.517 72.9897C107.026 72.9897 106.639 73.0911 106.357 73.2937C106.079 73.4911 105.941 73.7631 105.941 74.1097C105.941 74.4617 106.079 74.7391 106.357 74.9417C106.634 75.1391 107.021 75.2377 107.517 75.2377Z" fill="black"/>
<rect x="72.3252" y="66.8277" width="22.4093" height="12.1691" stroke="#D4D4D4" stroke-width="0.3"/>
<path d="M81.697 70.0777V75.6777H81.121V70.5897H79.801V70.0777H81.697ZM86.9877 70.0777V70.4857L84.6437 75.6777H84.0197L86.3237 70.5897H83.4437V71.6377H82.8757V70.0777H86.9877Z" fill="black"/>
<rect x="49.7769" y="66.8277" width="22.4093" height="12.1691" stroke="#D4D4D4" stroke-width="0.3"/>
<path d="M59.0667 70.0777V75.6777H58.4907V70.5897H57.1707V70.0777H59.0667ZM62.7254 72.3257C63.0934 72.3257 63.4187 72.3951 63.7014 72.5337C63.9894 72.6724 64.2134 72.8697 64.3734 73.1257C64.5334 73.3764 64.6134 73.6697 64.6134 74.0057C64.6134 74.3471 64.5307 74.6484 64.3654 74.9097C64.2 75.1711 63.9707 75.3737 63.6774 75.5177C63.3894 75.6564 63.064 75.7257 62.7014 75.7257C61.96 75.7257 61.392 75.4831 60.9974 74.9977C60.6027 74.5071 60.4054 73.8164 60.4054 72.9257C60.4054 72.3017 60.512 71.7737 60.7254 71.3417C60.9387 70.9097 61.2374 70.5844 61.6214 70.3657C62.0054 70.1417 62.4534 70.0297 62.9654 70.0297C63.52 70.0297 63.9627 70.1311 64.2934 70.3337L64.0614 70.7977C63.7947 70.6217 63.432 70.5337 62.9734 70.5337C62.3547 70.5337 61.8694 70.7311 61.5174 71.1257C61.1654 71.5151 60.9894 72.0831 60.9894 72.8297C60.9894 72.9631 60.9974 73.1151 61.0134 73.2857C61.152 72.9817 61.3734 72.7471 61.6774 72.5817C61.9814 72.4111 62.3307 72.3257 62.7254 72.3257ZM62.6774 75.2377C63.0827 75.2377 63.4107 75.1284 63.6614 74.9097C63.9174 74.6857 64.0454 74.3897 64.0454 74.0217C64.0454 73.6537 63.9174 73.3604 63.6614 73.1417C63.4107 72.9231 63.0694 72.8137 62.6374 72.8137C62.3547 72.8137 62.104 72.8671 61.8854 72.9737C61.672 73.0804 61.504 73.2271 61.3814 73.4137C61.2587 73.6004 61.1974 73.8084 61.1974 74.0377C61.1974 74.2511 61.2534 74.4484 61.3654 74.6297C61.4827 74.8111 61.6534 74.9577 61.8774 75.0697C62.1014 75.1817 62.368 75.2377 62.6774 75.2377Z" fill="black"/>
<rect x="27.2287" y="66.8277" width="22.4093" height="12.1691" stroke="#D4D4D4" stroke-width="0.3"/>
<path d="M36.6904 70.0777V75.6777H36.1144V70.5897H34.7944V70.0777H36.6904ZM39.501 72.3737C40.3117 72.3737 40.901 72.5204 41.269 72.8137C41.6423 73.1017 41.829 73.5071 41.829 74.0297C41.829 74.3551 41.7517 74.6457 41.597 74.9017C41.4477 75.1577 41.221 75.3604 40.917 75.5097C40.613 75.6537 40.2397 75.7257 39.797 75.7257C39.397 75.7257 39.0157 75.6617 38.653 75.5337C38.2957 75.4004 38.0077 75.2244 37.789 75.0057L38.069 74.5497C38.2557 74.7417 38.501 74.8991 38.805 75.0217C39.109 75.1391 39.437 75.1977 39.789 75.1977C40.253 75.1977 40.6103 75.0937 40.861 74.8857C41.117 74.6777 41.245 74.4004 41.245 74.0537C41.245 73.6697 41.101 73.3791 40.813 73.1817C40.5303 72.9844 40.0503 72.8857 39.373 72.8857H38.181L38.469 70.0777H41.533V70.5897H38.973L38.781 72.3737H39.501Z" fill="black"/>
<rect x="4.68046" y="66.8277" width="22.4093" height="12.1691" stroke="#D4D4D4" stroke-width="0.3"/>
<path d="M13.9003 70.0777V75.6777H13.3243V70.5897H12.0043V70.0777H13.9003ZM19.999 74.2057H18.879V75.6777H18.303V74.2057H15.143V73.7897L18.111 70.0777H18.751L15.887 73.6937H18.319V72.3977H18.879V73.6937H19.999V74.2057Z" fill="black"/>
<rect x="139.97" y="54.359" width="22.4093" height="12.1691" stroke="#D4D4D4" stroke-width="0.3"/>
<path d="M149.439 57.609V63.209H148.863V58.121H147.543V57.609H149.439ZM152.682 60.009C153.269 60.041 153.714 60.201 154.018 60.489C154.327 60.7717 154.482 61.1423 154.482 61.601C154.482 61.921 154.405 62.2063 154.25 62.457C154.095 62.7023 153.866 62.897 153.562 63.041C153.258 63.185 152.887 63.257 152.45 63.257C152.045 63.257 151.661 63.193 151.298 63.065C150.941 62.9317 150.653 62.7557 150.434 62.537L150.714 62.081C150.901 62.273 151.149 62.4303 151.458 62.553C151.767 62.6703 152.098 62.729 152.45 62.729C152.909 62.729 153.263 62.6303 153.514 62.433C153.765 62.2303 153.89 61.953 153.89 61.601C153.89 61.2543 153.765 60.9823 153.514 60.785C153.263 60.5877 152.885 60.489 152.378 60.489H151.978V60.065L153.53 58.121H150.666V57.609H154.266V58.017L152.682 60.009Z" fill="black"/>
<rect x="117.422" y="54.359" width="22.4093" height="12.1691" stroke="#D4D4D4" stroke-width="0.3"/>
<path d="M126.876 57.609V63.209H126.3V58.121H124.98V57.609H126.876ZM132.038 62.697V63.209H128.11V62.801L130.438 60.521C130.732 60.233 130.929 59.985 131.03 59.777C131.137 59.5637 131.19 59.3503 131.19 59.137C131.19 58.8063 131.076 58.5503 130.846 58.369C130.622 58.1823 130.3 58.089 129.878 58.089C129.222 58.089 128.713 58.297 128.35 58.713L127.942 58.361C128.161 58.105 128.438 57.9077 128.774 57.769C129.116 57.6303 129.5 57.561 129.926 57.561C130.497 57.561 130.948 57.697 131.278 57.969C131.614 58.2357 131.782 58.6037 131.782 59.073C131.782 59.361 131.718 59.6383 131.59 59.905C131.462 60.1717 131.22 60.4783 130.862 60.825L128.958 62.697H132.038Z" fill="black"/>
<rect x="94.8734" y="54.359" width="22.4093" height="12.1691" stroke="#D4D4D4" stroke-width="0.3"/>
<path d="M105.155 57.609V63.209H104.579V58.121H103.259V57.609H105.155ZM108.046 57.609V63.209H107.47V58.121H106.15V57.609H108.046Z" fill="black"/>
<rect x="72.3252" y="54.359" width="22.4093" height="12.1691" stroke="#D4D4D4" stroke-width="0.3"/>
<path d="M81.4041 57.609V63.209H80.8281V58.121H79.5081V57.609H81.4041ZM84.9747 63.257C84.5427 63.257 84.156 63.1423 83.8147 62.913C83.4787 62.6837 83.2147 62.3557 83.0227 61.929C82.836 61.497 82.7427 60.9903 82.7427 60.409C82.7427 59.8277 82.836 59.3237 83.0227 58.897C83.2147 58.465 83.4787 58.1343 83.8147 57.905C84.156 57.6757 84.5427 57.561 84.9747 57.561C85.4067 57.561 85.7907 57.6757 86.1267 57.905C86.468 58.1343 86.7347 58.465 86.9267 58.897C87.1187 59.3237 87.2147 59.8277 87.2147 60.409C87.2147 60.9903 87.1187 61.497 86.9267 61.929C86.7347 62.3557 86.468 62.6837 86.1267 62.913C85.7907 63.1423 85.4067 63.257 84.9747 63.257ZM84.9747 62.729C85.3 62.729 85.5854 62.6383 85.8307 62.457C86.0814 62.2757 86.276 62.0117 86.4147 61.665C86.5534 61.3183 86.6227 60.8997 86.6227 60.409C86.6227 59.9183 86.5534 59.4997 86.4147 59.153C86.276 58.8063 86.0814 58.5423 85.8307 58.361C85.5854 58.1797 85.3 58.089 84.9747 58.089C84.6494 58.089 84.3614 58.1797 84.1107 58.361C83.8654 58.5423 83.6734 58.8063 83.5347 59.153C83.396 59.4997 83.3267 59.9183 83.3267 60.409C83.3267 60.8997 83.396 61.3183 83.5347 61.665C83.6734 62.0117 83.8654 62.2757 84.1107 62.457C84.3614 62.6383 84.6494 62.729 84.9747 62.729Z" fill="black"/>
<rect x="49.7769" y="54.359" width="22.4093" height="12.1691" stroke="#D4D4D4" stroke-width="0.3"/>
<path d="M60.704 57.561C61.4454 57.561 62.0134 57.8063 62.408 58.297C62.8027 58.7823 63 59.4703 63 60.361C63 60.985 62.8934 61.513 62.68 61.945C62.4667 62.377 62.168 62.705 61.784 62.929C61.4 63.1477 60.952 63.257 60.44 63.257C59.8854 63.257 59.4427 63.1557 59.112 62.953L59.344 62.489C59.6107 62.665 59.9734 62.753 60.432 62.753C61.0507 62.753 61.536 62.5583 61.888 62.169C62.24 61.7743 62.416 61.2037 62.416 60.457C62.416 60.3183 62.408 60.1663 62.392 60.001C62.2534 60.305 62.032 60.5423 61.728 60.713C61.424 60.8783 61.0747 60.961 60.68 60.961C60.312 60.961 59.984 60.8917 59.696 60.753C59.4134 60.6143 59.192 60.4197 59.032 60.169C58.872 59.913 58.792 59.617 58.792 59.281C58.792 58.9397 58.8747 58.6383 59.04 58.377C59.2054 58.1157 59.432 57.9157 59.72 57.777C60.0134 57.633 60.3414 57.561 60.704 57.561ZM60.768 60.473C61.0507 60.473 61.2987 60.4197 61.512 60.313C61.7307 60.2063 61.9014 60.0597 62.024 59.873C62.1467 59.6863 62.208 59.4783 62.208 59.249C62.208 59.0357 62.1494 58.8383 62.032 58.657C61.92 58.4757 61.752 58.329 61.528 58.217C61.304 58.105 61.0374 58.049 60.728 58.049C60.3227 58.049 59.992 58.161 59.736 58.385C59.4854 58.6037 59.36 58.897 59.36 59.265C59.36 59.633 59.4854 59.9263 59.736 60.145C59.992 60.3637 60.336 60.473 60.768 60.473Z" fill="black"/>
<rect x="27.2287" y="54.359" width="22.4093" height="12.1691" stroke="#D4D4D4" stroke-width="0.3"/>
<path d="M39.5065 60.273C39.8585 60.3903 40.1279 60.5663 40.3145 60.801C40.5065 61.0357 40.6025 61.3183 40.6025 61.649C40.6025 61.9743 40.5145 62.2597 40.3385 62.505C40.1625 62.745 39.9092 62.9317 39.5785 63.065C39.2532 63.193 38.8692 63.257 38.4265 63.257C37.7545 63.257 37.2265 63.113 36.8425 62.825C36.4585 62.537 36.2665 62.145 36.2665 61.649C36.2665 61.313 36.3572 61.0303 36.5385 60.801C36.7252 60.5663 36.9945 60.3903 37.3465 60.273C37.0585 60.161 36.8399 60.001 36.6905 59.793C36.5412 59.5797 36.4665 59.329 36.4665 59.041C36.4665 58.5877 36.6425 58.2277 36.9945 57.961C37.3519 57.6943 37.8292 57.561 38.4265 57.561C38.8212 57.561 39.1652 57.6223 39.4585 57.745C39.7572 57.8623 39.9892 58.033 40.1545 58.257C40.3199 58.481 40.4025 58.7423 40.4025 59.041C40.4025 59.329 40.3252 59.5797 40.1705 59.793C40.0159 60.001 39.7945 60.161 39.5065 60.273ZM37.0425 59.057C37.0425 59.3663 37.1652 59.6117 37.4105 59.793C37.6559 59.9743 37.9945 60.065 38.4265 60.065C38.8585 60.065 39.1972 59.9743 39.4425 59.793C39.6932 59.6117 39.8185 59.369 39.8185 59.065C39.8185 58.7503 39.6905 58.5023 39.4345 58.321C39.1839 58.1397 38.8479 58.049 38.4265 58.049C37.9999 58.049 37.6612 58.1397 37.4105 58.321C37.1652 58.5023 37.0425 58.7477 37.0425 59.057ZM38.4265 62.769C38.9225 62.769 39.3092 62.6677 39.5865 62.465C39.8692 62.2623 40.0105 61.9877 40.0105 61.641C40.0105 61.2943 39.8692 61.0223 39.5865 60.825C39.3092 60.6223 38.9225 60.521 38.4265 60.521C37.9359 60.521 37.5492 60.6223 37.2665 60.825C36.9892 61.0223 36.8505 61.2943 36.8505 61.641C36.8505 61.993 36.9892 62.2703 37.2665 62.473C37.5439 62.6703 37.9305 62.769 38.4265 62.769Z" fill="black"/>
<rect x="4.68046" y="54.359" width="22.4093" height="12.1691" stroke="#D4D4D4" stroke-width="0.3"/>
<path d="M18.0347 57.609V58.017L15.6907 63.209H15.0667L17.3707 58.121H14.4907V59.169H13.9227V57.609H18.0347Z" fill="black"/>
<rect x="139.97" y="41.8893" width="22.4093" height="12.1691" stroke="#D4D4D4" stroke-width="0.3"/>
<path d="M151.473 47.3873C151.841 47.3873 152.166 47.4566 152.449 47.5953C152.737 47.7339 152.961 47.9313 153.121 48.1873C153.281 48.4379 153.361 48.7313 153.361 49.0673C153.361 49.4086 153.278 49.7099 153.113 49.9713C152.948 50.2326 152.718 50.4353 152.425 50.5793C152.137 50.7179 151.812 50.7873 151.449 50.7873C150.708 50.7873 150.14 50.5446 149.745 50.0593C149.35 49.5686 149.153 48.8779 149.153 47.9873C149.153 47.3633 149.26 46.8353 149.473 46.4033C149.686 45.9713 149.985 45.6459 150.369 45.4273C150.753 45.2033 151.201 45.0913 151.713 45.0913C152.268 45.0913 152.71 45.1926 153.041 45.3953L152.809 45.8593C152.542 45.6833 152.18 45.5953 151.721 45.5953C151.102 45.5953 150.617 45.7926 150.265 46.1873C149.913 46.5766 149.737 47.1446 149.737 47.8913C149.737 48.0246 149.745 48.1766 149.761 48.3473C149.9 48.0433 150.121 47.8086 150.425 47.6433C150.729 47.4726 151.078 47.3873 151.473 47.3873ZM151.425 50.2993C151.83 50.2993 152.158 50.1899 152.409 49.9713C152.665 49.7473 152.793 49.4513 152.793 49.0833C152.793 48.7153 152.665 48.4219 152.409 48.2033C152.158 47.9846 151.817 47.8753 151.385 47.8753C151.102 47.8753 150.852 47.9286 150.633 48.0353C150.42 48.1419 150.252 48.2886 150.129 48.4753C150.006 48.6619 149.945 48.8699 149.945 49.0993C149.945 49.3126 150.001 49.5099 150.113 49.6913C150.23 49.8726 150.401 50.0193 150.625 50.1313C150.849 50.2433 151.116 50.2993 151.425 50.2993Z" fill="black"/>
<rect x="117.422" y="41.8893" width="22.4093" height="12.1691" stroke="#D4D4D4" stroke-width="0.3"/>
<path d="M128.249 47.4353C129.059 47.4353 129.649 47.5819 130.017 47.8753C130.39 48.1633 130.577 48.5686 130.577 49.0913C130.577 49.4166 130.499 49.7073 130.345 49.9633C130.195 50.2193 129.969 50.4219 129.665 50.5713C129.361 50.7153 128.987 50.7873 128.545 50.7873C128.145 50.7873 127.763 50.7233 127.401 50.5953C127.043 50.4619 126.755 50.2859 126.537 50.0673L126.817 49.6113C127.003 49.8033 127.249 49.9606 127.553 50.0833C127.857 50.2006 128.185 50.2593 128.537 50.2593C129.001 50.2593 129.358 50.1553 129.609 49.9473C129.865 49.7393 129.993 49.4619 129.993 49.1153C129.993 48.7313 129.849 48.4406 129.561 48.2433C129.278 48.0459 128.798 47.9473 128.121 47.9473H126.929L127.217 45.1393H130.281V45.6513H127.721L127.529 47.4353H128.249Z" fill="black"/>
<rect x="94.8734" y="41.8893" width="22.4093" height="12.1691" stroke="#D4D4D4" stroke-width="0.3"/>
<path d="M108.61 49.2673H107.49V50.7393H106.914V49.2673H103.754V48.8513L106.722 45.1393H107.362L104.498 48.7553H106.93V47.4593H107.49V48.7553H108.61V49.2673Z" fill="black"/>
<rect x="72.3252" y="41.8893" width="22.4093" height="12.1691" stroke="#D4D4D4" stroke-width="0.3"/>
<path d="M83.592 47.5393C84.1787 47.5713 84.624 47.7313 84.928 48.0193C85.2373 48.3019 85.392 48.6726 85.392 49.1313C85.392 49.4513 85.3147 49.7366 85.16 49.9873C85.0053 50.2326 84.776 50.4273 84.472 50.5713C84.168 50.7153 83.7973 50.7873 83.36 50.7873C82.9547 50.7873 82.5707 50.7233 82.208 50.5953C81.8507 50.4619 81.5627 50.2859 81.344 50.0673L81.624 49.6113C81.8107 49.8033 82.0587 49.9606 82.368 50.0833C82.6773 50.2006 83.008 50.2593 83.36 50.2593C83.8187 50.2593 84.1733 50.1606 84.424 49.9633C84.6747 49.7606 84.8 49.4833 84.8 49.1313C84.8 48.7846 84.6747 48.5126 84.424 48.3153C84.1733 48.1179 83.7947 48.0193 83.288 48.0193H82.888V47.5953L84.44 45.6513H81.576V45.1393H85.176V45.5473L83.592 47.5393Z" fill="black"/>
<rect x="49.7769" y="41.8893" width="22.4093" height="12.1691" stroke="#D4D4D4" stroke-width="0.3"/>
<path d="M62.9481 50.2273V50.7393H59.0201V50.3313L61.3481 48.0513C61.6414 47.7633 61.8388 47.5153 61.9401 47.3073C62.0468 47.0939 62.1001 46.8806 62.1001 46.6673C62.1001 46.3366 61.9854 46.0806 61.7561 45.8993C61.5321 45.7126 61.2094 45.6193 60.7881 45.6193C60.1321 45.6193 59.6228 45.8273 59.2601 46.2433L58.8521 45.8913C59.0708 45.6353 59.3481 45.4379 59.6841 45.2993C60.0254 45.1606 60.4094 45.0913 60.8361 45.0913C61.4068 45.0913 61.8574 45.2273 62.1881 45.4993C62.5241 45.7659 62.6921 46.1339 62.6921 46.6033C62.6921 46.8913 62.6281 47.1686 62.5001 47.4353C62.3721 47.7019 62.1294 48.0086 61.7721 48.3553L59.8681 50.2273H62.9481Z" fill="black"/>
<rect x="27.2287" y="41.8893" width="22.4093" height="12.1691" stroke="#D4D4D4" stroke-width="0.3"/>
<path d="M38.956 45.1393V50.7393H38.38V45.6513H37.06V45.1393H38.956Z" fill="black"/>
<rect x="4.68046" y="41.8893" width="22.4093" height="12.1691" stroke="#D4D4D4" stroke-width="0.3"/>
<rect x="140.108" y="29.4205" width="22.2712" height="12.1691" fill="#C4C4C4" stroke="white" stroke-width="0.3"/>
<path d="M149.346 35.3665C149.724 35.4572 150.01 35.6198 150.202 35.8545C150.399 36.0838 150.498 36.3798 150.498 36.7425C150.498 37.2278 150.319 37.6038 149.962 37.8705C149.61 38.1372 149.095 38.2705 148.418 38.2705H145.858V32.6705H148.266C148.879 32.6705 149.356 32.7958 149.698 33.0465C150.044 33.2918 150.218 33.6465 150.218 34.1105C150.218 34.4145 150.14 34.6732 149.986 34.8865C149.836 35.0998 149.623 35.2598 149.346 35.3665ZM146.65 35.1345H148.21C148.599 35.1345 148.895 35.0572 149.098 34.9025C149.306 34.7478 149.41 34.5212 149.41 34.2225C149.41 33.9238 149.306 33.6972 149.098 33.5425C148.89 33.3825 148.594 33.3025 148.21 33.3025H146.65V35.1345ZM148.402 37.6385C149.26 37.6385 149.69 37.3185 149.69 36.6785C149.69 36.3585 149.58 36.1238 149.362 35.9745C149.148 35.8198 148.828 35.7425 148.402 35.7425H146.65V37.6385H148.402ZM153.554 38.3185C153.122 38.3185 152.736 38.2252 152.394 38.0385C152.058 37.8518 151.794 37.5958 151.602 37.2705C151.41 36.9398 151.314 36.5665 151.314 36.1505C151.314 35.7345 151.41 35.3638 151.602 35.0385C151.794 34.7078 152.058 34.4518 152.394 34.2705C152.736 34.0838 153.122 33.9905 153.554 33.9905C153.938 33.9905 154.28 34.0678 154.578 34.2225C154.882 34.3772 155.117 34.6012 155.282 34.8945L154.698 35.2705C154.565 35.0678 154.4 34.9158 154.202 34.8145C154.005 34.7132 153.786 34.6625 153.546 34.6625C153.269 34.6625 153.018 34.7238 152.794 34.8465C152.576 34.9692 152.402 35.1452 152.274 35.3745C152.152 35.5985 152.09 35.8572 152.09 36.1505C152.09 36.4492 152.152 36.7132 152.274 36.9425C152.402 37.1665 152.576 37.3398 152.794 37.4625C153.018 37.5852 153.269 37.6465 153.546 37.6465C153.786 37.6465 154.005 37.5958 154.202 37.4945C154.4 37.3932 154.565 37.2412 154.698 37.0385L155.282 37.4065C155.117 37.6998 154.882 37.9265 154.578 38.0865C154.28 38.2412 153.938 38.3185 153.554 38.3185ZM156.601 38.3185C156.452 38.3185 156.324 38.2678 156.217 38.1665C156.11 38.0598 156.057 37.9265 156.057 37.7665C156.057 37.6118 156.11 37.4838 156.217 37.3825C156.324 37.2758 156.452 37.2225 156.601 37.2225C156.75 37.2225 156.876 37.2732 156.977 37.3745C157.078 37.4758 157.129 37.6065 157.129 37.7665C157.129 37.9265 157.076 38.0598 156.969 38.1665C156.868 38.2678 156.745 38.3185 156.601 38.3185Z" fill="white"/>
<rect x="117.537" y="29.4205" width="22.2712" height="12.1691" fill="#C4C4C4" stroke="white" stroke-width="0.3"/>
<path d="M125.728 38.3345C125.168 38.3345 124.661 38.2118 124.208 37.9665C123.76 37.7158 123.408 37.3745 123.152 36.9425C122.896 36.5052 122.768 36.0145 122.768 35.4705C122.768 34.9265 122.896 34.4385 123.152 34.0065C123.408 33.5692 123.763 33.2278 124.216 32.9825C124.669 32.7318 125.176 32.6065 125.736 32.6065C126.173 32.6065 126.573 32.6812 126.936 32.8305C127.299 32.9745 127.608 33.1905 127.864 33.4785L127.344 33.9825C126.923 33.5398 126.397 33.3185 125.768 33.3185C125.352 33.3185 124.976 33.4118 124.64 33.5985C124.304 33.7852 124.04 34.0438 123.848 34.3745C123.661 34.6998 123.568 35.0652 123.568 35.4705C123.568 35.8758 123.661 36.2438 123.848 36.5745C124.04 36.8998 124.304 37.1558 124.64 37.3425C124.976 37.5292 125.352 37.6225 125.768 37.6225C126.392 37.6225 126.917 37.3985 127.344 36.9505L127.864 37.4545C127.608 37.7425 127.296 37.9612 126.928 38.1105C126.565 38.2598 126.165 38.3345 125.728 38.3345ZM130.881 34.1745C131.276 34.1745 131.628 34.2625 131.937 34.4385C132.246 34.6145 132.486 34.8598 132.657 35.1745C132.833 35.4838 132.921 35.8385 132.921 36.2385C132.921 36.6492 132.828 37.0145 132.641 37.3345C132.46 37.6492 132.201 37.8945 131.865 38.0705C131.534 38.2465 131.156 38.3345 130.729 38.3345C130.009 38.3345 129.452 38.0892 129.057 37.5985C128.668 37.1025 128.473 36.4065 128.473 35.5105C128.473 34.6412 128.652 33.9612 129.009 33.4705C129.366 32.9745 129.913 32.6465 130.649 32.4865L132.585 32.0545L132.697 32.7585L130.913 33.1425C130.358 33.2652 129.945 33.4732 129.673 33.7665C129.401 34.0598 129.246 34.4812 129.209 35.0305C129.39 34.7585 129.625 34.5478 129.913 34.3985C130.201 34.2492 130.524 34.1745 130.881 34.1745ZM130.745 37.6945C131.017 37.6945 131.257 37.6332 131.465 37.5105C131.678 37.3878 131.844 37.2198 131.961 37.0065C132.078 36.7878 132.137 36.5398 132.137 36.2625C132.137 35.8412 132.009 35.5025 131.753 35.2465C131.497 34.9905 131.161 34.8625 130.745 34.8625C130.329 34.8625 129.99 34.9905 129.729 35.2465C129.473 35.5025 129.345 35.8412 129.345 36.2625C129.345 36.5398 129.404 36.7878 129.521 37.0065C129.644 37.2198 129.812 37.3878 130.025 37.5105C130.238 37.6332 130.478 37.6945 130.745 37.6945ZM134.092 38.3185C133.943 38.3185 133.815 38.2678 133.708 38.1665C133.601 38.0598 133.548 37.9265 133.548 37.7665C133.548 37.6118 133.601 37.4838 133.708 37.3825C133.815 37.2758 133.943 37.2225 134.092 37.2225C134.241 37.2225 134.367 37.2732 134.468 37.3745C134.569 37.4758 134.62 37.6065 134.62 37.7665C134.62 37.9265 134.567 38.0598 134.46 38.1665C134.359 38.2678 134.236 38.3185 134.092 38.3185Z" fill="white"/>
<rect x="94.9655" y="29.4205" width="22.2712" height="12.1691" fill="#C4C4C4" stroke="white" stroke-width="0.3"/>
<path d="M105.824 32.6705V38.2705H105.04V33.3665H101.792V38.2705H101V32.6705H105.824ZM110.603 34.7025H109.051V38.2705H108.283V34.7025H106.731V34.0305H110.603V34.7025ZM111.173 38.3185C111.024 38.3185 110.896 38.2678 110.789 38.1665C110.683 38.0598 110.629 37.9265 110.629 37.7665C110.629 37.6118 110.683 37.4838 110.789 37.3825C110.896 37.2758 111.024 37.2225 111.173 37.2225C111.323 37.2225 111.448 37.2732 111.549 37.3745C111.651 37.4758 111.701 37.6065 111.701 37.7665C111.701 37.9265 111.648 38.0598 111.541 38.1665C111.44 38.2678 111.317 38.3185 111.173 38.3185Z" fill="white"/>
<rect x="72.3943" y="29.4205" width="22.2712" height="12.1691" fill="#C4C4C4" stroke="white" stroke-width="0.3"/>
<path d="M82.9131 32.6705V38.2705H82.1211V36.0545C81.5291 36.2838 80.9824 36.3985 80.4811 36.3985C79.7984 36.3985 79.2677 36.2332 78.8891 35.9025C78.5157 35.5718 78.3291 35.0998 78.3291 34.4865V32.6705H79.1131V34.3985C79.1131 34.8145 79.2384 35.1345 79.4891 35.3585C79.7451 35.5825 80.1051 35.6945 80.5691 35.6945C81.0864 35.6945 81.6037 35.5772 82.1211 35.3425V32.6705H82.9131ZM87.6917 34.7025H86.1397V38.2705H85.3717V34.7025H83.8197V34.0305H87.6917V34.7025ZM88.2622 38.3185C88.1129 38.3185 87.9849 38.2678 87.8782 38.1665C87.7715 38.0598 87.7182 37.9265 87.7182 37.7665C87.7182 37.6118 87.7715 37.4838 87.8782 37.3825C87.9849 37.2758 88.1129 37.2225 88.2622 37.2225C88.4115 37.2225 88.5369 37.2732 88.6382 37.3745C88.7395 37.4758 88.7902 37.6065 88.7902 37.7665C88.7902 37.9265 88.7369 38.0598 88.6302 38.1665C88.5289 38.2678 88.4062 38.3185 88.2622 38.3185Z" fill="white"/>
<rect x="49.8229" y="29.4205" width="22.2712" height="12.1691" fill="#C4C4C4" stroke="white" stroke-width="0.3"/>
<path d="M57.8502 38.3345C57.2902 38.3345 56.7835 38.2118 56.3302 37.9665C55.8822 37.7158 55.5302 37.3745 55.2742 36.9425C55.0182 36.5052 54.8902 36.0145 54.8902 35.4705C54.8902 34.9265 55.0182 34.4385 55.2742 34.0065C55.5302 33.5692 55.8848 33.2278 56.3382 32.9825C56.7915 32.7318 57.2982 32.6065 57.8582 32.6065C58.2955 32.6065 58.6955 32.6812 59.0582 32.8305C59.4208 32.9745 59.7302 33.1905 59.9862 33.4785L59.4662 33.9825C59.0448 33.5398 58.5195 33.3185 57.8902 33.3185C57.4742 33.3185 57.0982 33.4118 56.7622 33.5985C56.4262 33.7852 56.1622 34.0438 55.9702 34.3745C55.7835 34.6998 55.6902 35.0652 55.6902 35.4705C55.6902 35.8758 55.7835 36.2438 55.9702 36.5745C56.1622 36.8998 56.4262 37.1558 56.7622 37.3425C57.0982 37.5292 57.4742 37.6225 57.8902 37.6225C58.5142 37.6225 59.0395 37.3985 59.4662 36.9505L59.9862 37.4545C59.7302 37.7425 59.4182 37.9612 59.0502 38.1105C58.6875 38.2598 58.2875 38.3345 57.8502 38.3345ZM63.2083 33.9905C63.619 33.9905 63.987 34.0812 64.3123 34.2625C64.6377 34.4438 64.891 34.6972 65.0724 35.0225C65.259 35.3478 65.3523 35.7238 65.3523 36.1505C65.3523 36.5772 65.259 36.9558 65.0724 37.2865C64.891 37.6118 64.6377 37.8652 64.3123 38.0465C63.987 38.2278 63.619 38.3185 63.2083 38.3185C62.9043 38.3185 62.6243 38.2598 62.3683 38.1425C62.1177 38.0252 61.9043 37.8545 61.7283 37.6305V39.8225H60.9603V34.0305H61.6963V34.7025C61.867 34.4678 62.083 34.2918 62.3443 34.1745C62.6057 34.0518 62.8937 33.9905 63.2083 33.9905ZM63.1443 37.6465C63.4163 37.6465 63.659 37.5852 63.8723 37.4625C64.091 37.3345 64.2617 37.1585 64.3843 36.9345C64.5123 36.7052 64.5763 36.4438 64.5763 36.1505C64.5763 35.8572 64.5123 35.5985 64.3843 35.3745C64.2617 35.1452 64.091 34.9692 63.8723 34.8465C63.659 34.7238 63.4163 34.6625 63.1443 34.6625C62.8777 34.6625 62.635 34.7265 62.4163 34.8545C62.203 34.9772 62.0323 35.1505 61.9043 35.3745C61.7817 35.5985 61.7203 35.8572 61.7203 36.1505C61.7203 36.4438 61.7817 36.7052 61.9043 36.9345C62.027 37.1585 62.1977 37.3345 62.4163 37.4625C62.635 37.5852 62.8777 37.6465 63.1443 37.6465ZM66.5424 38.3185C66.3931 38.3185 66.2651 38.2678 66.1584 38.1665C66.0517 38.0598 65.9984 37.9265 65.9984 37.7665C65.9984 37.6118 66.0517 37.4838 66.1584 37.3825C66.2651 37.2758 66.3931 37.2225 66.5424 37.2225C66.6917 37.2225 66.8171 37.2732 66.9184 37.3745C67.0197 37.4758 67.0704 37.6065 67.0704 37.7665C67.0704 37.9265 67.0171 38.0598 66.9104 38.1665C66.8091 38.2678 66.6864 38.3185 66.5424 38.3185Z" fill="white"/>
<rect x="27.2517" y="29.4205" width="22.2712" height="12.1691" fill="#C4C4C4" stroke="white" stroke-width="0.3"/>
<path d="M37.0716 35.3665C37.4503 35.4572 37.7356 35.6198 37.9276 35.8545C38.1249 36.0838 38.2236 36.3798 38.2236 36.7425C38.2236 37.2278 38.0449 37.6038 37.6876 37.8705C37.3356 38.1372 36.8209 38.2705 36.1436 38.2705H33.5836V32.6705H35.9916C36.6049 32.6705 37.0823 32.7958 37.4236 33.0465C37.7703 33.2918 37.9436 33.6465 37.9436 34.1105C37.9436 34.4145 37.8663 34.6732 37.7116 34.8865C37.5623 35.0998 37.3489 35.2598 37.0716 35.3665ZM34.3756 35.1345H35.9356C36.3249 35.1345 36.6209 35.0572 36.8236 34.9025C37.0316 34.7478 37.1356 34.5212 37.1356 34.2225C37.1356 33.9238 37.0316 33.6972 36.8236 33.5425C36.6156 33.3825 36.3196 33.3025 35.9356 33.3025H34.3756V35.1345ZM36.1276 37.6385C36.9863 37.6385 37.4156 37.3185 37.4156 36.6785C37.4156 36.3585 37.3063 36.1238 37.0876 35.9745C36.8743 35.8198 36.5543 35.7425 36.1276 35.7425H34.3756V37.6385H36.1276ZM42.5922 34.7025H41.0402V38.2705H40.2722V34.7025H38.7202V34.0305H42.5922V34.7025ZM43.1627 38.3185C43.0133 38.3185 42.8853 38.2678 42.7787 38.1665C42.672 38.0598 42.6187 37.9265 42.6187 37.7665C42.6187 37.6118 42.672 37.4838 42.7787 37.3825C42.8853 37.2758 43.0133 37.2225 43.1627 37.2225C43.312 37.2225 43.4373 37.2732 43.5387 37.3745C43.64 37.4758 43.6907 37.6065 43.6907 37.7665C43.6907 37.9265 43.6373 38.0598 43.5307 38.1665C43.4293 38.2678 43.3067 38.3185 43.1627 38.3185Z" fill="white"/>
<rect x="4.68046" y="29.4205" width="22.2712" height="12.1691" fill="#C4C4C4" stroke="white" stroke-width="0.3"/>
<path d="M14.598 32.6705V38.2705H13.814V33.3665H10.566V38.2705H9.77402V32.6705H14.598ZM16.2163 34.0305H16.9843V35.8305H19.4003V34.0305H20.1683V38.2705H19.4003V36.4945H16.9843V38.2705H16.2163V34.0305ZM21.8296 38.3185C21.6803 38.3185 21.5523 38.2678 21.4456 38.1665C21.339 38.0598 21.2856 37.9265 21.2856 37.7665C21.2856 37.6118 21.339 37.4838 21.4456 37.3825C21.5523 37.2758 21.6803 37.2225 21.8296 37.2225C21.979 37.2225 22.1043 37.2732 22.2056 37.3745C22.307 37.4758 22.3576 37.6065 22.3576 37.7665C22.3576 37.9265 22.3043 38.0598 22.1976 38.1665C22.0963 38.2678 21.9736 38.3185 21.8296 38.3185Z" fill="white"/>
<rect x="1.41876" y="10.25" width="165.343" height="15.3697" fill="#F9F9F9" stroke="#D5D5D5" stroke-width="0.5"/>
<path d="M80.6721 15.5338V21.1338H80.1041V16.6538L77.9041 20.4218H77.6241L75.4241 16.6778V21.1338H74.8561V15.5338H75.3441L77.7761 19.6858L80.1841 15.5338H80.6721ZM83.8712 16.8938C84.4205 16.8938 84.8419 17.0325 85.1352 17.3098C85.4285 17.5818 85.5752 17.9871 85.5752 18.5258V21.1338H85.0312V20.4778C84.9032 20.6965 84.7139 20.8671 84.4632 20.9898C84.2179 21.1125 83.9245 21.1738 83.5832 21.1738C83.1139 21.1738 82.7405 21.0618 82.4632 20.8378C82.1859 20.6138 82.0472 20.3178 82.0472 19.9498C82.0472 19.5925 82.1752 19.3045 82.4312 19.0858C82.6925 18.8671 83.1059 18.7578 83.6712 18.7578H85.0072V18.5018C85.0072 18.1391 84.9059 17.8645 84.7032 17.6778C84.5005 17.4858 84.2045 17.3898 83.8152 17.3898C83.5485 17.3898 83.2925 17.4351 83.0472 17.5258C82.8019 17.6111 82.5912 17.7311 82.4152 17.8858L82.1592 17.4618C82.3725 17.2805 82.6285 17.1418 82.9272 17.0458C83.2259 16.9445 83.5405 16.8938 83.8712 16.8938ZM83.6712 20.7258C83.9912 20.7258 84.2659 20.6538 84.4952 20.5098C84.7245 20.3605 84.8952 20.1471 85.0072 19.8698V19.1818H83.6872C82.9672 19.1818 82.6072 19.4325 82.6072 19.9338C82.6072 20.1791 82.7005 20.3738 82.8872 20.5178C83.0739 20.6565 83.3352 20.7258 83.6712 20.7258ZM89.2553 16.8938C89.6499 16.8938 90.0073 16.9845 90.3273 17.1658C90.6473 17.3418 90.8979 17.5925 91.0793 17.9178C91.2606 18.2431 91.3513 18.6138 91.3513 19.0298C91.3513 19.4511 91.2606 19.8245 91.0793 20.1498C90.8979 20.4751 90.6473 20.7285 90.3273 20.9098C90.0126 21.0858 89.6553 21.1738 89.2553 21.1738C88.9139 21.1738 88.6046 21.1045 88.3273 20.9658C88.0553 20.8218 87.8313 20.6138 87.6553 20.3418V22.6858H87.0873V16.9258H87.6313V17.7578C87.8019 17.4805 88.0259 17.2671 88.3033 17.1178C88.5859 16.9685 88.9033 16.8938 89.2553 16.8938ZM89.2153 20.6698C89.5086 20.6698 89.7753 20.6031 90.0153 20.4698C90.2553 20.3311 90.4419 20.1365 90.5753 19.8858C90.7139 19.6351 90.7833 19.3498 90.7833 19.0298C90.7833 18.7098 90.7139 18.4271 90.5753 18.1818C90.4419 17.9311 90.2553 17.7365 90.0153 17.5978C89.7753 17.4591 89.5086 17.3898 89.2153 17.3898C88.9166 17.3898 88.6473 17.4591 88.4073 17.5978C88.1726 17.7365 87.9859 17.9311 87.8473 18.1818C87.7139 18.4271 87.6473 18.7098 87.6473 19.0298C87.6473 19.3498 87.7139 19.6351 87.8473 19.8858C87.9859 20.1365 88.1726 20.3311 88.4073 20.4698C88.6473 20.6031 88.9166 20.6698 89.2153 20.6698ZM95.3754 17.4298H93.7834V21.1338H93.2154V17.4298H91.6234V16.9258H95.3754V17.4298Z" fill="black"/>
<path d="M10.3655 15.1269L6.99048 18.5019L10.3655 21.8769L10.3655 15.1269Z" fill="#2DA9A1"/>
<path d="M157.815 21.877L161.19 18.502L157.815 15.127L157.815 21.877Z" fill="#2DA9A1"/>
<path d="M56.3152 4.792C56.5979 4.86667 56.8166 4.98667 56.9712 5.152C57.1259 5.31733 57.2032 5.52267 57.2032 5.768C57.2032 6.01867 57.1179 6.24267 56.9472 6.44C56.7766 6.632 56.5392 6.784 56.2352 6.896C55.9366 7.00267 55.6006 7.056 55.2272 7.056C54.9126 7.056 54.6032 7.016 54.2992 6.936C54.0006 6.85067 53.7339 6.73067 53.4992 6.576L53.7312 5.992C53.9339 6.12 54.1659 6.22133 54.4272 6.296C54.6886 6.36533 54.9526 6.4 55.2192 6.4C55.5819 6.4 55.8699 6.33867 56.0832 6.216C56.3019 6.088 56.4112 5.91733 56.4112 5.704C56.4112 5.50667 56.3232 5.35467 56.1472 5.248C55.9766 5.14133 55.7339 5.088 55.4192 5.088H54.6432V4.536H55.3632C55.6512 4.536 55.8779 4.48533 56.0432 4.384C56.2086 4.28267 56.2912 4.144 56.2912 3.968C56.2912 3.776 56.1926 3.62667 55.9952 3.52C55.8032 3.41333 55.5419 3.36 55.2112 3.36C54.7899 3.36 54.3446 3.46933 53.8752 3.688L53.6672 3.096C54.1846 2.83467 54.7259 2.704 55.2912 2.704C55.6326 2.704 55.9392 2.752 56.2112 2.848C56.4832 2.944 56.6966 3.08 56.8512 3.256C57.0059 3.432 57.0832 3.632 57.0832 3.856C57.0832 4.064 57.0139 4.25067 56.8752 4.416C56.7366 4.58133 56.5499 4.70667 56.3152 4.792ZM59.8828 2.72C60.4695 2.72 60.9175 2.864 61.2268 3.152C61.5415 3.44 61.6988 3.86933 61.6988 4.44V7H60.9708V6.44C60.8428 6.63733 60.6588 6.78933 60.4188 6.896C60.1841 6.99733 59.9041 7.048 59.5788 7.048C59.1041 7.048 58.7228 6.93333 58.4348 6.704C58.1521 6.47467 58.0108 6.17333 58.0108 5.8C58.0108 5.42667 58.1468 5.128 58.4188 4.904C58.6908 4.67467 59.1228 4.56 59.7148 4.56H60.9308V4.408C60.9308 4.07733 60.8348 3.824 60.6428 3.648C60.4508 3.472 60.1681 3.384 59.7948 3.384C59.5441 3.384 59.2988 3.42667 59.0588 3.512C58.8188 3.592 58.6161 3.70133 58.4508 3.84L58.1308 3.264C58.3495 3.088 58.6108 2.95467 58.9148 2.864C59.2188 2.768 59.5415 2.72 59.8828 2.72ZM59.7068 6.456C60.0001 6.456 60.2535 6.392 60.4668 6.264C60.6801 6.13067 60.8348 5.944 60.9308 5.704V5.112H59.7468C59.0961 5.112 58.7708 5.33067 58.7708 5.768C58.7708 5.98133 58.8535 6.14933 59.0188 6.272C59.1841 6.39467 59.4135 6.456 59.7068 6.456ZM64.7297 5.208H63.8497V7H63.0817V2.76H63.8497V4.552H64.7457L66.1217 2.76H66.9457L65.3377 4.8L67.0577 7H66.1537L64.7297 5.208ZM69.2968 2.72C69.8835 2.72 70.3315 2.864 70.6408 3.152C70.9555 3.44 71.1128 3.86933 71.1128 4.44V7H70.3848V6.44C70.2568 6.63733 70.0728 6.78933 69.8328 6.896C69.5982 6.99733 69.3182 7.048 68.9928 7.048C68.5182 7.048 68.1368 6.93333 67.8488 6.704C67.5662 6.47467 67.4248 6.17333 67.4248 5.8C67.4248 5.42667 67.5608 5.128 67.8328 4.904C68.1048 4.67467 68.5368 4.56 69.1288 4.56H70.3448V4.408C70.3448 4.07733 70.2488 3.824 70.0568 3.648C69.8648 3.472 69.5822 3.384 69.2088 3.384C68.9582 3.384 68.7128 3.42667 68.4728 3.512C68.2328 3.592 68.0302 3.70133 67.8648 3.84L67.5448 3.264C67.7635 3.088 68.0248 2.95467 68.3288 2.864C68.6328 2.768 68.9555 2.72 69.2968 2.72ZM69.1208 6.456C69.4142 6.456 69.6675 6.392 69.8808 6.264C70.0942 6.13067 70.2488 5.944 70.3448 5.704V5.112H69.1608C68.5102 5.112 68.1848 5.33067 68.1848 5.768C68.1848 5.98133 68.2675 6.14933 68.4328 6.272C68.5982 6.39467 68.8275 6.456 69.1208 6.456ZM72.4958 2.76H73.2638V4.56H75.6798V2.76H76.4478V7H75.6798V5.224H73.2638V7H72.4958V2.76ZM81.3251 2.76V7H80.5571V5.288C80.0984 5.50133 79.6424 5.608 79.1891 5.608C78.6611 5.608 78.2531 5.48533 77.9651 5.24C77.6771 4.99467 77.5331 4.62667 77.5331 4.136V2.76H78.3011V4.088C78.3011 4.38133 78.3918 4.60267 78.5731 4.752C78.7598 4.90133 79.0184 4.976 79.3491 4.976C79.7224 4.976 80.1251 4.88267 80.5571 4.696V2.76H81.3251ZM82.8161 2.76H83.5841V5.848L86.1841 2.76H86.8801V7H86.1121V3.912L83.5201 7H82.8161V2.76ZM91.2588 4.8C91.8081 4.93867 92.0828 5.28267 92.0828 5.832C92.0828 6.20533 91.9415 6.49333 91.6588 6.696C91.3815 6.89867 90.9655 7 90.4108 7H88.3708V2.76H90.3388C90.8401 2.76 91.2321 2.856 91.5148 3.048C91.7975 3.23467 91.9388 3.50133 91.9388 3.848C91.9388 4.072 91.8775 4.26667 91.7548 4.432C91.6375 4.592 91.4721 4.71467 91.2588 4.8ZM89.1228 4.584H90.2748C90.5681 4.584 90.7895 4.53067 90.9388 4.424C91.0935 4.31733 91.1708 4.16267 91.1708 3.96C91.1708 3.55467 90.8721 3.352 90.2748 3.352H89.1228V4.584ZM90.3548 6.408C90.6748 6.408 90.9148 6.35733 91.0748 6.256C91.2348 6.15467 91.3148 5.99733 91.3148 5.784C91.3148 5.56533 91.2401 5.40267 91.0908 5.296C90.9468 5.18933 90.7175 5.136 90.4028 5.136H89.1228V6.408H90.3548ZM94.7968 2.72C95.3835 2.72 95.8315 2.864 96.1408 3.152C96.4555 3.44 96.6128 3.86933 96.6128 4.44V7H95.8848V6.44C95.7568 6.63733 95.5728 6.78933 95.3328 6.896C95.0982 6.99733 94.8182 7.048 94.4928 7.048C94.0182 7.048 93.6368 6.93333 93.3488 6.704C93.0662 6.47467 92.9248 6.17333 92.9248 5.8C92.9248 5.42667 93.0608 5.128 93.3328 4.904C93.6048 4.67467 94.0368 4.56 94.6288 4.56H95.8448V4.408C95.8448 4.07733 95.7488 3.824 95.5568 3.648C95.3648 3.472 95.0822 3.384 94.7088 3.384C94.4582 3.384 94.2128 3.42667 93.9728 3.512C93.7328 3.592 93.5302 3.70133 93.3648 3.84L93.0448 3.264C93.2635 3.088 93.5248 2.95467 93.8288 2.864C94.1328 2.768 94.4555 2.72 94.7968 2.72ZM94.6208 6.456C94.9142 6.456 95.1675 6.392 95.3808 6.264C95.5942 6.13067 95.7488 5.944 95.8448 5.704V5.112H94.6608C94.0102 5.112 93.6848 5.33067 93.6848 5.768C93.6848 5.98133 93.7675 6.14933 93.9328 6.272C94.0982 6.39467 94.3275 6.456 94.6208 6.456ZM101.396 2.76V7H100.708V5.656H99.4758H99.3878L98.4598 7H97.6358L98.6678 5.552C98.3478 5.456 98.1025 5.29867 97.9318 5.08C97.7611 4.856 97.6758 4.57867 97.6758 4.248C97.6758 3.76267 97.8411 3.39467 98.1718 3.144C98.5025 2.888 98.9585 2.76 99.5398 2.76H101.396ZM98.4598 4.272C98.4598 4.55467 98.5478 4.76533 98.7238 4.904C98.9051 5.03733 99.1745 5.104 99.5318 5.104H100.708V3.432H99.5638C98.8278 3.432 98.4598 3.712 98.4598 4.272ZM108.971 2.76V7H108.203V3.432H105.811V7H105.043V2.76H108.971ZM112.273 7.048C111.851 7.048 111.473 6.95467 111.137 6.768C110.801 6.58133 110.537 6.32533 110.345 6C110.158 5.66933 110.065 5.296 110.065 4.88C110.065 4.464 110.158 4.09333 110.345 3.768C110.537 3.43733 110.801 3.18133 111.137 3C111.473 2.81333 111.851 2.72 112.273 2.72C112.694 2.72 113.07 2.81333 113.401 3C113.737 3.18133 113.998 3.43733 114.185 3.768C114.377 4.09333 114.473 4.464 114.473 4.88C114.473 5.296 114.377 5.66933 114.185 6C113.998 6.32533 113.737 6.58133 113.401 6.768C113.07 6.95467 112.694 7.048 112.273 7.048ZM112.273 6.376C112.545 6.376 112.787 6.31467 113.001 6.192C113.219 6.064 113.39 5.888 113.513 5.664C113.635 5.43467 113.697 5.17333 113.697 4.88C113.697 4.58667 113.635 4.328 113.513 4.104C113.39 3.87467 113.219 3.69867 113.001 3.576C112.787 3.45333 112.545 3.392 112.273 3.392C112.001 3.392 111.755 3.45333 111.537 3.576C111.323 3.69867 111.153 3.87467 111.025 4.104C110.902 4.328 110.841 4.58667 110.841 4.88C110.841 5.17333 110.902 5.43467 111.025 5.664C111.153 5.888 111.323 6.064 111.537 6.192C111.755 6.31467 112.001 6.376 112.273 6.376ZM115.75 3.816C115.6 3.816 115.472 3.76533 115.366 3.664C115.259 3.55733 115.206 3.424 115.206 3.264C115.206 3.10933 115.259 2.98133 115.366 2.88C115.472 2.77333 115.6 2.72 115.75 2.72C115.899 2.72 116.024 2.77067 116.126 2.872C116.227 2.97333 116.278 3.104 116.278 3.264C116.278 3.424 116.224 3.55733 116.118 3.664C116.016 3.76533 115.894 3.816 115.75 3.816ZM115.75 7.048C115.6 7.048 115.472 6.99733 115.366 6.896C115.259 6.78933 115.206 6.656 115.206 6.496C115.206 6.34133 115.259 6.21333 115.366 6.112C115.472 6.00533 115.6 5.952 115.75 5.952C115.899 5.952 116.024 6.00267 116.126 6.104C116.227 6.20533 116.278 6.336 116.278 6.496C116.278 6.656 116.224 6.78933 116.118 6.896C116.016 6.99733 115.894 7.048 115.75 7.048Z" fill="#2DA9A1"/>
<defs>
<filter id="filter0_d_1028_1157" x="0.168762" y="10" width="173.843" height="105.485" filterUnits="userSpaceOnUse" color-interpolation-filters="sRGB">
<feFlood flood-opacity="0" result="BackgroundImageFix"/>
<feColorMatrix in="SourceAlpha" type="matrix" values="0 0 0 0 0 0 0 0 0 0 0 0 0 0 0 0 0 0 127 0" result="hardAlpha"/>
<feOffset dx="3" dy="4"/>
<feGaussianBlur stdDeviation="2"/>
<feComposite in2="hardAlpha" operator="out"/>
<feColorMatrix type="matrix" values="0 0 0 0 0 0 0 0 0 0 0 0 0 0 0 0 0 0 0.25 0"/>
<feBlend mode="normal" in2="BackgroundImageFix" result="effect1_dropShadow_1028_1157"/>
<feBlend mode="normal" in="SourceGraphic" in2="effect1_dropShadow_1028_1157" result="shape"/>
</filter>
</defs>
</svg>
