<svg width="11" height="11" viewBox="0 0 11 11" fill="none" xmlns="http://www.w3.org/2000/svg">
<path d="M5.11033 0.905273C4.42022 0.905273 3.76918 1.03548 3.1572 1.2959C2.55173 1.55632 2.02114 1.91439 1.56541 2.37012C1.11619 2.81934 0.76137 3.34993 0.500953 3.96191C0.240537 4.56738 0.110328 5.21517 0.110328 5.90527C0.110328 6.59538 0.240537 7.24642 0.500953 7.8584C0.76137 8.46387 1.11619 8.99447 1.56541 9.4502C2.02114 9.89941 2.55173 10.2542 3.1572 10.5146C3.76918 10.7751 4.42022 10.9053 5.11033 10.9053C5.80043 10.9053 6.44822 10.7751 7.05369 10.5146C7.66567 10.2542 8.19627 9.89941 8.64548 9.4502C9.10121 8.99447 9.45929 8.46387 9.7197 7.8584C9.98012 7.24642 10.1103 6.59538 10.1103 5.90527C10.1103 5.21517 9.98012 4.56738 9.7197 3.96191C9.45929 3.34993 9.10121 2.81934 8.64548 2.37012C8.19627 1.91439 7.66567 1.55632 7.05369 1.2959C6.44822 1.03548 5.80043 0.905273 5.11033 0.905273ZM5.11033 9.03027C4.93455 9.03027 4.78481 8.97168 4.66111 8.85449C4.54392 8.73079 4.48533 8.58105 4.48533 8.40527C4.48533 8.22949 4.54392 8.08301 4.66111 7.96582C4.78481 7.84212 4.93455 7.78027 5.11033 7.78027C5.28611 7.78027 5.43259 7.84212 5.54978 7.96582C5.67348 8.08301 5.73533 8.22949 5.73533 8.40527C5.73533 8.58105 5.67348 8.73079 5.54978 8.85449C5.43259 8.97168 5.28611 9.03027 5.11033 9.03027ZM6.14548 5.82715C5.95017 5.95085 5.80694 6.05176 5.7158 6.12988C5.62465 6.20801 5.57908 6.28939 5.57908 6.37402V6.68652C5.57908 6.81673 5.53351 6.92741 5.44236 7.01855C5.35121 7.1097 5.24054 7.15527 5.11033 7.15527C4.98012 7.15527 4.86944 7.1097 4.7783 7.01855C4.68715 6.92741 4.64158 6.81673 4.64158 6.68652V6.37402C4.64158 6.21126 4.67088 6.05827 4.72947 5.91504C4.79457 5.7653 4.89223 5.62533 5.02244 5.49512C5.11358 5.40397 5.21124 5.32259 5.31541 5.25098C5.42608 5.17285 5.53351 5.10124 5.63767 5.03613C5.86554 4.8929 6.0283 4.77572 6.12595 4.68457C6.23012 4.58691 6.2822 4.47298 6.2822 4.34277C6.2822 4.19954 6.24965 4.0791 6.18455 3.98145C6.11944 3.88379 6.05108 3.80892 5.97947 3.75684C5.86879 3.66569 5.73858 3.59733 5.58884 3.55176C5.4391 3.50618 5.2796 3.4834 5.11033 3.4834C4.85642 3.4834 4.62205 3.56152 4.4072 3.71777C4.19887 3.87402 4.0589 4.07259 3.98728 4.31348C3.94822 4.43717 3.87009 4.53158 3.75291 4.59668C3.64223 4.65527 3.52504 4.66504 3.40134 4.62598C3.27765 4.59342 3.18324 4.52181 3.11814 4.41113C3.05955 4.29395 3.04978 4.1735 3.08884 4.0498C3.15395 3.83496 3.2516 3.63639 3.38181 3.4541C3.51202 3.2653 3.66502 3.10254 3.8408 2.96582C4.02309 2.8291 4.22166 2.72493 4.4365 2.65332C4.65134 2.58171 4.87595 2.5459 5.11033 2.5459C5.38377 2.5459 5.64418 2.58822 5.89158 2.67285C6.14548 2.75098 6.37009 2.86816 6.56541 3.02441C6.77374 3.19368 6.93324 3.39225 7.04392 3.62012C7.16111 3.84147 7.2197 4.08236 7.2197 4.34277C7.2197 4.74642 7.09601 5.05892 6.84861 5.28027C6.60772 5.50163 6.37335 5.68392 6.14548 5.82715Z" fill="#39B2BA"/>
</svg>
