<svg width="17" height="19" viewBox="0 0 17 19" fill="none" xmlns="http://www.w3.org/2000/svg">
<path d="M15.1875 0.125H1.6875C1.21875 0.125 0.820312 0.289063 0.492188 0.617188C0.164063 0.945312 0 1.34375 0 1.8125V16.4375C0 16.9062 0.164063 17.3047 0.492188 17.6328C0.820312 17.9609 1.21875 18.125 1.6875 18.125H15.1875C15.6562 18.125 16.0547 17.9609 16.3828 17.6328C16.7109 17.3047 16.875 16.9062 16.875 16.4375V1.8125C16.875 1.34375 16.7109 0.945312 16.3828 0.617188C16.0547 0.289063 15.6562 0.125 15.1875 0.125ZM14.625 15.875H2.25V2.375H14.625V15.875ZM4.5 8H12.375V9.125H4.5V8ZM4.5 10.25H12.375V11.375H4.5V10.25ZM4.5 12.5H12.375V13.625H4.5V12.5ZM4.5 5.75H12.375V6.875H4.5V5.75Z" fill="#39B2BA"/>
</svg>
