<svg width="20" height="20" viewBox="0 0 24 24" fill="none" xmlns="http://www.w3.org/2000/svg">
<path d="M8.87555 5.125C8.87555 4.26562 9.18149 3.52995 9.79336 2.91797C10.4052 2.30599 11.1408 2 12 2C12.8592 2 13.5948 2.30599 14.2066 2.91797C14.8185 3.52995 15.1244 4.26562 15.1244 5.125C15.1244 5.98438 14.8185 6.72005 14.2066 7.33203C13.5948 7.94401 12.8592 8.25 12 8.25C11.1408 8.25 10.4052 7.94401 9.79336 7.33203C9.18149 6.72005 8.87555 5.98438 8.87555 5.125ZM21.7248 16.2188L16.7257 9.96875C16.6086 9.8125 16.4588 9.69531 16.2766 9.61719C16.1073 9.53906 15.9316 9.5 15.7493 9.5H8.25067C8.06841 9.5 7.88615 9.53906 7.70389 9.61719C7.53465 9.69531 7.39144 9.8125 7.27428 9.96875L2.27516 16.2188C2.10592 16.4271 2.01479 16.6615 2.00178 16.9219C1.98876 17.1823 2.04734 17.4232 2.17753 17.6445C2.29469 17.8398 2.4444 17.9896 2.62666 18.0938C2.82194 18.1979 3.03024 18.25 3.25155 18.25C3.29061 18.25 3.32966 18.25 3.36872 18.25C3.40778 18.237 3.45334 18.2305 3.50541 18.2305L7.00089 17.5273V22H16.9991V17.5273L20.4946 18.2305C20.5467 18.2305 20.5922 18.237 20.6313 18.25C20.6703 18.25 20.7094 18.25 20.7484 18.25C20.9698 18.25 21.1715 18.1979 21.3538 18.0938C21.5491 17.9896 21.7053 17.8398 21.8225 17.6445C21.9527 17.4232 22.0112 17.1823 21.9982 16.9219C21.9852 16.6615 21.8941 16.4271 21.7248 16.2188ZM15.7493 14.7344L14.7534 14.5195C14.4149 14.4544 14.096 14.5195 13.7966 14.7148C13.5101 14.8971 13.3344 15.1576 13.2693 15.4961C13.2042 15.8346 13.2628 16.1536 13.4451 16.4531C13.6403 16.7396 13.9072 16.9154 14.2457 16.9805L15.7493 17.2734V18.25L12 19.5L8.25067 18.25V17.2734L9.7543 16.9805C10.0928 16.9154 10.3532 16.7396 10.5354 16.4531C10.7307 16.1536 10.7958 15.8346 10.7307 15.4961C10.6656 15.1576 10.4833 14.8971 10.1839 14.7148C9.89751 14.5195 9.58506 14.4544 9.24658 14.5195L8.25067 14.7344V12L12 13.25L15.7493 12V14.7344Z" fill="#39B2BA"/>
</svg>
