<svg width="88" height="25" viewBox="0 0 88 25" fill="none" xmlns="http://www.w3.org/2000/svg">
<path d="M23.4677 6.97987C23.6513 7.52498 23.0526 8.77702 21.6715 10.736C21.4799 11.0086 21.2204 11.3705 20.8931 11.822C20.2704 12.6737 19.9112 13.2316 19.8154 13.4956C19.6797 13.8448 19.7355 14.1898 19.983 14.5305C20.1187 14.7093 20.442 15.0585 20.953 15.5781H20.9649L21.0128 15.6292C22.1385 16.745 22.9009 17.6861 23.3 18.4527C23.324 18.4953 23.3479 18.5506 23.3719 18.6188C23.4038 18.6784 23.4318 18.7891 23.4557 18.9509C23.4876 19.1128 23.4876 19.2576 23.4557 19.3853C23.4238 19.5131 23.324 19.6323 23.1563 19.743C22.9887 19.8453 22.7532 19.8964 22.4498 19.8964L19.3843 19.9475C19.1927 19.99 18.9691 19.9688 18.7137 19.8836C18.4582 19.7984 18.2507 19.7047 18.091 19.6025L17.8515 19.4492C17.612 19.2703 17.3326 18.9978 17.0133 18.6315C16.6939 18.2653 16.4185 17.9374 16.187 17.6478C15.9635 17.3497 15.72 17.1027 15.4565 16.9068C15.2011 16.7024 14.9775 16.6342 14.7859 16.7024C14.762 16.7109 14.7301 16.7279 14.6901 16.7535C14.6502 16.7705 14.5824 16.8301 14.4866 16.9323C14.3908 17.0345 14.303 17.1623 14.2231 17.3156C14.1513 17.4604 14.0834 17.6819 14.0196 17.98C13.9637 18.2696 13.9397 18.5975 13.9477 18.9637C13.9477 19.0915 13.9317 19.2107 13.8998 19.3214C13.8759 19.4236 13.8479 19.5003 13.816 19.5514L13.7681 19.6153C13.6244 19.7771 13.4128 19.8708 13.1334 19.8964H11.7563C11.1895 19.9304 10.6067 19.8623 10.008 19.6919C9.40926 19.5131 8.88237 19.2874 8.42732 19.0148C7.98026 18.7337 7.56913 18.4527 7.19392 18.1716C6.82669 17.882 6.54728 17.635 6.35568 17.4306L6.05631 17.124C5.97648 17.0388 5.86471 16.911 5.72102 16.7407C5.5853 16.5703 5.3019 16.1828 4.8708 15.5781C4.43971 14.9734 4.0166 14.3303 3.60148 13.6489C3.18635 12.9675 2.69538 12.069 2.12857 10.9532C1.56975 9.83743 1.05084 8.67908 0.571849 7.47814C0.52395 7.34186 0.5 7.22688 0.5 7.13319C0.5 7.0395 0.511975 6.97136 0.535924 6.92877L0.583824 6.85211C0.703572 6.69029 0.931093 6.60937 1.26639 6.60937L4.54749 6.58382C4.64328 6.60085 4.73509 6.63067 4.82291 6.67325C4.91072 6.70732 4.97459 6.74139 5.0145 6.77546L5.07438 6.81379C5.20211 6.90748 5.29791 7.04375 5.36177 7.22262C5.52144 7.64848 5.70505 8.09138 5.91261 8.55132C6.12018 9.00273 6.28383 9.34768 6.40358 9.58617L6.59518 9.95667C6.82669 10.4677 7.05022 10.9106 7.26577 11.2854C7.48131 11.6601 7.67291 11.954 7.84056 12.1669C8.01619 12.3713 8.18384 12.5332 8.3435 12.6524C8.50316 12.7716 8.63888 12.8313 8.75064 12.8313C8.86241 12.8313 8.97018 12.81 9.07396 12.7674C9.08993 12.7589 9.10989 12.7376 9.13384 12.7035C9.15779 12.6694 9.20569 12.5757 9.27753 12.4224C9.34938 12.2691 9.40127 12.069 9.43321 11.822C9.47312 11.575 9.51304 11.23 9.55295 10.7871C9.59287 10.3442 9.59287 9.81188 9.55295 9.19011C9.53699 8.84942 9.50106 8.53854 9.44518 8.25747C9.3893 7.9764 9.33342 7.7805 9.27753 7.66978L9.20568 7.51646C9.0061 7.22688 8.66682 7.04375 8.18783 6.9671C8.08404 6.95006 8.104 6.84786 8.2477 6.66048C8.38341 6.49865 8.5351 6.37089 8.70274 6.2772C9.12585 6.05575 10.0798 5.95354 11.5647 5.97058C12.2193 5.97909 12.7582 6.03445 13.1813 6.13666C13.341 6.17925 13.4727 6.23887 13.5765 6.31552C13.6883 6.38366 13.7721 6.48587 13.828 6.62215C13.8838 6.74991 13.9238 6.88618 13.9477 7.03098C13.9796 7.16725 13.9956 7.35889 13.9956 7.6059C13.9956 7.8529 13.9916 8.08712 13.9836 8.30857C13.9757 8.53002 13.9637 8.83239 13.9477 9.21567C13.9397 9.59043 13.9357 9.93963 13.9357 10.2633C13.9357 10.357 13.9317 10.5358 13.9238 10.7999C13.9158 11.0639 13.9118 11.2683 13.9118 11.4131C13.9198 11.5579 13.9357 11.7325 13.9597 11.9369C13.9836 12.1328 14.0275 12.2989 14.0914 12.4352C14.1633 12.563 14.2551 12.6652 14.3668 12.7418C14.4307 12.7589 14.4986 12.7759 14.5704 12.7929C14.6422 12.81 14.746 12.7631 14.8817 12.6524C15.0175 12.5417 15.1691 12.3969 15.3368 12.218C15.5044 12.0306 15.712 11.7453 15.9595 11.362C16.207 10.9702 16.4784 10.5103 16.7738 9.98222C17.2528 9.09642 17.6799 8.13823 18.0551 7.10763C18.087 7.02246 18.1269 6.95006 18.1748 6.89044C18.2227 6.8223 18.2666 6.77546 18.3065 6.74991L18.3544 6.71158C18.3704 6.70306 18.3904 6.69455 18.4143 6.68603C18.4383 6.66899 18.4902 6.65622 18.57 6.6477C18.6498 6.63067 18.7297 6.62641 18.8095 6.63492L22.2582 6.60937C22.5696 6.56679 22.825 6.57956 23.0246 6.6477C23.2242 6.70732 23.3479 6.77546 23.3958 6.85211L23.4677 6.97987Z" fill="#AFAFAF"/>
<path d="M47.8752 11.471C46.8049 12.5595 45.5133 13.1038 44.0003 13.1038C42.4874 13.1038 41.1958 12.5595 40.1255 11.471C39.0552 10.3824 38.52 9.07292 38.52 7.54241C38.52 6.00372 39.0552 4.69011 40.1255 3.60156C41.1958 2.51302 42.4874 1.96875 44.0003 1.96875C45.5133 1.96875 46.8049 2.51302 47.8752 3.60156C48.9455 4.69011 49.4807 6.00372 49.4807 7.54241C49.4807 9.07292 48.9455 10.3824 47.8752 11.471ZM45.8955 5.60268C45.3724 5.0625 44.7407 4.79241 44.0003 4.79241C43.26 4.79241 42.6242 5.0625 42.0931 5.60268C41.57 6.13467 41.3085 6.78125 41.3085 7.54241C41.3085 8.29539 41.57 8.94197 42.0931 9.48214C42.6242 10.0141 43.26 10.2801 44.0003 10.2801C44.7407 10.2801 45.3724 10.0141 45.8955 9.48214C46.4266 8.94197 46.6922 8.29539 46.6922 7.54241C46.6922 6.78125 46.4266 6.13467 45.8955 5.60268ZM50.3136 13.779C50.4182 14 50.4785 14.2046 50.4946 14.3929C50.5107 14.5729 50.4906 14.7366 50.4343 14.8839C50.386 15.0312 50.2814 15.1908 50.1204 15.3627C49.9595 15.5264 49.7865 15.6778 49.6014 15.817C49.4243 15.9479 49.1789 16.1157 48.865 16.3203C47.9396 16.9178 46.6721 17.3025 45.0626 17.4743L45.9438 18.3583L49.1668 21.6362C49.4082 21.8899 49.5289 22.1927 49.5289 22.5446C49.5289 22.8966 49.4082 23.1953 49.1668 23.4408L49.0219 23.6004C48.7725 23.846 48.4747 23.9688 48.1287 23.9688C47.7826 23.9688 47.4849 23.846 47.2354 23.6004C46.6962 23.0439 45.6219 21.9472 44.0124 20.3103L40.7894 23.6004C40.5399 23.846 40.2422 23.9688 39.8961 23.9688C39.5501 23.9688 39.2564 23.846 39.0149 23.6004L38.8701 23.4408C38.6206 23.1953 38.4959 22.8966 38.4959 22.5446C38.4959 22.1927 38.6206 21.8899 38.8701 21.6362L42.9622 17.4743C41.3286 17.3025 40.0531 16.9178 39.1356 16.3203C38.8218 16.1157 38.5723 15.9479 38.3872 15.817C38.2102 15.6778 38.0412 15.5264 37.8802 15.3627C37.7193 15.1908 37.6106 15.0312 37.5543 14.8839C37.506 14.7366 37.4899 14.5729 37.506 14.3929C37.5221 14.2046 37.5825 14 37.6871 13.779C37.7676 13.6153 37.8802 13.4721 38.0251 13.3493C38.1699 13.2266 38.3389 13.1365 38.5321 13.0792C38.7252 13.0219 38.9506 13.0301 39.2081 13.1038C39.4656 13.1775 39.7271 13.3207 39.9927 13.5335C40.0329 13.5662 40.0933 13.6112 40.1738 13.6685C40.2542 13.7258 40.4273 13.8281 40.6928 13.9754C40.9584 14.1146 41.236 14.2374 41.5257 14.3438C41.8154 14.4501 42.1856 14.5484 42.6363 14.6384C43.0869 14.7284 43.5416 14.7734 44.0003 14.7734C44.7327 14.7734 45.4328 14.6711 46.1007 14.4665C46.7687 14.2537 47.2515 14.045 47.5493 13.8404L48.008 13.5335C48.2735 13.3207 48.5351 13.1775 48.7926 13.1038C49.0501 13.0301 49.2754 13.0219 49.4686 13.0792C49.6617 13.1365 49.8307 13.2266 49.9756 13.3493C50.1204 13.4721 50.2331 13.6153 50.3136 13.779Z" fill="#AFAFAF"/>
<path d="M86.6572 2.1038C86.9273 2.30022 87.0378 2.56213 86.9887 2.88951L83.8459 21.7467C83.805 21.984 83.674 22.1682 83.453 22.2991C83.3384 22.3646 83.2116 22.3973 83.0725 22.3973C82.9824 22.3973 82.8842 22.3769 82.7778 22.3359L77.2165 20.0647L74.2456 23.6864C74.0983 23.8746 73.8978 23.9688 73.6441 23.9688C73.5377 23.9688 73.4476 23.9524 73.374 23.9196C73.2185 23.8624 73.0916 23.7641 72.9934 23.625C72.9034 23.494 72.8584 23.3467 72.8584 23.183V18.8984L83.4653 5.89732L70.3417 17.2533L65.4924 15.2645C65.1896 15.1499 65.0259 14.9249 65.0014 14.5893C64.985 14.2619 65.1159 14.0205 65.3942 13.865L85.8224 2.07924C85.9452 2.00558 86.0761 1.96875 86.2152 1.96875C86.3789 1.96875 86.5263 2.01377 86.6572 2.1038Z" fill="#AFAFAF"/>
</svg>
