<svg width="18" height="18" viewBox="0 0 18 18" fill="none" xmlns="http://www.w3.org/2000/svg">
<path d="M4.5 5.875H6.75V8.125H4.5V5.875ZM7.875 5.875H10.125V8.125H7.875V5.875ZM11.25 5.875H13.5V8.125H11.25V5.875ZM16.3125 0.25H1.6875C1.21875 0.25 0.820312 0.414063 0.492188 0.742188C0.164063 1.07031 0 1.46875 0 1.9375V10.9375C0 11.4062 0.164063 11.8047 0.492188 12.1328C0.820312 12.4609 1.21875 12.625 1.6875 12.625H4.5V17.125L9.89648 12.625H16.3125C16.7812 12.625 17.1797 12.4609 17.5078 12.1328C17.8359 11.8047 18 11.4062 18 10.9375V1.9375C18 1.46875 17.8359 1.07031 17.5078 0.742188C17.1797 0.414063 16.7812 0.25 16.3125 0.25ZM15.75 10.375H9.08789L5.625 13.4512V10.375H2.25V2.5H15.75V10.375Z" fill="#39B2BA"/>
</svg>
