<svg width="17" height="18" viewBox="0 0 17 18" fill="none" xmlns="http://www.w3.org/2000/svg">
<path d="M12.375 10.375C11.8125 10.9375 11.4375 11.4531 11.25 11.9219C11.0625 12.3906 10.6875 12.625 10.125 12.625C9.5625 12.625 9 12.3906 8.4375 11.9219C7.875 11.4531 7.3125 10.9375 6.75 10.375C6.1875 9.8125 5.67188 9.25 5.20312 8.6875C4.73438 8.125 4.5 7.5625 4.5 7C4.5 6.4375 4.73438 6.0625 5.20312 5.875C5.67188 5.6875 6.1875 5.3125 6.75 4.75C7.03125 4.46875 7.06641 4.07617 6.85547 3.57227C6.64453 3.06836 6.32812 2.57031 5.90625 2.07812C5.48438 1.58594 5.02734 1.1582 4.53516 0.794922C4.04297 0.431641 3.65625 0.25 3.375 0.25C3.09375 0.25 2.75977 0.425781 2.37305 0.777344C1.98633 1.12891 1.61719 1.51562 1.26562 1.9375C0.914062 2.35938 0.615234 2.74609 0.369141 3.09766C0.123047 3.44922 0 3.625 0 3.625C0 4.1875 0.128906 4.87305 0.386719 5.68164C0.65625 6.47852 1.00195 7.30469 1.42383 8.16016C1.85742 9.00391 2.33789 9.82422 2.86523 10.6211C3.4043 11.4062 3.94922 12.0742 4.5 12.625C5.05078 13.1758 5.71875 13.7207 6.50391 14.2598C7.30078 14.7871 8.12109 15.2676 8.96484 15.7012C9.82031 16.123 10.6465 16.4629 11.4434 16.7207C12.252 16.9902 12.9375 17.125 13.5 17.125C13.5 17.125 13.6758 17.002 14.0273 16.7559C14.3789 16.5098 14.7656 16.2109 15.1875 15.8594C15.6094 15.5078 15.9961 15.1387 16.3477 14.752C16.6992 14.3652 16.875 14.0312 16.875 13.75C16.875 13.4688 16.6934 13.082 16.3301 12.5898C15.9668 12.0977 15.5391 11.6406 15.0469 11.2188C14.5547 10.7969 14.0566 10.4805 13.5527 10.2695C13.0488 10.0586 12.6562 10.0938 12.375 10.375ZM10.5996 8.125L14.5723 4.13477L16.875 6.4375V0.25H10.6875L12.9902 2.55273L9 6.52539L10.5996 8.125Z" fill="#39B2BA"/>
</svg>
