<svg width="78" height="87" viewBox="0 0 78 87" fill="none" xmlns="http://www.w3.org/2000/svg">
<g filter="url(#filter0_d_375_628)">
<circle cx="38.7831" cy="47.8809" r="32.5249" fill="white"/>
</g>
<mask id="mask0_375_628" style="mask-type:alpha" maskUnits="userSpaceOnUse" x="6" y="14" width="66" height="67">
<circle cx="38.7185" cy="47.6873" r="32.7185" fill="white"/>
</mask>
<g mask="url(#mask0_375_628)">
<rect x="38.7186" y="14.9688" width="38.7775" height="32.7185" fill="url(#paint0_linear_375_628)"/>
<path d="M55.565 25.1694L58.3458 21.3498L57.8232 20.9691L55.0423 24.7952L55.565 25.1694Z" fill="white"/>
<path d="M65.4625 39.1188L69.9789 37.6607L69.7789 37.0155L65.2625 38.4801C65.327 38.7124 65.3979 38.9188 65.4625 39.1188Z" fill="white"/>
<path d="M61.6106 31.3699L65.4367 28.589L65.0624 28.0664L61.2364 30.8408C61.3654 31.015 61.488 31.1892 61.6106 31.3699Z" fill="white"/>
<path d="M47.8934 21.1498L49.3581 16.6333L48.7451 16.4398L47.2869 20.9562L47.8934 21.1498Z" fill="white"/>
<path d="M66.7013 47.042C66.7013 47.1517 66.7013 47.2614 66.7013 47.3646C66.7013 47.4679 66.7013 47.584 66.7013 47.6872H71.4178V47.042H66.7013Z" fill="white"/>
<path d="M39.0412 19.6981H39.3638V14.9429H38.7186V19.6787L39.0412 19.6981Z" fill="white"/>
</g>
<path d="M33.2997 34.2843C33.6517 34.3803 33.9264 34.5483 34.1237 34.7883C34.321 35.023 34.4197 35.3057 34.4197 35.6363C34.4197 35.967 34.313 36.2577 34.0997 36.5083C33.8917 36.7537 33.6117 36.943 33.2597 37.0763C32.913 37.2043 32.5344 37.2683 32.1237 37.2683C31.7504 37.2683 31.3797 37.2123 31.0117 37.1003C30.6437 36.9883 30.3077 36.8203 30.0037 36.5963L30.2837 36.0043C30.529 36.1963 30.8037 36.3403 31.1077 36.4363C31.4117 36.5323 31.7184 36.5803 32.0277 36.5803C32.4757 36.5803 32.8517 36.487 33.1557 36.3003C33.4597 36.1083 33.6117 35.847 33.6117 35.5163C33.6117 35.2337 33.497 35.0177 33.2677 34.8683C33.0384 34.7137 32.7157 34.6363 32.2997 34.6363H31.0517V33.9883H32.2437C32.601 33.9883 32.8784 33.9163 33.0757 33.7723C33.2784 33.623 33.3797 33.4177 33.3797 33.1563C33.3797 32.863 33.249 32.631 32.9877 32.4603C32.7264 32.2897 32.3957 32.2043 31.9957 32.2043C31.7344 32.2043 31.4677 32.2417 31.1957 32.3163C30.929 32.391 30.6757 32.503 30.4357 32.6523L30.1797 31.9963C30.4624 31.8363 30.761 31.7163 31.0757 31.6363C31.3904 31.5563 31.705 31.5163 32.0197 31.5163C32.4144 31.5163 32.777 31.5777 33.1077 31.7003C33.4384 31.823 33.6997 32.0017 33.8917 32.2363C34.089 32.471 34.1877 32.7457 34.1877 33.0603C34.1877 33.343 34.1077 33.591 33.9477 33.8043C33.793 34.0177 33.577 34.1777 33.2997 34.2843ZM39.4085 32.9643L37.3525 37.6283C37.1712 38.0603 36.9579 38.3643 36.7125 38.5403C36.4725 38.7163 36.1819 38.8043 35.8405 38.8043C35.6325 38.8043 35.4299 38.7697 35.2325 38.7003C35.0405 38.6363 34.8805 38.5403 34.7525 38.4123L35.0805 37.8363C35.2992 38.0443 35.5525 38.1483 35.8405 38.1483C36.0272 38.1483 36.1819 38.0977 36.3045 37.9963C36.4325 37.9003 36.5472 37.7323 36.6485 37.4923L36.7845 37.1963L34.9125 32.9643H35.7125L37.1925 36.3563L38.6565 32.9643H39.4085ZM42.6006 37.2043L41.3766 35.5803L40.1366 37.2043H39.2806L40.9526 35.0363L39.3606 32.9643H40.2166L41.3846 34.4923L42.5446 32.9643H43.3846L41.7846 35.0363L43.4726 37.2043H42.6006ZM46.5288 32.9243C46.9394 32.9243 47.3074 33.015 47.6328 33.1963C47.9581 33.3777 48.2114 33.631 48.3928 33.9563C48.5794 34.2817 48.6728 34.6577 48.6728 35.0843C48.6728 35.511 48.5794 35.8897 48.3928 36.2203C48.2114 36.5457 47.9581 36.799 47.6328 36.9803C47.3074 37.1617 46.9394 37.2523 46.5288 37.2523C46.2248 37.2523 45.9448 37.1937 45.6888 37.0763C45.4381 36.959 45.2248 36.7883 45.0488 36.5643V38.7563H44.2808V32.9643H45.0168V33.6363C45.1874 33.4017 45.4034 33.2257 45.6648 33.1083C45.9261 32.9857 46.2141 32.9243 46.5288 32.9243ZM46.4648 36.5803C46.7368 36.5803 46.9794 36.519 47.1928 36.3963C47.4114 36.2683 47.5821 36.0923 47.7048 35.8683C47.8328 35.639 47.8968 35.3777 47.8968 35.0843C47.8968 34.791 47.8328 34.5323 47.7048 34.3083C47.5821 34.079 47.4114 33.903 47.1928 33.7803C46.9794 33.6577 46.7368 33.5963 46.4648 33.5963C46.1981 33.5963 45.9554 33.6603 45.7368 33.7883C45.5234 33.911 45.3528 34.0843 45.2248 34.3083C45.1021 34.5323 45.0408 34.791 45.0408 35.0843C45.0408 35.3777 45.1021 35.639 45.2248 35.8683C45.3474 36.0923 45.5181 36.2683 45.7368 36.3963C45.9554 36.519 46.1981 36.5803 46.4648 36.5803Z" fill="#676565"/>
<path d="M25.3677 41.4043V51.2043H23.0997V43.2243H21.1397V41.4043H25.3677ZM34.3921 49.3563V51.2043H26.9861V49.7343L30.7661 46.1643C31.1674 45.7817 31.4381 45.455 31.5781 45.1843C31.7181 44.9043 31.7881 44.629 31.7881 44.3583C31.7881 43.9663 31.6527 43.6677 31.3821 43.4623C31.1207 43.2477 30.7334 43.1403 30.2201 43.1403C29.7907 43.1403 29.4034 43.2243 29.0581 43.3923C28.7127 43.551 28.4234 43.7937 28.1901 44.1203L26.5381 43.0563C26.9207 42.487 27.4481 42.0437 28.1201 41.7263C28.7921 41.3997 29.5621 41.2363 30.4301 41.2363C31.1581 41.2363 31.7927 41.3577 32.3341 41.6003C32.8847 41.8337 33.3094 42.1697 33.6081 42.6083C33.9161 43.0377 34.0701 43.5463 34.0701 44.1343C34.0701 44.6663 33.9581 45.1657 33.7341 45.6323C33.5101 46.099 33.0761 46.631 32.4321 47.2283L30.1781 49.3563H34.3921ZM36.6159 46.2903C36.2332 46.2903 35.9112 46.1597 35.6499 45.8983C35.3886 45.637 35.2579 45.3103 35.2579 44.9183C35.2579 44.517 35.3886 44.195 35.6499 43.9523C35.9112 43.7003 36.2332 43.5743 36.6159 43.5743C36.9986 43.5743 37.3206 43.7003 37.5819 43.9523C37.8432 44.195 37.9739 44.517 37.9739 44.9183C37.9739 45.3103 37.8432 45.637 37.5819 45.8983C37.3206 46.1597 36.9986 46.2903 36.6159 46.2903ZM36.6159 51.3163C36.2332 51.3163 35.9112 51.1857 35.6499 50.9243C35.3886 50.663 35.2579 50.3363 35.2579 49.9443C35.2579 49.543 35.3886 49.221 35.6499 48.9783C35.9112 48.7263 36.2332 48.6003 36.6159 48.6003C36.9986 48.6003 37.3206 48.7263 37.5819 48.9783C37.8432 49.221 37.9739 49.543 37.9739 49.9443C37.9739 50.3363 37.8432 50.663 37.5819 50.9243C37.3206 51.1857 36.9986 51.3163 36.6159 51.3163ZM47.9659 49.1463H46.3699V51.2043H44.1579V49.1463H38.8799V47.6203L43.4999 41.4043H45.8799L41.5959 47.2983H44.2279V45.4643H46.3699V47.2983H47.9659V49.1463ZM57.6183 49.1463H56.0223V51.2043H53.8103V49.1463H48.5323V47.6203L53.1523 41.4043H55.5323L51.2483 47.2983H53.8803V45.4643H56.0223V47.2983H57.6183V49.1463Z" fill="#39B2BA"/>
<path d="M22.423 62.3725C21.8577 62.3725 21.3484 62.2498 20.895 62.0045C20.4417 61.7538 20.0844 61.4098 19.823 60.9725C19.567 60.5351 19.439 60.0471 19.439 59.5085C19.439 58.9698 19.567 58.4818 19.823 58.0445C20.0844 57.6071 20.4417 57.2658 20.895 57.0205C21.3484 56.7698 21.8577 56.6445 22.423 56.6445C22.983 56.6445 23.4897 56.7698 23.943 57.0205C24.3964 57.2658 24.751 57.6071 25.007 58.0445C25.263 58.4765 25.391 58.9645 25.391 59.5085C25.391 60.0525 25.263 60.5431 25.007 60.9805C24.751 61.4125 24.3964 61.7538 23.943 62.0045C23.4897 62.2498 22.983 62.3725 22.423 62.3725ZM22.423 61.6605C22.8337 61.6605 23.2017 61.5671 23.527 61.3805C23.8577 61.1938 24.1164 60.9378 24.303 60.6125C24.495 60.2818 24.591 59.9138 24.591 59.5085C24.591 59.1031 24.495 58.7378 24.303 58.4125C24.1164 58.0818 23.8577 57.8231 23.527 57.6365C23.2017 57.4498 22.8337 57.3565 22.423 57.3565C22.0124 57.3565 21.639 57.4498 21.303 57.6365C20.9724 57.8231 20.711 58.0818 20.519 58.4125C20.3324 58.7378 20.239 59.1031 20.239 59.5085C20.239 59.9138 20.3324 60.2818 20.519 60.6125C20.711 60.9378 20.9724 61.1938 21.303 61.3805C21.639 61.5671 22.0124 61.6605 22.423 61.6605ZM28.4043 62.3565C27.9723 62.3565 27.5856 62.2631 27.2443 62.0765C26.9083 61.8898 26.6443 61.6338 26.4523 61.3085C26.2603 60.9778 26.1643 60.6045 26.1643 60.1885C26.1643 59.7725 26.2603 59.4018 26.4523 59.0765C26.6443 58.7458 26.9083 58.4898 27.2443 58.3085C27.5856 58.1218 27.9723 58.0285 28.4043 58.0285C28.7883 58.0285 29.1296 58.1058 29.4283 58.2605C29.7323 58.4151 29.967 58.6391 30.1323 58.9325L29.5483 59.3085C29.415 59.1058 29.2496 58.9538 29.0523 58.8525C28.855 58.7511 28.6363 58.7005 28.3963 58.7005C28.119 58.7005 27.8683 58.7618 27.6443 58.8845C27.4256 59.0071 27.2523 59.1831 27.1243 59.4125C27.0016 59.6365 26.9403 59.8951 26.9403 60.1885C26.9403 60.4871 27.0016 60.7511 27.1243 60.9805C27.2523 61.2045 27.4256 61.3778 27.6443 61.5005C27.8683 61.6231 28.119 61.6845 28.3963 61.6845C28.6363 61.6845 28.855 61.6338 29.0523 61.5325C29.2496 61.4311 29.415 61.2791 29.5483 61.0765L30.1323 61.4445C29.967 61.7378 29.7323 61.9645 29.4283 62.1245C29.1296 62.2791 28.7883 62.3565 28.4043 62.3565ZM34.2319 58.7405H32.6799V62.3085H31.9119V58.7405H30.3599V58.0685H34.2319V58.7405ZM36.5292 58.0285C37.1159 58.0285 37.5639 58.1725 37.8732 58.4605C38.1879 58.7485 38.3452 59.1778 38.3452 59.7485V62.3085H37.6172V61.7485C37.4892 61.9458 37.3052 62.0978 37.0652 62.2045C36.8306 62.3058 36.5506 62.3565 36.2252 62.3565C35.7506 62.3565 35.3692 62.2418 35.0812 62.0125C34.7986 61.7831 34.6572 61.4818 34.6572 61.1085C34.6572 60.7351 34.7932 60.4365 35.0652 60.2125C35.3372 59.9831 35.7692 59.8685 36.3612 59.8685H37.5772V59.7165C37.5772 59.3858 37.4812 59.1325 37.2892 58.9565C37.0972 58.7805 36.8146 58.6925 36.4412 58.6925C36.1906 58.6925 35.9452 58.7351 35.7052 58.8205C35.4652 58.9005 35.2626 59.0098 35.0972 59.1485L34.7772 58.5725C34.9959 58.3965 35.2572 58.2631 35.5612 58.1725C35.8652 58.0765 36.1879 58.0285 36.5292 58.0285ZM36.3532 61.7645C36.6466 61.7645 36.8999 61.7005 37.1132 61.5725C37.3266 61.4391 37.4812 61.2525 37.5772 61.0125V60.4205H36.3932C35.7426 60.4205 35.4172 60.6391 35.4172 61.0765C35.4172 61.2898 35.4999 61.4578 35.6652 61.5805C35.8306 61.7031 36.0599 61.7645 36.3532 61.7645ZM43.3682 58.0685V62.3085H42.6002V58.7405H40.7762L40.7282 59.6845C40.7015 60.2551 40.6508 60.7325 40.5762 61.1165C40.5015 61.4951 40.3788 61.7991 40.2082 62.0285C40.0375 62.2578 39.8002 62.3725 39.4962 62.3725C39.3575 62.3725 39.2002 62.3485 39.0242 62.3005L39.0722 61.6525C39.1415 61.6685 39.2055 61.6765 39.2642 61.6765C39.4775 61.6765 39.6375 61.5831 39.7442 61.3965C39.8508 61.2098 39.9202 60.9885 39.9522 60.7325C39.9842 60.4765 40.0135 60.1111 40.0402 59.6365L40.1122 58.0685H43.3682ZM46.6692 62.3565C46.2478 62.3565 45.8692 62.2631 45.5332 62.0765C45.1972 61.8898 44.9332 61.6338 44.7412 61.3085C44.5545 60.9778 44.4612 60.6045 44.4612 60.1885C44.4612 59.7725 44.5545 59.4018 44.7412 59.0765C44.9332 58.7458 45.1972 58.4898 45.5332 58.3085C45.8692 58.1218 46.2478 58.0285 46.6692 58.0285C47.0905 58.0285 47.4665 58.1218 47.7972 58.3085C48.1332 58.4898 48.3945 58.7458 48.5812 59.0765C48.7732 59.4018 48.8692 59.7725 48.8692 60.1885C48.8692 60.6045 48.7732 60.9778 48.5812 61.3085C48.3945 61.6338 48.1332 61.8898 47.7972 62.0765C47.4665 62.2631 47.0905 62.3565 46.6692 62.3565ZM46.6692 61.6845C46.9412 61.6845 47.1838 61.6231 47.3972 61.5005C47.6158 61.3725 47.7865 61.1965 47.9092 60.9725C48.0318 60.7431 48.0932 60.4818 48.0932 60.1885C48.0932 59.8951 48.0318 59.6365 47.9092 59.4125C47.7865 59.1831 47.6158 59.0071 47.3972 58.8845C47.1838 58.7618 46.9412 58.7005 46.6692 58.7005C46.3972 58.7005 46.1518 58.7618 45.9332 58.8845C45.7198 59.0071 45.5492 59.1831 45.4212 59.4125C45.2985 59.6365 45.2372 59.8951 45.2372 60.1885C45.2372 60.4818 45.2985 60.7431 45.4212 60.9725C45.5492 61.1965 45.7198 61.3725 45.9332 61.5005C46.1518 61.6231 46.3972 61.6845 46.6692 61.6845ZM51.8262 62.3565C51.3942 62.3565 51.0075 62.2631 50.6662 62.0765C50.3302 61.8898 50.0662 61.6338 49.8742 61.3085C49.6822 60.9778 49.5862 60.6045 49.5862 60.1885C49.5862 59.7725 49.6822 59.4018 49.8742 59.0765C50.0662 58.7458 50.3302 58.4898 50.6662 58.3085C51.0075 58.1218 51.3942 58.0285 51.8262 58.0285C52.2102 58.0285 52.5515 58.1058 52.8502 58.2605C53.1542 58.4151 53.3888 58.6391 53.5542 58.9325L52.9702 59.3085C52.8368 59.1058 52.6715 58.9538 52.4742 58.8525C52.2768 58.7511 52.0582 58.7005 51.8182 58.7005C51.5408 58.7005 51.2902 58.7618 51.0662 58.8845C50.8475 59.0071 50.6742 59.1831 50.5462 59.4125C50.4235 59.6365 50.3622 59.8951 50.3622 60.1885C50.3622 60.4871 50.4235 60.7511 50.5462 60.9805C50.6742 61.2045 50.8475 61.3778 51.0662 61.5005C51.2902 61.6231 51.5408 61.6845 51.8182 61.6845C52.0582 61.6845 52.2768 61.6338 52.4742 61.5325C52.6715 61.4311 52.8368 61.2791 52.9702 61.0765L53.5542 61.4445C53.3888 61.7378 53.1542 61.9645 52.8502 62.1245C52.5515 62.2791 52.2102 62.3565 51.8262 62.3565ZM56.5085 59.5085C57.0471 59.5138 57.4578 59.6365 57.7405 59.8765C58.0231 60.1165 58.1645 60.4551 58.1645 60.8925C58.1645 61.3511 58.0098 61.7058 57.7005 61.9565C57.3965 62.2018 56.9591 62.3218 56.3885 62.3165L54.5485 62.3085V58.0685H55.3165V59.5005L56.5085 59.5085ZM56.3245 61.7325C56.6711 61.7378 56.9325 61.6685 57.1085 61.5245C57.2898 61.3805 57.3805 61.1671 57.3805 60.8845C57.3805 60.6071 57.2925 60.4045 57.1165 60.2765C56.9458 60.1485 56.6818 60.0818 56.3245 60.0765L55.3165 60.0605V61.7245L56.3245 61.7325Z" fill="#A09E9E"/>
<path d="M29.1879 69.0605C29.7373 69.1138 30.1559 69.2845 30.4439 69.5725C30.7319 69.8551 30.8759 70.2178 30.8759 70.6605C30.8759 70.9805 30.7959 71.2711 30.6359 71.5325C30.4759 71.7885 30.2359 71.9938 29.9159 72.1485C29.6013 72.2978 29.2146 72.3725 28.7559 72.3725C28.3559 72.3725 27.9719 72.3138 27.6039 72.1965C27.2359 72.0738 26.9346 71.9058 26.6999 71.6925L27.0679 71.0605C27.2599 71.2418 27.5053 71.3885 27.8039 71.5005C28.1026 71.6071 28.4199 71.6605 28.7559 71.6605C29.1719 71.6605 29.4946 71.5725 29.7239 71.3965C29.9586 71.2205 30.0759 70.9778 30.0759 70.6685C30.0759 70.3591 29.9613 70.1191 29.7319 69.9485C29.5026 69.7778 29.1559 69.6925 28.6919 69.6925H28.2439V69.1325L29.6519 67.4045H26.9559V66.7085H30.6519V67.2525L29.1879 69.0605ZM35.3661 68.0685V72.3085H34.5981V70.5965C34.1394 70.8098 33.6834 70.9165 33.2301 70.9165C32.7021 70.9165 32.2941 70.7938 32.0061 70.5485C31.7181 70.3031 31.5741 69.9351 31.5741 69.4445V68.0685H32.3421V69.3965C32.3421 69.6898 32.4327 69.9111 32.6141 70.0605C32.8007 70.2098 33.0594 70.2845 33.3901 70.2845C33.7634 70.2845 34.1661 70.1911 34.5981 70.0045V68.0685H35.3661ZM37.0251 72.3565C36.8757 72.3565 36.7477 72.3058 36.6411 72.2045C36.5344 72.0978 36.4811 71.9645 36.4811 71.8045C36.4811 71.6498 36.5344 71.5218 36.6411 71.4205C36.7477 71.3138 36.8757 71.2605 37.0251 71.2605C37.1744 71.2605 37.2997 71.3111 37.4011 71.4125C37.5024 71.5138 37.5531 71.6445 37.5531 71.8045C37.5531 71.9645 37.4997 72.0978 37.3931 72.2045C37.2917 72.3058 37.1691 72.3565 37.0251 72.3565ZM40.5317 69.0605C41.081 69.1138 41.4997 69.2845 41.7877 69.5725C42.0757 69.8551 42.2197 70.2178 42.2197 70.6605C42.2197 70.9805 42.1397 71.2711 41.9797 71.5325C41.8197 71.7885 41.5797 71.9938 41.2597 72.1485C40.945 72.2978 40.5584 72.3725 40.0997 72.3725C39.6997 72.3725 39.3157 72.3138 38.9477 72.1965C38.5797 72.0738 38.2784 71.9058 38.0437 71.6925L38.4117 71.0605C38.6037 71.2418 38.849 71.3885 39.1477 71.5005C39.4464 71.6071 39.7637 71.6605 40.0997 71.6605C40.5157 71.6605 40.8384 71.5725 41.0677 71.3965C41.3024 71.2205 41.4197 70.9778 41.4197 70.6685C41.4197 70.3591 41.305 70.1191 41.0757 69.9485C40.8464 69.7778 40.4997 69.6925 40.0357 69.6925H39.5877V69.1325L40.9957 67.4045H38.2997V66.7085H41.9957V67.2525L40.5317 69.0605ZM48.2138 68.0685V72.3085H47.5178V69.2125L45.9338 71.8285H45.5978L44.0298 69.2045V72.3085H43.3258V68.0685H44.1178L45.7818 70.9325L47.4938 68.0685H48.2138ZM49.8766 72.3565C49.7273 72.3565 49.5993 72.3058 49.4926 72.2045C49.386 72.0978 49.3326 71.9645 49.3326 71.8045C49.3326 71.6498 49.386 71.5218 49.4926 71.4205C49.5993 71.3138 49.7273 71.2605 49.8766 71.2605C50.026 71.2605 50.1513 71.3111 50.2526 71.4125C50.354 71.5138 50.4046 71.6445 50.4046 71.8045C50.4046 71.9645 50.3513 72.0978 50.2446 72.2045C50.1433 72.3058 50.0206 72.3565 49.8766 72.3565Z" fill="#39B2BA"/>
<path d="M39.3774 1.96875C39.3774 1.41647 38.9297 0.96875 38.3774 0.96875C37.8252 0.96875 37.3774 1.41647 37.3774 1.96875L39.3774 1.96875ZM38.3774 24.9688L44.1509 14.9688L32.6039 14.9687L38.3774 24.9688ZM37.3774 1.96875L37.3774 15.9687L39.3774 15.9688L39.3774 1.96875L37.3774 1.96875Z" fill="white"/>
<path d="M39.4 15.9687C39.4 15.4165 38.9523 14.9687 38.4 14.9688C37.8477 14.9688 37.4 15.4165 37.4 15.9688L39.4 15.9687ZM38.4 24.9688L44.1735 14.9688L32.6265 14.9688L38.4 24.9688ZM37.4 15.9688L37.4 15.9688L39.4 15.9688L39.4 15.9687L37.4 15.9688Z" fill="#39B2BA"/>
<defs>
<filter id="filter0_d_375_628" x="0.258148" y="9.35596" width="77.0499" height="77.0499" filterUnits="userSpaceOnUse" color-interpolation-filters="sRGB">
<feFlood flood-opacity="0" result="BackgroundImageFix"/>
<feColorMatrix in="SourceAlpha" type="matrix" values="0 0 0 0 0 0 0 0 0 0 0 0 0 0 0 0 0 0 127 0" result="hardAlpha"/>
<feOffset/>
<feGaussianBlur stdDeviation="3"/>
<feComposite in2="hardAlpha" operator="out"/>
<feColorMatrix type="matrix" values="0 0 0 0 0 0 0 0 0 0 0 0 0 0 0 0 0 0 0.3 0"/>
<feBlend mode="normal" in2="BackgroundImageFix" result="effect1_dropShadow_375_628"/>
<feBlend mode="normal" in="SourceGraphic" in2="effect1_dropShadow_375_628" result="shape"/>
</filter>
<linearGradient id="paint0_linear_375_628" x1="58.1073" y1="14.9688" x2="58.1073" y2="47.6873" gradientUnits="userSpaceOnUse">
<stop stop-color="#D7D7D7"/>
<stop offset="1" stop-color="#D7D7D7" stop-opacity="0.5"/>
</linearGradient>
</defs>
</svg>
