<svg width="13" height="13" viewBox="0 0 13 13" fill="none" xmlns="http://www.w3.org/2000/svg">
<path d="M9.14746 8.25C9.33496 8.0625 9.59668 8.03906 9.93262 8.17969C10.2686 8.32031 10.6006 8.53125 10.9287 8.8125C11.2568 9.09375 11.542 9.39844 11.7842 9.72656C12.0264 10.0547 12.1475 10.3125 12.1475 10.5C12.1475 10.6875 12.0303 10.9102 11.7959 11.168C11.5615 11.4258 11.3037 11.6719 11.0225 11.9062C10.7412 12.1406 10.4834 12.3398 10.249 12.5039C10.0146 12.668 9.89746 12.75 9.89746 12.75C9.52246 12.75 9.06543 12.6602 8.52637 12.4805C7.99512 12.3086 7.44434 12.082 6.87402 11.8008C6.31152 11.5117 5.76465 11.1914 5.2334 10.8398C4.70996 10.4805 4.26465 10.1172 3.89746 9.75C3.53027 9.38281 3.16699 8.9375 2.80762 8.41406C2.45605 7.88281 2.13574 7.33594 1.84668 6.77344C1.56543 6.20312 1.33496 5.65234 1.15527 5.12109C0.983398 4.58203 0.897461 4.125 0.897461 3.75C0.897461 3.75 0.979492 3.63281 1.14355 3.39844C1.30762 3.16406 1.50684 2.90625 1.74121 2.625C1.97559 2.34375 2.22168 2.08594 2.47949 1.85156C2.7373 1.61719 2.95996 1.5 3.14746 1.5C3.33496 1.5 3.59277 1.62109 3.9209 1.86328C4.24902 2.10547 4.55371 2.39062 4.83496 2.71875C5.11621 3.04688 5.32715 3.37891 5.46777 3.71484C5.6084 4.05078 5.58496 4.3125 5.39746 4.5C5.02246 4.875 4.67871 5.125 4.36621 5.25C4.05371 5.375 3.89746 5.625 3.89746 6C3.89746 6.375 4.05371 6.75 4.36621 7.125C4.67871 7.5 5.02246 7.875 5.39746 8.25C5.77246 8.625 6.14746 8.96875 6.52246 9.28125C6.89746 9.59375 7.27246 9.75 7.64746 9.75C8.02246 9.75 8.27246 9.59375 8.39746 9.28125C8.52246 8.96875 8.77246 8.625 9.14746 8.25ZM9.52246 6.75C9.4209 6.75 9.33105 6.71484 9.25293 6.64453C9.18262 6.56641 9.14746 6.47656 9.14746 6.375C9.14746 5.85938 8.96387 5.41797 8.59668 5.05078C8.22949 4.68359 7.78809 4.5 7.27246 4.5C7.1709 4.5 7.08105 4.46484 7.00293 4.39453C6.93262 4.31641 6.89746 4.22656 6.89746 4.125C6.89746 4.02344 6.93262 3.9375 7.00293 3.86719C7.08105 3.78906 7.1709 3.75 7.27246 3.75C7.63184 3.75 7.97168 3.82031 8.29199 3.96094C8.6123 4.09375 8.88965 4.28125 9.12402 4.52344C9.36621 4.75781 9.55371 5.03516 9.68652 5.35547C9.82715 5.67578 9.89746 6.01562 9.89746 6.375C9.89746 6.47656 9.8584 6.56641 9.78027 6.64453C9.70996 6.71484 9.62402 6.75 9.52246 6.75ZM11.0225 6.75C10.9209 6.75 10.8311 6.71484 10.7529 6.64453C10.6826 6.56641 10.6475 6.47656 10.6475 6.375C10.6475 5.90625 10.5576 5.46875 10.3779 5.0625C10.2061 4.65625 9.96387 4.30078 9.65137 3.99609C9.34668 3.68359 8.99121 3.44141 8.58496 3.26953C8.17871 3.08984 7.74121 3 7.27246 3C7.1709 3 7.08105 2.96484 7.00293 2.89453C6.93262 2.81641 6.89746 2.72656 6.89746 2.625C6.89746 2.52344 6.93262 2.4375 7.00293 2.36719C7.08105 2.28906 7.1709 2.25 7.27246 2.25C7.84277 2.25 8.37793 2.35938 8.87793 2.57812C9.37793 2.78906 9.81543 3.08203 10.1904 3.45703C10.5654 3.83203 10.8584 4.26953 11.0693 4.76953C11.2881 5.26953 11.3975 5.80469 11.3975 6.375C11.3975 6.47656 11.3584 6.56641 11.2803 6.64453C11.21 6.71484 11.124 6.75 11.0225 6.75ZM12.5225 6.75C12.4209 6.75 12.3311 6.71484 12.2529 6.64453C12.1826 6.56641 12.1475 6.47656 12.1475 6.375C12.1475 5.70312 12.0186 5.07031 11.7607 4.47656C11.5107 3.88281 11.1631 3.36719 10.7178 2.92969C10.2803 2.48438 9.76465 2.13672 9.1709 1.88672C8.57715 1.62891 7.94434 1.5 7.27246 1.5C7.1709 1.5 7.08105 1.46484 7.00293 1.39453C6.93262 1.31641 6.89746 1.22656 6.89746 1.125C6.89746 1.02344 6.93262 0.9375 7.00293 0.867188C7.08105 0.789063 7.1709 0.75 7.27246 0.75C7.64746 0.75 8.01465 0.785156 8.37402 0.855469C8.74121 0.925781 9.09277 1.03125 9.42871 1.17188C9.76465 1.3125 10.085 1.48828 10.3896 1.69922C10.6943 1.90234 10.9795 2.13672 11.2451 2.40234C11.5107 2.66797 11.7451 2.95312 11.9482 3.25781C12.1592 3.5625 12.335 3.88281 12.4756 4.21875C12.6162 4.55469 12.7217 4.90625 12.792 5.27344C12.8623 5.63281 12.8975 6 12.8975 6.375C12.8975 6.47656 12.8584 6.56641 12.7803 6.64453C12.71 6.71484 12.624 6.75 12.5225 6.75Z" fill="#39B2BA"/>
</svg>
