<svg width="178" height="122" viewBox="0 0 178 122" fill="none" xmlns="http://www.w3.org/2000/svg">
<g filter="url(#filter0_d_421_237)">
<rect x="4" y="2" width="169.014" height="114" rx="5" fill="white"/>
</g>
<mask id="mask0_421_237" style="mask-type:alpha" maskUnits="userSpaceOnUse" x="4" y="2" width="170" height="114">
<rect x="4" y="2" width="169.014" height="114" rx="5" fill="white"/>
</mask>
<g mask="url(#mask0_421_237)">
<path d="M172.644 92.2695C168.272 94.1947 164.427 95.7733 160.933 96.9476C163.568 95.3112 166.399 93.3861 169.521 91.1722C176.021 86.4556 189.469 63.2963 189.469 63.2963C192.104 60.4278 196.613 62.3915 196.671 66.646C196.682 66.7805 196.682 66.9157 196.671 67.0503C196.671 67.339 196.32 68.4171 195.754 70.1112C192.514 73.923 178.929 89.4396 172.644 92.2695ZM177.095 77.1187C177.324 76.359 177.513 75.5879 177.661 74.8086C177.672 74.7126 177.672 74.6157 177.661 74.5198C177.701 73.8801 177.535 73.2442 177.187 72.7029C176.839 72.1616 176.326 71.7426 175.723 71.5057C175.119 71.2687 174.455 71.226 173.825 71.3835C173.195 71.5411 172.631 71.8908 172.215 72.3829C172.215 72.3829 163.08 90.1326 158.435 93.9444C156.19 95.8695 154.161 97.3134 152.287 98.661C154.785 97.6214 157.576 96.3123 160.738 94.6374C165.325 92.2503 174.83 80.1412 177.153 77.1187H177.095ZM164.837 82.5861C165.035 81.955 165.192 81.312 165.306 80.661C165.316 80.5779 165.316 80.4938 165.306 80.4107C165.344 79.8606 165.202 79.3129 164.902 78.848C164.601 78.383 164.157 78.0253 163.636 77.8272C163.114 77.6292 162.542 77.6011 162.003 77.7473C161.464 77.8935 160.986 78.2062 160.641 78.6396C160.641 78.6396 152.99 93.8481 149.047 97.1209C147.095 98.7187 145.455 100.047 143.855 101.202C145.982 100.297 148.344 99.1615 151.038 97.6984C154.863 95.5423 162.885 85.185 164.837 82.5861ZM18.0012 122.167C18.0012 122.167 37.9489 104.841 79.269 122.167C86.2384 125.122 93.6347 126.98 101.188 127.673C103.979 127.904 106.79 128 109.581 128H118.267C131.803 127.949 145.26 125.964 158.22 122.109L158.845 121.917L166.867 118.066C197.764 97.2364 206.235 77.0995 206.86 75.7134C206.91 75.5768 206.943 75.4345 206.957 75.2899C207.582 70.785 203.151 67.5893 199.892 70.0727C199.892 70.0727 181.896 91.384 174.245 94.8492C152.775 104.648 142.899 104.282 133.257 102.896C128.045 102.305 122.884 101.333 117.818 99.9893C113.914 98.2759 104.389 94.4257 104.389 94.4257C109.327 89.8439 118.052 87.2449 124.2 86.0513L135.072 83.953C149.925 79.5251 140.927 70.862 137.473 69.2449C130.793 66.3879 123.673 64.6631 116.412 64.1433C62.4638 62.4492 31.2346 100.663 18.0012 122.167Z" fill="#AFAFAF" fill-opacity="0.2"/>
<path d="M164.681 2C161.145 2.04566 157.692 3.06003 154.707 4.92983C151.722 6.79962 149.323 9.45118 147.778 12.5882C146.288 9.52613 143.967 6.93057 141.073 5.08897C138.18 3.24736 134.826 2.23155 131.383 2.154C120.999 2.154 112.548 11.1251 112.509 22.3487C112.461 27.0808 114.013 31.6937 116.92 35.4588C121.389 42.6781 148.149 67.0888 148.149 67.0888C148.149 67.0888 174.752 42.9476 180.159 35.1508C182.587 31.5242 183.877 27.2721 183.867 22.9262C183.984 11.4331 175.357 2.05775 164.681 2ZM121.233 34.554C118.752 31.3274 117.428 27.3798 117.466 23.3305C117.466 13.7048 124.727 6.00427 133.608 6.00427C136.598 6.03635 139.511 6.94064 141.981 8.60319C140.427 8.05586 138.791 7.76954 137.141 7.75615C128.26 7.75615 121.019 15.4567 120.999 25.0824C120.96 29.1317 122.285 33.0792 124.766 36.3059C127.772 41.1572 147.993 61.6021 147.993 61.6021C147.993 61.6021 125.059 40.7144 121.233 34.554ZM169.873 7.73689C166.777 7.78808 163.755 8.68396 161.144 10.3252C158.533 11.9665 156.433 14.289 155.078 17.0353C154.408 15.7212 153.568 14.4982 152.58 13.3968C154.055 11.1374 156.075 9.27414 158.459 7.97392C160.844 6.6737 163.518 5.97709 166.242 5.94652C169.33 5.97316 172.342 6.88994 174.908 8.58395C173.289 8.0288 171.587 7.74255 169.873 7.73689Z" fill="#AFAFAF" fill-opacity="0.2"/>
</g>
<path d="M66.6975 86.89C69.6575 86.89 71.8375 87.48 73.2375 88.66C74.6575 89.84 75.3675 91.42 75.3675 93.4C75.3675 94.68 75.0475 95.85 74.4075 96.91C73.7675 97.95 72.7875 98.79 71.4675 99.43C70.1675 100.05 68.5575 100.36 66.6375 100.36C65.1575 100.36 63.6975 100.17 62.2575 99.79C60.8375 99.39 59.6275 98.83 58.6275 98.11L60.5475 94.39C61.3475 94.99 62.2675 95.46 63.3075 95.8C64.3475 96.12 65.4175 96.28 66.5175 96.28C67.7375 96.28 68.6975 96.04 69.3975 95.56C70.0975 95.08 70.4475 94.41 70.4475 93.55C70.4475 92.65 70.0775 91.97 69.3375 91.51C68.6175 91.05 67.3575 90.82 65.5575 90.82H60.1875L61.2675 79H74.0775V82.9H65.3175L64.9875 86.89H66.6975ZM95.6454 87.55C97.4854 87.85 98.8954 88.54 99.8754 89.62C100.855 90.68 101.345 92 101.345 93.58C101.345 94.8 101.025 95.93 100.385 96.97C99.7454 97.99 98.7654 98.81 97.4454 99.43C96.1454 100.05 94.5454 100.36 92.6454 100.36C91.1654 100.36 89.7054 100.17 88.2654 99.79C86.8454 99.39 85.6354 98.83 84.6354 98.11L86.5254 94.39C87.3254 94.99 88.2454 95.46 89.2854 95.8C90.3454 96.12 91.4254 96.28 92.5254 96.28C93.7454 96.28 94.7054 96.05 95.4054 95.59C96.1054 95.11 96.4554 94.44 96.4554 93.58C96.4554 91.86 95.1454 91 92.5254 91H90.3054V87.79L94.6254 82.9H85.6854V79H100.385V82.15L95.6454 87.55ZM119.133 96.04V100H103.263V96.85L111.363 89.2C112.223 88.38 112.803 87.68 113.103 87.1C113.403 86.5 113.553 85.91 113.553 85.33C113.553 84.49 113.263 83.85 112.683 83.41C112.123 82.95 111.293 82.72 110.193 82.72C109.273 82.72 108.443 82.9 107.703 83.26C106.963 83.6 106.343 84.12 105.843 84.82L102.303 82.54C103.123 81.32 104.253 80.37 105.693 79.69C107.133 78.99 108.783 78.64 110.643 78.64C112.203 78.64 113.563 78.9 114.723 79.42C115.903 79.92 116.813 80.64 117.453 81.58C118.113 82.5 118.443 83.59 118.443 84.85C118.443 85.99 118.203 87.06 117.723 88.06C117.243 89.06 116.313 90.2 114.933 91.48L110.103 96.04H119.133ZM130.948 87.55C132.788 87.85 134.198 88.54 135.178 89.62C136.158 90.68 136.648 92 136.648 93.58C136.648 94.8 136.328 95.93 135.688 96.97C135.048 97.99 134.068 98.81 132.748 99.43C131.448 100.05 129.848 100.36 127.948 100.36C126.468 100.36 125.008 100.17 123.568 99.79C122.148 99.39 120.938 98.83 119.938 98.11L121.828 94.39C122.628 94.99 123.548 95.46 124.588 95.8C125.648 96.12 126.728 96.28 127.828 96.28C129.048 96.28 130.008 96.05 130.708 95.59C131.408 95.11 131.758 94.44 131.758 93.58C131.758 91.86 130.448 91 127.828 91H125.608V87.79L129.928 82.9H120.988V79H135.688V82.15L130.948 87.55ZM146.422 93.13V94.81H152.902V97.3H146.422V100H141.532V97.3H138.622V94.81H141.532V79H150.622C153.482 79 155.712 79.6 157.312 80.8C158.932 82 159.742 83.76 159.742 86.08C159.742 88.38 158.932 90.13 157.312 91.33C155.712 92.53 153.482 93.13 150.622 93.13H146.422ZM154.822 86.11C154.822 85.09 154.452 84.31 153.712 83.77C152.992 83.23 151.952 82.96 150.592 82.96H146.422V89.32H150.592C151.952 89.32 152.992 89.05 153.712 88.51C154.452 87.95 154.822 87.15 154.822 86.11Z" fill="#AFAFAF"/>
<path d="M22.4923 19.496C22.9019 19.6176 23.2155 19.816 23.4331 20.0912C23.6507 20.3664 23.7595 20.7056 23.7595 21.1088C23.7595 21.704 23.5323 22.168 23.0779 22.5008C22.6299 22.8336 21.9867 23 21.1483 23H17.8363V16.28H20.9659C21.7467 16.28 22.3547 16.4304 22.7899 16.7312C23.2251 17.032 23.4427 17.4608 23.4427 18.0176C23.4427 18.3504 23.3595 18.6448 23.1931 18.9008C23.0267 19.1504 22.7931 19.3488 22.4923 19.496ZM19.3819 19.064H20.8315C21.1707 19.064 21.4267 18.9968 21.5995 18.8624C21.7723 18.7216 21.8587 18.5168 21.8587 18.248C21.8587 17.9856 21.7691 17.784 21.5899 17.6432C21.4171 17.5024 21.1643 17.432 20.8315 17.432H19.3819V19.064ZM21.0907 21.848C21.8203 21.848 22.1851 21.56 22.1851 20.984C22.1851 20.4272 21.8203 20.1488 21.0907 20.1488H19.3819V21.848H21.0907ZM29.5398 21.56H26.4198L25.8246 23H24.231L27.2262 16.28H28.7622L31.767 23H30.135L29.5398 21.56ZM29.0502 20.3792L27.9846 17.8064L26.919 20.3792H29.0502ZM38.7734 23L38.7638 18.9776L36.7862 22.2896H36.095L34.1174 19.0544V23H32.6582V16.28H33.9446L36.4598 20.456L38.9366 16.28H40.223L40.2326 23H38.7734ZM41.9019 16.28H43.4475V20.6576L46.6539 16.28H48.1131V23H46.5771V18.632L43.3707 23H41.9019V16.28ZM57.161 19.496C57.5706 19.6176 57.8842 19.816 58.1018 20.0912C58.3194 20.3664 58.4282 20.7056 58.4282 21.1088C58.4282 21.704 58.201 22.168 57.7466 22.5008C57.2986 22.8336 56.6554 23 55.817 23H52.505V16.28H55.6346C56.4154 16.28 57.0234 16.4304 57.4586 16.7312C57.8938 17.032 58.1114 17.4608 58.1114 18.0176C58.1114 18.3504 58.0282 18.6448 57.8618 18.9008C57.6954 19.1504 57.4618 19.3488 57.161 19.496ZM54.0506 19.064H55.5002C55.8394 19.064 56.0954 18.9968 56.2682 18.8624C56.441 18.7216 56.5274 18.5168 56.5274 18.248C56.5274 17.9856 56.4378 17.784 56.2586 17.6432C56.0858 17.5024 55.833 17.432 55.5002 17.432H54.0506V19.064ZM55.7594 21.848C56.489 21.848 56.8538 21.56 56.8538 20.984C56.8538 20.4272 56.489 20.1488 55.7594 20.1488H54.0506V21.848H55.7594ZM62.8358 23.1152C62.151 23.1152 61.5302 22.968 60.9734 22.6736C60.423 22.3728 59.9878 21.96 59.6678 21.4352C59.3542 20.904 59.1974 20.3056 59.1974 19.64C59.1974 18.9744 59.3542 18.3792 59.6678 17.8544C59.9878 17.3232 60.423 16.9104 60.9734 16.616C61.5302 16.3152 62.1542 16.1648 62.8454 16.1648C63.4278 16.1648 63.9526 16.2672 64.4198 16.472C64.8934 16.6768 65.2902 16.9712 65.6102 17.3552L64.6118 18.2768C64.1574 17.752 63.5942 17.4896 62.9222 17.4896C62.5062 17.4896 62.135 17.5824 61.8086 17.768C61.4822 17.9472 61.2262 18.2 61.0406 18.5264C60.8614 18.8528 60.7718 19.224 60.7718 19.64C60.7718 20.056 60.8614 20.4272 61.0406 20.7536C61.2262 21.08 61.4822 21.336 61.8086 21.5216C62.135 21.7008 62.5062 21.7904 62.9222 21.7904C63.5942 21.7904 64.1574 21.5248 64.6118 20.9936L65.6102 21.9152C65.2902 22.3056 64.8934 22.6032 64.4198 22.808C63.9462 23.0128 63.4182 23.1152 62.8358 23.1152ZM71.827 21.752V23H66.6238V16.28H71.7022V17.528H68.1694V18.9872H71.2894V20.1968H68.1694V21.752H71.827ZM77.816 17.5472H74.6192L74.6288 23H73.0832V16.28H77.8256L77.816 17.5472ZM81.2958 23.1152C80.5982 23.1152 79.9678 22.9648 79.4046 22.664C78.8478 22.3632 78.4094 21.9504 78.0894 21.4256C77.7758 20.8944 77.619 20.2992 77.619 19.64C77.619 18.9808 77.7758 18.3888 78.0894 17.864C78.4094 17.3328 78.8478 16.9168 79.4046 16.616C79.9678 16.3152 80.5982 16.1648 81.2958 16.1648C81.9934 16.1648 82.6206 16.3152 83.1774 16.616C83.7342 16.9168 84.1726 17.3328 84.4926 17.864C84.8126 18.3888 84.9726 18.9808 84.9726 19.64C84.9726 20.2992 84.8126 20.8944 84.4926 21.4256C84.1726 21.9504 83.7342 22.3632 83.1774 22.664C82.6206 22.9648 81.9934 23.1152 81.2958 23.1152ZM81.2958 21.7904C81.6926 21.7904 82.051 21.7008 82.371 21.5216C82.691 21.336 82.9406 21.08 83.1198 20.7536C83.3054 20.4272 83.3982 20.056 83.3982 19.64C83.3982 19.224 83.3054 18.8528 83.1198 18.5264C82.9406 18.2 82.691 17.9472 82.371 17.768C82.051 17.5824 81.6926 17.4896 81.2958 17.4896C80.899 17.4896 80.5406 17.5824 80.2206 17.768C79.9006 17.9472 79.6478 18.2 79.4622 18.5264C79.283 18.8528 79.1934 19.224 79.1934 19.64C79.1934 20.056 79.283 20.4272 79.4622 20.7536C79.6478 21.08 79.9006 21.336 80.2206 21.5216C80.5406 21.7008 80.899 21.7904 81.2958 21.7904ZM95.0142 16.28V23H93.4686V17.5472H90.435V23H88.8894V16.28H95.0142ZM101.883 21.752V23H96.68V16.28H101.758V17.528H98.2256V18.9872H101.346V20.1968H98.2256V21.752H101.883ZM106.048 16.28C106.643 16.28 107.159 16.3792 107.594 16.5776C108.035 16.776 108.375 17.0576 108.611 17.4224C108.848 17.7872 108.967 18.2192 108.967 18.7184C108.967 19.2112 108.848 19.6432 108.611 20.0144C108.375 20.3792 108.035 20.6608 107.594 20.8592C107.159 21.0512 106.643 21.1472 106.048 21.1472H104.695V23H103.139V16.28H106.048ZM105.962 19.88C106.429 19.88 106.784 19.7808 107.027 19.5824C107.271 19.3776 107.392 19.0896 107.392 18.7184C107.392 18.3408 107.271 18.0528 107.027 17.8544C106.784 17.6496 106.429 17.5472 105.962 17.5472H104.695V19.88H105.962ZM115.196 21.752V23H109.993V16.28H115.071V17.528H111.538V18.9872H114.658V20.1968H111.538V21.752H115.196ZM121.108 19.496C121.518 19.6176 121.831 19.816 122.049 20.0912C122.266 20.3664 122.375 20.7056 122.375 21.1088C122.375 21.704 122.148 22.168 121.694 22.5008C121.246 22.8336 120.602 23 119.764 23H116.452V16.28H119.582C120.362 16.28 120.97 16.4304 121.406 16.7312C121.841 17.032 122.058 17.4608 122.058 18.0176C122.058 18.3504 121.975 18.6448 121.809 18.9008C121.642 19.1504 121.409 19.3488 121.108 19.496ZM117.998 19.064H119.447C119.786 19.064 120.042 18.9968 120.215 18.8624C120.388 18.7216 120.474 18.5168 120.474 18.248C120.474 17.9856 120.385 17.784 120.206 17.6432C120.033 17.5024 119.78 17.432 119.447 17.432H117.998V19.064ZM119.706 21.848C120.436 21.848 120.801 21.56 120.801 20.984C120.801 20.4272 120.436 20.1488 119.706 20.1488H117.998V21.848H119.706ZM128.808 21.752V23H123.605V16.28H128.683V17.528H125.151V18.9872H128.271V20.1968H125.151V21.752H128.808ZM136.996 21.7328V24.392H135.556V23H130.813V24.392H129.373L129.383 21.7328H129.652C130.055 21.72 130.34 21.4256 130.506 20.8496C130.672 20.2736 130.775 19.4512 130.813 18.3824L130.89 16.28H136.055V21.7328H136.996ZM132.186 18.5264C132.154 19.3264 132.087 19.9984 131.984 20.5424C131.882 21.08 131.725 21.4768 131.514 21.7328H134.519V17.5472H132.215L132.186 18.5264ZM143.246 21.752V23H138.043V16.28H143.121V17.528H139.588V18.9872H142.708V20.1968H139.588V21.752H143.246ZM150.665 16.28V23H149.11V20.2448H146.057V23H144.502V16.28H146.057V18.9296H149.11V16.28H150.665ZM155.555 23.1152C154.858 23.1152 154.227 22.9648 153.664 22.664C153.107 22.3632 152.669 21.9504 152.349 21.4256C152.035 20.8944 151.878 20.2992 151.878 19.64C151.878 18.9808 152.035 18.3888 152.349 17.864C152.669 17.3328 153.107 16.9168 153.664 16.616C154.227 16.3152 154.858 16.1648 155.555 16.1648C156.253 16.1648 156.88 16.3152 157.437 16.616C157.994 16.9168 158.432 17.3328 158.752 17.864C159.072 18.3888 159.232 18.9808 159.232 19.64C159.232 20.2992 159.072 20.8944 158.752 21.4256C158.432 21.9504 157.994 22.3632 157.437 22.664C156.88 22.9648 156.253 23.1152 155.555 23.1152ZM155.555 21.7904C155.952 21.7904 156.31 21.7008 156.63 21.5216C156.95 21.336 157.2 21.08 157.379 20.7536C157.565 20.4272 157.658 20.056 157.658 19.64C157.658 19.224 157.565 18.8528 157.379 18.5264C157.2 18.2 156.95 17.9472 156.63 17.768C156.31 17.5824 155.952 17.4896 155.555 17.4896C155.158 17.4896 154.8 17.5824 154.48 17.768C154.16 17.9472 153.907 18.2 153.722 18.5264C153.542 18.8528 153.453 19.224 153.453 19.64C153.453 20.056 153.542 20.4272 153.722 20.7536C153.907 21.08 154.16 21.336 154.48 21.5216C154.8 21.7008 155.158 21.7904 155.555 21.7904ZM21.0139 35.1152C20.3291 35.1152 19.7083 34.968 19.1515 34.6736C18.6011 34.3728 18.1659 33.96 17.8459 33.4352C17.5323 32.904 17.3755 32.3056 17.3755 31.64C17.3755 30.9744 17.5323 30.3792 17.8459 29.8544C18.1659 29.3232 18.6011 28.9104 19.1515 28.616C19.7083 28.3152 20.3323 28.1648 21.0235 28.1648C21.6059 28.1648 22.1307 28.2672 22.5979 28.472C23.0715 28.6768 23.4683 28.9712 23.7883 29.3552L22.7899 30.2768C22.3355 29.752 21.7723 29.4896 21.1003 29.4896C20.6843 29.4896 20.3131 29.5824 19.9867 29.768C19.6603 29.9472 19.4043 30.2 19.2187 30.5264C19.0395 30.8528 18.9499 31.224 18.9499 31.64C18.9499 32.056 19.0395 32.4272 19.2187 32.7536C19.4043 33.08 19.6603 33.336 19.9867 33.5216C20.3131 33.7008 20.6843 33.7904 21.1003 33.7904C21.7723 33.7904 22.3355 33.5248 22.7899 32.9936L23.7883 33.9152C23.4683 34.3056 23.0715 34.6032 22.5979 34.808C22.1243 35.0128 21.5963 35.1152 21.0139 35.1152ZM27.7107 28.28C28.3059 28.28 28.8211 28.3792 29.2563 28.5776C29.6979 28.776 30.0371 29.0576 30.2739 29.4224C30.5107 29.7872 30.6291 30.2192 30.6291 30.7184C30.6291 31.2112 30.5107 31.6432 30.2739 32.0144C30.0371 32.3792 29.6979 32.6608 29.2563 32.8592C28.8211 33.0512 28.3059 33.1472 27.7107 33.1472H26.3571V35H24.8019V28.28H27.7107ZM27.6243 31.88C28.0915 31.88 28.4467 31.7808 28.6899 31.5824C28.9331 31.3776 29.0547 31.0896 29.0547 30.7184C29.0547 30.3408 28.9331 30.0528 28.6899 29.8544C28.4467 29.6496 28.0915 29.5472 27.6243 29.5472H26.3571V31.88H27.6243ZM36.8582 33.752V35H31.655V28.28H36.7334V29.528H33.2006V30.9872H36.3206V32.1968H33.2006V33.752H36.8582ZM45.0456 33.7328V36.392H43.6056V35H38.8632V36.392H37.4232L37.4328 33.7328H37.7016C38.1048 33.72 38.3896 33.4256 38.556 32.8496C38.7224 32.2736 38.8248 31.4512 38.8632 30.3824L38.94 28.28H44.1048V33.7328H45.0456ZM40.236 30.5264C40.204 31.3264 40.1368 31.9984 40.0344 32.5424C39.932 33.08 39.7752 33.4768 39.564 33.7328H42.5688V29.5472H40.2648L40.236 30.5264ZM49.2701 35.1152C48.5853 35.1152 47.9645 34.968 47.4077 34.6736C46.8573 34.3728 46.4221 33.96 46.1021 33.4352C45.7885 32.904 45.6317 32.3056 45.6317 31.64C45.6317 30.9744 45.7885 30.3792 46.1021 29.8544C46.4221 29.3232 46.8573 28.9104 47.4077 28.616C47.9645 28.3152 48.5885 28.1648 49.2797 28.1648C49.8621 28.1648 50.3869 28.2672 50.8541 28.472C51.3277 28.6768 51.7245 28.9712 52.0445 29.3552L51.0461 30.2768C50.5917 29.752 50.0285 29.4896 49.3565 29.4896C48.9405 29.4896 48.5693 29.5824 48.2429 29.768C47.9165 29.9472 47.6605 30.2 47.4749 30.5264C47.2957 30.8528 47.2061 31.224 47.2061 31.64C47.2061 32.056 47.2957 32.4272 47.4749 32.7536C47.6605 33.08 47.9165 33.336 48.2429 33.5216C48.5693 33.7008 48.9405 33.7904 49.3565 33.7904C50.0285 33.7904 50.5917 33.5248 51.0461 32.9936L52.0445 33.9152C51.7245 34.3056 51.3277 34.6032 50.8541 34.808C50.3805 35.0128 49.8525 35.1152 49.2701 35.1152ZM58.1285 29.5472H55.9781V35H54.4421V29.5472H52.3013V28.28H58.1285V29.5472ZM63.761 31.496C64.1706 31.6176 64.4842 31.816 64.7018 32.0912C64.9194 32.3664 65.0282 32.7056 65.0282 33.1088C65.0282 33.704 64.801 34.168 64.3466 34.5008C63.8986 34.8336 63.2554 35 62.417 35H59.105V28.28H62.2346C63.0154 28.28 63.6234 28.4304 64.0586 28.7312C64.4938 29.032 64.7114 29.4608 64.7114 30.0176C64.7114 30.3504 64.6282 30.6448 64.4618 30.9008C64.2954 31.1504 64.0618 31.3488 63.761 31.496ZM60.6506 31.064H62.1002C62.4394 31.064 62.6954 30.9968 62.8682 30.8624C63.041 30.7216 63.1274 30.5168 63.1274 30.248C63.1274 29.9856 63.0378 29.784 62.8586 29.6432C62.6858 29.5024 62.433 29.432 62.1002 29.432H60.6506V31.064ZM62.3594 33.848C63.089 33.848 63.4538 33.56 63.4538 32.984C63.4538 32.4272 63.089 32.1488 62.3594 32.1488H60.6506V33.848H62.3594ZM72.7977 31.496C73.1881 31.6304 73.4921 31.8416 73.7097 32.1296C73.9337 32.4112 74.0457 32.7408 74.0457 33.1184C74.0457 33.528 73.9113 33.8832 73.6425 34.184C73.3737 34.4848 73.0089 34.7152 72.5481 34.8752C72.0937 35.0352 71.5945 35.1152 71.0505 35.1152C70.5897 35.1152 70.1289 35.0576 69.6681 34.9424C69.2137 34.8272 68.7817 34.6512 68.3721 34.4144L68.8521 33.3008C69.1465 33.48 69.4697 33.6176 69.8217 33.7136C70.1801 33.8032 70.5289 33.848 70.8681 33.848C71.3289 33.848 71.7097 33.7648 72.0105 33.5984C72.3177 33.432 72.4713 33.1984 72.4713 32.8976C72.4713 32.648 72.3657 32.4592 72.1545 32.3312C71.9497 32.2032 71.6681 32.1392 71.3097 32.1392H69.6681V30.968H71.1945C71.5081 30.968 71.7513 30.904 71.9241 30.776C72.1033 30.648 72.1929 30.472 72.1929 30.248C72.1929 29.9856 72.0649 29.7808 71.8089 29.6336C71.5593 29.4864 71.2361 29.4128 70.8393 29.4128C70.5449 29.4128 70.2409 29.4544 69.9273 29.5376C69.6137 29.6144 69.3161 29.7328 69.0345 29.8928L68.5641 28.6832C69.2745 28.3184 70.0425 28.136 70.8681 28.136C71.3929 28.136 71.8761 28.2128 72.3177 28.3664C72.7593 28.52 73.1113 28.744 73.3737 29.0384C73.6361 29.3328 73.7673 29.6752 73.7673 30.0656C73.7673 30.3856 73.6809 30.6704 73.5081 30.92C73.3353 31.1696 73.0985 31.3616 72.7977 31.496ZM79.8273 33.56H76.7073L76.1121 35H74.5185L77.5137 28.28H79.0497L82.0545 35H80.4225L79.8273 33.56ZM79.3377 32.3792L78.2721 29.8064L77.2065 32.3792H79.3377ZM90.3204 31.496C90.73 31.6176 91.0436 31.816 91.2612 32.0912C91.4788 32.3664 91.5876 32.7056 91.5876 33.1088C91.5876 33.704 91.3604 34.168 90.906 34.5008C90.458 34.8336 89.8148 35 88.9764 35H85.6644V28.28H88.794C89.5748 28.28 90.1828 28.4304 90.618 28.7312C91.0532 29.032 91.2708 29.4608 91.2708 30.0176C91.2708 30.3504 91.1876 30.6448 91.0212 30.9008C90.8548 31.1504 90.6212 31.3488 90.3204 31.496ZM87.21 31.064H88.6596C88.9988 31.064 89.2548 30.9968 89.4276 30.8624C89.6004 30.7216 89.6868 30.5168 89.6868 30.248C89.6868 29.9856 89.5972 29.784 89.418 29.6432C89.2452 29.5024 88.9924 29.432 88.6596 29.432H87.21V31.064ZM88.9188 33.848C89.6484 33.848 90.0132 33.56 90.0132 32.984C90.0132 32.4272 89.6484 32.1488 88.9188 32.1488H87.21V33.848H88.9188ZM98.0207 33.752V35H92.8175V28.28H97.8959V29.528H94.3631V30.9872H97.4831V32.1968H94.3631V33.752H98.0207ZM102.436 35.1152C101.751 35.1152 101.13 34.968 100.573 34.6736C100.023 34.3728 99.5878 33.96 99.2678 33.4352C98.9542 32.904 98.7974 32.3056 98.7974 31.64C98.7974 30.9744 98.9542 30.3792 99.2678 29.8544C99.5878 29.3232 100.023 28.9104 100.573 28.616C101.13 28.3152 101.754 28.1648 102.445 28.1648C103.028 28.1648 103.553 28.2672 104.02 28.472C104.493 28.6768 104.89 28.9712 105.21 29.3552L104.212 30.2768C103.757 29.752 103.194 29.4896 102.522 29.4896C102.106 29.4896 101.735 29.5824 101.409 29.768C101.082 29.9472 100.826 30.2 100.641 30.5264C100.461 30.8528 100.372 31.224 100.372 31.64C100.372 32.056 100.461 32.4272 100.641 32.7536C100.826 33.08 101.082 33.336 101.409 33.5216C101.735 33.7008 102.106 33.7904 102.522 33.7904C103.194 33.7904 103.757 33.5248 104.212 32.9936L105.21 33.9152C104.89 34.3056 104.493 34.6032 104.02 34.808C103.546 35.0128 103.018 35.1152 102.436 35.1152ZM109.478 30.488C110.297 30.488 110.925 30.6704 111.36 31.0352C111.801 31.4 112.022 31.9408 112.022 32.6576C112.022 33.4192 111.779 34.0016 111.293 34.4048C110.813 34.8016 110.134 35 109.257 35H106.224V28.28H107.769V30.488H109.478ZM109.171 33.848C109.574 33.848 109.888 33.7488 110.112 33.5504C110.342 33.352 110.457 33.064 110.457 32.6864C110.457 31.9888 110.029 31.64 109.171 31.64H107.769V33.848H109.171ZM121.986 28.28V35H120.44V29.5472H117.407V35H115.861V28.28H121.986ZM128.855 33.752V35H123.652V28.28H128.73V29.528H125.198V30.9872H128.318V32.1968H125.198V33.752H128.855ZM133.02 28.28C133.615 28.28 134.13 28.3792 134.566 28.5776C135.007 28.776 135.346 29.0576 135.583 29.4224C135.82 29.7872 135.938 30.2192 135.938 30.7184C135.938 31.2112 135.82 31.6432 135.583 32.0144C135.346 32.3792 135.007 32.6608 134.566 32.8592C134.13 33.0512 133.615 33.1472 133.02 33.1472H131.666V35H130.111V28.28H133.02ZM132.934 31.88C133.401 31.88 133.756 31.7808 133.999 31.5824C134.242 31.3776 134.364 31.0896 134.364 30.7184C134.364 30.3408 134.242 30.0528 133.999 29.8544C133.756 29.6496 133.401 29.5472 132.934 29.5472H131.666V31.88H132.934ZM136.964 28.28H138.51V32.6576L141.716 28.28H143.176V35H141.64V30.632L138.433 35H136.964V28.28ZM148.055 35.1152C147.358 35.1152 146.727 34.9648 146.164 34.664C145.607 34.3632 145.169 33.9504 144.849 33.4256C144.535 32.8944 144.378 32.2992 144.378 31.64C144.378 30.9808 144.535 30.3888 144.849 29.864C145.169 29.3328 145.607 28.9168 146.164 28.616C146.727 28.3152 147.358 28.1648 148.055 28.1648C148.753 28.1648 149.38 28.3152 149.937 28.616C150.494 28.9168 150.932 29.3328 151.252 29.864C151.572 30.3888 151.732 30.9808 151.732 31.64C151.732 32.2992 151.572 32.8944 151.252 33.4256C150.932 33.9504 150.494 34.3632 149.937 34.664C149.38 34.9648 148.753 35.1152 148.055 35.1152ZM148.055 33.7904C148.452 33.7904 148.81 33.7008 149.13 33.5216C149.45 33.336 149.7 33.08 149.879 32.7536C150.065 32.4272 150.158 32.056 150.158 31.64C150.158 31.224 150.065 30.8528 149.879 30.5264C149.7 30.2 149.45 29.9472 149.13 29.768C148.81 29.5824 148.452 29.4896 148.055 29.4896C147.658 29.4896 147.3 29.5824 146.98 29.768C146.66 29.9472 146.407 30.2 146.222 30.5264C146.042 30.8528 145.953 31.224 145.953 31.64C145.953 32.056 146.042 32.4272 146.222 32.7536C146.407 33.08 146.66 33.336 146.98 33.5216C147.3 33.7008 147.658 33.7904 148.055 33.7904ZM159.674 33.7328V36.392H158.234V35H153.491V36.392H152.051L152.061 33.7328H152.33C152.733 33.72 153.018 33.4256 153.184 32.8496C153.351 32.2736 153.453 31.4512 153.491 30.3824L153.568 28.28H158.733V33.7328H159.674ZM154.864 30.5264C154.832 31.3264 154.765 31.9984 154.663 32.5424C154.56 33.08 154.403 33.4768 154.192 33.7328H157.197V29.5472H154.893L154.864 30.5264Z" fill="#39B2BA"/>
<defs>
<filter id="filter0_d_421_237" x="0" y="0" width="177.014" height="122" filterUnits="userSpaceOnUse" color-interpolation-filters="sRGB">
<feFlood flood-opacity="0" result="BackgroundImageFix"/>
<feColorMatrix in="SourceAlpha" type="matrix" values="0 0 0 0 0 0 0 0 0 0 0 0 0 0 0 0 0 0 127 0" result="hardAlpha"/>
<feOffset dy="2"/>
<feGaussianBlur stdDeviation="2"/>
<feComposite in2="hardAlpha" operator="out"/>
<feColorMatrix type="matrix" values="0 0 0 0 0 0 0 0 0 0 0 0 0 0 0 0 0 0 0.25 0"/>
<feBlend mode="normal" in2="BackgroundImageFix" result="effect1_dropShadow_421_237"/>
<feBlend mode="normal" in="SourceGraphic" in2="effect1_dropShadow_421_237" result="shape"/>
</filter>
</defs>
</svg>
