<svg width="178" height="122" viewBox="0 0 178 122" fill="none" xmlns="http://www.w3.org/2000/svg">
<g filter="url(#filter0_d_421_229)">
<rect x="4.0145" y="2" width="169.014" height="114" rx="5" fill="white"/>
</g>
<mask id="mask0_421_229" style="mask-type:alpha" maskUnits="userSpaceOnUse" x="4" y="2" width="170" height="114">
<rect x="4.0145" y="2" width="169.014" height="114" rx="5" fill="white"/>
</mask>
<g mask="url(#mask0_421_229)">
<path d="M172.659 92.2695C168.287 94.1947 164.442 95.7733 160.948 96.9476C163.583 95.3112 166.413 93.3861 169.536 91.1722C176.036 86.4556 189.484 63.2963 189.484 63.2963C192.119 60.4278 196.627 62.3915 196.686 66.646C196.697 66.7805 196.697 66.9157 196.686 67.0503C196.686 67.339 196.335 68.4171 195.769 70.1112C192.528 73.923 178.944 89.4396 172.659 92.2695ZM177.109 77.1187C177.339 76.359 177.528 75.5879 177.675 74.8086C177.686 74.7126 177.686 74.6157 177.675 74.5198C177.715 73.8801 177.549 73.2442 177.201 72.7029C176.853 72.1616 176.341 71.7426 175.737 71.5057C175.133 71.2687 174.469 71.226 173.839 71.3835C173.209 71.5411 172.646 71.8908 172.23 72.3829C172.23 72.3829 163.095 90.1326 158.45 93.9444C156.205 95.8695 154.175 97.3134 152.301 98.661C154.8 97.6214 157.591 96.3123 160.753 94.6374C165.34 92.2503 174.845 80.1412 177.168 77.1187H177.109ZM164.852 82.5861C165.05 81.955 165.206 81.312 165.32 80.661C165.33 80.5779 165.33 80.4938 165.32 80.4107C165.358 79.8606 165.217 79.3129 164.916 78.848C164.616 78.383 164.172 78.0253 163.65 77.8272C163.129 77.6292 162.556 77.6011 162.017 77.7473C161.478 77.8935 161.001 78.2062 160.655 78.6396C160.655 78.6396 153.004 93.8481 149.061 97.1209C147.11 98.7187 145.47 100.047 143.869 101.202C145.997 100.297 148.359 99.1615 151.052 97.6984C154.878 95.5423 162.9 85.185 164.852 82.5861ZM18.0157 122.167C18.0157 122.167 37.9634 104.841 79.2835 122.167C86.2529 125.122 93.6492 126.98 101.203 127.673C103.994 127.904 106.804 128 109.595 128H118.281C131.817 127.949 145.275 125.964 158.235 122.109L158.859 121.917L166.882 118.066C197.779 97.2364 206.25 77.0995 206.874 75.7134C206.925 75.5768 206.958 75.4345 206.972 75.2899C207.597 70.785 203.166 67.5893 199.906 70.0727C199.906 70.0727 181.911 91.384 174.259 94.8492C152.789 104.648 142.913 104.282 133.271 102.896C128.059 102.305 122.899 101.333 117.832 99.9893C113.928 98.2759 104.404 94.4257 104.404 94.4257C109.342 89.8439 118.066 87.2449 124.215 86.0513L135.086 83.953C149.94 79.5251 140.942 70.862 137.487 69.2449C130.808 66.3879 123.688 64.6631 116.427 64.1433C62.4783 62.4492 31.2491 100.663 18.0157 122.167Z" fill="#AFAFAF" fill-opacity="0.2"/>
<path d="M164.695 2C161.16 2.04566 157.707 3.06003 154.722 4.92983C151.737 6.79962 149.338 9.45118 147.793 12.5882C146.302 9.52613 143.982 6.93057 141.088 5.08897C138.194 3.24736 134.84 2.23155 131.397 2.154C121.014 2.154 112.562 11.1251 112.523 22.3487C112.476 27.0808 114.028 31.6937 116.934 35.4588C121.404 42.6781 148.163 67.0888 148.163 67.0888C148.163 67.0888 174.767 42.9476 180.173 35.1508C182.601 31.5242 183.891 27.2721 183.882 22.9262C183.999 11.4331 175.372 2.05775 164.695 2ZM121.248 34.554C118.767 31.3274 117.442 27.3798 117.481 23.3305C117.481 13.7048 124.742 6.00427 133.622 6.00427C136.612 6.03635 139.526 6.94064 141.996 8.60319C140.442 8.05586 138.805 7.76954 137.155 7.75615C128.274 7.75615 121.033 15.4567 121.014 25.0824C120.975 29.1317 122.3 33.0792 124.781 36.3059C127.786 41.1572 148.007 61.6021 148.007 61.6021C148.007 61.6021 125.073 40.7144 121.248 34.554ZM169.887 7.73689C166.791 7.78808 163.77 8.68396 161.158 10.3252C158.547 11.9665 156.447 14.289 155.092 17.0353C154.422 15.7212 153.583 14.4982 152.594 13.3968C154.069 11.1374 156.089 9.27414 158.474 7.97392C160.858 6.6737 163.533 5.97709 166.257 5.94652C169.345 5.97316 172.357 6.88994 174.923 8.58395C173.303 8.0288 171.602 7.74255 169.887 7.73689Z" fill="#AFAFAF" fill-opacity="0.2"/>
</g>
<path d="M130.686 95.4V101H129.398V96.456H126.87V101H125.582V95.4H130.686ZM134.499 95.4C134.995 95.4 135.424 95.4827 135.787 95.648C136.155 95.8133 136.437 96.048 136.635 96.352C136.832 96.656 136.931 97.016 136.931 97.432C136.931 97.8427 136.832 98.2027 136.635 98.512C136.437 98.816 136.155 99.0507 135.787 99.216C135.424 99.376 134.995 99.456 134.499 99.456H133.371V101H132.075V95.4H134.499ZM134.427 98.4C134.816 98.4 135.112 98.3173 135.315 98.152C135.517 97.9813 135.619 97.7413 135.619 97.432C135.619 97.1173 135.517 96.8773 135.315 96.712C135.112 96.5413 134.816 96.456 134.427 96.456H133.371V98.4H134.427ZM140.536 101.096C139.954 101.096 139.429 100.971 138.96 100.72C138.496 100.469 138.13 100.125 137.864 99.688C137.602 99.2453 137.472 98.7493 137.472 98.2C137.472 97.6507 137.602 97.1573 137.864 96.72C138.13 96.2773 138.496 95.9307 138.96 95.68C139.429 95.4293 139.954 95.304 140.536 95.304C141.117 95.304 141.64 95.4293 142.104 95.68C142.568 95.9307 142.933 96.2773 143.2 96.72C143.466 97.1573 143.6 97.6507 143.6 98.2C143.6 98.7493 143.466 99.2453 143.2 99.688C142.933 100.125 142.568 100.469 142.104 100.72C141.64 100.971 141.117 101.096 140.536 101.096ZM140.536 99.992C140.866 99.992 141.165 99.9173 141.432 99.768C141.698 99.6133 141.906 99.4 142.056 99.128C142.21 98.856 142.288 98.5467 142.288 98.2C142.288 97.8533 142.21 97.544 142.056 97.272C141.906 97 141.698 96.7893 141.432 96.64C141.165 96.4853 140.866 96.408 140.536 96.408C140.205 96.408 139.906 96.4853 139.64 96.64C139.373 96.7893 139.162 97 139.008 97.272C138.858 97.544 138.784 97.8533 138.784 98.2C138.784 98.5467 138.858 98.856 139.008 99.128C139.162 99.4 139.373 99.6133 139.64 99.768C139.906 99.9173 140.205 99.992 140.536 99.992ZM148.934 99.96V101H144.598V95.4H148.83V96.44H145.886V97.656H148.486V98.664H145.886V99.96H148.934ZM152.149 98.744H151.253V101H149.965V95.4H151.253V97.664H152.181L153.653 95.4H155.021L153.189 98.104L155.077 101H153.605L152.149 98.744ZM159.901 96.456H158.109V101H156.829V96.456H155.045V95.4H159.901V96.456ZM164.226 99.8H161.626L161.13 101H159.802L162.298 95.4H163.578L166.082 101H164.722L164.226 99.8ZM163.818 98.816L162.93 96.672L162.042 98.816H163.818Z" fill="#39B2BA"/>
<path d="M146.612 86.04V90H130.742V86.85L138.842 79.2C139.702 78.38 140.282 77.68 140.582 77.1C140.882 76.5 141.032 75.91 141.032 75.33C141.032 74.49 140.742 73.85 140.162 73.41C139.602 72.95 138.772 72.72 137.672 72.72C136.752 72.72 135.922 72.9 135.182 73.26C134.442 73.6 133.822 74.12 133.322 74.82L129.782 72.54C130.602 71.32 131.732 70.37 133.172 69.69C134.612 68.99 136.262 68.64 138.122 68.64C139.682 68.64 141.042 68.9 142.202 69.42C143.382 69.92 144.292 70.64 144.932 71.58C145.592 72.5 145.922 73.59 145.922 74.85C145.922 75.99 145.682 77.06 145.202 78.06C144.722 79.06 143.792 80.2 142.412 81.48L137.582 86.04H146.612ZM164.308 86.04V90H148.438V86.85L156.538 79.2C157.398 78.38 157.978 77.68 158.278 77.1C158.578 76.5 158.728 75.91 158.728 75.33C158.728 74.49 158.438 73.85 157.858 73.41C157.298 72.95 156.468 72.72 155.368 72.72C154.448 72.72 153.618 72.9 152.878 73.26C152.138 73.6 151.518 74.12 151.018 74.82L147.478 72.54C148.298 71.32 149.428 70.37 150.868 69.69C152.308 68.99 153.958 68.64 155.818 68.64C157.378 68.64 158.738 68.9 159.898 69.42C161.078 69.92 161.988 70.64 162.628 71.58C163.288 72.5 163.618 73.59 163.618 74.85C163.618 75.99 163.378 77.06 162.898 78.06C162.418 79.06 161.488 80.2 160.108 81.48L155.278 86.04H164.308Z" fill="#AFAFAF"/>
<path d="M22.7356 20.35C23.1623 20.4767 23.4889 20.6833 23.7156 20.97C23.9423 21.2567 24.0556 21.61 24.0556 22.03C24.0556 22.65 23.8189 23.1333 23.3456 23.48C22.8789 23.8267 22.2089 24 21.3356 24H17.8856V17H21.1456C21.9589 17 22.5923 17.1567 23.0456 17.47C23.4989 17.7833 23.7256 18.23 23.7256 18.81C23.7256 19.1567 23.6389 19.4633 23.4656 19.73C23.2923 19.99 23.0489 20.1967 22.7356 20.35ZM19.4956 19.9H21.0056C21.3589 19.9 21.6256 19.83 21.8056 19.69C21.9856 19.5433 22.0756 19.33 22.0756 19.05C22.0756 18.7767 21.9823 18.5667 21.7956 18.42C21.6156 18.2733 21.3523 18.2 21.0056 18.2H19.4956V19.9ZM21.2756 22.8C22.0356 22.8 22.4156 22.5 22.4156 21.9C22.4156 21.32 22.0356 21.03 21.2756 21.03H19.4956V22.8H21.2756ZM28.6468 24.12C27.9334 24.12 27.2868 23.9667 26.7068 23.66C26.1334 23.3467 25.6801 22.9167 25.3468 22.37C25.0201 21.8167 24.8568 21.1933 24.8568 20.5C24.8568 19.8067 25.0201 19.1867 25.3468 18.64C25.6801 18.0867 26.1334 17.6567 26.7068 17.35C27.2868 17.0367 27.9368 16.88 28.6568 16.88C29.2634 16.88 29.8101 16.9867 30.2968 17.2C30.7901 17.4133 31.2034 17.72 31.5368 18.12L30.4968 19.08C30.0234 18.5333 29.4368 18.26 28.7368 18.26C28.3034 18.26 27.9168 18.3567 27.5768 18.55C27.2368 18.7367 26.9701 19 26.7768 19.34C26.5901 19.68 26.4968 20.0667 26.4968 20.5C26.4968 20.9333 26.5901 21.32 26.7768 21.66C26.9701 22 27.2368 22.2667 27.5768 22.46C27.9168 22.6467 28.3034 22.74 28.7368 22.74C29.4368 22.74 30.0234 22.4633 30.4968 21.91L31.5368 22.87C31.2034 23.2767 30.7901 23.5867 30.2968 23.8C29.8034 24.0133 29.2534 24.12 28.6468 24.12ZM38.0126 22.7V24H32.5926V17H37.8826V18.3H34.2026V19.82H37.4526V21.08H34.2026V22.7H38.0126ZM44.2511 18.32H40.9211L40.9311 24H39.3211V17H44.2611L44.2511 18.32ZM47.876 24.12C47.1493 24.12 46.4927 23.9633 45.906 23.65C45.326 23.3367 44.8693 22.9067 44.536 22.36C44.2093 21.8067 44.046 21.1867 44.046 20.5C44.046 19.8133 44.2093 19.1967 44.536 18.65C44.8693 18.0967 45.326 17.6633 45.906 17.35C46.4927 17.0367 47.1493 16.88 47.876 16.88C48.6027 16.88 49.256 17.0367 49.836 17.35C50.416 17.6633 50.8727 18.0967 51.206 18.65C51.5393 19.1967 51.706 19.8133 51.706 20.5C51.706 21.1867 51.5393 21.8067 51.206 22.36C50.8727 22.9067 50.416 23.3367 49.836 23.65C49.256 23.9633 48.6027 24.12 47.876 24.12ZM47.876 22.74C48.2893 22.74 48.6627 22.6467 48.996 22.46C49.3293 22.2667 49.5893 22 49.776 21.66C49.9693 21.32 50.066 20.9333 50.066 20.5C50.066 20.0667 49.9693 19.68 49.776 19.34C49.5893 19 49.3293 18.7367 48.996 18.55C48.6627 18.3567 48.2893 18.26 47.876 18.26C47.4627 18.26 47.0893 18.3567 46.756 18.55C46.4227 18.7367 46.1593 19 45.966 19.34C45.7793 19.68 45.686 20.0667 45.686 20.5C45.686 20.9333 45.7793 21.32 45.966 21.66C46.1593 22 46.4227 22.2667 46.756 22.46C47.0893 22.6467 47.4627 22.74 47.876 22.74ZM62.166 17V24H60.556V18.32H57.396V24H55.786V17H62.166ZM66.9312 17C67.5512 17 68.0879 17.1033 68.5412 17.31C69.0012 17.5167 69.3546 17.81 69.6012 18.19C69.8479 18.57 69.9712 19.02 69.9712 19.54C69.9712 20.0533 69.8479 20.5033 69.6012 20.89C69.3546 21.27 69.0012 21.5633 68.5412 21.77C68.0879 21.97 67.5512 22.07 66.9312 22.07H65.5212V24H63.9012V17H66.9312ZM66.8412 20.75C67.3279 20.75 67.6979 20.6467 67.9512 20.44C68.2046 20.2267 68.3312 19.9267 68.3312 19.54C68.3312 19.1467 68.2046 18.8467 67.9512 18.64C67.6979 18.4267 67.3279 18.32 66.8412 18.32H65.5212V20.75H66.8412ZM74.4775 24.12C73.7509 24.12 73.0942 23.9633 72.5075 23.65C71.9275 23.3367 71.4709 22.9067 71.1375 22.36C70.8109 21.8067 70.6475 21.1867 70.6475 20.5C70.6475 19.8133 70.8109 19.1967 71.1375 18.65C71.4709 18.0967 71.9275 17.6633 72.5075 17.35C73.0942 17.0367 73.7509 16.88 74.4775 16.88C75.2042 16.88 75.8575 17.0367 76.4375 17.35C77.0175 17.6633 77.4742 18.0967 77.8075 18.65C78.1409 19.1967 78.3075 19.8133 78.3075 20.5C78.3075 21.1867 78.1409 21.8067 77.8075 22.36C77.4742 22.9067 77.0175 23.3367 76.4375 23.65C75.8575 23.9633 75.2042 24.12 74.4775 24.12ZM74.4775 22.74C74.8909 22.74 75.2642 22.6467 75.5975 22.46C75.9309 22.2667 76.1909 22 76.3775 21.66C76.5709 21.32 76.6675 20.9333 76.6675 20.5C76.6675 20.0667 76.5709 19.68 76.3775 19.34C76.1909 19 75.9309 18.7367 75.5975 18.55C75.2642 18.3567 74.8909 18.26 74.4775 18.26C74.0642 18.26 73.6909 18.3567 73.3575 18.55C73.0242 18.7367 72.7609 19 72.5675 19.34C72.3809 19.68 72.2875 20.0667 72.2875 20.5C72.2875 20.9333 72.3809 21.32 72.5675 21.66C72.7609 22 73.0242 22.2667 73.3575 22.46C73.6909 22.6467 74.0642 22.74 74.4775 22.74ZM84.9755 22.7V24H79.5555V17H84.8455V18.3H81.1655V19.82H84.4155V21.08H81.1655V22.7H84.9755ZM88.994 21.18H87.874V24H86.264V17H87.874V19.83H89.034L90.874 17H92.584L90.294 20.38L92.654 24H90.814L88.994 21.18ZM98.6848 18.32H96.4448V24H94.8448V18.32H92.6148V17H98.6848V18.32ZM102.944 24.12C102.218 24.12 101.561 23.9633 100.974 23.65C100.394 23.3367 99.9377 22.9067 99.6043 22.36C99.2777 21.8067 99.1143 21.1867 99.1143 20.5C99.1143 19.8133 99.2777 19.1967 99.6043 18.65C99.9377 18.0967 100.394 17.6633 100.974 17.35C101.561 17.0367 102.218 16.88 102.944 16.88C103.671 16.88 104.324 17.0367 104.904 17.35C105.484 17.6633 105.941 18.0967 106.274 18.65C106.608 19.1967 106.774 19.8133 106.774 20.5C106.774 21.1867 106.608 21.8067 106.274 22.36C105.941 22.9067 105.484 23.3367 104.904 23.65C104.324 23.9633 103.671 24.12 102.944 24.12ZM102.944 22.74C103.358 22.74 103.731 22.6467 104.064 22.46C104.398 22.2667 104.658 22 104.844 21.66C105.038 21.32 105.134 20.9333 105.134 20.5C105.134 20.0667 105.038 19.68 104.844 19.34C104.658 19 104.398 18.7367 104.064 18.55C103.731 18.3567 103.358 18.26 102.944 18.26C102.531 18.26 102.158 18.3567 101.824 18.55C101.491 18.7367 101.228 19 101.034 19.34C100.848 19.68 100.754 20.0667 100.754 20.5C100.754 20.9333 100.848 21.32 101.034 21.66C101.228 22 101.491 22.2667 101.824 22.46C102.158 22.6467 102.531 22.74 102.944 22.74ZM112.872 20.35C113.299 20.4767 113.626 20.6833 113.852 20.97C114.079 21.2567 114.192 21.61 114.192 22.03C114.192 22.65 113.956 23.1333 113.482 23.48C113.016 23.8267 112.346 24 111.472 24H108.022V17H111.282C112.096 17 112.729 17.1567 113.182 17.47C113.636 17.7833 113.862 18.23 113.862 18.81C113.862 19.1567 113.776 19.4633 113.602 19.73C113.429 19.99 113.186 20.1967 112.872 20.35ZM109.632 19.9H111.142C111.496 19.9 111.762 19.83 111.942 19.69C112.122 19.5433 112.212 19.33 112.212 19.05C112.212 18.7767 112.119 18.5667 111.932 18.42C111.752 18.2733 111.489 18.2 111.142 18.2H109.632V19.9ZM111.412 22.8C112.172 22.8 112.552 22.5 112.552 21.9C112.552 21.32 112.172 21.03 111.412 21.03H109.632V22.8H111.412ZM24.2656 29V36H22.6556V30.32H19.4956V36H17.8856V29H24.2656ZM29.3408 36.12C28.6142 36.12 27.9575 35.9633 27.3708 35.65C26.7908 35.3367 26.3342 34.9067 26.0008 34.36C25.6742 33.8067 25.5108 33.1867 25.5108 32.5C25.5108 31.8133 25.6742 31.1967 26.0008 30.65C26.3342 30.0967 26.7908 29.6633 27.3708 29.35C27.9575 29.0367 28.6142 28.88 29.3408 28.88C30.0675 28.88 30.7208 29.0367 31.3008 29.35C31.8808 29.6633 32.3375 30.0967 32.6708 30.65C33.0042 31.1967 33.1708 31.8133 33.1708 32.5C33.1708 33.1867 33.0042 33.8067 32.6708 34.36C32.3375 34.9067 31.8808 35.3367 31.3008 35.65C30.7208 35.9633 30.0675 36.12 29.3408 36.12ZM29.3408 34.74C29.7542 34.74 30.1275 34.6467 30.4608 34.46C30.7942 34.2667 31.0542 34 31.2408 33.66C31.4342 33.32 31.5308 32.9333 31.5308 32.5C31.5308 32.0667 31.4342 31.68 31.2408 31.34C31.0542 31 30.7942 30.7367 30.4608 30.55C30.1275 30.3567 29.7542 30.26 29.3408 30.26C28.9275 30.26 28.5542 30.3567 28.2208 30.55C27.8875 30.7367 27.6242 31 27.4308 31.34C27.2442 31.68 27.1508 32.0667 27.1508 32.5C27.1508 32.9333 27.2442 33.32 27.4308 33.66C27.6242 34 27.8875 34.2667 28.2208 34.46C28.5542 34.6467 28.9275 34.74 29.3408 34.74ZM40.4635 29V36H38.8635V30.32H36.4635L36.4135 31.78C36.3802 32.7733 36.3002 33.58 36.1735 34.2C36.0468 34.8133 35.8335 35.2867 35.5335 35.62C35.2402 35.9467 34.8268 36.11 34.2935 36.11C34.0735 36.11 33.8068 36.0733 33.4935 36L33.5935 34.63C33.6802 34.6567 33.7768 34.67 33.8835 34.67C34.2702 34.67 34.5402 34.4433 34.6935 33.99C34.8468 33.53 34.9435 32.8133 34.9835 31.84L35.0835 29H40.4635ZM48.5318 29L45.5518 34.54C45.2651 35.0733 44.9184 35.4767 44.5118 35.75C44.1118 36.0233 43.6751 36.16 43.2018 36.16C42.8351 36.16 42.4551 36.08 42.0618 35.92L42.4518 34.69C42.7318 34.7767 42.9651 34.82 43.1518 34.82C43.3518 34.82 43.5318 34.7733 43.6918 34.68C43.8518 34.58 43.9984 34.4267 44.1318 34.22L44.1918 34.14L41.4318 29H43.1618L45.0218 32.76L46.9418 29H48.5318ZM55.1981 29V36H53.5981V33.48C52.9914 33.7 52.4281 33.81 51.9081 33.81C50.9681 33.81 50.2481 33.5867 49.7481 33.14C49.2481 32.6867 48.9981 32.0367 48.9981 31.19V29H50.5981V31.01C50.5981 31.49 50.7248 31.8533 50.9781 32.1C51.2381 32.34 51.6114 32.46 52.0981 32.46C52.6314 32.46 53.1314 32.3567 53.5981 32.15V29H55.1981ZM56.9383 29H58.5483V33.56L61.8883 29H63.4083V36H61.8083V31.45L58.4683 36H56.9383V29ZM71.3424 29V36H69.7424V30.32H67.3424L67.2924 31.78C67.2591 32.7733 67.1791 33.58 67.0524 34.2C66.9257 34.8133 66.7124 35.2867 66.4124 35.62C66.1191 35.9467 65.7057 36.11 65.1724 36.11C64.9524 36.11 64.6857 36.0733 64.3724 36L64.4724 34.63C64.5591 34.6567 64.6557 34.67 64.7624 34.67C65.1491 34.67 65.4191 34.4433 65.5724 33.99C65.7257 33.53 65.8224 32.8133 65.8624 31.84L65.9624 29H71.3424ZM73.0907 29H74.7007V33.56L78.0407 29H79.5607V36H77.9607V31.45L74.6207 36H73.0907V29ZM91.3556 34.68V37.45H89.8556V36H84.9156V37.45H83.4156L83.4256 34.68H83.7056C84.1256 34.6667 84.4223 34.36 84.5956 33.76C84.7689 33.16 84.8756 32.3033 84.9156 31.19L84.9956 29H90.3756V34.68H91.3556ZM86.3456 31.34C86.3123 32.1733 86.2423 32.8733 86.1356 33.44C86.0289 34 85.8656 34.4133 85.6456 34.68H88.7756V30.32H86.3756L86.3456 31.34ZM97.8661 34.7V36H92.4461V29H97.7361V30.3H94.0561V31.82H97.3061V33.08H94.0561V34.7H97.8661ZM105.595 29V36H103.975V33.13H100.795V36H99.1747V29H100.795V31.76H103.975V29H105.595ZM110.738 31.3C111.592 31.3 112.245 31.49 112.698 31.87C113.158 32.25 113.388 32.8133 113.388 33.56C113.388 34.3533 113.135 34.96 112.628 35.38C112.128 35.7933 111.422 36 110.508 36H107.348V29H108.958V31.3H110.738ZM110.418 34.8C110.838 34.8 111.165 34.6967 111.398 34.49C111.638 34.2833 111.758 33.9833 111.758 33.59C111.758 32.8633 111.312 32.5 110.418 32.5H108.958V34.8H110.418ZM119.486 30.32H116.156L116.166 36H114.556V29H119.496L119.486 30.32ZM120.483 29H122.093V33.56L125.433 29H126.953V36H125.353V31.45L122.013 36H120.483V29Z" fill="#39B2BA"/>
<defs>
<filter id="filter0_d_421_229" x="0.0144958" y="0" width="177.014" height="122" filterUnits="userSpaceOnUse" color-interpolation-filters="sRGB">
<feFlood flood-opacity="0" result="BackgroundImageFix"/>
<feColorMatrix in="SourceAlpha" type="matrix" values="0 0 0 0 0 0 0 0 0 0 0 0 0 0 0 0 0 0 127 0" result="hardAlpha"/>
<feOffset dy="2"/>
<feGaussianBlur stdDeviation="2"/>
<feComposite in2="hardAlpha" operator="out"/>
<feColorMatrix type="matrix" values="0 0 0 0 0 0 0 0 0 0 0 0 0 0 0 0 0 0 0.25 0"/>
<feBlend mode="normal" in2="BackgroundImageFix" result="effect1_dropShadow_421_229"/>
<feBlend mode="normal" in="SourceGraphic" in2="effect1_dropShadow_421_229" result="shape"/>
</filter>
</defs>
</svg>
